<svg width="288" height="173" viewBox="0 0 288 173" fill="none" xmlns="http://www.w3.org/2000/svg">
<g opacity="0.2">
<path d="M198.935 55.483C196.756 57.3646 196.4 55.5886 193.52 55.5886C190.64 55.5886 190.65 56.0398 187.77 56.0398C184.89 56.0398 184.9 55.5502 182.029 55.5502C179.159 55.5502 179.159 55.8958 176.279 55.8958C173.399 55.8958 173.399 55.195 170.528 55.195C167.658 55.195 167.264 57.3934 165.085 55.5118C163.204 53.8894 165.21 53.3902 165.21 50.9134C165.21 48.4366 162.685 47.3326 164.567 45.7102C166.746 43.8286 167.648 45.643 170.519 45.643C173.389 45.643 173.389 46.5646 176.269 46.5646C179.149 46.5646 179.14 45.9598 182.01 45.9598C184.88 45.9598 184.88 46.411 187.76 46.411C190.64 46.411 190.64 46.0654 193.511 46.0654C196.381 46.0654 196.9 44.2894 199.079 46.171C200.96 47.7934 198.954 48.4462 199.424 50.8846C199.895 53.323 200.807 53.8702 198.925 55.4926L198.935 55.483Z" fill="#0000FF"/>
</g>
<g opacity="0.2">
<path d="M189.642 45.739C187.894 43.9918 187.885 43.0414 189.632 41.2942C191.379 39.547 192.522 42.7438 194.269 40.9966C196.016 39.2494 192.589 37.8766 194.336 36.1294C196.083 34.3822 197.062 37.4158 198.81 35.6686C200.557 33.9214 197.754 33.1726 199.501 31.4254C201.248 29.6782 202.63 29.2654 204.378 31.003C206.125 32.7406 202.909 33.9118 204.656 35.659C206.403 37.4062 206.662 35.6398 209.139 35.6398C211.616 35.6398 212.758 38.2894 214.506 36.5422C216.253 34.795 212.509 33.1054 214.256 31.3582C216.003 29.611 216.55 30.5518 219.018 30.5518C221.485 30.5518 222.349 29.2942 224.096 31.0318C225.843 32.7694 224.422 33.643 224.422 36.1102C224.422 38.5774 223.779 38.5774 223.779 41.0542C223.779 43.531 225.315 43.867 223.578 45.6142C221.84 47.3614 221.494 45.6814 219.027 45.6814C216.56 45.6814 216.56 46.267 214.093 46.267C211.626 46.267 211.626 45.6334 209.158 45.6334C206.691 45.6334 206.691 45.7006 204.224 45.7006C201.757 45.7006 201.757 46.2958 199.28 46.2958C196.803 46.2958 196.794 45.6718 194.365 46.1326C191.936 46.5934 191.398 47.4958 189.651 45.7486L189.642 45.739Z" fill="#FF0000"/>
</g>
<path d="M228.887 55.8574C227.149 57.6046 225.757 57.5662 224.019 55.819C222.282 54.0718 223.971 53.3902 223.971 50.9134C223.971 48.4366 222.253 47.7454 224 45.9886C225.747 44.2318 227.139 44.2222 228.877 45.9694C230.615 47.7166 228.435 48.475 228.954 50.8942C229.501 53.4766 230.634 54.091 228.887 55.8478V55.8574Z" fill="#0000FF"/>
<g opacity="0.2">
<path d="M199.414 56.011C197.667 57.7582 199.165 58.3342 199.165 60.8014C199.165 63.2686 198.877 63.2686 198.877 65.7358C198.877 68.203 198.915 68.203 198.915 70.6798C198.915 73.1566 197.245 74.155 198.992 75.9022C200.739 77.6494 201.747 75.1342 204.214 75.1342C206.682 75.1342 206.682 75.2302 209.149 75.2302C211.616 75.2302 211.616 76.0846 214.083 76.0846C216.55 76.0846 216.55 76.0174 219.027 76.0174C221.504 76.0174 222.464 77.6014 224.211 75.8542C225.958 74.107 223.818 73.1374 223.818 70.6702C223.818 68.203 223.875 68.203 223.875 65.7358C223.875 63.2686 223.952 63.2686 223.952 60.7918C223.952 58.315 225.699 57.6046 223.952 55.8574C222.205 54.1102 221.494 55.483 219.018 55.483C216.541 55.483 216.55 55.5598 214.083 55.5598C211.616 55.5598 211.616 56.0302 209.149 56.0302C206.682 56.0302 206.586 56.5582 204.157 56.0686C201.728 55.579 201.152 54.235 199.405 55.9822L199.414 56.011Z" fill="#FF0000"/>
</g>
<path d="M60.6561 16.3246C63.1233 16.3246 63.1233 16.459 65.5905 16.459V16.3438C68.0577 16.3438 68.7489 18.0718 70.4961 16.3246C72.2433 14.5774 72.3489 13.099 70.6017 11.3518C68.8545 9.60455 68.0577 11.2942 65.5905 11.2942V11.4958C63.1233 11.4958 63.1233 11.3134 60.6561 11.3134V11.5726C58.1889 11.5726 57.4593 9.68135 55.7121 11.4286C53.9649 13.1758 54.0033 14.587 55.7505 16.3342C57.4977 18.0814 58.1889 16.4398 60.6561 16.4206C60.6753 16.4206 60.6561 16.3342 60.6561 16.3342V16.3246Z" fill="white"/>
<path d="M60.6561 16.3246C63.1233 16.3246 63.1233 16.459 65.5905 16.459V16.3438C68.0577 16.3438 68.7489 18.0718 70.4961 16.3246C72.2433 14.5774 72.3489 13.099 70.6017 11.3518C68.8545 9.60455 68.0577 11.2942 65.5905 11.2942V11.4958C63.1233 11.4958 63.1233 11.3134 60.6561 11.3134V11.5726C58.1889 11.5726 57.4593 9.68135 55.7121 11.4286C53.9649 13.1758 54.0033 14.587 55.7505 16.3342C57.4977 18.0814 58.1889 16.4398 60.6561 16.4206C60.6753 16.4206 60.6561 16.3342 60.6561 16.3342V16.3246Z" stroke="#090909" stroke-width="1.92" stroke-linejoin="round"/>
<path d="M70.5346 16.5166C68.0674 16.5166 68.0674 16.2478 65.6002 16.2478V16.4206C63.133 16.4206 63.133 16.123 60.6658 16.123V16.5838C58.1986 16.5838 58.1986 16.1806 55.7314 16.1806V16.3246C53.2642 16.3246 53.2642 16.315 50.797 16.315V16.411C48.3298 16.411 47.6674 14.6638 45.9202 16.411C44.173 18.1582 45.8818 18.8206 45.8818 21.2878H46.0642C46.0642 23.755 45.6706 23.755 45.6706 26.2222H45.6418C45.6418 28.6894 45.6994 28.6894 45.6994 31.1566H46.1506C46.1506 33.6238 46.1218 33.6238 46.1218 36.091H46.093C46.093 38.5582 45.9394 38.5582 45.9394 41.0254H45.7474C45.7474 43.4926 44.173 44.1742 45.9202 45.9214C47.6674 47.6686 48.349 45.7198 50.8162 45.7198V46.0942C53.2834 46.0942 53.2834 45.7102 55.7506 45.7102V46.0654C58.2178 46.0654 58.2178 45.835 60.685 45.835V45.739C63.1522 45.739 63.1522 46.1326 65.6194 46.1326V46.0558C68.0866 46.0558 68.0866 46.0174 70.5538 46.0174V46.1998C73.021 46.1998 73.5682 47.5342 75.3058 45.787C77.0434 44.0398 75.5746 43.5022 75.5746 41.035H75.6514C75.6514 38.5678 75.2386 38.5678 75.2386 36.1006H75.6226C75.6226 33.6334 75.565 33.6334 75.565 31.1662H75.709C75.709 28.699 75.5074 28.699 75.5074 26.2318H75.4306C75.4306 23.7646 75.2578 23.7646 75.2578 21.2974H75.7474C75.7474 18.8302 77.2546 18.0814 75.5074 16.3342C73.7602 14.587 73.0018 15.979 70.5346 16.0558C70.4578 16.0558 70.5346 16.5166 70.5346 16.5166Z" fill="#FF0000"/>
<path d="M70.5346 16.5166C68.0674 16.5166 68.0674 16.2478 65.6002 16.2478V16.4206C63.133 16.4206 63.133 16.123 60.6658 16.123V16.5838C58.1986 16.5838 58.1986 16.1806 55.7314 16.1806V16.3246C53.2642 16.3246 53.2642 16.315 50.797 16.315V16.411C48.3298 16.411 47.6674 14.6638 45.9202 16.411C44.173 18.1582 45.8818 18.8206 45.8818 21.2878H46.0642C46.0642 23.755 45.6706 23.755 45.6706 26.2222H45.6418C45.6418 28.6894 45.6994 28.6894 45.6994 31.1566H46.1506C46.1506 33.6238 46.1218 33.6238 46.1218 36.091H46.093C46.093 38.5582 45.9394 38.5582 45.9394 41.0254H45.7474C45.7474 43.4926 44.173 44.1742 45.9202 45.9214C47.6674 47.6686 48.349 45.7198 50.8162 45.7198V46.0942C53.2834 46.0942 53.2834 45.7102 55.7506 45.7102V46.0654C58.2178 46.0654 58.2178 45.835 60.685 45.835V45.739C63.1522 45.739 63.1522 46.1326 65.6194 46.1326V46.0558C68.0866 46.0558 68.0866 46.0174 70.5538 46.0174V46.1998C73.021 46.1998 73.5682 47.5342 75.3058 45.787C77.0434 44.0398 75.5746 43.5022 75.5746 41.035H75.6514C75.6514 38.5678 75.2386 38.5678 75.2386 36.1006H75.6226C75.6226 33.6334 75.565 33.6334 75.565 31.1662H75.709C75.709 28.699 75.5074 28.699 75.5074 26.2318H75.4306C75.4306 23.7646 75.2578 23.7646 75.2578 21.2974H75.7474C75.7474 18.8302 77.2546 18.0814 75.5074 16.3342C73.7602 14.587 73.0018 15.979 70.5346 16.0558C70.4578 16.0558 70.5346 16.5166 70.5346 16.5166Z" stroke="#090909" stroke-width="1.92" stroke-linejoin="round"/>
<path d="M40.9186 36.091C42.6658 37.8382 44.1058 37.8766 45.853 36.1294C47.6002 34.3822 47.5714 32.9326 45.8242 31.1854C44.077 29.4382 43.1362 30.139 40.909 31.195C38.5378 32.3278 39.1714 34.3438 40.9186 36.091Z" fill="white"/>
<path d="M40.9186 36.091C42.6658 37.8382 44.1058 37.8766 45.853 36.1294C47.6002 34.3822 47.5714 32.9326 45.8242 31.1854C44.077 29.4382 43.1362 30.139 40.909 31.195C38.5378 32.3278 39.1714 34.3438 40.9186 36.091Z" stroke="#090909" stroke-width="1.92" stroke-linejoin="round"/>
<path d="M80.5666 31.1758H80.461C80.461 28.7086 80.5378 28.7086 80.5378 26.2414H80.365C80.365 23.7742 80.3362 23.7742 80.3362 21.307H80.4706C80.4706 18.8398 82.3042 17.9758 80.557 16.2286C78.8098 14.4814 77.3218 14.7214 75.5746 16.4686C73.8274 18.2158 75.2578 18.8398 75.2578 21.307H75.6514C75.6514 23.7742 75.7186 23.7742 75.7186 26.2414H75.3154C75.3154 28.7086 75.2098 28.7086 75.2098 31.1758H75.4498C75.4498 33.643 73.7026 34.3918 75.4498 36.139C77.197 37.8862 78.8674 34.171 80.6146 35.9182C82.3618 37.6654 82.1794 39.3262 80.4418 41.0734C78.7042 42.8206 77.2642 39.3454 75.5266 41.0926C73.789 42.8398 73.5874 44.395 75.3346 46.1422C77.0818 47.8894 77.9554 46.0654 80.4226 46.0654V45.9598C82.8898 45.9598 83.629 47.7454 85.3762 45.9982C87.1234 44.251 85.117 43.5118 85.117 41.0446H85.6066C85.6066 38.5774 87.2482 37.723 85.501 35.9758C83.7538 34.2286 82.6882 37.1182 80.4898 35.9854C78.2914 34.8526 80.5762 33.643 80.5762 31.1662L80.5666 31.1758Z" fill="#FF0000"/>
<path d="M80.5666 31.1758H80.461C80.461 28.7086 80.5378 28.7086 80.5378 26.2414H80.365C80.365 23.7742 80.3362 23.7742 80.3362 21.307H80.4706C80.4706 18.8398 82.3042 17.9758 80.557 16.2286C78.8098 14.4814 77.3218 14.7214 75.5746 16.4686C73.8274 18.2158 75.2578 18.8398 75.2578 21.307H75.6514C75.6514 23.7742 75.7186 23.7742 75.7186 26.2414H75.3154C75.3154 28.7086 75.2098 28.7086 75.2098 31.1758H75.4498C75.4498 33.643 73.7026 34.3918 75.4498 36.139C77.197 37.8862 78.8674 34.171 80.6146 35.9182C82.3618 37.6654 82.1794 39.3262 80.4418 41.0734C78.7042 42.8206 77.2642 39.3454 75.5266 41.0926C73.789 42.8398 73.5874 44.395 75.3346 46.1422C77.0818 47.8894 77.9554 46.0654 80.4226 46.0654V45.9598C82.8898 45.9598 83.629 47.7454 85.3762 45.9982C87.1234 44.251 85.117 43.5118 85.117 41.0446H85.6066C85.6066 38.5774 87.2482 37.723 85.501 35.9758C83.7538 34.2286 82.6882 37.1182 80.4898 35.9854C78.2914 34.8526 80.5762 33.643 80.5762 31.1662L80.5666 31.1758Z" stroke="#090909" stroke-width="1.92" stroke-linejoin="round"/>
<path d="M105.104 31.2526C102.637 31.2526 101.869 29.3806 100.122 31.1278C98.3746 32.875 101.744 34.1998 100.007 35.947C98.269 37.6942 97.7026 36.1486 95.2354 36.1486V36.283C92.7682 36.283 91.9234 37.9726 90.1858 36.2254C88.4482 34.4782 91.9618 32.9998 90.2242 31.2526C88.4866 29.5054 87.2578 29.5726 85.5202 31.3198C83.7826 33.067 85.2706 33.643 85.2706 36.1102H85.165C85.165 38.5774 85.2034 38.5774 85.2034 41.0446H85.309C85.309 43.5118 83.4754 44.395 85.213 46.1326C86.9506 47.8702 87.8338 45.7678 90.301 45.7678V45.835C92.7682 45.835 92.7682 45.8062 95.2354 45.8062V45.7966C97.7026 45.7966 97.7026 45.9118 100.17 45.9118V46.0462C102.637 46.0462 102.637 45.9694 105.104 45.9694V45.9598C107.571 45.9598 108.32 47.755 110.067 46.0078C111.815 44.2606 110.106 43.5214 110.106 41.0446H109.885C109.885 38.5774 110.087 38.5774 110.087 36.1102H110.183C110.183 33.643 111.843 32.8558 110.096 31.1086C108.349 29.3614 107.562 30.8878 105.095 30.9262C105.056 30.9262 105.095 31.243 105.095 31.243L105.104 31.2526Z" fill="#FF0000"/>
<path d="M105.104 31.2526C102.637 31.2526 101.869 29.3806 100.122 31.1278C98.3746 32.875 101.744 34.1998 100.007 35.947C98.269 37.6942 97.7026 36.1486 95.2354 36.1486V36.283C92.7682 36.283 91.9234 37.9726 90.1858 36.2254C88.4482 34.4782 91.9618 32.9998 90.2242 31.2526C88.4866 29.5054 87.2578 29.5726 85.5202 31.3198C83.7826 33.067 85.2706 33.643 85.2706 36.1102H85.165C85.165 38.5774 85.2034 38.5774 85.2034 41.0446H85.309C85.309 43.5118 83.4754 44.395 85.213 46.1326C86.9506 47.8702 87.8338 45.7678 90.301 45.7678V45.835C92.7682 45.835 92.7682 45.8062 95.2354 45.8062V45.7966C97.7026 45.7966 97.7026 45.9118 100.17 45.9118V46.0462C102.637 46.0462 102.637 45.9694 105.104 45.9694V45.9598C107.571 45.9598 108.32 47.755 110.067 46.0078C111.815 44.2606 110.106 43.5214 110.106 41.0446H109.885C109.885 38.5774 110.087 38.5774 110.087 36.1102H110.183C110.183 33.643 111.843 32.8558 110.096 31.1086C108.349 29.3614 107.562 30.8878 105.095 30.9262C105.056 30.9262 105.095 31.243 105.095 31.243L105.104 31.2526Z" stroke="#090909" stroke-width="1.92" stroke-linejoin="round"/>
<path d="M115.002 41.035C113.255 39.2878 111.824 39.3358 110.077 41.083C108.33 42.8302 108.32 44.2222 110.077 45.9694C111.834 47.7166 112.755 47.035 114.983 45.9694C117.373 44.827 116.759 42.7822 115.011 41.035H115.002Z" fill="white"/>
<path d="M115.002 41.035C113.255 39.2878 111.824 39.3358 110.077 41.083C108.33 42.8302 108.32 44.2222 110.077 45.9694C111.834 47.7166 112.755 47.035 114.983 45.9694C117.373 44.827 116.759 42.7822 115.011 41.035H115.002Z" stroke="#090909" stroke-width="1.92" stroke-linejoin="round"/>
<path d="M70.5345 45.8158C68.0673 45.8158 68.0673 46.0654 65.6001 46.0654C63.1329 46.0654 63.1329 46.0462 60.6657 46.0462V46.0078C58.1985 46.0078 58.1985 45.7773 55.7313 45.7773V45.8445C53.2641 45.8445 52.5633 44.2798 50.8161 46.027C49.0689 47.7742 50.8065 48.475 50.8065 50.9422H50.9985C50.9985 53.4094 49.1937 53.995 50.9409 55.7422C52.6881 57.4894 53.2737 55.9342 55.7409 55.9342V56.0493C58.2081 56.0493 58.2081 55.8862 60.6753 55.8862C63.1425 55.8862 63.1425 56.1262 65.6097 56.1262C68.0769 56.1166 68.0769 56.0973 70.5441 56.0973V55.8862C73.0113 55.8862 73.7217 57.6237 75.4689 55.8765C77.2161 54.1293 75.5745 53.419 75.5745 50.9518H75.3057C75.3057 48.4846 77.3025 47.6878 75.5553 45.9406C73.8081 44.1934 73.0113 46.1325 70.5441 46.0365C70.4577 46.0365 70.5441 45.8254 70.5441 45.8254L70.5345 45.8158Z" fill="#0000FF"/>
<path d="M70.5345 45.8158C68.0673 45.8158 68.0673 46.0654 65.6001 46.0654C63.1329 46.0654 63.1329 46.0462 60.6657 46.0462V46.0078C58.1985 46.0078 58.1985 45.7773 55.7313 45.7773V45.8445C53.2641 45.8445 52.5633 44.2798 50.8161 46.027C49.0689 47.7742 50.8065 48.475 50.8065 50.9422H50.9985C50.9985 53.4094 49.1937 53.995 50.9409 55.7422C52.6881 57.4894 53.2737 55.9342 55.7409 55.9342V56.0494C58.2081 56.0494 58.2081 55.8862 60.6753 55.8862C63.1425 55.8862 63.1425 56.1262 65.6097 56.1262C68.0769 56.1166 68.0769 56.0973 70.5441 56.0973V55.8862C73.0113 55.8862 73.7217 57.6237 75.4689 55.8765C77.2161 54.1293 75.5745 53.419 75.5745 50.9518H75.3057C75.3057 48.4846 77.3025 47.6878 75.5553 45.9406C73.8081 44.1934 73.0113 46.1325 70.5441 46.0365C70.4577 46.0365 70.5441 45.8254 70.5441 45.8254L70.5345 45.8158Z" stroke="#090909" stroke-width="1.92" stroke-linejoin="round"/>
<path d="M80.4129 46.027C77.9457 46.027 77.2353 44.2606 75.4881 46.0078C73.7409 47.755 75.4881 48.4654 75.4881 50.9326H75.5073C75.5073 53.3998 73.6545 54.187 75.4017 55.9342C77.1489 57.6814 77.9361 55.915 80.4033 55.915V55.7806C82.8705 55.7806 83.6289 57.6526 85.3761 55.9054C87.1233 54.1582 85.3185 53.3998 85.3185 50.9326H85.3377C85.3377 48.4654 87.1041 47.7166 85.3569 45.9694C83.6097 44.2222 82.8705 46.0558 80.4033 46.0654C80.3841 46.0654 80.4033 46.0174 80.4033 46.0174L80.4129 46.027Z" fill="#0000FF"/>
<path d="M80.4129 46.027C77.9457 46.027 77.2353 44.2606 75.4881 46.0078C73.7409 47.755 75.4881 48.4654 75.4881 50.9326H75.5073C75.5073 53.3998 73.6545 54.187 75.4017 55.9342C77.1489 57.6814 77.9361 55.915 80.4033 55.915V55.7806C82.8705 55.7806 83.6289 57.6526 85.3761 55.9054C87.1233 54.1582 85.3185 53.3998 85.3185 50.9326H85.3377C85.3377 48.4654 87.1041 47.7166 85.3569 45.9694C83.6097 44.2222 82.8705 46.0558 80.4033 46.0654C80.3841 46.0654 80.4033 46.0174 80.4033 46.0174L80.4129 46.027Z" stroke="#090909" stroke-width="1.92" stroke-linejoin="round"/>
<path d="M105.104 46.2093C102.637 46.2093 102.637 45.8541 100.17 45.8541V46.1901C97.7025 46.1901 97.7025 46.2381 95.2353 46.2381V45.9597C92.7681 45.9597 92.7681 46.1133 90.3009 46.1133V46.1421C87.8337 46.1421 87.1713 44.3181 85.4241 46.0653C83.6769 47.8125 85.4721 48.4749 85.4721 50.9421H85.5297C85.5297 53.4093 83.5137 54.2349 85.2609 55.9821C87.0081 57.7293 87.8337 55.8477 90.3009 55.8477V56.0205C92.7681 56.0205 92.7681 55.6557 95.2353 55.6557V56.1261C97.7025 56.1261 97.7025 56.1069 100.17 56.1069V55.7901C102.637 55.7901 102.637 55.9725 105.104 55.9725V55.7517C107.571 55.7517 108.455 57.7773 110.202 56.0301C111.949 54.2829 110.019 53.4093 110.019 50.9421H110.173C110.173 48.4749 111.699 47.8509 109.952 46.1037C108.205 44.3565 107.591 46.0557 105.123 46.1709C105.018 46.1709 105.123 46.2189 105.123 46.2189L105.104 46.2093Z" fill="white"/>
<path d="M105.104 46.2093C102.637 46.2093 102.637 45.8541 100.17 45.8541V46.1901C97.7025 46.1901 97.7025 46.2381 95.2353 46.2381V45.9597C92.7681 45.9597 92.7681 46.1133 90.3009 46.1133V46.1421C87.8337 46.1421 87.1713 44.3181 85.4241 46.0653C83.6769 47.8125 85.4721 48.4749 85.4721 50.9421H85.5297C85.5297 53.4093 83.5137 54.2349 85.2609 55.9821C87.0081 57.7293 87.8337 55.8477 90.3009 55.8477V56.0205C92.7681 56.0205 92.7681 55.6557 95.2353 55.6557V56.1261C97.7025 56.1261 97.7025 56.1069 100.17 56.1069V55.7901C102.637 55.7901 102.637 55.9725 105.104 55.9725V55.7517C107.571 55.7517 108.455 57.7773 110.202 56.0301C111.949 54.2829 110.019 53.4093 110.019 50.9421H110.173C110.173 48.4749 111.699 47.8509 109.952 46.1037C108.205 44.3565 107.591 46.0557 105.123 46.1709C105.018 46.1709 105.123 46.2189 105.123 46.2189L105.104 46.2093Z" stroke="#090909" stroke-width="1.92" stroke-linejoin="round"/>
<path d="M115.05 50.9326H114.983C114.983 48.4654 116.682 47.7838 114.935 46.0366C113.187 44.2894 111.824 44.2894 110.077 46.0366C108.33 47.7838 110.096 48.4654 110.096 50.9326H110.077C110.077 53.3998 108.253 54.1582 110 55.9054C111.747 57.6526 112.746 56.9422 114.954 55.8478C117.162 54.7534 115.04 53.4094 115.04 50.9326H115.05Z" fill="#FF0000"/>
<path d="M115.05 50.9326H114.983C114.983 48.4654 116.682 47.7838 114.935 46.0366C113.187 44.2894 111.824 44.2894 110.077 46.0366C108.33 47.7838 110.096 48.4654 110.096 50.9326H110.077C110.077 53.3998 108.253 54.1582 110 55.9054C111.747 57.6526 112.746 56.9422 114.954 55.8478C117.162 54.7534 115.04 53.4094 115.04 50.9326H115.05Z" stroke="#090909" stroke-width="1.92" stroke-linejoin="round"/>
<path d="M70.5346 56.0974C68.0674 56.0974 68.0674 56.1454 65.6002 56.1454V55.6558C63.133 55.6558 63.133 55.9054 60.6658 55.9054V55.963C58.1986 55.963 58.1986 55.7518 55.7314 55.7518V55.8574C53.2642 55.8574 52.5634 54.1486 50.8162 55.8862C49.069 57.6238 50.8162 58.3342 50.8162 60.8014H50.6434C50.6434 63.2686 52.3714 63.8254 50.6242 65.5726C48.877 67.3198 47.677 64.075 45.9298 65.8222C44.1826 67.5694 43.8946 69.1438 45.6418 70.891C47.389 72.6382 48.9922 68.9806 50.7394 70.7278C52.4866 72.475 49.0498 73.8574 50.797 75.6046C52.5442 77.3518 53.2546 75.5278 55.7218 75.5278V75.7198C58.189 75.7198 58.189 75.7678 60.6562 75.7678V75.499C63.1234 75.499 63.1234 75.3454 65.5906 75.3454V75.7006C68.0578 75.7006 68.0578 75.7294 70.525 75.7294V75.4702C72.9922 75.4702 73.549 77.1982 75.2962 75.451C77.0434 73.7038 75.6994 73.147 75.6994 70.6798H75.3634C75.3634 68.2126 75.613 68.2126 75.613 65.7454H75.3346C75.3346 63.2782 75.181 63.2782 75.181 60.811H75.2386C75.2386 58.3438 77.0242 57.8158 75.277 56.0686C73.5298 54.3214 72.9922 55.5502 70.525 55.6558C70.4098 55.6558 70.5346 56.0974 70.525 56.0974H70.5346Z" fill="white"/>
<path d="M70.5346 56.0974C68.0674 56.0974 68.0674 56.1454 65.6002 56.1454V55.6558C63.133 55.6558 63.133 55.9054 60.6658 55.9054V55.963C58.1986 55.963 58.1986 55.7518 55.7314 55.7518V55.8574C53.2642 55.8574 52.5634 54.1486 50.8162 55.8862C49.069 57.6238 50.8162 58.3342 50.8162 60.8014H50.6434C50.6434 63.2686 52.3714 63.8254 50.6242 65.5726C48.877 67.3198 47.677 64.075 45.9298 65.8222C44.1826 67.5694 43.8946 69.1438 45.6418 70.891C47.389 72.6382 48.9922 68.9806 50.7394 70.7278C52.4866 72.475 49.0498 73.8574 50.797 75.6046C52.5442 77.3518 53.2546 75.5278 55.7218 75.5278V75.7198C58.189 75.7198 58.189 75.7678 60.6562 75.7678V75.499C63.1234 75.499 63.1234 75.3454 65.5906 75.3454V75.7006C68.0578 75.7006 68.0578 75.7294 70.525 75.7294V75.4702C72.9922 75.4702 73.549 77.1982 75.2962 75.451C77.0434 73.7038 75.6994 73.147 75.6994 70.6798H75.3634C75.3634 68.2126 75.613 68.2126 75.613 65.7454H75.3346C75.3346 63.2782 75.181 63.2782 75.181 60.811H75.2386C75.2386 58.3438 77.0242 57.8158 75.277 56.0686C73.5298 54.3214 72.9922 55.5502 70.525 55.6558C70.4098 55.6558 70.5346 56.0974 70.525 56.0974H70.5346Z" stroke="#090909" stroke-width="1.92" stroke-linejoin="round"/>
<path d="M80.413 55.6941C77.9458 55.6941 77.2642 54.1582 75.517 55.9054C73.7698 57.6526 75.4114 58.3341 75.4114 60.8013H75.6706C75.6706 63.2685 75.325 63.2685 75.325 65.7357H75.4018C75.4018 68.2029 75.5458 68.2029 75.5458 70.6701H75.5938C75.5938 73.1373 73.597 73.9918 75.3442 75.739C77.0914 77.4862 77.9458 75.4318 80.413 75.4318C82.8802 75.4318 83.725 77.4765 85.4626 75.7293C87.2002 73.9821 85.3378 73.1469 85.3378 70.6701H85.3762C85.3762 68.2029 85.2418 68.2029 85.2418 65.7357H85.309C85.309 63.2685 85.5202 63.2685 85.5202 60.8013H85.2994C85.2994 58.3341 86.9698 57.739 85.2226 55.9918C83.4754 54.2446 82.8706 56.1261 80.4034 56.0397C80.317 56.0397 80.4034 55.6941 80.4034 55.6941H80.413Z" fill="white"/>
<path d="M80.413 55.6941C77.9458 55.6941 77.2642 54.1582 75.517 55.9054C73.7698 57.6526 75.4114 58.3341 75.4114 60.8013H75.6706C75.6706 63.2685 75.325 63.2685 75.325 65.7357H75.4018C75.4018 68.2029 75.5458 68.2029 75.5458 70.6701H75.5938C75.5938 73.1373 73.597 73.9918 75.3442 75.739C77.0914 77.4862 77.9458 75.4318 80.413 75.4318C82.8802 75.4318 83.725 77.4765 85.4626 75.7293C87.2002 73.9821 85.3378 73.1469 85.3378 70.6701H85.3762C85.3762 68.2029 85.2418 68.2029 85.2418 65.7357H85.309C85.309 63.2685 85.5202 63.2685 85.5202 60.8013H85.2994C85.2994 58.3341 86.9698 57.739 85.2226 55.9918C83.4754 54.2446 82.8706 56.1261 80.4034 56.0397C80.317 56.0397 80.4034 55.6941 80.4034 55.6941H80.413Z" stroke="#090909" stroke-width="1.92" stroke-linejoin="round"/>
<path d="M70.5346 75.3742C68.0674 75.3742 68.0674 75.6526 65.6002 75.6526V75.7006C63.133 75.7006 63.133 75.8542 60.6658 75.8542V75.787C58.1986 75.787 57.4018 73.8094 55.6642 75.5566C53.9266 77.3038 55.981 78.091 55.981 80.5582H55.5778C55.5778 83.0254 55.6258 83.0254 55.6258 85.4926H55.645C55.645 87.9598 54.1666 88.507 55.9138 90.2542C57.661 92.0014 59.0434 88.5742 60.7906 90.3214C62.5378 92.0686 60.5122 92.9038 60.5122 95.371H60.7522C60.7522 97.0158 60.7522 98.6606 60.7522 100.305H60.8386C60.8386 102.773 62.3938 103.464 60.6466 105.211C58.8994 106.958 57.613 103.617 55.8658 105.365C54.1186 107.112 54.109 108.321 55.8658 110.069C57.6226 111.816 58.7938 111.777 60.541 110.03C62.2882 108.283 58.9666 107.006 60.7138 105.269C62.461 103.531 63.6706 106.785 65.4178 105.038C67.165 103.291 65.4178 102.782 65.4178 100.315H65.4274C65.4274 97.8478 65.7154 97.8478 65.7154 95.3806H65.4562C65.4562 92.9134 65.629 92.9134 65.629 90.4462H65.677C65.677 87.979 63.7762 87.1534 65.5234 85.4062C67.2706 83.659 68.0962 85.1854 70.5634 85.1854V85.5118C73.0306 85.5118 73.7026 87.211 75.4498 85.4638C77.197 83.7166 75.3538 83.0446 75.3538 80.5774H75.4306C75.4306 78.1102 77.437 77.1886 75.6898 75.4414C73.9426 73.6942 73.021 75.6622 70.5538 75.5374C70.429 75.5374 70.5538 75.3838 70.5538 75.3838L70.5346 75.3742Z" fill="white"/>
<path d="M70.5346 75.3742C68.0674 75.3742 68.0674 75.6526 65.6002 75.6526V75.7006C63.133 75.7006 63.133 75.8542 60.6658 75.8542V75.787C58.1986 75.787 57.4018 73.8094 55.6642 75.5566C53.9266 77.3038 55.981 78.091 55.981 80.5582H55.5778C55.5778 83.0254 55.6258 83.0254 55.6258 85.4926H55.645C55.645 87.9598 54.1666 88.507 55.9138 90.2542C57.661 92.0014 59.0434 88.5742 60.7906 90.3214C62.5378 92.0686 60.5122 92.9038 60.5122 95.371H60.7522C60.7522 97.0158 60.7522 98.6606 60.7522 100.305H60.8386C60.8386 102.773 62.3938 103.464 60.6466 105.211C58.8994 106.958 57.613 103.617 55.8658 105.365C54.1186 107.112 54.109 108.321 55.8658 110.069C57.6226 111.816 58.7938 111.777 60.541 110.03C62.2882 108.283 58.9666 107.006 60.7138 105.269C62.461 103.531 63.6706 106.785 65.4178 105.038C67.165 103.291 65.4178 102.782 65.4178 100.315H65.4274C65.4274 97.8478 65.7154 97.8478 65.7154 95.3806H65.4562C65.4562 92.9134 65.629 92.9134 65.629 90.4462H65.677C65.677 87.979 63.7762 87.1534 65.5234 85.4062C67.2706 83.659 68.0962 85.1854 70.5634 85.1854V85.5118C73.0306 85.5118 73.7026 87.211 75.4498 85.4638C77.197 83.7166 75.3538 83.0446 75.3538 80.5774H75.4306C75.4306 78.1102 77.437 77.1886 75.6898 75.4414C73.9426 73.6942 73.021 75.6622 70.5538 75.5374C70.429 75.5374 70.5538 75.3838 70.5538 75.3838L70.5346 75.3742Z" stroke="#090909" stroke-width="1.92" stroke-linejoin="round"/>
<path d="M80.413 75.6909C77.9458 75.6909 77.1202 73.7806 75.373 75.5278C73.6258 77.275 75.3922 78.1006 75.3922 80.5678H75.6226C75.6226 83.035 75.5458 83.035 75.5458 85.5022H75.3442C75.3442 87.9694 73.789 88.6414 75.5362 90.3886C77.2834 92.1358 77.9554 90.5325 80.4226 90.5325V90.4366C82.8898 90.4366 83.5522 92.1262 85.2994 90.3886C87.0466 88.651 85.3858 87.979 85.3858 85.5118H85.4242C85.4242 83.0446 85.2322 83.0446 85.2322 80.5774H85.3954C85.3954 78.1102 87.1234 77.3613 85.3762 75.6141C83.629 73.8669 82.8802 75.5949 80.413 75.6237C80.3842 75.6237 80.413 75.7006 80.413 75.7006V75.6909Z" fill="white"/>
<path d="M80.413 75.6909C77.9458 75.6909 77.1202 73.7806 75.373 75.5278C73.6258 77.275 75.3922 78.1006 75.3922 80.5678H75.6226C75.6226 83.035 75.5458 83.035 75.5458 85.5022H75.3442C75.3442 87.9694 73.789 88.6414 75.5362 90.3886C77.2834 92.1358 77.9554 90.5325 80.4226 90.5325V90.4365C82.8898 90.4365 83.5522 92.1262 85.2994 90.3886C87.0466 88.651 85.3858 87.979 85.3858 85.5118H85.4242C85.4242 83.0446 85.2322 83.0446 85.2322 80.5774H85.3954C85.3954 78.1102 87.1234 77.3613 85.3762 75.6141C83.629 73.8669 82.8802 75.5949 80.413 75.6237C80.3842 75.6237 80.413 75.7006 80.413 75.7006V75.6909Z" stroke="#090909" stroke-width="1.92" stroke-linejoin="round"/>
<path d="M90.2913 75.4317C87.8241 75.4317 87.2097 73.9917 85.4625 75.7389C83.7153 77.4861 85.4721 78.1005 85.4721 80.5677H85.2801C85.2801 83.0349 85.1169 83.0349 85.1169 85.5021H85.3665C85.3665 87.9693 85.1361 87.9693 85.1361 90.4365H85.5873C85.5873 92.9037 83.5425 93.7005 85.2801 95.4477C87.0177 97.1949 88.6785 93.4989 90.4257 95.2461C92.1729 96.9933 90.5313 97.8477 90.5313 100.315H90.3585C90.3585 102.782 88.3521 103.694 90.0993 105.441C91.8465 107.189 93.4593 106.977 95.2065 105.23C96.9537 103.483 95.5137 102.782 95.5137 100.305H95.4369C95.4369 97.8381 95.0049 97.8381 95.0049 95.3709H95.5137C95.5137 92.9037 96.9345 92.2221 95.1873 90.4749C93.4401 88.7277 92.2305 91.9917 90.4833 90.2445C88.7361 88.4973 88.4961 87.1917 90.2337 85.4445C91.9713 83.6973 93.3153 87.0765 95.0529 85.3293C96.7905 83.5821 94.9473 83.0253 94.9473 80.5581H95.0049C95.0049 78.0909 96.8289 77.5053 95.0817 75.7581C93.3345 74.0109 92.7585 75.4413 90.2913 75.3357C90.1953 75.3357 90.2817 75.4125 90.2817 75.4125L90.2913 75.4317Z" fill="white"/>
<path d="M90.2913 75.4317C87.8241 75.4317 87.2097 73.9917 85.4625 75.7389C83.7153 77.4861 85.4721 78.1005 85.4721 80.5677H85.2801C85.2801 83.0349 85.1169 83.0349 85.1169 85.5021H85.3665C85.3665 87.9693 85.1361 87.9693 85.1361 90.4365H85.5873C85.5873 92.9037 83.5425 93.7005 85.2801 95.4477C87.0177 97.1949 88.6785 93.4989 90.4257 95.2461C92.1729 96.9933 90.5313 97.8477 90.5313 100.315H90.3585C90.3585 102.782 88.3521 103.694 90.0993 105.441C91.8465 107.189 93.4593 106.977 95.2065 105.23C96.9537 103.483 95.5137 102.782 95.5137 100.305H95.4369C95.4369 97.8381 95.0049 97.8381 95.0049 95.3709H95.5137C95.5137 92.9037 96.9345 92.2221 95.1873 90.4749C93.4401 88.7277 92.2305 91.9917 90.4833 90.2445C88.7361 88.4973 88.4961 87.1917 90.2337 85.4445C91.9713 83.6973 93.3153 87.0765 95.0529 85.3293C96.7905 83.5821 94.9473 83.0253 94.9473 80.5581H95.0049C95.0049 78.0909 96.8289 77.5053 95.0817 75.7581C93.3345 74.0109 92.7585 75.4413 90.2913 75.3357C90.1953 75.3357 90.2817 75.4125 90.2817 75.4125L90.2913 75.4317Z" stroke="#090909" stroke-width="1.92" stroke-linejoin="round"/>
<path d="M60.6849 115.166C62.4321 113.419 62.5377 111.806 60.7905 110.059C59.0433 108.312 57.3345 108.321 55.5873 110.069C53.8401 111.816 57.5745 113.496 55.8273 115.243C54.0801 116.99 52.6017 113.467 50.8545 115.214C49.1073 116.961 50.7297 117.605 50.7297 120.072H50.7969C50.7969 122.539 50.8833 122.539 50.8833 125.006H50.7777C50.7777 127.473 50.7585 127.473 50.7585 129.941H50.9601C50.9601 132.408 49.0113 133.166 50.7585 134.904C52.5057 136.641 53.2545 134.933 55.7217 134.933V134.693C58.1889 134.693 58.1889 134.654 60.6561 134.654V135C63.1233 135 63.1233 135.105 65.5905 135.105C68.0577 135.105 68.6241 136.449 70.3713 134.702C72.1185 132.955 72.4257 131.515 70.6785 129.768C68.9313 128.021 67.1841 131.813 65.4369 130.065C63.6897 128.318 65.7345 127.445 65.7345 124.977H65.5041C65.5041 122.51 67.1745 121.944 65.4273 120.197C63.6801 118.449 63.1137 120.264 60.6465 120.264V119.937C58.1793 119.937 57.5169 121.723 55.7697 119.976C54.0225 118.229 53.8017 116.673 55.5585 114.945C57.4497 113.083 58.9281 116.875 60.6753 115.128L60.6849 115.166Z" fill="#0000FF"/>
<path d="M60.6849 115.166C62.4321 113.419 62.5377 111.806 60.7905 110.059C59.0433 108.312 57.3345 108.321 55.5873 110.069C53.8401 111.816 57.5745 113.496 55.8273 115.243C54.0801 116.99 52.6017 113.467 50.8545 115.214C49.1073 116.961 50.7297 117.605 50.7297 120.072H50.7969C50.7969 122.539 50.8833 122.539 50.8833 125.006H50.7777C50.7777 127.473 50.7585 127.473 50.7585 129.941H50.9601C50.9601 132.408 49.0113 133.166 50.7585 134.904C52.5057 136.641 53.2545 134.933 55.7217 134.933V134.693C58.1889 134.693 58.1889 134.654 60.6561 134.654V135C63.1233 135 63.1233 135.105 65.5905 135.105C68.0577 135.105 68.6241 136.449 70.3713 134.702C72.1185 132.955 72.4257 131.515 70.6785 129.768C68.9313 128.021 67.1841 131.813 65.4369 130.065C63.6897 128.318 65.7345 127.445 65.7345 124.977H65.5041C65.5041 122.51 67.1745 121.944 65.4273 120.197C63.6801 118.449 63.1137 120.264 60.6465 120.264V119.937C58.1793 119.937 57.5169 121.723 55.7697 119.976C54.0225 118.229 53.8017 116.673 55.5585 114.945C57.4497 113.083 58.9281 116.875 60.6753 115.128L60.6849 115.166Z" stroke="#090909" stroke-width="1.92" stroke-linejoin="round"/>
<path d="M70.4289 139.829H70.6881C70.6881 137.361 72.2241 136.689 70.4769 134.942C68.7297 133.195 68.0577 134.798 65.5905 134.798V135.077C63.1233 135.077 63.1233 134.808 60.6561 134.808V134.817C58.1889 134.817 57.4593 133.128 55.7121 134.875C53.9649 136.622 53.8401 138.206 55.5873 139.953C57.3345 141.701 58.9281 138.062 60.6753 139.809C62.4225 141.557 58.8705 143.054 60.6177 144.801C62.3649 146.549 63.8433 143.025 65.5905 144.773C67.3377 146.52 63.9009 147.912 65.6481 149.659C67.3953 151.406 68.0769 149.736 70.5441 149.736V149.678C73.0113 149.678 73.8465 151.569 75.5937 149.822C77.3409 148.075 77.1873 146.549 75.4497 144.801C73.7121 143.054 72.8481 145.685 70.6305 144.6C68.4129 143.515 70.4385 142.296 70.4385 139.829H70.4289Z" fill="#0000FF"/>
<path d="M70.4289 139.829H70.6881C70.6881 137.361 72.2241 136.689 70.4769 134.942C68.7297 133.195 68.0577 134.798 65.5905 134.798V135.077C63.1233 135.077 63.1233 134.808 60.6561 134.808V134.817C58.1889 134.817 57.4593 133.128 55.7121 134.875C53.9649 136.622 53.8401 138.206 55.5873 139.953C57.3345 141.701 58.9281 138.062 60.6753 139.809C62.4225 141.557 58.8705 143.054 60.6177 144.801C62.3649 146.549 63.8433 143.025 65.5905 144.773C67.3377 146.52 63.9009 147.912 65.6481 149.659C67.3953 151.406 68.0769 149.736 70.5441 149.736V149.678C73.0113 149.678 73.8465 151.569 75.5937 149.822C77.3409 148.075 77.1873 146.549 75.4497 144.801C73.7121 143.054 72.8481 145.685 70.6305 144.6C68.4129 143.515 70.4385 142.296 70.4385 139.829H70.4289Z" stroke="#090909" stroke-width="1.92" stroke-linejoin="round"/>
<path d="M65.5618 154.68C67.309 156.427 68.797 156.408 70.5442 154.661C72.2914 152.913 72.2818 151.454 70.5442 149.707C68.8066 147.96 67.8274 148.632 65.6002 149.707C63.2098 150.859 63.8242 152.942 65.5714 154.689L65.5618 154.68Z" fill="white"/>
<path d="M65.5618 154.68C67.309 156.427 68.797 156.408 70.5442 154.661C72.2914 152.913 72.2818 151.454 70.5442 149.707C68.8066 147.96 67.8274 148.632 65.6002 149.707C63.2098 150.859 63.8242 152.942 65.5714 154.689L65.5618 154.68Z" stroke="#090909" stroke-width="1.92" stroke-linejoin="round"/>
<path d="M80.413 149.784C77.9458 149.784 77.2258 147.969 75.4786 149.717C73.7314 151.464 73.7506 152.885 75.4978 154.632C77.245 156.379 78.6178 152.952 80.365 154.699C82.1122 156.446 78.6082 157.896 80.365 159.643C82.1218 161.39 83.6866 161.4 85.4242 159.662C87.1618 157.925 85.261 157.128 85.261 154.651C85.261 152.184 87.0658 151.483 85.3186 149.736C83.5714 147.989 82.8706 149.582 80.4034 149.611C80.365 149.611 80.4034 149.784 80.4034 149.784H80.413Z" fill="#0000FF"/>
<path d="M80.413 149.784C77.9458 149.784 77.2258 147.969 75.4786 149.717C73.7314 151.464 73.7506 152.885 75.4978 154.632C77.245 156.379 78.6178 152.952 80.365 154.699C82.1122 156.446 78.6082 157.896 80.365 159.643C82.1218 161.39 83.6866 161.4 85.4242 159.662C87.1618 157.925 85.261 157.128 85.261 154.651C85.261 152.184 87.0658 151.483 85.3186 149.736C83.5714 147.989 82.8706 149.582 80.4034 149.611C80.365 149.611 80.4034 149.784 80.4034 149.784H80.413Z" stroke="#090909" stroke-width="1.92" stroke-linejoin="round"/>
<path d="M105.104 55.9246C102.637 55.9246 102.637 56.011 100.17 56.011V55.7134C97.7026 55.7134 97.7026 55.9438 95.2354 55.9438V55.6846C92.7682 55.6846 92.7682 55.8094 90.301 55.8094V55.8574C87.8338 55.8574 87.1714 54.187 85.4242 55.9342C83.677 57.6814 85.5778 58.3438 85.5778 60.811H85.2226C85.2226 63.2782 85.2994 63.2782 85.2994 65.7454H85.549C85.549 68.2126 85.2802 68.2126 85.2802 70.6798H85.261C85.261 73.147 83.773 73.7134 85.5202 75.4606C87.2674 77.2078 87.8242 75.7966 90.301 75.7966V75.8638C92.7682 75.8638 92.7682 75.6622 95.2354 75.6622V75.547C97.7026 75.547 97.7026 75.6334 100.17 75.6334V75.547C102.637 75.547 102.637 75.8062 105.104 75.8062V75.4318C107.571 75.4318 108.455 77.5246 110.202 75.7774C111.949 74.0302 110.067 73.1566 110.067 70.6798H109.933C109.933 68.2126 109.799 68.2126 109.799 65.7454H110.25C110.25 63.2782 109.962 63.2782 109.962 60.811H109.885C109.885 58.3438 111.824 57.5854 110.077 55.8382C108.33 54.091 107.581 55.8766 105.104 55.9054C105.075 55.9054 105.104 55.9246 105.104 55.9246Z" fill="#FF0000"/>
<path d="M105.104 55.9246C102.637 55.9246 102.637 56.011 100.17 56.011V55.7134C97.7026 55.7134 97.7026 55.9438 95.2354 55.9438V55.6846C92.7682 55.6846 92.7682 55.8094 90.301 55.8094V55.8574C87.8338 55.8574 87.1714 54.187 85.4242 55.9342C83.677 57.6814 85.5778 58.3438 85.5778 60.811H85.2226C85.2226 63.2782 85.2994 63.2782 85.2994 65.7454H85.549C85.549 68.2126 85.2802 68.2126 85.2802 70.6798H85.261C85.261 73.147 83.773 73.7134 85.5202 75.4606C87.2674 77.2078 87.8242 75.7966 90.301 75.7966V75.8638C92.7682 75.8638 92.7682 75.6622 95.2354 75.6622V75.547C97.7026 75.547 97.7026 75.6334 100.17 75.6334V75.547C102.637 75.547 102.637 75.8062 105.104 75.8062V75.4318C107.571 75.4318 108.455 77.5246 110.202 75.7774C111.949 74.0302 110.067 73.1566 110.067 70.6798H109.933C109.933 68.2126 109.799 68.2126 109.799 65.7454H110.25C110.25 63.2782 109.962 63.2782 109.962 60.811H109.885C109.885 58.3438 111.824 57.5854 110.077 55.8382C108.33 54.091 107.581 55.8766 105.104 55.9054C105.075 55.9054 105.104 55.9246 105.104 55.9246Z" stroke="#090909" stroke-width="1.92" stroke-linejoin="round"/>
<path d="M114.983 55.8766C112.515 55.8766 111.728 54.0622 109.981 55.8094C108.234 57.5566 110.144 58.3438 110.144 60.811H109.875C109.875 63.2782 110.231 63.2782 110.231 65.7454H110.135C110.135 68.2126 110.048 68.2126 110.048 70.6798H109.943C109.943 73.147 108.339 73.8382 110.077 75.5758C111.815 77.3134 112.506 75.6238 114.973 75.6238V75.499C117.44 75.499 118.295 77.4958 120.042 75.7486C121.789 74.0014 119.725 73.147 119.725 70.6798H119.773C119.773 68.2126 119.898 68.2126 119.898 65.7454H120.003C120.003 63.2782 119.994 63.2782 119.994 60.811H119.859C119.859 58.3438 121.626 57.6526 119.879 55.9054C118.131 54.1582 117.45 55.7038 114.973 55.7134V55.8766H114.983Z" fill="white"/>
<path d="M114.983 55.8766C112.515 55.8766 111.728 54.0622 109.981 55.8094C108.234 57.5566 110.144 58.3438 110.144 60.811H109.875C109.875 63.2782 110.231 63.2782 110.231 65.7454H110.135C110.135 68.2126 110.048 68.2126 110.048 70.6798H109.943C109.943 73.147 108.339 73.8382 110.077 75.5758C111.815 77.3134 112.506 75.6238 114.973 75.6238V75.499C117.44 75.499 118.295 77.4958 120.042 75.7486C121.789 74.0014 119.725 73.147 119.725 70.6798H119.773C119.773 68.2126 119.898 68.2126 119.898 65.7454H120.003C120.003 63.2782 119.994 63.2782 119.994 60.811H119.859C119.859 58.3438 121.626 57.6526 119.879 55.9054C118.131 54.1582 117.45 55.7038 114.973 55.7134V55.8766H114.983Z" stroke="#090909" stroke-width="1.92" stroke-linejoin="round"/>
<path d="M119.917 60.811C118.17 62.5582 119.898 63.2782 119.898 65.755H119.859C119.859 68.2222 120.032 68.2222 120.032 70.6894H119.955C119.955 73.1566 118.141 73.915 119.888 75.6622C121.635 77.4094 123.047 77.3134 124.794 75.5662C126.541 73.819 124.813 73.1566 124.813 70.6894H124.899C124.899 68.2222 124.813 68.2222 124.813 65.755H124.861C124.861 63.2878 125.831 63.0862 124.765 60.859C123.632 58.4782 121.655 59.0734 119.907 60.8206L119.917 60.811Z" fill="white"/>
<path d="M119.917 60.811C118.17 62.5582 119.898 63.2782 119.898 65.755H119.859C119.859 68.2222 120.032 68.2222 120.032 70.6894H119.955C119.955 73.1566 118.141 73.915 119.888 75.6622C121.635 77.4094 123.047 77.3134 124.794 75.5662C126.541 73.819 124.813 73.1566 124.813 70.6894H124.899C124.899 68.2222 124.813 68.2222 124.813 65.755H124.861C124.861 63.2878 125.831 63.0862 124.765 60.859C123.632 58.4782 121.655 59.0734 119.907 60.8206L119.917 60.811Z" stroke="#090909" stroke-width="1.92" stroke-linejoin="round"/>
<path d="M191.792 149.707H189.392V152.107" stroke="#090909" stroke-width="1.92" stroke-linejoin="round"/>
<path d="M189.392 152.251V154.651H191.792" stroke="#090909" stroke-width="1.92" stroke-linejoin="round"/>
<path d="M191.927 154.651H194.327V157.051" stroke="#090909" stroke-width="1.92" stroke-linejoin="round"/>
<path d="M194.327 157.185V159.585H196.727" stroke="#090909" stroke-width="1.92" stroke-linejoin="round"/>
<path d="M196.871 159.585H199.271V157.185" stroke="#090909" stroke-width="1.92" stroke-linejoin="round"/>
<path d="M199.271 156.062V154.651V152.673" stroke="#090909" stroke-width="1.92" stroke-linejoin="round"/>
<path d="M199.271 152.107V149.707H196.871" stroke="#090909" stroke-width="1.92" stroke-linejoin="round"/>
<path d="M195.738 149.707H194.336H194.327H192.359" stroke="#090909" stroke-width="1.92" stroke-linejoin="round"/>
<path d="M169.635 112.737V115.137H167.235" stroke="#090909" stroke-width="1.92" stroke-linejoin="round"/>
<path d="M167.101 115.137H164.701V117.537" stroke="#090909" stroke-width="1.92" stroke-linejoin="round"/>
<path d="M164.701 119.409V120.072V125.016V129.95V131.553" stroke="#090909" stroke-width="1.92" stroke-linejoin="round"/>
<path d="M164.701 132.494V134.894H167.101" stroke="#090909" stroke-width="1.92" stroke-linejoin="round"/>
<path d="M167.235 134.894H169.635V137.294" stroke="#090909" stroke-width="1.92" stroke-linejoin="round"/>
<path d="M169.635 137.429V139.829H172.035" stroke="#090909" stroke-width="1.92" stroke-linejoin="round"/>
<path d="M172.179 139.829H174.579V142.229" stroke="#090909" stroke-width="1.92" stroke-linejoin="round"/>
<path d="M174.579 142.373V144.773H176.979" stroke="#090909" stroke-width="1.92" stroke-linejoin="round"/>
<path d="M177.114 144.773H179.514V147.173" stroke="#090909" stroke-width="1.92" stroke-linejoin="round"/>
<path d="M179.514 148.296V149.707V151.685" stroke="#090909" stroke-width="1.92" stroke-linejoin="round"/>
<path d="M179.514 152.251V154.651H181.914" stroke="#090909" stroke-width="1.92" stroke-linejoin="round"/>
<path d="M182.058 154.651H184.458V152.251" stroke="#090909" stroke-width="1.92" stroke-linejoin="round"/>
<path d="M184.458 152.107V149.707H184.448H184.458H186.848" stroke="#090909" stroke-width="1.92" stroke-linejoin="round"/>
<path d="M186.992 149.707H189.392V147.307" stroke="#090909" stroke-width="1.92" stroke-linejoin="round"/>
<path d="M189.392 147.173V144.773H186.992" stroke="#090909" stroke-width="1.92" stroke-linejoin="round"/>
<path d="M186.858 144.773H184.458V142.373" stroke="#090909" stroke-width="1.92" stroke-linejoin="round"/>
<path d="M184.458 140.145V139.829V134.894V133.464" stroke="#090909" stroke-width="1.92" stroke-linejoin="round"/>
<path d="M184.458 132.35V129.95H182.058" stroke="#090909" stroke-width="1.92" stroke-linejoin="round"/>
<path d="M181.914 129.95H179.514V127.55" stroke="#090909" stroke-width="1.92" stroke-linejoin="round"/>
<path d="M179.514 126.427V125.016V123.038" stroke="#090909" stroke-width="1.92" stroke-linejoin="round"/>
<path d="M179.514 122.472V120.072H177.114" stroke="#090909" stroke-width="1.92" stroke-linejoin="round"/>
<path d="M175.991 120.072H174.579H172.602" stroke="#090909" stroke-width="1.92" stroke-linejoin="round"/>
<path d="M172.035 120.072H169.635V117.672" stroke="#090909" stroke-width="1.92" stroke-linejoin="round"/>
<path d="M169.635 117.537V115.137H172.035" stroke="#090909" stroke-width="1.92" stroke-linejoin="round"/>
<path d="M172.179 115.137H174.579V112.737" stroke="#090909" stroke-width="1.92" stroke-linejoin="round"/>
<path d="M174.579 111.605V108.225" stroke="#090909" stroke-width="1.92" stroke-linejoin="round"/>
<path d="M174.579 107.659V105.259H176.979" stroke="#090909" stroke-width="1.92" stroke-linejoin="round"/>
<path d="M177.114 105.259H179.514V102.859" stroke="#090909" stroke-width="1.92" stroke-linejoin="round"/>
<path d="M179.514 100.987V88.843" stroke="#090909" stroke-width="1.92" stroke-linejoin="round"/>
<path d="M179.514 87.9022V85.5022H181.914" stroke="#090909" stroke-width="1.92" stroke-linejoin="round"/>
<path d="M183.047 85.5022H184.448H184.458H186.426" stroke="#090909" stroke-width="1.92" stroke-linejoin="round"/>
<path d="M186.992 85.5022H189.392V87.9022" stroke="#090909" stroke-width="1.92" stroke-linejoin="round"/>
<path d="M189.392 88.0462V90.4462H191.792" stroke="#090909" stroke-width="1.92" stroke-linejoin="round"/>
<path d="M192.925 90.4462H194.327H194.336H196.304" stroke="#090909" stroke-width="1.92" stroke-linejoin="round"/>
<path d="M196.871 90.4462H199.271V92.8462" stroke="#090909" stroke-width="1.92" stroke-linejoin="round"/>
<path d="M199.271 92.9806V95.3806H201.671" stroke="#090909" stroke-width="1.92" stroke-linejoin="round"/>
<path d="M201.805 95.3806H204.205V97.7806" stroke="#090909" stroke-width="1.92" stroke-linejoin="round"/>
<path d="M204.205 98.9134V100.315V100.325V102.293" stroke="#090909" stroke-width="1.92" stroke-linejoin="round"/>
<path d="M204.205 102.859V105.259H206.605" stroke="#090909" stroke-width="1.92" stroke-linejoin="round"/>
<path d="M206.749 105.259H209.149V102.859" stroke="#090909" stroke-width="1.92" stroke-linejoin="round"/>
<path d="M209.149 100.632V93.9598" stroke="#090909" stroke-width="1.92" stroke-linejoin="round"/>
<path d="M209.149 92.8462V90.4462H206.749" stroke="#090909" stroke-width="1.92" stroke-linejoin="round"/>
<path d="M206.605 90.4462H204.205V88.0462" stroke="#090909" stroke-width="1.92" stroke-linejoin="round"/>
<path d="M204.205 87.9022V85.5022H206.605" stroke="#090909" stroke-width="1.92" stroke-linejoin="round"/>
<path d="M206.749 85.5022H209.149V83.1022" stroke="#090909" stroke-width="1.92" stroke-linejoin="round"/>
<path d="M209.149 81.979V78.5902" stroke="#090909" stroke-width="1.92" stroke-linejoin="round"/>
<path d="M209.149 78.0238V75.6238H211.549" stroke="#090909" stroke-width="1.92" stroke-linejoin="round"/>
<path d="M213.709 75.6238H235.299" stroke="#090909" stroke-width="1.92" stroke-linejoin="round"/>
<path d="M236.384 75.6238H238.784V73.2238" stroke="#090909" stroke-width="1.92" stroke-linejoin="round"/>
<path d="M238.784 70.9966V70.6894V65.7454V64.3246" stroke="#090909" stroke-width="1.92" stroke-linejoin="round"/>
<path d="M238.784 63.211V60.811H236.384" stroke="#090909" stroke-width="1.92" stroke-linejoin="round"/>
<path d="M236.25 60.811C235.04 60.811 233.85 60.811 233.85 60.811V58.411" stroke="#090909" stroke-width="1.92" stroke-linejoin="round"/>
<path d="M233.84 58.267V55.867H231.44" stroke="#090909" stroke-width="1.92" stroke-linejoin="round"/>
<path d="M231.306 55.867H228.906V53.467" stroke="#090909" stroke-width="1.92" stroke-linejoin="round"/>
<path d="M228.906 51.2398V50.9326V45.9886V44.5678" stroke="#090909" stroke-width="1.92" stroke-linejoin="round"/>
<path d="M228.906 43.4542V41.0542H226.506" stroke="#090909" stroke-width="1.92" stroke-linejoin="round"/>
<path d="M226.362 41.0542H223.962V38.6542" stroke="#090909" stroke-width="1.92" stroke-linejoin="round"/>
<path d="M223.962 37.5214V36.1102V34.1422" stroke="#090909" stroke-width="1.92" stroke-linejoin="round"/>
<path d="M223.962 33.5758V31.1758H221.562" stroke="#090909" stroke-width="1.92" stroke-linejoin="round"/>
<path d="M220.438 31.1758H219.027H217.05" stroke="#090909" stroke-width="1.92" stroke-linejoin="round"/>
<path d="M216.483 31.1758H214.083V33.5758" stroke="#090909" stroke-width="1.92" stroke-linejoin="round"/>
<path d="M214.083 33.7102V36.1102H211.683" stroke="#090909" stroke-width="1.92" stroke-linejoin="round"/>
<path d="M210.56 36.1102H209.149H207.171" stroke="#090909" stroke-width="1.92" stroke-linejoin="round"/>
<path d="M206.605 36.1102H204.205V33.7102" stroke="#090909" stroke-width="1.92" stroke-linejoin="round"/>
<path d="M204.205 33.5758V31.1758H201.805" stroke="#090909" stroke-width="1.92" stroke-linejoin="round"/>
<path d="M201.671 31.1758H199.271V33.5758" stroke="#090909" stroke-width="1.92" stroke-linejoin="round"/>
<path d="M199.271 33.7102V36.1102H196.871" stroke="#090909" stroke-width="1.92" stroke-linejoin="round"/>
<path d="M196.736 36.1102H194.336V33.7102" stroke="#090909" stroke-width="1.92" stroke-linejoin="round"/>
<path d="M194.336 31.8478V31.1758V26.2414V21.2974V19.6942" stroke="#090909" stroke-width="1.92" stroke-linejoin="round"/>
<path d="M194.336 18.763V16.363H191.936" stroke="#090909" stroke-width="1.92" stroke-linejoin="round"/>
<path d="M190.803 16.363H189.392H187.415" stroke="#090909" stroke-width="1.92" stroke-linejoin="round"/>
<path d="M186.848 16.363H184.458H184.448H184.458V13.963" stroke="#090909" stroke-width="1.92" stroke-linejoin="round"/>
<path d="M184.458 13.819V11.419H182.058" stroke="#090909" stroke-width="1.92" stroke-linejoin="round"/>
<path d="M179.831 11.419H179.514H174.579H173.149" stroke="#090909" stroke-width="1.92" stroke-linejoin="round"/>
<path d="M172.035 11.419H169.635V13.819" stroke="#090909" stroke-width="1.92" stroke-linejoin="round"/>
<path d="M169.635 13.963V16.363H167.235" stroke="#090909" stroke-width="1.92" stroke-linejoin="round"/>
<path d="M166.112 16.363H164.701H162.723" stroke="#090909" stroke-width="1.92" stroke-linejoin="round"/>
<path d="M162.157 16.363H159.757V18.763" stroke="#090909" stroke-width="1.92" stroke-linejoin="round"/>
<path d="M159.757 20.9902V21.2974V26.2414V27.6622" stroke="#090909" stroke-width="1.92" stroke-linejoin="round"/>
<path d="M159.757 28.7758V31.1758H157.357" stroke="#090909" stroke-width="1.92" stroke-linejoin="round"/>
<path d="M157.223 31.1758H154.823V33.5758" stroke="#090909" stroke-width="1.92" stroke-linejoin="round"/>
<path d="M154.823 33.7102V36.1102H157.223" stroke="#090909" stroke-width="1.92" stroke-linejoin="round"/>
<path d="M157.357 36.1102H159.757V38.5102" stroke="#090909" stroke-width="1.92" stroke-linejoin="round"/>
<path d="M159.757 39.643V41.0542V43.0318" stroke="#090909" stroke-width="1.92" stroke-linejoin="round"/>
<path d="M159.757 43.5886V45.9886H162.157" stroke="#090909" stroke-width="1.92" stroke-linejoin="round"/>
<path d="M162.301 45.9886H164.701V48.3886" stroke="#090909" stroke-width="1.92" stroke-linejoin="round"/>
<path d="M164.701 50.2606V55.867V60.811V62.4142" stroke="#090909" stroke-width="1.92" stroke-linejoin="round"/>
<path d="M164.701 63.3454V65.7454H162.301" stroke="#090909" stroke-width="1.92" stroke-linejoin="round"/>
<path d="M162.157 65.7454H159.757V68.1454" stroke="#090909" stroke-width="1.92" stroke-linejoin="round"/>
<path d="M159.757 68.2894V70.6894H162.157" stroke="#090909" stroke-width="1.92" stroke-linejoin="round"/>
<path d="M162.301 70.6894H164.701V73.0894" stroke="#090909" stroke-width="1.92" stroke-linejoin="round"/>
<path d="M164.701 73.2238V75.6238H167.101" stroke="#090909" stroke-width="1.92" stroke-linejoin="round"/>
<path d="M167.235 75.6238H169.635V78.0238" stroke="#090909" stroke-width="1.92" stroke-linejoin="round"/>
<path d="M169.635 80.251V80.5678V85.5022V86.9326" stroke="#090909" stroke-width="1.92" stroke-linejoin="round"/>
<path d="M169.635 88.0462V90.4462H172.035" stroke="#090909" stroke-width="1.92" stroke-linejoin="round"/>
<path d="M172.179 90.4462H174.579V92.8462" stroke="#090909" stroke-width="1.92" stroke-linejoin="round"/>
<path d="M174.579 95.0638V95.3806V100.315V100.325V101.745" stroke="#090909" stroke-width="1.92" stroke-linejoin="round"/>
<path d="M174.579 102.859V105.259H172.179" stroke="#090909" stroke-width="1.92" stroke-linejoin="round"/>
<path d="M172.035 105.259H169.635V107.659" stroke="#090909" stroke-width="1.92" stroke-linejoin="round"/>
<path d="M169.635 108.792V112.171" stroke="#090909" stroke-width="1.92" stroke-linejoin="round"/>
<path d="M254.787 55.6078C255.44 57.211 253.76 57.1534 253.021 58.7182C252.282 60.283 252.742 60.5038 252.003 62.0686C251.264 63.6334 251.168 63.595 250.429 65.1598C249.69 66.7246 250.381 67.6654 248.73 68.1934C246.944 68.7598 246.992 67.5022 245.293 66.6958C243.594 65.8894 243.584 65.9278 241.894 65.131C240.205 64.3342 240.234 64.267 238.544 63.4702C236.854 62.6734 236.912 62.539 235.222 61.7422C233.533 60.9454 233.514 60.9838 231.814 60.1774C230.115 59.371 229.962 59.707 228.272 58.9102C226.582 58.1134 226.736 57.7678 225.046 56.971C223.357 56.1742 223.347 56.1838 221.658 55.3774C219.968 54.571 220.093 54.3118 218.394 53.515C216.694 52.7182 216.694 52.7182 215.005 51.9118C213.315 51.1054 213.123 51.5086 211.424 50.7118C209.725 49.915 209.782 49.8094 208.093 49.003C206.403 48.1966 206.24 48.5326 204.55 47.7358C202.861 46.939 203.034 46.5646 201.334 45.7678C199.635 44.971 199.626 44.9902 197.936 44.1934C196.246 43.3966 196.16 43.5502 194.461 42.7534C192.762 41.9566 192.666 42.0814 191.139 40.987C189.459 39.787 189.891 39.3166 188.432 37.8574C186.973 36.3982 186.8 36.571 185.341 35.1118C183.882 33.6526 184.026 33.5086 182.557 32.0494C181.088 30.5902 181.155 30.523 179.696 29.0638C178.237 27.6046 175.606 28.267 176.49 26.395C177.373 24.523 178.563 26.6254 180.618 26.827C182.672 27.0286 182.662 27.115 184.717 27.3166C186.771 27.5182 186.771 27.5662 188.826 27.7678C190.88 27.9694 190.87 28.0558 192.934 28.2574C194.998 28.459 194.979 28.2574 196.976 28.795C198.781 29.2846 198.8 29.1694 200.49 29.9662C202.179 30.763 202.064 31.0126 203.754 31.8094C205.443 32.6062 205.674 32.1166 207.373 32.923C209.072 33.7294 208.813 34.2574 210.502 35.0542C212.192 35.851 212.202 35.8414 213.891 36.6382C215.581 37.435 215.821 36.9358 217.51 37.7326C219.2 38.5294 219.133 38.6734 220.832 39.4798C222.531 40.2862 222.31 40.7374 224 41.5342C225.69 42.331 225.978 41.7358 227.667 42.5326C229.357 43.3294 229.078 43.9342 230.768 44.731C232.458 45.5278 232.477 45.499 234.176 46.2958C235.875 47.0926 235.971 46.8814 237.661 47.6782C239.35 48.475 239.475 48.2254 241.165 49.0222C242.854 49.819 242.605 50.3662 244.294 51.1726C245.984 51.979 246.09 51.7582 247.789 52.555C249.488 53.3518 249.44 53.4958 251.264 53.9182C253.261 54.3694 254.067 53.851 254.768 55.5982L254.787 55.6078Z" fill="white"/>
<path d="M254.787 55.6078C255.44 57.211 253.76 57.1534 253.021 58.7182C252.282 60.283 252.742 60.5038 252.003 62.0686C251.264 63.6334 251.168 63.595 250.429 65.1598C249.69 66.7246 250.381 67.6654 248.73 68.1934C246.944 68.7598 246.992 67.5022 245.293 66.6958C243.594 65.8894 243.584 65.9278 241.894 65.131C240.205 64.3342 240.234 64.267 238.544 63.4702C236.854 62.6734 236.912 62.539 235.222 61.7422C233.533 60.9454 233.514 60.9838 231.814 60.1774C230.115 59.371 229.962 59.707 228.272 58.9102C226.582 58.1134 226.736 57.7678 225.046 56.971C223.357 56.1742 223.347 56.1838 221.658 55.3774C219.968 54.571 220.093 54.3118 218.394 53.515C216.694 52.7182 216.694 52.7182 215.005 51.9118C213.315 51.1054 213.123 51.5086 211.424 50.7118C209.725 49.915 209.782 49.8094 208.093 49.003C206.403 48.1966 206.24 48.5326 204.55 47.7358C202.861 46.939 203.034 46.5646 201.334 45.7678C199.635 44.971 199.626 44.9902 197.936 44.1934C196.246 43.3966 196.16 43.5502 194.461 42.7534C192.762 41.9566 192.666 42.0814 191.139 40.987C189.459 39.787 189.891 39.3166 188.432 37.8574C186.973 36.3982 186.8 36.571 185.341 35.1118C183.882 33.6526 184.026 33.5086 182.557 32.0494C181.088 30.5902 181.155 30.523 179.696 29.0638C178.237 27.6046 175.606 28.267 176.49 26.395C177.373 24.523 178.563 26.6254 180.618 26.827C182.672 27.0286 182.662 27.115 184.717 27.3166C186.771 27.5182 186.771 27.5662 188.826 27.7678C190.88 27.9694 190.87 28.0558 192.934 28.2574C194.998 28.459 194.979 28.2574 196.976 28.795C198.781 29.2846 198.8 29.1694 200.49 29.9662C202.179 30.763 202.064 31.0126 203.754 31.8094C205.443 32.6062 205.674 32.1166 207.373 32.923C209.072 33.7294 208.813 34.2574 210.502 35.0542C212.192 35.851 212.202 35.8414 213.891 36.6382C215.581 37.435 215.821 36.9358 217.51 37.7326C219.2 38.5294 219.133 38.6734 220.832 39.4798C222.531 40.2862 222.31 40.7374 224 41.5342C225.69 42.331 225.978 41.7358 227.667 42.5326C229.357 43.3294 229.078 43.9342 230.768 44.731C232.458 45.5278 232.477 45.499 234.176 46.2958C235.875 47.0926 235.971 46.8814 237.661 47.6782C239.35 48.475 239.475 48.2254 241.165 49.0222C242.854 49.819 242.605 50.3662 244.294 51.1726C245.984 51.979 246.09 51.7582 247.789 52.555C249.488 53.3518 249.44 53.4958 251.264 53.9182C253.261 54.3694 254.067 53.851 254.768 55.5982L254.787 55.6078Z" stroke="#090909" stroke-width="1.92" stroke-linejoin="round"/>
<path d="M194.806 36.8014C193.482 37.771 192.906 34.4302 191.792 35.6302C189.978 37.5886 190.016 38.539 190.986 41.035C191.667 42.7822 192.8 41.851 194.49 42.6478C196.179 43.4446 196.342 43.1182 198.032 43.915C199.722 44.7118 199.731 44.7022 201.421 45.499C203.11 46.2958 203.11 46.2958 204.8 47.0926C206.49 47.8894 206.288 48.331 207.978 49.1278C209.667 49.9246 209.754 49.7422 211.443 50.5486C213.133 51.355 213.085 51.451 214.784 52.2478C216.483 53.0446 216.464 53.0638 218.163 53.8702C219.862 54.6766 219.93 54.5134 221.629 55.3102C223.328 56.107 223.395 55.9534 225.094 56.7502C226.794 57.547 226.563 58.0174 228.262 58.8238C229.962 59.6302 230.173 59.1502 231.872 59.9566C233.571 60.763 233.514 60.8686 235.213 61.6654C236.912 62.4622 236.758 62.779 238.448 63.5854C240.138 64.3918 240.243 64.171 241.933 64.9774C243.622 65.7838 243.526 66.0046 245.216 66.811C246.906 67.6174 246.944 68.8078 248.73 68.2414C250.381 67.723 249.574 66.6862 250.314 65.1214C251.053 63.5566 250.736 63.4126 251.475 61.8478C252.214 60.283 252.637 60.4846 253.376 58.9102C254.115 57.3358 255.44 57.211 254.787 55.5982C254.086 53.8606 252.896 54.9358 251.206 54.139C249.517 53.3422 249.526 53.323 247.837 52.5166C246.147 51.7102 246.061 51.9022 244.362 51.0958C242.662 50.2894 242.643 50.347 240.954 49.5502C239.264 48.7534 239.494 48.2542 237.805 47.4574C236.115 46.6606 235.904 47.1022 234.214 46.2958C232.525 45.4894 232.64 45.2398 230.95 44.443C229.261 43.6462 229.174 43.819 227.485 43.0126C225.795 42.2062 225.843 42.1102 224.144 41.3134C222.445 40.5166 222.608 40.1806 220.918 39.3742C219.229 38.5678 219.142 38.7502 217.453 37.9438C215.763 37.1374 215.677 37.3294 213.987 36.523C212.298 35.7166 212.384 35.5246 210.694 34.7278C209.005 33.931 208.87 34.2094 207.171 33.4126C205.472 32.6158 205.645 32.2606 203.946 31.4542C202.246 30.6478 202.15 30.859 200.451 30.0622C198.752 29.2654 198.656 27.451 197.034 28.4014C195.152 29.5054 195.968 30.4846 195.824 32.6638C195.68 34.843 196.573 35.5054 194.806 36.7918V36.8014Z" fill="#E7EEEB"/>
<path d="M194.806 36.8014C193.482 37.771 192.906 34.4302 191.792 35.6302C189.978 37.5886 190.016 38.539 190.986 41.035C191.667 42.7822 192.8 41.851 194.49 42.6478C196.179 43.4446 196.342 43.1182 198.032 43.915C199.722 44.7118 199.731 44.7022 201.421 45.499C203.11 46.2958 203.11 46.2958 204.8 47.0926C206.49 47.8894 206.288 48.331 207.978 49.1278C209.667 49.9246 209.754 49.7422 211.443 50.5486C213.133 51.355 213.085 51.451 214.784 52.2478C216.483 53.0446 216.464 53.0638 218.163 53.8702C219.862 54.6766 219.93 54.5134 221.629 55.3102C223.328 56.107 223.395 55.9534 225.094 56.7502C226.794 57.547 226.563 58.0174 228.262 58.8238C229.962 59.6302 230.173 59.1502 231.872 59.9566C233.571 60.763 233.514 60.8686 235.213 61.6654C236.912 62.4622 236.758 62.779 238.448 63.5854C240.138 64.3918 240.243 64.171 241.933 64.9774C243.622 65.7838 243.526 66.0046 245.216 66.811C246.906 67.6174 246.944 68.8078 248.73 68.2414C250.381 67.723 249.574 66.6862 250.314 65.1214C251.053 63.5566 250.736 63.4126 251.475 61.8478C252.214 60.283 252.637 60.4846 253.376 58.9102C254.115 57.3358 255.44 57.211 254.787 55.5982C254.086 53.8606 252.896 54.9358 251.206 54.139C249.517 53.3422 249.526 53.323 247.837 52.5166C246.147 51.7102 246.061 51.9022 244.362 51.0958C242.662 50.2894 242.643 50.347 240.954 49.5502C239.264 48.7534 239.494 48.2542 237.805 47.4574C236.115 46.6606 235.904 47.1022 234.214 46.2958C232.525 45.4894 232.64 45.2398 230.95 44.443C229.261 43.6462 229.174 43.819 227.485 43.0126C225.795 42.2062 225.843 42.1102 224.144 41.3134C222.445 40.5166 222.608 40.1806 220.918 39.3742C219.229 38.5678 219.142 38.7502 217.453 37.9438C215.763 37.1374 215.677 37.3294 213.987 36.523C212.298 35.7166 212.384 35.5246 210.694 34.7278C209.005 33.931 208.87 34.2094 207.171 33.4126C205.472 32.6158 205.645 32.2606 203.946 31.4542C202.246 30.6478 202.15 30.859 200.451 30.0622C198.752 29.2654 198.656 27.451 197.034 28.4014C195.152 29.5054 195.968 30.4846 195.824 32.6638C195.68 34.843 196.573 35.5054 194.806 36.7918V36.8014Z" stroke="#090909" stroke-width="1.92" stroke-linejoin="round"/>
<path d="M194.067 37.0894C195.834 37.9246 195.795 38.0206 197.562 38.8558C199.328 39.691 199.357 39.6334 201.133 40.4782C202.909 41.323 202.726 41.6782 204.493 42.523C206.259 43.3678 206.365 43.147 208.131 43.9822C209.898 44.8174 209.878 44.8558 211.654 45.7006C213.43 46.5454 213.526 46.3246 215.293 47.1694C217.059 48.0142 216.934 48.283 218.701 49.1182C220.467 49.9534 220.602 49.675 222.378 50.5198C224.154 51.3646 224.125 51.4126 225.891 52.2478C227.658 53.083 227.658 53.0926 229.434 53.9278C231.21 54.763 231.046 55.099 232.822 55.9342C234.598 56.7694 234.79 56.3566 236.566 57.1918C238.342 58.027 238.15 58.4398 239.917 59.275C241.683 60.1102 241.76 59.9566 243.536 60.7918C245.312 61.627 245.427 61.387 247.203 62.2222C248.979 63.0574 248.931 63.163 250.707 64.0078" stroke="#090909" stroke-width="1.92" stroke-linejoin="round"/>
<path d="M195.939 33.1246C197.706 33.9598 197.686 34.0174 199.453 34.8526C201.219 35.6878 201.44 35.227 203.216 36.0622C204.992 36.8974 204.877 37.1182 206.653 37.9534C208.429 38.7886 208.304 39.0478 210.07 39.883C211.837 40.7182 211.923 40.5358 213.699 41.371C215.475 42.2062 215.552 42.043 217.318 42.8782C219.085 43.7134 219.152 43.5694 220.928 44.4046C222.704 45.2398 222.608 45.4414 224.374 46.2766C226.141 47.1118 226.16 47.083 227.936 47.9182C229.712 48.7534 229.683 48.8206 231.45 49.6558C233.216 50.491 233.139 50.6734 234.915 51.5086C236.691 52.3438 236.643 52.4494 238.41 53.2846C240.176 54.1198 240.186 54.1102 241.962 54.9454C243.738 55.7806 243.91 55.4062 245.686 56.2414C247.462 57.0766 247.51 56.9902 249.277 57.8254C251.043 58.6606 251.014 58.747 252.79 59.5822" stroke="#090909" stroke-width="1.92" stroke-linejoin="round"/>
<path d="M176.509 26.395L182.269 32.1358L184.602 27.2014L176.509 26.395Z" fill="#090909" stroke="#090909" stroke-width="1.92" stroke-linejoin="round"/>
<path d="M264.55 60.4078C265.184 62.0206 263.84 61.9246 263.101 63.4894C262.362 65.0542 262.438 65.0926 261.699 66.6574C260.96 68.2222 260.97 68.2318 260.23 69.7966C259.491 71.3614 260.355 72.3982 258.714 72.9358C256.966 73.5022 257.053 72.1198 255.392 71.3326C253.731 70.5454 253.76 70.4878 252.09 69.7006C250.419 68.9134 249.44 69.8926 248.768 68.1838C248.134 66.571 249.411 66.5998 250.15 65.0446C250.89 63.4894 250.899 63.4798 251.638 61.915C252.378 60.3502 252.435 60.379 253.174 58.8046C253.914 57.2302 252.982 56.1358 254.634 55.5982C256.381 55.0318 256.314 56.4526 257.974 57.2398C259.635 58.027 259.53 58.3246 261.315 58.7662C263.101 59.2078 263.888 58.699 264.56 60.4078H264.55Z" fill="white"/>
<path d="M264.55 60.4078C265.184 62.0206 263.84 61.9246 263.101 63.4894C262.362 65.0542 262.438 65.0926 261.699 66.6574C260.96 68.2222 260.97 68.2318 260.23 69.7966C259.491 71.3614 260.355 72.3982 258.714 72.9358C256.966 73.5022 257.053 72.1198 255.392 71.3326C253.731 70.5454 253.76 70.4878 252.09 69.7006C250.419 68.9134 249.44 69.8926 248.768 68.1838C248.134 66.571 249.411 66.5998 250.15 65.0446C250.89 63.4894 250.899 63.4798 251.638 61.915C252.378 60.3502 252.435 60.379 253.174 58.8046C253.914 57.2302 252.982 56.1358 254.634 55.5982C256.381 55.0318 256.314 56.4526 257.974 57.2398C259.635 58.027 259.53 58.3246 261.315 58.7662C263.101 59.2078 263.888 58.699 264.56 60.4078H264.55Z" stroke="#090909" stroke-width="1.92" stroke-linejoin="round"/>
<path d="M84.9824 119.361L84.4352 121.147C84.3008 121.56 84.1856 121.925 84.1856 122.357C84.1856 122.702 84.2816 122.904 84.5504 122.952L84.9824 123.019V125.419H81.7856V124.325C81.7856 122.981 82.0352 122.203 82.5344 120.926L83.1488 119.371H84.9728L84.9824 119.361Z" fill="#090909"/>
<path d="M87.6034 129.595V125.505C87.6034 121.646 89.7538 119.64 93.4018 119.64C95.5714 119.64 97.1266 120.254 98.0866 120.763C98.0386 121.541 97.9906 122.318 97.885 123.096H95.3506C94.8706 122.433 94.093 122.27 93.4114 122.27C91.9522 122.27 90.8098 123.048 90.8098 125.352V125.947C91.2706 125.697 92.317 125.285 93.6418 125.285C96.8578 125.285 98.8066 126.408 98.8066 129.787V130.401C98.8066 133.435 96.541 135.125 93.1906 135.125C89.8402 135.125 87.6226 133.118 87.6226 129.595H87.6034ZM95.6002 130.257V129.912C95.6002 127.973 94.5538 127.905 93.6322 127.905C92.1442 127.905 91.2802 128.385 90.8002 128.587V129.566C90.8002 131.601 91.645 132.485 93.1714 132.485C94.0834 132.485 95.5906 132.187 95.5906 130.248L95.6002 130.257Z" fill="#090909"/>
<path d="M101.187 134.894V132.245L105.613 128.933C107.619 127.425 108.675 126.216 108.675 124.344C108.675 123 107.85 122.261 106.323 122.261C104.95 122.261 104.221 123.086 103.971 123.883H101.437C101.322 123.125 101.235 122.328 101.235 121.55C102.013 120.888 103.798 119.63 106.438 119.63C109.798 119.63 111.872 121.416 111.872 124.334C111.872 127.099 110.269 128.721 107.965 130.411L105.613 132.149H109.424L109.741 130.661H111.795V134.885H101.178L101.187 134.894Z" fill="#090909"/>
<path d="M198.896 119.361L198.349 121.147C198.215 121.56 198.099 121.925 198.099 122.357C198.099 122.702 198.195 122.904 198.464 122.952L198.896 123.019V125.419H195.699V124.325C195.699 122.981 195.949 122.203 196.448 120.926L197.063 119.371H198.887L198.896 119.361Z" fill="#090909"/>
<path d="M201.527 129.595V125.505C201.527 121.646 203.677 119.64 207.325 119.64C209.495 119.64 211.05 120.254 212.01 120.763C211.962 121.541 211.914 122.318 211.808 123.096H209.274C208.794 122.433 208.016 122.27 207.335 122.27C205.875 122.27 204.733 123.048 204.733 125.352V125.947C205.194 125.697 206.24 125.285 207.565 125.285C210.781 125.285 212.73 126.408 212.73 129.787V130.401C212.73 133.435 210.464 135.125 207.114 135.125C203.763 135.125 201.546 133.118 201.546 129.595H201.527ZM209.523 130.257V129.912C209.523 127.973 208.477 127.905 207.555 127.905C206.067 127.905 205.203 128.385 204.723 128.587V129.566C204.723 131.601 205.568 132.485 207.095 132.485C208.007 132.485 209.514 132.187 209.514 130.248L209.523 130.257Z" fill="#090909"/>
<path d="M215.111 129.595V125.505C215.111 121.646 217.261 119.64 220.909 119.64C223.079 119.64 224.634 120.254 225.594 120.763C225.546 121.541 225.498 122.318 225.392 123.096H222.858C222.378 122.433 221.6 122.27 220.919 122.27C219.459 122.27 218.317 123.048 218.317 125.352V125.947C218.778 125.697 219.824 125.285 221.149 125.285C224.365 125.285 226.314 126.408 226.314 129.787V130.401C226.314 133.435 224.048 135.125 220.698 135.125C217.347 135.125 215.13 133.118 215.13 129.595H215.111ZM223.107 130.257V129.912C223.107 127.973 222.061 127.905 221.139 127.905C219.651 127.905 218.787 128.385 218.307 128.587V129.566C218.307 131.601 219.152 132.485 220.679 132.485C221.591 132.485 223.098 132.187 223.098 130.248L223.107 130.257Z" fill="#090909"/>
<g opacity="0.2">
<path d="M161.178 20.7598C163.03 19.8094 164.874 18.859 166.726 17.9086L164.758 15.9406C163.126 18.4462 161.494 20.9518 159.862 23.4574C158.922 24.8974 160.947 26.2126 162.128 25.2046C166.563 21.3934 170.998 17.5822 175.443 13.771L173.178 12.0238C168.358 18.3022 163.53 24.5806 158.71 30.8686C158.019 31.7614 157.328 32.6638 156.646 33.5566C156.214 34.123 156.512 35.0254 157.021 35.419C157.626 35.8894 158.336 35.755 158.912 35.3038C162.589 32.3854 165.805 28.795 169.098 25.4734C172.39 22.1518 175.606 18.5614 179.283 15.643L177.018 13.8958C172.63 20.731 167.034 26.7214 162.637 33.5566C161.715 34.987 163.722 36.3502 164.902 35.3038C169.395 31.3102 173.888 27.307 178.381 23.3134C179.034 22.7374 179.677 22.1614 180.33 21.5854L177.92 20.1838C177.133 22.267 176.346 24.3598 175.558 26.443C174.906 28.1806 177.69 28.9294 178.333 27.211C179.12 25.1278 179.907 23.035 180.694 20.9518C181.242 19.5022 179.264 18.6766 178.285 19.5502C173.792 23.5438 169.299 27.547 164.806 31.5406C164.154 32.1166 163.51 32.6926 162.858 33.2686L165.123 35.0158C169.51 28.1806 175.107 22.1902 179.504 15.355C180.454 13.8766 178.429 12.667 177.238 13.6078C173.562 16.5262 170.346 20.1166 167.053 23.4382C163.76 26.7598 160.544 30.3502 156.867 33.2686L159.133 35.0158C163.952 28.7374 168.781 22.459 173.6 16.171C174.291 15.2782 174.982 14.3758 175.664 13.483C176.72 12.1102 174.56 10.747 173.398 11.7358C168.963 15.547 164.528 19.3582 160.083 23.1694L162.349 24.9166C163.981 22.411 165.613 19.9054 167.245 17.3998C168.08 16.123 166.477 14.8078 165.277 15.4318C163.424 16.3822 161.581 17.3326 159.728 18.283C158.077 19.1278 159.536 21.6142 161.178 20.7694V20.7598Z" fill="#FF0000"/>
</g>
<path opacity="0.2" d="M194.326 149.707H189.392V154.651H194.326V159.585H199.27V154.651V149.707H194.336H194.326Z" fill="#0000FF"/>
<g opacity="0.2">
<path d="M169.491 109.425C167.639 111.518 171.834 113.352 169.991 115.445C168.359 117.297 166.583 113.525 164.835 115.262C163.088 117 164.029 117.605 164.029 120.072H164.259C164.259 122.539 164.259 122.539 164.259 125.006H164.365C164.365 127.473 165.095 127.473 165.095 129.941H164.97C164.97 132.408 162.973 133.109 164.72 134.846C166.467 136.584 167.159 135.317 169.626 135.317L169.923 134.875H169.703C169.703 137.342 167.696 138.245 169.443 139.992C171.191 141.739 172.957 137.928 174.695 139.675C176.432 141.422 172.266 143.553 174.013 145.301C175.76 147.048 177.978 142.776 179.725 144.523C181.472 146.27 179.994 147.221 179.994 149.688L179.495 150.091C181.962 150.091 181.962 149.937 184.429 149.937L184.371 149.697L184.429 148.997C186.896 148.997 187.693 151.512 189.44 149.765C191.187 148.017 191.159 146.462 189.411 144.715C187.664 142.968 186.061 146.616 184.314 144.869C182.567 143.121 184.141 142.286 184.141 139.819H183.911C183.911 137.352 184.957 137.352 184.957 134.885H184.832C184.832 132.417 185.927 131.947 184.179 130.2C182.432 128.453 181.511 131.419 179.763 129.681C178.016 127.944 179.485 127.483 179.485 125.006H180.09C180.09 122.539 181.271 121.781 179.523 120.033C177.776 118.286 177.018 120.542 174.551 120.542V119.429C172.083 119.429 171.258 121.896 169.52 120.158C167.783 118.421 168.147 117.144 169.895 115.397C171.642 113.649 173.447 117.432 175.079 115.589C176.931 113.496 176.298 111.816 175.136 109.281C173.975 106.747 171.104 107.563 169.463 109.416L169.491 109.425Z" fill="#0000FF"/>
</g>
<path d="M119.082 92.5678C121.059 92.5678 121.059 92.875 123.037 92.875C125.015 92.875 125.015 93.211 127.002 93.211C128.989 93.211 128.979 92.4142 130.967 92.4142C132.954 92.4142 132.944 92.3566 134.931 92.3566C136.919 92.3566 136.909 92.2222 138.887 92.2222C140.864 92.2222 140.864 92.7598 142.851 92.7598C144.839 92.7598 144.829 91.1758 146.816 91.1758C148.803 91.1758 148.803 91.7998 150.781 91.7998C152.759 91.7998 152.768 92.7406 154.746 92.7406" stroke="#090909" stroke-width="1.92" stroke-linejoin="round"/>
<path d="M146.768 98.6062C148.746 97.147 148.755 97.1566 150.743 95.6878C152.73 94.219 155.36 95.3806 155.36 92.9134C155.36 90.4462 153.018 91.2046 151.04 89.7454C149.063 88.2862 149.178 88.123 147.191 86.6542" stroke="#090909" stroke-width="1.92" stroke-linejoin="round"/>
</svg>
