<svg width="288" height="300" viewBox="0 0 288 300" fill="none" xmlns="http://www.w3.org/2000/svg">
<path d="M209.5 141.08C209.5 146 210.55 150.89 209.8 155.56C209.03 160.41 206.35 164.67 204.85 169.17C203.3 173.82 203.29 179.07 201.04 183.25C198.79 187.43 195.95 191.74 192.97 195.45C189.99 199.16 185.32 201.57 181.66 204.62C178 207.67 174.98 212.18 170.73 214.38C166.48 216.58 161.25 216.87 156.55 218.03C151.85 219.19 147.21 219.06 142.29 219.06C137.37 219.06 132.57 219.5 127.95 218.35C123.33 217.2 118.09 216.69 113.8 214.46C109.51 212.23 106.9 207.43 103.17 204.31C99.4401 201.19 96.4701 197.81 93.4101 193.99C90.3501 190.17 86.6801 187.11 84.3501 182.8C82.0201 178.49 81.2301 173.82 79.6801 169.17C78.1301 164.52 75.8101 160.35 75.0401 155.5C74.3001 150.82 75.0001 145.98 75.0001 141.06C75.0001 136.14 74.0601 131.25 74.8001 126.58C75.5401 121.91 76.6101 116.92 78.1101 112.42C79.6101 107.92 83.0601 104.01 85.3201 99.83C87.5801 95.65 88.8501 90.56 91.8301 86.85C94.8101 83.14 97.7801 78.77 101.43 75.72C105.08 72.67 110.91 72.47 115.16 70.27C119.41 68.07 123.6 66.34 128.3 65.17C133 64 137.38 63.5 142.29 63.5C147.2 63.5 151.87 63.19 156.49 64.34C161.11 65.49 166.04 66.31 170.33 68.53C174.62 70.75 178.27 73.98 182.01 77.1C185.75 80.22 190.4 82.48 193.46 86.29C196.52 90.1 197.15 95.41 199.48 99.72C201.81 104.03 204.31 107.97 205.86 112.63C207.41 117.29 207.69 121.94 208.46 126.79C209.2 131.47 209.5 136.14 209.5 141.06V141.08Z" fill="#E7EEEB" stroke="#090909" stroke-width="2" stroke-linejoin="round"/>
<path d="M168.39 124.03C168.39 125.6 167.17 127 164.96 128.1C163.5 128.83 161.68 129.54 159.58 129.92C157.84 130.24 155.91 130.47 153.9 130.47C151.89 130.47 149.98 130.13 148.24 129.82C146.14 129.44 144.32 128.79 142.86 128.05C140.66 126.95 139.33 125.6 139.33 124.03C139.33 122.46 140.67 121.12 142.87 120.01C144.33 119.28 146.16 118.69 148.26 118.31C150 117.99 151.9 117.69 153.91 117.69C155.92 117.69 157.81 118.01 159.56 118.33C161.66 118.71 163.57 119.12 165.04 119.85C167.24 120.95 168.41 122.46 168.41 124.03H168.39Z" fill="white" stroke="#090909" stroke-width="2" stroke-linejoin="round"/>
<path d="M165.38 124.26C165.38 125.82 164.7 127.2 163.58 128.2C162.46 129.2 161.09 129.8 159.49 129.8C157.89 129.8 156.43 129.2 155.36 128.24C154.29 127.28 153.61 125.82 153.61 124.26C153.61 122.7 154.27 121.31 155.38 120.31C156.49 119.31 157.89 118.72 159.48 118.72C161.07 118.72 162.57 119.3 163.63 120.25C164.69 121.2 165.37 122.7 165.37 124.26H165.38Z" fill="#090909" stroke="#090909" stroke-width="2" stroke-linejoin="round"/>
<path d="M116.07 124.03C116.07 125.6 114.69 126.92 112.49 128.02C111.03 128.75 109.21 129.33 107.11 129.71C105.37 130.03 103.47 130.41 101.46 130.41C99.4498 130.41 97.5498 130.05 95.8098 129.73C93.7098 129.35 91.7698 128.99 90.3098 128.25C88.1098 127.15 86.7798 125.59 86.7798 124.02C86.7798 122.45 88.1698 121 90.3698 119.9C91.8298 119.17 93.7098 118.69 95.8098 118.3C97.5498 117.98 99.4498 117.8 101.46 117.8C103.47 117.8 105.4 117.82 107.14 118.13C109.24 118.51 111.1 119.12 112.57 119.86C114.77 120.96 116.07 122.44 116.07 124.01V124.03Z" fill="white" stroke="#090909" stroke-width="2" stroke-linejoin="round"/>
<path d="M112.96 124.26C112.96 125.82 112.25 127.18 111.13 128.19C110.01 129.2 108.65 129.74 107.05 129.74C105.45 129.74 104.04 129.15 102.97 128.2C101.9 127.25 101.12 125.83 101.12 124.27C101.12 122.71 101.85 121.34 102.96 120.34C104.07 119.34 105.44 118.81 107.04 118.81C108.64 118.81 110.11 119.32 111.18 120.28C112.25 121.24 112.95 122.71 112.95 124.27L112.96 124.26Z" fill="#090909" stroke="#090909" stroke-width="2" stroke-linejoin="round"/>
<path d="M116.09 124.03C115.75 126.74 115.62 126.73 115.28 129.44C114.94 132.15 114.99 132.16 114.64 134.87C114.29 137.58 114.39 137.6 114.04 140.31C113.69 143.02 113.54 143.01 113.19 145.72C112.84 148.43 112.92 148.45 112.58 151.16" stroke="#090909" stroke-width="2" stroke-linejoin="round"/>
<path d="M112.64 166.82C115.22 166.82 115.22 167.17 117.8 167.17C120.38 167.17 120.38 166.83 122.96 166.83C125.54 166.83 125.54 166.99 128.12 166.99C130.7 166.99 130.7 167.12 133.28 167.12C135.86 167.12 135.86 166.9 138.43 166.9C141 166.9 141.01 167.08 143.59 167.08C146.17 167.08 146.17 166.98 148.75 166.98C151.33 166.98 151.33 167.17 153.91 167.17" stroke="#090909" stroke-width="2" stroke-linejoin="round"/>
<path d="M87.2 125.51C87.2 127.21 87.09 128.88 86.84 130.5C86.59 132.12 86.4 133.87 85.89 135.44C85.38 137.01 84.75 138.64 84 140.12C83.25 141.6 82.26 143.02 81.28 144.37C80.3 145.72 79.24 147.06 78.06 148.24C76.88 149.42 75.38 150.26 74.02 151.24C72.66 152.22 71.22 153.01 69.73 153.78C68.24 154.55 66.78 155.32 65.18 155.84C63.58 156.36 62.01 156.92 60.34 157.18C58.67 157.44 57.02 157.39 55.32 157.39C53.62 157.39 51.94 157.33 50.32 157.08C48.7 156.83 47.06 156.27 45.49 155.76C43.92 155.25 42.37 154.58 40.89 153.82C39.41 153.06 38.09 152.05 36.74 151.07C35.39 150.09 33.81 149.37 32.62 148.19C31.43 147.01 30.26 145.77 29.27 144.42C28.28 143.07 27.59 141.51 26.82 140.01C26.05 138.51 25.25 137.03 24.73 135.43C24.21 133.83 24.35 132.11 24.09 130.44C23.83 128.77 23.45 127.19 23.45 125.49C23.45 123.79 23.41 122.11 23.67 120.48C23.93 118.85 24.56 117.24 25.07 115.67C25.58 114.1 26.39 112.63 27.15 111.15C27.91 109.67 28.41 108.02 29.39 106.67C30.37 105.32 31.45 104 32.63 102.82C33.81 101.64 35.14 100.59 36.5 99.61C37.86 98.63 39.31 97.79 40.8 97.03C42.29 96.27 43.75 95.38 45.35 94.86C46.95 94.34 48.68 94.48 50.35 94.21C52.02 93.94 53.61 93.29 55.31 93.29C57.01 93.29 58.68 93.68 60.31 93.93C61.94 94.18 63.55 94.78 65.12 95.29C66.69 95.8 68.39 96.15 69.87 96.9C71.35 97.65 72.64 98.78 73.99 99.76C75.34 100.74 76.71 101.71 77.89 102.89C79.07 104.07 79.93 105.52 80.91 106.87C81.89 108.22 82.85 109.55 83.62 111.05C84.39 112.55 85.22 113.99 85.74 115.59C86.26 117.19 86.27 118.86 86.53 120.53C86.79 122.2 87.18 123.78 87.18 125.48L87.2 125.51Z" stroke="#0000FF" stroke-width="2" stroke-linejoin="round"/>
<path d="M57.23 125.51C57.23 126.57 56.38 127.43 55.32 127.43C54.26 127.43 53.38 126.57 53.38 125.51C53.38 124.45 54.25 123.57 55.32 123.57C56.39 123.57 57.23 124.45 57.23 125.51Z" fill="#0000FF"/>
<path d="M57.23 125.51C57.23 126.57 56.38 127.43 55.32 127.43C54.26 127.43 53.38 126.57 53.38 125.51C53.38 124.45 54.25 123.57 55.32 123.57C56.39 123.57 57.23 124.45 57.23 125.51Z" stroke="#0000FF" stroke-width="2" stroke-linejoin="round"/>
<path d="M55.32 125.58C57.97 125.58 57.97 125.39 60.62 125.39C63.27 125.39 63.27 125.64 65.93 125.64C68.59 125.64 68.58 125.62 71.23 125.62C73.88 125.62 73.88 125.65 76.54 125.65C79.2 125.65 79.2 125.62 81.85 125.62C84.5 125.62 84.51 125.52 87.16 125.52" stroke="#0000FF" stroke-width="2" stroke-linejoin="round"/>
<path d="M256.82 150.65C256.82 152.13 255.62 153.3 253.96 154.57C252.82 155.45 251.45 156.37 249.66 157.11C248.23 157.7 246.69 158.43 244.92 158.91C243.38 159.32 241.74 159.77 239.98 160.09C238.38 160.38 236.67 160.41 234.93 160.6C233.3 160.78 231.62 160.98 229.88 161.07C228.14 161.16 226.53 161.32 224.81 161.32C223.09 161.32 221.39 161.16 219.74 161.07C218 160.98 216.33 160.7 214.7 160.52C212.95 160.33 211.31 159.98 209.71 159.69C207.95 159.38 206.18 159.52 204.65 159.1C202.88 158.63 201.41 157.67 199.98 157.08C198.19 156.34 196.77 155.5 195.63 154.62C193.97 153.34 192.72 152.13 192.72 150.66C192.72 149.19 193.79 147.73 195.45 146.45C196.59 145.57 198.25 145.09 200.04 144.35C201.47 143.76 203.02 143.17 204.79 142.7C206.33 142.29 207.89 141.54 209.65 141.23C211.25 140.94 212.94 140.78 214.69 140.59C216.32 140.41 218.02 140.48 219.76 140.39C221.5 140.3 223.1 139.88 224.82 139.88C226.54 139.88 228.22 140.43 229.88 140.52C231.62 140.61 233.29 140.7 234.92 140.89C236.67 141.08 238.32 141.38 239.91 141.66C241.67 141.97 243.31 142.29 244.85 142.7C246.62 143.17 248.28 143.52 249.7 144.11C251.49 144.85 253.14 145.45 254.28 146.34C255.94 147.62 256.82 149.19 256.82 150.67V150.65Z" stroke="#FF0000" stroke-width="2" stroke-linejoin="round"/>
<path d="M192.96 150.65C192.96 153.36 192.77 153.36 192.77 156.07C192.77 158.78 193.2 158.78 193.2 161.49C193.2 164.2 192.8 164.2 192.8 166.91C192.8 169.62 193.18 169.62 193.18 172.34C193.18 175.06 193.18 175.05 193.18 177.77C193.18 180.49 193.13 180.48 193.13 183.2C193.13 184.68 193.82 186.1 195.47 187.38C196.61 188.26 198.08 189.16 199.87 189.89C201.3 190.48 202.99 190.78 204.75 191.26C206.29 191.67 207.86 192.43 209.62 192.74C211.22 193.03 212.95 192.95 214.69 193.14C216.32 193.32 218.02 193.28 219.75 193.37C221.48 193.46 223.08 193.5 224.81 193.5C226.54 193.5 228.24 193.87 229.89 193.78C231.63 193.69 233.31 193.43 234.94 193.25C236.69 193.06 238.41 193.03 240 192.75C241.76 192.44 243.44 192.07 244.97 191.66C246.74 191.19 248.26 190.35 249.69 189.76C251.48 189.02 252.99 188.24 254.14 187.36C255.8 186.08 256.98 184.68 256.98 183.2C256.98 180.49 256.44 180.49 256.43 177.78C256.42 175.07 256.57 175.07 256.57 172.36C256.57 169.65 256.4 169.65 256.39 166.94C256.38 164.23 256.55 164.23 256.54 161.51C256.53 158.79 256.56 158.8 256.55 156.08C256.54 153.36 258.76 152.38 256.86 150.44C254.96 148.5 253.99 150.5 251.34 150.5C248.69 150.5 248.69 150.71 246.03 150.71C243.37 150.71 243.38 150.79 240.73 150.79C238.08 150.79 238.08 150.58 235.42 150.58C232.76 150.58 232.76 150.64 230.11 150.64C227.46 150.64 227.45 150.75 224.8 150.75" stroke="#FF0000" stroke-width="2" stroke-linejoin="round"/>
<path d="M226.282 150.494C226.282 150.494 226.281 150.495 226.28 150.497C226.281 150.495 226.282 150.494 226.282 150.494ZM224.81 150.51C225.26 150.51 225.655 150.567 225.936 150.65C225.655 150.733 225.26 150.79 224.81 150.79C224.361 150.79 223.964 150.733 223.68 150.65C223.964 150.567 224.361 150.51 224.81 150.51ZM223.327 150.492C223.328 150.492 223.328 150.493 223.33 150.495C223.328 150.493 223.327 150.492 223.327 150.492ZM223.327 150.808C223.327 150.808 223.328 150.807 223.33 150.805C223.328 150.807 223.328 150.808 223.327 150.808ZM226.28 150.803C226.281 150.805 226.282 150.806 226.282 150.806C226.282 150.806 226.281 150.805 226.28 150.803Z" stroke="#FF0000"/>
<path d="M226.73 150.65C226.73 151 225.87 151.29 224.81 151.29C223.75 151.29 222.88 151 222.88 150.65C222.88 150.3 223.75 150.01 224.81 150.01C225.87 150.01 226.73 150.3 226.73 150.65Z" stroke="#FF0000" stroke-width="2" stroke-linejoin="round"/>
<path d="M123.73 176.7C121.5 175.42 121.57 178.29 119.29 179.49C117.01 180.69 116.61 179.93 114.33 181.12C112.05 182.31 112.36 182.9 110.08 184.1C107.8 185.3 107.71 185.12 105.43 186.32C103.15 187.52 102.94 187.12 100.66 188.32C98.3799 189.52 98.6699 190.07 96.3899 191.27C94.1099 192.47 93.8199 191.92 91.5399 193.12C89.2599 194.32 89.4499 194.68 87.1699 195.88C84.8899 197.08 84.7699 196.85 82.4899 198.05C80.2099 199.25 80.1999 199.23 77.9199 200.43C75.6399 201.63 75.9599 202.24 73.6799 203.44C71.3999 204.64 71.1299 204.12 68.8499 205.31C66.5699 206.5 66.5999 206.57 64.3199 207.77C62.0399 208.97 62.3499 209.56 60.0699 210.76C57.7899 211.96 57.6799 211.75 55.3999 212.94C53.1199 214.13 52.7999 213.53 50.5199 214.73C48.2399 215.93 48.6699 216.74 46.3899 217.94C44.1099 219.14 44.1199 219.16 41.8399 220.36C39.5599 221.56 39.2699 221.01 36.9899 222.2C34.7099 223.39 34.5799 223.16 32.2999 224.36C30.0199 225.56 30.0999 225.73 27.8199 226.93C25.5399 228.13 25.6799 228.4 23.3899 229.6C21.0999 230.8 18.3899 229.36 19.0899 231.85C19.7899 234.34 21.4099 231.85 24.0299 231.85C26.6499 231.85 26.6499 232.34 29.2699 232.34C31.8899 232.34 31.8899 231.98 34.5099 231.98C37.1299 231.98 37.1299 232.29 39.7499 232.29C42.3699 232.29 42.3699 232.44 44.9899 232.44C47.6099 232.44 47.6099 232.39 50.2299 232.39C52.8499 232.39 52.8499 231.7 55.4699 231.7C58.0899 231.7 58.0899 232.34 60.7099 232.34C63.3299 232.34 63.3299 231.76 65.9499 231.76C68.5699 231.76 68.5699 232 71.1899 232C73.8099 232 73.8099 231.68 76.4299 231.68C79.0499 231.68 79.0499 231.71 81.6699 231.71C84.2899 231.71 84.2899 232.04 86.9099 232.04C89.5299 232.04 89.5299 232.16 92.1499 232.16C94.7699 232.16 94.7699 231.66 97.3899 231.66C100.01 231.66 100.01 232.05 102.64 232.05C105.27 232.05 105.26 231.73 107.88 231.73C110.5 231.73 110.5 231.82 113.13 231.82C115.76 231.82 115.76 231.74 118.38 231.74C121 231.74 121.67 233.68 123.57 231.86C125.47 230.04 123.85 229.41 123.85 226.91C123.85 224.41 123.14 224.41 123.14 221.9C123.14 219.39 123.8 219.39 123.8 216.89C123.8 214.39 123.18 214.38 123.18 211.88C123.18 209.38 123.19 209.37 123.19 206.87C123.19 204.37 123.27 204.36 123.27 201.86C123.27 199.36 123.67 199.35 123.67 196.84C123.67 194.33 123.8 194.33 123.8 191.83C123.8 189.33 123.4 189.32 123.4 186.81C123.4 184.3 123.43 184.33 124.04 181.89C124.72 179.16 125.84 177.94 123.67 176.69L123.73 176.7Z" stroke="#FF0000" stroke-width="2" stroke-linejoin="round"/>
<path d="M113.19 221.45C115.05 219.59 115.79 221.41 118.42 221.41C121.05 221.41 121.82 219.56 123.68 221.41C125.54 223.26 123.7 224.04 123.7 226.67C123.7 229.3 125.53 230.06 123.67 231.92C121.81 233.78 121.05 231.96 118.42 231.96C115.79 231.96 115.06 233.75 113.2 231.89C111.34 230.03 113.69 229.24 113.15 226.67C112.57 223.94 111.34 223.3 113.2 221.44L113.19 221.45Z" stroke="#FF0000" stroke-width="2" stroke-linejoin="round"/>
<path d="M207.86 97.48C207.86 99.08 207.12 100.45 205.97 101.91C205.05 103.08 204.19 104.64 202.62 105.67C201.34 106.52 199.59 106.86 197.94 107.59C196.5 108.23 195.11 109.33 193.42 109.86C191.89 110.34 190.25 110.8 188.55 111.19C186.97 111.55 185.29 111.79 183.58 112.07C181.97 112.33 180.3 112.67 178.6 112.84C176.9 113.01 175.25 112.71 173.55 112.79C171.85 112.87 170.23 112.83 168.53 112.83C166.83 112.83 165.15 112.83 163.51 112.75C161.87 112.67 160.14 112.47 158.51 112.3C156.88 112.13 155.18 111.67 153.57 111.41C151.86 111.13 150.23 110.88 148.65 110.51C146.95 110.12 145.23 110.06 143.71 109.57C142.02 109.03 140.46 108.41 139.02 107.77C137.36 107.04 135.78 106.39 134.5 105.54C132.94 104.51 131.84 103.19 130.91 102.02C129.76 100.57 128.82 99.07 128.82 97.46" stroke="#FF0000" stroke-width="2" stroke-linejoin="round"/>
<path d="M128.84 94.37C129.94 92.05 130.51 92.32 131.6 90.01C132.69 87.7 132.56 87.63 133.66 85.31C134.76 82.99 134.69 82.96 135.78 80.64C136.87 78.32 136.74 78.26 137.84 75.94C138.94 73.62 138.74 73.53 139.84 71.21C140.94 68.89 140.95 68.9 142.05 66.58C143.15 64.26 143.57 64.47 144.67 62.15C145.77 59.83 145.69 59.79 146.78 57.48C147.87 55.17 147.88 55.16 148.97 52.85C150.06 50.54 149.92 50.47 151.02 48.15C152.12 45.83 152.22 45.88 153.31 43.56C154.4 41.24 154.04 41.07 155.14 38.75C156.24 36.43 156.28 36.45 157.37 34.13C158.46 31.81 158.65 31.9 159.75 29.58C160.85 27.26 161.07 27.37 162.16 25.05C163.25 22.73 163.39 22.79 164.49 20.47C165.59 18.15 165.6 18.15 166.7 15.83C167.8 13.51 165.96 11.24 168.53 11.23C171.1 11.22 169.52 13.38 170.61 15.7C171.7 18.02 171.9 17.93 172.99 20.25C174.08 22.57 174.32 22.46 175.41 24.78C176.5 27.1 176.11 27.28 177.21 29.6C178.31 31.92 178.75 31.71 179.84 34.03C180.93 36.35 180.57 36.52 181.66 38.84C182.75 41.16 182.66 41.2 183.75 43.52C184.84 45.84 185.26 45.64 186.36 47.96C187.46 50.28 187.04 50.47 188.14 52.79C189.24 55.11 189.07 55.19 190.16 57.51C191.25 59.83 191.85 59.55 192.94 61.87C194.03 64.19 193.54 64.43 194.63 66.74C195.72 69.05 196.25 68.81 197.34 71.13C198.43 73.45 198.44 73.45 199.54 75.76C200.64 78.07 200.55 78.12 201.65 80.44C202.75 82.76 202.86 82.71 203.95 85.03C205.04 87.35 204.64 87.55 205.73 89.87C206.82 92.19 206.75 92.23 207.85 94.55" stroke="#FF0000" stroke-width="2" stroke-linejoin="round"/>
<path d="M129.04 97.48C129.04 96.97 129.13 96.48 129.28 96" stroke="#FF0000" stroke-width="2" stroke-linejoin="round"/>
<path d="M130.77 93.4C130.86 93.28 130.95 93.16 131.04 93.05C131.96 91.88 133.14 90.78 134.7 89.75C135.98 88.9 137.4 88.05 139.06 87.32C140.5 86.68 142.02 85.96 143.7 85.42C145.22 84.94 146.79 84.25 148.49 83.85C150.07 83.49 151.8 83.59 153.51 83.32C155.12 83.06 156.78 82.91 158.49 82.73C160.12 82.56 161.78 82.36 163.49 82.28C165.14 82.2 166.81 81.72 168.51 81.72C170.21 81.72 171.91 81.71 173.55 81.79C175.26 81.88 176.94 82.11 178.57 82.28C180.28 82.46 181.88 83.15 183.49 83.41C185.2 83.69 186.94 83.54 188.51 83.9C190.21 84.29 191.67 85.31 193.2 85.79C194.89 86.33 196.48 86.78 197.92 87.41C199.58 88.14 201.07 88.86 202.35 89.7C203.91 90.73 205.26 91.72 206.18 92.89C206.63 93.45 207.02 94.03 207.34 94.62" stroke="#FF0000" stroke-width="2" stroke-linejoin="round"/>
<path d="M207.93 96C208.07 96.49 208.15 96.98 208.15 97.48" stroke="#FF0000" stroke-width="2" stroke-linejoin="round"/>
<path d="M168.36 11.01C168.36 13.55 168.64 13.55 168.64 16.1C168.64 18.65 168.32 18.64 168.32 21.18C168.32 23.72 168.59 23.72 168.59 26.27C168.59 28.82 168.44 28.81 168.44 31.36C168.44 33.91 168.88 33.9 168.88 36.45C168.88 39 168.13 38.99 168.13 41.53C168.13 44.07 168.35 44.07 168.35 46.62C168.35 49.17 168.41 49.16 168.41 51.7C168.41 54.24 168.92 54.24 168.92 56.78C168.92 59.32 168.46 59.32 168.46 61.87C168.46 64.42 168.67 64.41 168.67 66.96C168.67 69.51 168.62 69.5 168.62 72.05C168.62 74.6 168.44 74.59 168.44 77.14C168.44 79.69 168.93 79.68 168.93 82.23C168.93 84.78 168.14 84.78 168.14 87.32C168.14 89.86 168.19 89.87 168.19 92.41C168.19 94.95 167.07 95.38 168.84 97.21C170.61 99.04 171 97.48 173.47 97.48C175.94 97.48 175.93 97.81 178.4 97.81C180.87 97.81 180.86 97.75 183.33 97.76C185.8 97.77 185.8 97.68 188.26 97.69C190.72 97.7 190.72 97.53 193.19 97.54C195.66 97.55 195.66 97.27 198.12 97.28C200.58 97.29 200.59 97.77 203.05 97.77C205.51 97.77 205.52 97.85 207.98 97.86" stroke="#FF0000" stroke-width="2" stroke-linejoin="round"/>
<path d="M145.94 235.37C148.47 235.37 148.47 235.68 150.99 235.68C153.51 235.68 153.52 235.44 156.05 235.44C158.58 235.44 158.58 235.72 161.11 235.72C163.64 235.72 163.64 235.83 166.17 235.83C168.7 235.83 168.7 235.52 171.23 235.52C173.76 235.52 173.76 235.64 176.29 235.64C178.82 235.64 178.82 235.9 181.35 235.9C183.88 235.9 183.88 235.39 186.41 235.39C188.94 235.39 188.94 235.78 191.47 235.78C194 235.78 194 235.59 196.53 235.59C199.06 235.59 199.06 235.81 201.6 235.81C204.14 235.81 204.13 235.62 206.67 235.62" stroke="#0000FF" stroke-width="2" stroke-linejoin="round"/>
<path d="M176.84 178.75C176.84 181.34 176.53 181.34 176.53 183.92C176.53 186.5 176.08 186.51 176.08 189.09C176.08 191.67 176.4 191.68 176.4 194.26C176.4 196.84 175.91 196.85 175.91 199.43C175.91 202.01 175.93 202.02 175.93 204.6C175.93 207.18 176.35 207.19 176.35 209.77C176.35 212.35 176.24 212.36 176.24 214.94C176.24 217.52 176.15 217.53 176.15 220.11C176.15 222.69 175.94 222.7 175.94 225.28C175.94 227.86 176.04 227.87 176.04 230.45C176.04 233.03 176.01 233.03 176.01 235.62C176.01 238.21 175.91 238.21 175.91 240.79C175.91 243.37 176.08 243.38 176.08 245.96C176.08 248.54 176.03 248.55 176.03 251.13C176.03 253.71 176.32 253.72 176.32 256.31C176.32 258.9 176.73 258.9 176.73 261.49C176.73 264.08 176.86 264.08 176.86 266.67C176.86 269.26 176.28 269.26 176.28 271.85C176.28 274.44 176.73 274.44 176.73 277.02C176.73 279.6 176.21 279.61 176.21 282.2C176.21 284.79 176 284.79 176 287.38C176 289.97 176.58 289.97 176.58 292.56" stroke="#0000FF" stroke-width="2" stroke-linejoin="round"/>
<path d="M146.06 272.48C146.06 270.69 146.13 269 146.39 267.38C146.67 265.63 146.71 263.86 147.25 262.29C147.79 260.72 148.54 259.03 149.36 257.55C150.18 256.07 151.4 254.77 152.45 253.41C153.5 252.05 154.49 250.65 155.71 249.43C156.93 248.21 158.55 247.51 159.88 246.4C161.21 245.29 162.24 243.9 163.64 242.89C165.04 241.88 166.48 241 167.91 240.04C169.34 239.08 170.87 238.33 172.32 237.41C173.77 236.49 175.05 235.32 176.49 234.4C177.93 233.48 179.4 232.58 180.82 231.64C182.24 230.7 183.74 229.82 185.12 228.83C186.5 227.84 187.97 226.89 189.28 225.82C190.59 224.75 191.74 223.4 192.95 222.22C194.16 221.04 195.14 219.6 196.2 218.28C197.26 216.96 198.39 215.68 199.24 214.19C200.09 212.7 201.07 211.29 201.65 209.66C202.23 208.03 202.44 206.38 202.73 204.64C203 203.02 203.45 201.33 203.45 199.54" stroke="#0000FF" stroke-width="2" stroke-linejoin="round"/>
<path d="M90.4101 19.39C91.6701 19.39 92.6901 20.4 92.6901 21.66C92.6901 22.92 91.6701 23.96 90.4101 23.96C89.1501 23.96 88.1201 22.92 88.1201 21.66C88.1201 20.4 89.1401 19.39 90.4101 19.39Z" stroke="#090909" stroke-width="2" stroke-linejoin="round"/>
<path d="M92.6401 21.31C92.6401 24.45 92.6601 24.45 92.6601 27.59C92.6601 30.73 91.6901 30.9 92.6601 33.88C92.9701 34.84 94.1901 34.72 94.7401 33.88C96.1501 31.73 95.2901 31.36 95.9101 28.87C96.5301 26.38 96.5701 26.38 97.2001 23.89C97.8301 21.4 95.9301 18.88 98.5001 18.87C101.07 18.86 99.1401 21.4 99.7701 23.89C100.4 26.38 100.34 26.4 100.97 28.9C101.6 31.4 100.83 31.75 102.24 33.9C102.8 34.75 103.99 34.85 104.36 33.9C105.3 31.5 104.34 31.3 104.34 28.72C104.34 26.14 104.32 26.14 104.32 23.57C104.32 21 104.26 20.99 104.26 18.42" stroke="#090909" stroke-width="2" stroke-linejoin="round"/>
<path d="M111.1 19.36C112.36 19.36 113.38 20.4 113.38 21.67C113.38 22.94 112.37 23.98 111.1 23.98C109.83 23.98 108.82 22.94 108.82 21.67C108.82 20.4 109.84 19.36 111.1 19.36Z" stroke="#090909" stroke-width="2" stroke-linejoin="round"/>
<path d="M113.41 21.31C113.41 24.45 113.38 24.45 113.38 27.59C113.38 30.73 112.38 30.89 113.35 33.88C113.66 34.84 114.85 34.71 115.46 33.9C117 31.89 116.22 31.47 117.04 29.08C117.86 26.69 117.9 26.7 118.73 24.31C119.56 21.92 118.5 21.25 120.33 19.5C121.55 18.33 122.76 18.13 123.69 19.54C125.11 21.7 123.71 22.1 123.71 24.68C123.71 27.26 123.8 27.27 123.8 29.85C123.8 32.43 123.69 32.44 123.69 35.02" stroke="#090909" stroke-width="2" stroke-linejoin="round"/>
<path d="M65.5698 61.82C68.0798 61.82 68.0798 63.21 70.5898 63.21C73.0998 63.21 73.0998 60.58 75.6098 60.58C78.1198 60.58 78.1198 61.9 80.6298 61.9C83.1398 61.9 83.1398 61.28 85.6598 61.28C88.1798 61.28 88.1698 64.63 90.6798 64.63C93.1898 64.63 93.1898 63.85 95.7098 63.85C98.2298 63.85 98.2298 60.79 100.74 60.79C103.25 60.79 103.26 61.16 105.77 61.16" stroke="#FF0000" stroke-width="2" stroke-linejoin="round"/>
<path d="M71.9298 56.55C74.3498 56.55 74.3498 53.8 76.7598 53.8C79.1698 53.8 79.1798 55.4 81.5898 55.4C83.9998 55.4 84.0098 53.99 86.4198 53.99C88.8298 53.99 88.8398 53.4 91.2498 53.4C93.6598 53.4 93.6698 55.92 96.0898 55.92C98.5098 55.92 98.5098 54.09 100.93 54.09C103.35 54.09 103.35 55.26 105.77 55.26" stroke="#FF0000" stroke-width="2" stroke-linejoin="round"/>
<path d="M65.5698 69.8C67.8998 69.8 67.8998 70.6 70.2398 70.6C72.5798 70.6 72.5698 71.85 74.9098 71.85C77.2498 71.85 77.2498 70.56 79.5798 70.56C81.9098 70.56 81.9198 71.93 84.2598 71.93C86.5998 71.93 86.5998 70.03 88.9398 70.03" stroke="#FF0000" stroke-width="2" stroke-linejoin="round"/>
<path d="M64.7002 222.04C67.0302 222.04 67.0302 221.4 69.3702 221.4C71.7102 221.4 71.7002 221.93 74.0402 221.93C76.3802 221.93 76.3802 220.87 78.7102 220.87C81.0402 220.87 81.0502 222.19 83.3902 222.19C85.7302 222.19 85.7302 222.08 88.0702 222.08" stroke="#0000FF" stroke-width="2" stroke-linejoin="round"/>
<path d="M57.8999 188.83C60.2899 188.83 60.2899 189.01 62.6799 189.01C65.0699 189.01 65.0699 189.95 67.4699 189.95C69.8699 189.95 69.8599 189.8 72.2599 189.8" stroke="#0000FF" stroke-width="2" stroke-linejoin="round"/>
<path d="M218.8 205.5C221.6 205.5 221.6 202.94 224.41 202.94C227.22 202.94 227.21 205 230.01 205C232.81 205 232.81 205.98 235.62 205.98C238.43 205.98 238.43 205.46 241.23 205.46C244.03 205.46 244.04 203.2 246.84 203.2" stroke="#FF0000" stroke-width="2" stroke-linejoin="round"/>
<path d="M197.27 42.13C199.62 42.13 199.62 40.9 201.96 40.9C204.3 40.9 204.31 42.02 206.65 42.02C208.99 42.02 209 42.38 211.35 42.38C213.7 42.38 213.7 42.05 216.05 42.05" stroke="#0000FF" stroke-width="2" stroke-linejoin="round"/>
<path d="M226.74 118.79C229.25 118.79 229.25 119.27 231.76 119.27C234.27 119.27 234.27 119.07 236.78 119.07C239.29 119.07 239.29 115.4 241.8 115.4C244.31 115.4 244.31 120.1 246.83 120.1C249.35 120.1 249.34 115.87 251.85 115.87C254.36 115.87 254.36 115.4 256.88 115.4C259.4 115.4 259.4 119.53 261.91 119.53C264.42 119.53 264.43 116.89 266.94 116.89" stroke="#0000FF" stroke-width="2" stroke-linejoin="round"/>
<path d="M226.74 110.03C229.25 110.03 229.25 110.85 231.76 110.85C234.27 110.85 234.27 109.96 236.78 109.96C239.29 109.96 239.29 111.08 241.8 111.08C244.31 111.08 244.31 108.08 246.83 108.08C249.35 108.08 249.34 111.21 251.85 111.21C254.36 111.21 254.36 111.66 256.88 111.66C259.4 111.66 259.4 110.88 261.91 110.88C264.42 110.88 264.43 111.36 266.94 111.36" stroke="#0000FF" stroke-width="2" stroke-linejoin="round"/>
<path d="M226.74 100.17C229.25 100.17 229.25 103.48 231.76 103.48C234.27 103.48 234.27 101.6 236.78 101.6C239.29 101.6 239.29 103.77 241.8 103.77C244.31 103.77 244.31 100.4 246.83 100.4C249.35 100.4 249.34 102.99 251.85 102.99C254.36 102.99 254.36 101.01 256.88 101.01C259.4 101.01 259.4 102.12 261.91 102.12C264.42 102.12 264.43 102.94 266.94 102.94" stroke="#0000FF" stroke-width="2" stroke-linejoin="round"/>
<path d="M226.74 125.4C229.66 125.4 229.66 125.41 232.58 125.41C235.5 125.41 235.5 125.61 238.42 125.61" stroke="#0000FF" stroke-width="2" stroke-linejoin="round"/>
<path d="M48.48 272.05C50.99 272.05 50.99 271.86 53.5 271.86C56.01 271.86 56.01 269.05 58.52 269.05C61.03 269.05 61.03 269.55 63.54 269.55C66.05 269.55 66.05 269.08 68.57 269.08C71.09 269.08 71.08 271.53 73.59 271.53C76.1 271.53 76.1 268.84 78.62 268.84C81.14 268.84 81.14 269.37 83.65 269.37C86.16 269.37 86.17 269.41 88.68 269.41" stroke="#0000FF" stroke-width="2" stroke-linejoin="round"/>
<path d="M48.48 262.46C50.99 262.46 50.99 260.08 53.5 260.08C56.01 260.08 56.01 263.79 58.52 263.79C61.03 263.79 61.03 261.15 63.54 261.15C66.05 261.15 66.05 261.08 68.57 261.08C71.09 261.08 71.08 262.02 73.59 262.02C76.1 262.02 76.1 260.68 78.62 260.68C81.14 260.68 81.14 264.13 83.65 264.13C86.16 264.13 86.17 263.94 88.68 263.94" stroke="#0000FF" stroke-width="2" stroke-linejoin="round"/>
<path d="M48.48 252.02C50.99 252.02 50.99 255.06 53.5 255.06C56.01 255.06 56.01 255.17 58.52 255.17C61.03 255.17 61.03 256.39 63.54 256.39C66.05 256.39 66.05 253.78 68.57 253.78C71.09 253.78 71.08 252.89 73.59 252.89C76.1 252.89 76.1 254.08 78.62 254.08C81.14 254.08 81.14 254.54 83.65 254.54C86.16 254.54 86.17 252.16 88.68 252.16" stroke="#0000FF" stroke-width="2" stroke-linejoin="round"/>
<path d="M48.48 277.52C51.4 277.52 51.4 277.77 54.32 277.77C57.24 277.77 57.24 278 60.16 278" stroke="#0000FF" stroke-width="2" stroke-linejoin="round"/>
<path d="M125.22 266.95C127.67 266.6 130.28 265.76 132.11 263.68C130.28 261.59 127.24 260.94 124.78 260.59C126.27 258.61 129.8 254.14 129.62 251.37C126.85 251.19 122.61 254.17 120.63 255.66C120.28 253.21 119.39 249.52 117.31 247.69C115.22 249.52 114.61 253.87 114.26 256.32C112.28 254.83 110.05 253.47 107.28 253.65C107.1 256.42 108.5 258.66 109.99 260.64C107.54 260.99 104.47 261.58 102.64 263.67C104.47 265.76 105.79 267.07 108.24 267.42C106.75 269.4 105.4 272.61 105.58 275.38C108.35 275.56 111.61 274.08 113.6 272.6C113.95 275.05 115.21 276.62 117.3 278.45C119.39 276.62 120.08 273.68 120.43 271.23C122.41 272.72 126.08 275.4 128.85 275.22C129.03 272.45 126.69 268.93 125.2 266.95H125.22Z" stroke="#090909" stroke-width="2" stroke-linejoin="round"/>
<path d="M232.82 80.09C232.35 79.67 230.85 78.49 229.37 77.28C227.97 76.13 226.6 74.93 226.02 74.36C224.8 73.14 223.79 71.81 223.08 70.22C222.44 68.8 222.07 67.19 222.07 65.25C222.07 63.47 222.53 61.98 223.39 60.94C224.39 59.72 225.89 59.09 227.44 59.09C228.89 59.09 230.16 60.08 231.77 61.69C232.31 62.23 232.07 62.74 232.84 62.74C233.61 62.74 233.45 62.32 233.99 61.78C235.6 60.17 236.78 59.13 238.23 59.13C239.78 59.13 241.31 59.68 242.31 60.91C243.16 61.95 243.55 63.46 243.55 65.25C243.55 67.19 243.19 68.79 242.56 70.21C241.85 71.8 240.91 73.2 239.69 74.42C239.12 74.99 237.69 76.15 236.29 77.3C234.8 78.52 233.3 79.69 232.83 80.1L232.82 80.09Z" stroke="#090909" stroke-width="2" stroke-linejoin="round"/>
<path d="M199.37 8C200.95 8 202.26 9.26 202.26 10.84C202.26 12.42 200.95 13.68 199.37 13.68C197.79 13.68 196.49 12.42 196.49 10.84C196.49 9.26 197.79 8 199.37 8Z" stroke="#090909" stroke-width="2" stroke-linejoin="round"/>
<path d="M207.96 10.86C209.54 10.86 210.8 12.12 210.8 13.7C210.8 15.28 209.54 16.57 207.96 16.57C206.38 16.57 205.07 15.28 205.07 13.7C205.07 12.12 206.38 10.86 207.96 10.86Z" stroke="#090909" stroke-width="2" stroke-linejoin="round"/>
<path d="M216.54 12.88C218.12 12.88 219.42 14.18 219.42 15.76C219.42 17.34 218.12 18.63 216.54 18.63C214.96 18.63 213.66 17.34 213.66 15.76C213.66 14.18 214.96 12.88 216.54 12.88Z" stroke="#090909" stroke-width="2" stroke-linejoin="round"/>
<path d="M196.48 16.57C196.48 14.71 198.26 13.37 200.06 13.82C200.78 14 200.79 13.96 201.5 14.13C202.77 14.45 203.71 15.61 203.71 16.92C203.71 19.49 203.62 19.49 203.62 22.06C203.62 24.63 205.75 25.71 203.66 27.21C200.76 29.3 199.35 29.37 196.48 27.24C194.35 25.65 196.48 24.55 196.48 21.89C196.48 19.23 196.48 19.23 196.48 16.57Z" stroke="#090909" stroke-width="2" stroke-linejoin="round"/>
<path d="M210.82 21.87C210.82 20.15 212.33 18.8 214.04 19.01C215.47 19.19 215.47 19.22 216.9 19.39C218.33 19.57 219.42 20.78 219.42 22.22C219.42 24.71 221.02 25.31 219.4 27.2C218 28.83 217.26 27.24 215.11 27.24C212.96 27.24 212.63 28.35 210.81 27.22C208.54 25.81 210.82 24.53 210.82 21.86V21.87Z" stroke="#090909" stroke-width="2" stroke-linejoin="round"/>
<path d="M203.64 19.25C203.64 17.44 205.32 16.04 207.1 16.39C207.82 16.53 207.8 16.63 208.51 16.77C209.85 17.04 210.77 18.17 210.77 19.53C210.77 23.36 213.42 24.38 210.8 27.19C208.36 29.81 206.79 28.93 203.67 27.19C201.93 26.22 203.67 25.22 203.67 23.23C203.67 21.24 203.65 21.24 203.65 19.25H203.64Z" stroke="#090909" stroke-width="2" stroke-linejoin="round"/>
<path d="M22.1802 172.29C24.8902 172.29 24.8902 172.52 27.6002 172.52C30.3102 172.52 30.3102 172.29 33.0202 172.29C35.7302 172.29 35.7302 172.46 38.4402 172.46C41.1502 172.46 41.1502 172.56 43.8602 172.56C46.5702 172.56 46.5702 172.52 49.2802 172.52C51.9902 172.52 53.2602 170.13 54.6202 172.48C55.9802 174.83 53.3302 174.76 51.9802 177.11C50.6302 179.46 50.7802 179.55 49.4302 181.89C48.0802 184.23 48.0202 184.2 46.6702 186.55C45.3202 188.9 45.3002 188.89 43.9502 191.24C42.6002 193.59 42.5402 193.56 41.1902 195.91C39.8402 198.26 39.7202 198.2 38.3702 200.55" stroke="#090909" stroke-width="2" stroke-linejoin="round"/>
<path d="M26.6202 180.07C28.8302 180.07 28.8302 180.09 31.0402 180.09C33.2502 180.09 33.2502 180.02 35.4602 180.02C37.6702 180.02 38.7502 178.13 39.8602 180.05C40.9702 181.97 38.7902 181.96 37.6902 183.87C36.5902 185.78 36.5302 185.75 35.4302 187.67C34.3302 189.59 34.3402 189.59 33.2402 191.51" stroke="#090909" stroke-width="2" stroke-linejoin="round"/>
<path d="M24.6802 54.41C27.4202 54.41 27.4202 54.71 30.1702 54.71C32.9202 54.71 32.9102 54.44 35.6602 54.44C38.4102 54.44 38.4002 54.49 41.1502 54.49C43.9002 54.49 43.9002 54.42 46.6402 54.42C49.3802 54.42 49.3902 54.63 52.1302 54.63C54.8702 54.63 54.8802 54.44 57.6202 54.44" stroke="#090909" stroke-width="2" stroke-linejoin="round"/>
<path d="M53.0302 51.19C52.5302 49.45 51.6402 47.9 50.5002 46.56C49.3602 45.22 47.9202 44.15 46.2902 43.4C44.6602 42.65 43.0002 42.12 41.1502 42.12C39.3002 42.12 37.5402 42.59 35.9702 43.32C34.4002 44.05 33.0002 45.26 31.8502 46.61C30.7002 47.96 29.6602 49.43 29.1602 51.17" stroke="#090909" stroke-width="2" stroke-linejoin="round"/>
<path d="M29.1502 58C29.6502 59.74 30.5602 61.34 31.7102 62.68C32.8602 64.02 34.3602 65.07 35.9902 65.82C37.6202 66.57 39.3102 66.88 41.1602 66.88C43.0102 66.88 44.7502 66.53 46.3202 65.8C47.8902 65.07 49.3802 63.96 50.5302 62.61C51.6802 61.26 52.5002 59.68 52.9902 57.94" stroke="#090909" stroke-width="2" stroke-linejoin="round"/>
<path d="M35.1702 57.97C36.3602 60.06 38.5802 61.44 41.1602 61.44C43.7402 61.44 45.9102 60.03 47.1002 57.94" stroke="#090909" stroke-width="2" stroke-linejoin="round"/>
<path d="M47.1102 51.2C45.9202 49.11 43.7302 47.66 41.1502 47.66C38.5702 47.66 36.3202 49.08 35.1302 51.17" stroke="#090909" stroke-width="2" stroke-linejoin="round"/>
<path d="M249.74 164.39C249.74 162.82 250.26 161.32 251.06 159.97C251.86 158.62 252.9 157.42 254.25 156.61C255.6 155.8 257.11 155.39 258.73 155.39C260.35 155.39 261.93 155.76 263.24 156.55C264.55 157.34 265.73 158.56 266.52 159.89C267.31 161.22 267.69 162.81 267.69 164.38C267.69 167.37 267.7 167.37 267.7 170.36C267.7 173.35 267.7 173.35 267.7 176.34C267.7 179.33 267.75 185.32 267.75 182.32C267.75 179.18 267.71 179.18 267.71 176.04C267.71 172.9 269.87 172.03 267.65 169.81C265.43 167.59 264.56 169.74 261.42 169.74C258.28 169.74 258.28 169.67 255.14 169.67" stroke="#090909" stroke-width="2" stroke-linejoin="round"/>
<path d="M255.14 169.76C256.63 169.76 257.95 170.41 258.92 171.38C259.89 172.35 260.47 173.67 260.47 175.16C260.47 176.65 259.92 178 258.95 178.97C257.98 179.94 256.63 180.55 255.14 180.55C253.65 180.55 252.32 179.93 251.35 178.95C250.38 177.97 249.73 176.65 249.73 175.16C249.73 173.67 250.35 172.32 251.33 171.35C252.31 170.38 253.66 169.76 255.14 169.76Z" stroke="#090909" stroke-width="2" stroke-linejoin="round"/>
<path d="M269.5 153.62C269.5 155.97 268.73 158.26 267.3 160.14" stroke="#090909" stroke-width="2" stroke-linejoin="round"/>
<path d="M231.95 246.81C230.3 244.69 230.39 244.63 228.75 242.51C227.11 240.39 227 240.48 225.35 238.36C223.7 236.24 223.77 236.19 222.12 234.07C220.47 231.95 221.49 229.75 218.8 229.75C216.11 229.75 217.21 232.01 215.56 234.12C213.91 236.23 213.84 236.18 212.2 238.3C210.56 240.42 210.58 240.44 208.93 242.56C207.28 244.68 207.27 244.67 205.62 246.79" stroke="#090909" stroke-width="2" stroke-linejoin="round"/>
<path d="M243.84 257.92C241.54 257.92 241.54 257.79 239.25 257.79C236.96 257.79 236.95 257.72 234.65 257.72C232.35 257.72 232.35 257.82 230.05 257.82C227.75 257.82 227.42 259.11 225.4 258.01C223.02 256.73 223.74 255.82 222.08 253.68C220.42 251.54 221.51 249.62 218.8 249.62C216.09 249.62 217.29 251.63 215.63 253.76C213.97 255.89 214.63 256.8 212.25 258.08C210.23 259.17 209.86 257.67 207.57 257.67C205.28 257.67 205.27 257.79 202.97 257.79C200.67 257.79 200.67 257.97 198.37 257.97C196.07 257.97 196.07 257.76 193.77 257.76" stroke="#090909" stroke-width="2" stroke-linejoin="round"/>
<path d="M238.65 252.52C236.18 252.52 236.18 252.22 233.72 252.22C231.26 252.22 231.05 253.36 228.86 252.22C226.45 250.97 226.97 250.34 225.31 248.2C223.65 246.06 223.92 245.84 222.26 243.7C220.6 241.56 221.52 239.71 218.81 239.71C216.1 239.71 217.3 241.77 215.64 243.91C213.98 246.05 213.82 245.93 212.15 248.07C210.48 250.21 211.18 251.01 208.78 252.26C206.59 253.39 206.36 252.19 203.89 252.19C201.42 252.19 201.42 252.27 198.96 252.27" stroke="#090909" stroke-width="2" stroke-linejoin="round"/>
<path d="M72.0501 92.42C72.0501 94.09 71.7801 95.73 71.1701 97.18C70.5601 98.63 69.5701 100.05 68.4301 101.18C67.2901 102.31 65.8701 103.14 64.3701 103.76C62.8701 104.38 61.3401 104.81 59.6701 104.81C58.0001 104.81 56.3701 104.49 54.9201 103.89C53.4701 103.29 52.1701 102.19 51.0301 101.06C49.8901 99.93 48.8301 98.68 48.2001 97.17C47.5701 95.66 47.3501 94.09 47.3501 92.42C47.3501 90.75 47.7801 89.2 48.3801 87.75C48.9801 86.3 49.8001 84.83 50.9401 83.7C52.0801 82.57 53.4201 81.6 54.9201 80.97C56.4201 80.34 57.9901 79.99 59.6601 79.99C61.3301 79.99 62.8901 80.5 64.3501 81.11C65.8101 81.72 67.1801 82.64 68.3201 83.77C69.4601 84.9 70.5501 86.15 71.1701 87.66C71.7901 89.17 72.0401 90.75 72.0401 92.43L72.0501 92.42Z" stroke="#090909" stroke-width="2" stroke-linejoin="round"/>
<path d="M66.8501 92.42C66.8501 94.39 66.0301 96.21 64.7401 97.49C63.4501 98.77 61.6301 99.56 59.6701 99.56C57.7101 99.56 55.9501 98.71 54.6601 97.42C53.3701 96.13 52.5401 94.38 52.5401 92.41C52.5401 90.44 53.3901 88.71 54.6801 87.42C55.9701 86.13 57.7001 85.29 59.6701 85.29C61.6401 85.29 63.4201 86.09 64.7001 87.38C65.9801 88.67 66.8501 90.45 66.8501 92.41V92.42Z" stroke="#090909" stroke-width="2" stroke-linejoin="round"/>
</svg>
