<svg width="8" height="8" viewBox="0 0 8 8" fill="none" xmlns="http://www.w3.org/2000/svg">
<path fill-rule="evenodd" clip-rule="evenodd" d="M5.24156 3.4873C5.32456 3.562 5.41309 3.64693 5.49797 3.74199C5.76042 4.03593 6 4.44111 6 5C6 5.34114 5.84669 5.6637 5.68962 5.915C5.52514 6.17818 5.31379 6.42969 5.11477 6.64197C4.91389 6.85625 4.71467 7.04205 4.56656 7.1737C4.49217 7.23983 4.42986 7.29301 4.38562 7.33009C4.36348 7.34864 4.34582 7.3632 4.33337 7.37338L4.31869 7.38533L4.31444 7.38876L4.31312 7.38982L4.31266 7.39018L4.31249 7.39032C4.31242 7.39038 4.31235 7.39043 4 7C3.68765 7.39043 3.68758 7.39038 3.68751 7.39032L3.68734 7.39018L3.68688 7.38982L3.68556 7.38876L3.68131 7.38533L3.66663 7.37338C3.65418 7.3632 3.63652 7.34864 3.61438 7.33009C3.57014 7.29301 3.50783 7.23983 3.43344 7.1737C3.28533 7.04205 3.08611 6.85625 2.88523 6.64197C2.68621 6.42969 2.47486 6.17818 2.31038 5.915C2.15331 5.6637 2 5.34114 2 5C2 4.65972 2.08708 4.37891 2.23351 4.14707C2.37497 3.92307 2.55609 3.77043 2.7 3.6625C2.74871 3.62597 2.80203 3.58826 2.84589 3.55724C2.86311 3.54505 2.87888 3.5339 2.89233 3.52426C2.93442 3.4941 2.96421 3.47157 2.98641 3.45307C2.98214 3.44286 2.97654 3.43108 2.96917 3.41782C2.94054 3.36628 2.89068 3.30286 2.81265 3.24043C2.65973 3.1181 2.39774 3 2 3H1V2H2C3.16626 2 4 2.72551 4 3.5C4 3.82256 3.82698 4.04001 3.68161 4.17326C3.61139 4.23763 3.53622 4.29309 3.47485 4.33707C3.45082 4.35429 3.42934 4.36948 3.40914 4.38375C3.37095 4.41074 3.33738 4.43446 3.3 4.4625C3.19391 4.54207 3.12503 4.60818 3.07899 4.68106C3.03792 4.74609 3 4.84028 3 5C3 5.05886 3.03419 5.1863 3.15837 5.385C3.27514 5.57182 3.43879 5.77031 3.61477 5.95803C3.74895 6.10115 3.88412 6.2315 4 6.33792C4.11588 6.2315 4.25105 6.10115 4.38523 5.95803C4.56121 5.77031 4.72486 5.57182 4.84163 5.385C4.96581 5.1863 5 5.05886 5 5C5 4.75889 4.90625 4.58074 4.75203 4.40801C4.67105 4.3173 4.57744 4.23295 4.47148 4.14213C4.45387 4.12703 4.43516 4.11115 4.41572 4.09465C4.32953 4.02146 4.22904 3.93615 4.14645 3.85355L4 3.70711V3.5C4 3.24996 4.13149 3.07461 4.23558 2.97238C4.33382 2.87589 4.45536 2.79765 4.5475 2.74006C4.58283 2.71798 4.61803 2.69637 4.65317 2.6748C4.825 2.56931 4.99517 2.46484 5.17075 2.31121C5.55437 1.97555 6 1.36662 6 0H7C7 1.63338 6.44563 2.52445 5.82925 3.06379C5.62002 3.24687 5.40666 3.38528 5.24156 3.4873ZM4 7L3.68765 7.39043L4 7.64031L4.31235 7.39043L4 7Z" fill="#231F20"/>
</svg>
