<svg width="8" height="8" viewBox="0 0 8 8" fill="none" xmlns="http://www.w3.org/2000/svg">
<g clip-path="url(#clip0_611_88105)">
<path fill-rule="evenodd" clip-rule="evenodd" d="M4.41851 1.73497C4.28047 1.6143 4.13985 1.49138 4 1.367C3.86014 1.49138 3.71953 1.6143 3.58148 1.73498C3.52094 1.7879 3.4609 1.84039 3.40163 1.89238C2.95753 2.28194 2.53853 2.65889 2.17029 3.05545C1.43254 3.84995 1 4.6158 1 5.5C1 6.51659 1.62609 7 2.25 7L5.75 7C6.37391 7 7 6.51659 7 5.5C7 4.6158 6.56746 3.84995 5.82971 3.05545C5.46147 2.65889 5.04247 2.28194 4.59838 1.89238C4.5391 1.84039 4.47905 1.7879 4.41851 1.73497ZM4.0009 0.000897535C4.0006 0.000598081 4.0003 0.000299104 4 -3.49691e-07C3.67697 0.323027 3.30757 0.646055 2.92674 0.979069C1.53918 2.19243 3.90047e-07 3.53838 2.18557e-07 5.5C8.74228e-08 7 1.00736 8 2.25 8L5.75 8C6.99264 8 8 7 8 5.5C8 3.53838 6.46082 2.19243 5.07326 0.979069C4.69278 0.646363 4.32371 0.323626 4.0009 0.000897535Z" fill="#231F20"/>
</g>
<defs>
<clipPath id="clip0_611_88105">
<rect width="8" height="8" fill="white"/>
</clipPath>
</defs>
</svg>
