<svg width="8" height="8" viewBox="0 0 8 8" fill="none" xmlns="http://www.w3.org/2000/svg">
<g clip-path="url(#clip0_611_88103)">
<path fill-rule="evenodd" clip-rule="evenodd" d="M6.34928 3.02695C6.96936 3.12299 7.53662 3.47178 8 4.00006C7.53659 4.52837 6.96929 4.87718 6.34917 4.97319C6.71971 5.47956 6.87419 6.1273 6.8283 6.8285C6.12715 6.87439 5.47945 6.71994 4.9731 6.34946C4.87703 6.96949 4.52825 7.53671 4.00001 8.00006C3.47175 7.5367 3.12296 6.96947 3.0269 6.34942C2.52055 6.71993 1.87282 6.87439 1.17165 6.82851C1.12576 6.1273 1.28024 5.47955 1.65078 4.97318C1.03068 4.87716 0.463396 4.52836 0 4.00006C0.463357 3.47181 1.03059 3.12302 1.65063 3.02696C1.28009 2.5206 1.12561 1.87285 1.1715 1.17165C1.87273 1.12576 2.5205 1.28025 3.02687 1.65082C3.12289 1.03071 3.47169 0.463405 4 0C4.52828 0.463381 4.87708 1.03065 4.97312 1.65072C5.47948 1.28018 6.12724 1.12569 6.82844 1.17158C6.87434 1.8728 6.71985 2.52057 6.34928 3.02695ZM4.00002 6.00006C4.24621 5.56817 4.41445 5.04604 4.47506 4.47502C5.04604 4.41441 5.56814 4.2462 6.00001 4.00003C5.56814 3.75385 5.04605 3.58562 4.47506 3.52499C4.41444 2.95399 4.24621 2.43187 4.00002 2C3.75384 2.43187 3.58561 2.95398 3.52499 3.52497C2.95399 3.58558 2.43188 3.7538 2 3.99997C2.43187 4.24616 2.95398 4.41439 3.52498 4.47502C3.5856 5.04604 3.75383 5.56817 4.00002 6.00006Z" fill="#231F20"/>
</g>
<defs>
<clipPath id="clip0_611_88103">
<rect width="8" height="8" fill="white"/>
</clipPath>
</defs>
</svg>
