<svg width="8" height="8" viewBox="0 0 8 8" fill="none" xmlns="http://www.w3.org/2000/svg">
<path fill-rule="evenodd" clip-rule="evenodd" d="M4.36997 0.663642L4 0.999978L3.64645 0.646425L4.01724 0.275635L4.36997 0.663642ZM3.98724 1.75692C3.95531 1.79488 3.92282 1.83434 3.89043 1.87483C3.7734 2.02112 3.66604 2.17032 3.59037 2.30274C3.52372 2.41938 3.50611 2.48143 3.50155 2.49749C3.50021 2.5022 3.5 2.50295 3.5 2.49998C3.5 2.58736 3.54873 2.7166 3.66605 2.83392C3.78338 2.95125 3.91262 2.99998 4 2.99998C4.08738 2.99998 4.21662 2.95125 4.33395 2.83392C4.44145 2.72642 4.49136 2.60891 4.49896 2.52277C4.49745 2.51843 4.49544 2.51299 4.49279 2.50638C4.47803 2.46946 4.45217 2.41733 4.41278 2.35036C4.33409 2.21659 4.22316 2.06015 4.10369 1.90483C4.06462 1.85405 4.02545 1.80442 3.98724 1.75692ZM4 0.999978C3.64645 0.646425 3.6465 0.646374 3.64645 0.646425L3.64502 0.647852L3.64216 0.650731L3.63231 0.660711L3.59733 0.696626C3.56774 0.727275 3.52608 0.771025 3.47635 0.824901C3.37738 0.932121 3.2441 1.08197 3.10957 1.25013C2.9766 1.41634 2.83396 1.61089 2.72213 1.8066C2.62082 1.98389 2.5 2.23685 2.5 2.49998C2.5 2.91259 2.70127 3.28336 2.95895 3.54103C3.21662 3.7987 3.58738 3.99998 4 3.99998C4.41262 3.99998 4.78338 3.7987 5.04105 3.54103C5.29873 3.28336 5.5 2.91259 5.5 2.49998C5.5 2.35736 5.45832 2.22762 5.42127 2.13499C5.38135 2.03518 5.32908 1.93575 5.27472 1.84334C5.16591 1.65836 5.02684 1.46481 4.89631 1.29512C4.76427 1.12347 4.63327 0.966332 4.53588 0.852707C4.48699 0.795668 4.4461 0.749056 4.4172 0.716431L4.38321 0.678316L4.37382 0.667887L4.37118 0.664971L4.36997 0.663642C4.36993 0.663601 4.36997 0.663642 4 0.999978Z" fill="white"/>
<path fill-rule="evenodd" clip-rule="evenodd" d="M1.67075 5.06379C1.17678 4.63157 0.5 3.99704 0.5 3H1.5C1.5 3.50296 1.82322 3.86843 2.32925 4.31121C2.37252 4.34907 2.41802 4.38826 2.46482 4.42857C2.66418 4.60026 2.8871 4.79226 3.0612 4.98813C3.28252 5.23711 3.5 5.57112 3.5 6V8H2.5V6C2.5 5.92888 2.46748 5.82539 2.3138 5.65249C2.1883 5.51131 2.03169 5.3761 1.83855 5.20935C1.78542 5.16348 1.72952 5.11522 1.67075 5.06379Z" fill="white"/>
<path fill-rule="evenodd" clip-rule="evenodd" d="M6.32925 5.06379C6.82322 4.63157 7.5 3.99704 7.5 3H6.5C6.5 3.50296 6.17678 3.86843 5.67075 4.31121C5.62748 4.34907 5.58198 4.38826 5.53518 4.42857C5.33582 4.60026 5.1129 4.79226 4.9388 4.98813C4.71748 5.23711 4.5 5.57112 4.5 6V8H5.5V6C5.5 5.92888 5.53252 5.82539 5.6862 5.65249C5.8117 5.51131 5.96831 5.3761 6.16145 5.20935C6.21458 5.16348 6.27048 5.11522 6.32925 5.06379Z" fill="white"/>
</svg>
