<svg width="8" height="8" viewBox="0 0 8 8" fill="none" xmlns="http://www.w3.org/2000/svg">
<path fill-rule="evenodd" clip-rule="evenodd" d="M3.9984 0.998396C3.49884 0.498932 2.95606 0 2.25 0C1.00736 0 0 1 0 2.5C0 4.76501 1.42507 5.88996 2.76891 6.95078C3.20469 7.29479 3.63193 7.63205 3.99927 7.99927C3.99951 7.99951 3.99976 7.99976 4 8C4.3675 7.6325 4.79502 7.29502 5.23109 6.95078C6.57493 5.88996 8 4.76501 8 2.5C8 1 6.99264 0 5.75 0C5.04318 0 4.5 0.5 4 1C3.99947 0.999465 3.99893 0.998931 3.9984 0.998396ZM4 6.65651C4.20065 6.4901 4.40159 6.33151 4.5931 6.18038C4.60818 6.16847 4.62321 6.15662 4.63817 6.1448C5.08948 5.78851 5.49697 5.46382 5.85539 5.10539C6.53834 4.42244 7 3.66271 7 2.5C7 1.48341 6.37391 1 5.75 1C5.51563 1 5.2516 1.16261 4.70711 1.70711L4 2.41421L3.29289 1.70711C2.7484 1.16261 2.48437 1 2.25 1C1.62609 1 1 1.48341 1 2.5C1 3.66271 1.46166 4.42244 2.14461 5.10539C2.50303 5.46382 2.91052 5.78851 3.36183 6.1448C3.37679 6.15662 3.39182 6.16848 3.4069 6.18038C3.59841 6.33152 3.79935 6.4901 4 6.65651Z" fill="white"/>
</svg>
