<svg width="8" height="8" viewBox="0 0 8 8" fill="none" xmlns="http://www.w3.org/2000/svg">
<path fill-rule="evenodd" clip-rule="evenodd" d="M5 3V2C5 1.44772 4.55228 1 4 1C3.44772 1 3 1.44772 3 2V3H2C1.44772 3 1 3.44772 1 4C1 4.55228 1.44772 5 2 5H6C6.55228 5 7 4.55228 7 4C7 3.44772 6.55228 3 6 3H5ZM4 0C5.10457 0 6 0.895431 6 2C7.10457 2 8 2.89543 8 4C8 5.10457 7.10457 6 6 6H2C0.895431 6 0 5.10457 0 4C0 2.89543 0.895431 2 2 2C2 0.895431 2.89543 0 4 0Z" fill="#231F20"/>
<path d="M3 5H5V8H3V5Z" fill="#231F20"/>
</svg>
