<svg width="8" height="8" viewBox="0 0 8 8" fill="none" xmlns="http://www.w3.org/2000/svg">
<path fill-rule="evenodd" clip-rule="evenodd" d="M7.31371 3.67157C8.22876 4.54738 8.22876 5.96734 7.31371 6.84315C6.39865 7.71895 4.91506 7.71895 4 6.84315C3.08494 7.71895 1.60135 7.71895 0.686291 6.84315C-0.228764 5.96734 -0.228764 4.54738 0.686292 3.67157L4 0.5L7.31371 3.67157ZM4.82843 6.05025L2.34315 3.67157L4 2.08579L6.48528 4.46447C6.94281 4.90237 6.94281 5.61235 6.48528 6.05025C6.02775 6.48816 5.28596 6.48816 4.82843 6.05025ZM1.51472 4.46447C1.05719 4.90237 1.05719 5.61235 1.51472 6.05025C1.97225 6.48816 2.71405 6.48816 3.17157 6.05025L1.51472 4.46447Z" fill="white"/>
</svg>
