<svg width="8" height="8" viewBox="0 0 8 8" fill="none" xmlns="http://www.w3.org/2000/svg">
<path d="M2 1.5C2 2.05228 1.55228 2.5 1 2.5C0.447715 2.5 0 2.05228 0 1.5C0 0.947715 0.447715 0.5 1 0.5C1.55228 0.5 2 0.947715 2 1.5Z" fill="#231F20"/>
<path d="M5 2.5C5 3.05228 4.55228 3.5 4 3.5C3.44772 3.5 3 3.05228 3 2.5C3 1.94772 3.44772 1.5 4 1.5C4.55228 1.5 5 1.94772 5 2.5Z" fill="#231F20"/>
<path d="M8 3.5C8 4.05228 7.55228 4.5 7 4.5C6.44772 4.5 6 4.05228 6 3.5C6 2.94772 6.44772 2.5 7 2.5C7.55228 2.5 8 2.94772 8 3.5Z" fill="#231F20"/>
<path d="M0 3.78077C0 3.1302 0.611389 2.65284 1.24254 2.81062L1.74254 2.93562C2.1877 3.04692 2.5 3.4469 2.5 3.90577V7.49999H0V3.78077Z" fill="#231F20"/>
<path d="M5 5.63278C5 5.03128 5.52718 4.56589 6.12403 4.6405L7.12403 4.7655C7.62446 4.82805 8 5.25345 8 5.75778V7.49999H5V5.63278Z" fill="#231F20"/>
<path d="M2.5 4.71982C2.5 4.08878 3.07732 3.61548 3.69612 3.73924L4.19612 3.83924C4.66354 3.93273 5 4.34314 5 4.81982V7.50002H2.5V4.71982Z" fill="#231F20"/>
</svg>
