<svg width="8" height="8" viewBox="0 0 8 8" fill="none" xmlns="http://www.w3.org/2000/svg">
<path fill-rule="evenodd" clip-rule="evenodd" d="M4 1C2.90719 1 2 1.97557 2 3H1C1 1.4471 2.33138 0 4 0C5.66862 0 7 1.4471 7 3V8H6V5H3V4H6V3C6 1.97557 5.09281 1 4 1Z" fill="#231F20"/>
<path fill-rule="evenodd" clip-rule="evenodd" d="M3 7C3.55228 7 4 6.55228 4 6C4 5.44772 3.55228 5 3 5C2.44772 5 2 5.44772 2 6C2 6.55228 2.44772 7 3 7ZM3 8C4.10457 8 5 7.10457 5 6C5 4.89543 4.10457 4 3 4C1.89543 4 1 4.89543 1 6C1 7.10457 1.89543 8 3 8Z" fill="#231F20"/>
<path fill-rule="evenodd" clip-rule="evenodd" d="M5.99048 1.51269C6.32107 1.07769 6.50006 0.546367 6.50006 0H7.50006C7.50006 0.764914 7.24948 1.50877 6.78665 2.11777L5.99048 1.51269Z" fill="#231F20"/>
</svg>
