<svg width="20" height="20" viewBox="0 0 20 20" fill="none" xmlns="http://www.w3.org/2000/svg">
<path d="M19.5 10.1572C19.5 10.6274 19.3989 11.0919 19.2501 11.5736C19.1757 11.8144 19.0912 12.0541 19.0032 12.3005C18.9931 12.3286 18.983 12.3569 18.9728 12.3852C18.8952 12.6021 18.8153 12.8252 18.7428 13.0475C18.4318 14.0018 18.0549 14.9263 17.4958 15.7057C16.9186 16.5102 16.2313 17.2332 15.4454 17.8203C14.6421 18.4205 13.7889 18.9205 12.8649 19.2291C12.0929 19.487 11.3124 19.4818 10.3945 19.4758C10.2517 19.4748 10.1055 19.4739 9.95547 19.4739C9.70726 19.4739 9.45986 19.4807 9.22183 19.4872C9.19557 19.4879 9.16942 19.4887 9.14339 19.4894C8.87848 19.4966 8.62505 19.5025 8.37686 19.4989C7.87998 19.4917 7.43051 19.4461 7.0149 19.3087C6.12219 19.0137 5.25336 18.4612 4.43582 17.8504C3.64828 17.262 2.95042 16.5375 2.36342 15.7325C1.75154 14.8934 1.19132 14.0579 0.891459 13.1289C0.587494 12.1872 0.5 11.2038 0.5 10.1472C0.5 9.07432 0.5606 8.04917 0.851445 7.15677C0.987038 6.74074 1.22627 6.33516 1.52322 5.91388C1.67103 5.70419 1.82859 5.49679 1.9911 5.28401C2.00255 5.26902 2.01404 5.25398 2.02554 5.23892C2.17542 5.04275 2.32945 4.84115 2.47454 4.63891C2.5866 4.48272 2.69442 4.32836 2.80012 4.17703C3.29706 3.46559 3.74725 2.82107 4.37104 2.36794C4.97102 1.93211 5.66464 1.71703 6.45633 1.47154C6.66538 1.40672 6.88126 1.33978 7.10406 1.26609C7.34206 1.18738 7.57628 1.10171 7.80118 1.01945C7.82091 1.01223 7.84056 1.00504 7.86013 0.997888C8.10592 0.908056 8.34122 0.822932 8.57644 0.748337C9.04583 0.599476 9.49308 0.5 9.95547 0.5C10.9834 0.5 12.0086 0.635302 12.9089 0.926564C13.313 1.05727 13.7073 1.29818 14.1212 1.60246C14.3271 1.75379 14.5305 1.91514 14.7405 2.08195L14.749 2.08867C14.9538 2.2513 15.1655 2.41948 15.3793 2.57659C15.5644 2.7127 15.7468 2.84136 15.9244 2.9667C16.5996 3.44324 17.207 3.87185 17.6448 4.47945C18.1118 5.12745 18.3488 5.8861 18.6165 6.74318C18.6667 6.9039 18.718 7.06808 18.7721 7.23564C18.8447 7.46067 18.9187 7.67549 18.9904 7.88346C19.2622 8.67244 19.5 9.36278 19.5 10.1371V10.1572Z" stroke="#090909" stroke-linejoin="round"/>
<g clip-path="url(#clip0_2338_42610)">
<path d="M16.75 12.34C16.47 12.85 16.15 12.39 15.56 12.39C14.97 12.39 14.97 12.32 14.39 12.32C13.81 12.32 13.8 12.35 13.22 12.35C12.64 12.35 12.63 12.32 12.05 12.32C11.47 12.32 11.46 12.27 10.88 12.27C10.3 12.27 10.29 12.31 9.70999 12.31C9.12999 12.31 9.11999 12.39 8.53999 12.39C7.95999 12.39 7.94999 12.38 7.35999 12.38C6.76999 12.38 6.76999 12.33 6.18999 12.33C5.60999 12.33 5.59999 12.3 5.00999 12.3C4.41999 12.3 4.41999 12.39 3.82999 12.39C3.23999 12.39 2.87999 12.87 2.58999 12.36C2.27999 11.82 2.94999 11.78 3.21999 11.23C3.48999 10.68 3.49999 10.68 3.76999 10.13C4.03999 9.58 4.03999 9.57 4.31999 9.02C4.59999 8.47 4.63999 8.48 4.90999 7.93C5.17999 7.38 5.16999 7.36 5.44999 6.81C5.72999 6.26 5.41999 5.98 5.94999 5.65C6.47999 5.32 6.58999 5.68 7.20999 5.68C7.82999 5.68 7.82999 5.71 8.44999 5.71C9.06999 5.71 9.06999 5.62 9.68999 5.62C10.31 5.62 10.31 5.62 10.93 5.62C11.55 5.62 11.55 5.62 12.18 5.62C12.81 5.62 12.87 5.41 13.4 5.74C13.93 6.07 13.71 6.24 13.99 6.8C14.27 7.36 14.25 7.36 14.52 7.91C14.79 8.46 14.84 8.44 15.11 9C15.38 9.56 15.37 9.57 15.64 10.12C15.91 10.67 15.73 10.81 16.13 11.28C16.57 11.81 17.05 11.82 16.75 12.36V12.34Z" stroke="#090909" stroke-linejoin="round"/>
<path d="M4.51001 8.59C6.23001 8.59 6.23001 8.52 7.95001 8.52C9.67001 8.52 9.67001 8.54 11.4 8.54C13.13 8.54 13.12 8.54 14.85 8.54" stroke="#090909" stroke-linejoin="round"/>
<path d="M7.86001 5.66C7.46001 7.33 7.49001 7.33 7.09001 9C6.69001 10.67 6.66001 10.66 6.26001 12.33" stroke="#090909" stroke-linejoin="round"/>
<path d="M11.38 5.66C11.78 7.33 11.74 7.34 12.14 9C12.54 10.66 12.57 10.66 12.97 12.32" stroke="#090909" stroke-linejoin="round"/>
<path d="M9.68999 5.66C9.68999 7.33 9.68999 7.33 9.68999 8.99C9.68999 10.65 9.64999 10.66 9.64999 12.32" stroke="#090909" stroke-linejoin="round"/>
</g>
<defs>
<clipPath id="clip0_2338_42610">
<rect width="15.34" height="8.1" fill="white" transform="translate(2 5)"/>
</clipPath>
</defs>
</svg>
