<svg width="70" height="70" viewBox="0 0 70 70" fill="none" xmlns="http://www.w3.org/2000/svg">
<g clip-path="url(#clip0_2338_42314)">
<path d="M60.4 46.84C59.35 48.33 58.51 47.02 56.69 47.02C54.87 47.02 54.87 46.76 53.04 46.76C51.21 46.76 51.22 46.88 49.39 46.88C47.56 46.88 47.56 46.78 45.74 46.78C43.92 46.78 43.92 46.58 42.09 46.58C40.26 46.58 40.27 46.72 38.44 46.72C36.61 46.72 36.61 47.03 34.79 47.03C32.97 47.03 32.96 46.98 31.14 46.98C29.32 46.98 29.31 46.8 27.49 46.8C25.67 46.8 25.66 46.69 23.84 46.69C22.02 46.69 22.01 47.02 20.19 47.02C18.37 47.02 18.36 47.04 16.54 47.04C14.72 47.04 14.71 46.7 12.88 46.7C11.05 46.7 10.36 48.22 9.3 46.73C8.32 45.36 10.04 45.3 10.79 43.79C11.54 42.28 11.69 42.35 12.44 40.84C13.19 39.33 13.13 39.3 13.88 37.79C14.63 36.28 14.39 36.16 15.14 34.65C15.89 33.14 16 33.19 16.75 31.68C17.5 30.17 17.6 30.22 18.35 28.71C19.1 27.2 18.81 27.05 19.56 25.54C20.31 24.03 19.68 23.29 21.12 22.4C22.56 21.51 22.93 22.35 24.62 22.35C26.31 22.35 26.31 22.81 28 22.81C29.69 22.81 29.69 22.58 31.38 22.58C33.07 22.58 33.07 22.64 34.76 22.64C36.45 22.64 36.45 22.47 38.14 22.47C39.83 22.47 39.83 22.55 41.52 22.55C43.21 22.55 43.21 22.83 44.91 22.83C46.61 22.83 46.97 21.52 48.42 22.41C49.87 23.3 49.14 24.07 49.89 25.58C50.64 27.09 50.53 27.14 51.28 28.66C52.03 30.18 51.96 30.21 52.71 31.72C53.46 33.23 53.77 33.08 54.52 34.59C55.27 36.1 54.89 36.29 55.64 37.8C56.39 39.31 56.7 39.16 57.46 40.67C58.22 42.18 57.65 42.55 58.75 43.83C59.99 45.28 61.37 45.46 60.39 46.84H60.4Z" stroke="#090909" stroke-width="2" stroke-linejoin="round"/>
<path d="M18.62 27.98C20.41 27.98 20.41 27.76 22.21 27.76C24.01 27.76 24 27.83 25.8 27.83C27.6 27.83 27.59 27.83 29.39 27.83C31.19 27.83 31.18 27.78 32.98 27.78C34.78 27.78 34.77 27.78 36.57 27.78C38.37 27.78 38.36 27.91 40.16 27.91C41.96 27.91 41.95 27.71 43.75 27.71C45.55 27.71 45.55 27.73 47.35 27.73C49.15 27.73 49.15 27.8 50.95 27.8" stroke="#090909" stroke-width="2" stroke-linejoin="round"/>
<path d="M14.22 36.86C16.09 36.86 16.09 36.57 17.96 36.57C19.83 36.57 19.83 36.66 21.69 36.66C23.55 36.66 23.56 36.67 25.43 36.67C27.3 36.67 27.3 36.61 29.17 36.61C31.04 36.61 31.04 36.62 32.91 36.62C34.78 36.62 34.78 36.79 36.65 36.79C38.52 36.79 38.52 36.53 40.39 36.53C42.26 36.53 42.26 36.55 44.13 36.55C46 36.55 46 36.64 47.87 36.64C49.74 36.64 49.74 36.58 51.61 36.58C53.48 36.58 53.48 36.91 55.35 36.91" stroke="#090909" stroke-width="2" stroke-linejoin="round"/>
<path d="M28.15 22.59C27.74 24.32 27.83 24.34 27.41 26.06C26.99 27.78 26.89 27.76 26.48 29.48C26.07 31.2 26.15 31.23 25.74 32.95C25.33 34.67 25.32 34.67 24.91 36.4C24.5 38.13 24.55 38.14 24.14 39.87C23.73 41.6 23.7 41.59 23.29 43.32C22.88 45.05 22.9 45.06 22.49 46.79" stroke="#090909" stroke-width="2" stroke-linejoin="round"/>
<path d="M40.92 22.59C41.33 24.32 41.21 24.35 41.62 26.07C42.03 27.79 42.16 27.76 42.57 29.49C42.98 31.22 43.03 31.2 43.45 32.93C43.87 34.66 43.67 34.7 44.08 36.43C44.49 38.16 44.66 38.12 45.07 39.85C45.48 41.58 45.46 41.59 45.87 43.32C46.28 45.05 46.11 45.09 46.52 46.82" stroke="#090909" stroke-width="2" stroke-linejoin="round"/>
<path d="M34.8 22.6C34.8 24.33 34.82 24.33 34.82 26.05C34.82 27.77 34.66 27.77 34.66 29.5C34.66 31.23 34.82 31.23 34.82 32.95C34.82 34.67 34.81 34.68 34.81 36.4C34.81 38.12 34.72 38.13 34.72 39.86C34.72 41.59 34.79 41.59 34.79 43.32C34.79 45.05 34.77 45.05 34.77 46.78" stroke="#090909" stroke-width="2" stroke-linejoin="round"/>
</g>
<defs>
<clipPath id="clip0_2338_42314">
<rect width="53.73" height="27.55" fill="white" transform="translate(8 21)"/>
</clipPath>
</defs>
</svg>
