<svg width="20" height="20" viewBox="0 0 20 20" fill="none" xmlns="http://www.w3.org/2000/svg">
<path d="M8.65066 10.8104C9.0699 10.3913 9.07989 10.4013 9.49913 9.98218C9.98825 9.48328 9.99823 8.67507 9.49913 8.18615C9.00003 7.69723 8.18151 7.69723 7.6924 8.18615C7.27315 8.60523 6.55445 8.52543 6.87387 9.02433C8.33124 11.2993 8.33124 11.5288 10.687 12.8659C11.3358 13.235 11.226 12.327 11.7451 11.7982C12.3041 11.2394 12.2941 10.3315 11.7251 9.77269C11.1561 9.21392 10.2578 9.19395 9.69877 9.7627C9.16972 10.2915 9.15975 10.2815 8.6307 10.8104" stroke="#090909" stroke-miterlimit="10"/>
<path d="M6.93378 7.56732C8.67729 9.31015 10.4275 11.0496 12.1843 12.7858" stroke="#090909" stroke-miterlimit="10"/>
<path d="M14.7795 9.08404C14.3602 9.08404 13.9909 8.9144 13.7214 8.63502C13.5317 8.72482 13.3221 8.76474 13.1025 8.76474C12.304 8.76474 11.7051 8.12613 11.7051 7.31791C11.7051 7.0485 11.7649 6.78907 11.8947 6.56956C11.5853 6.30015 11.3856 5.92102 11.3856 5.48199C11.3856 5.16269 11.4854 4.84339 11.6651 4.60391C11.166 4.45424 10.607 4.42432 10.068 4.42432C7.05346 4.42432 4.60788 6.84892 4.60788 9.85231C4.60788 12.8557 7.06344 15.2903 10.068 15.2903C13.0726 15.2903 15.5082 12.8657 15.5082 9.85231C15.5082 9.53301 15.4683 9.26365 15.4084 8.96431C15.2087 9.06409 15.029 9.07405 14.7895 9.07405L14.7795 9.08404Z" stroke="#090909" stroke-linejoin="round"/>
<path d="M19.0261 12.8387C19.3288 11.9213 19.5 10.8866 19.5 9.86228L19.0261 12.8387ZM19.0261 12.8387C18.7191 13.7689 18.2511 14.7576 17.6789 15.5452M19.0261 12.8387L17.6789 15.5452M17.6789 15.5452C17.1236 16.3097 16.2993 16.9363 15.4462 17.5482M17.6789 15.5452L15.4462 17.5482M15.4462 17.5482C14.6489 18.1202 13.7506 18.538 12.7818 18.8448M15.4462 17.5482L12.7818 18.8448M12.7818 18.8448C12.6734 18.8792 12.5665 18.9135 12.4609 18.9473M12.7818 18.8448L12.4609 18.9473M12.4609 18.9473C11.5524 19.2388 10.7381 19.5 9.85832 19.5M12.4609 18.9473L9.85832 19.5M9.85832 19.5C9.06064 19.5 8.314 19.2418 7.50589 18.9624M9.85832 19.5L7.50589 18.9624M7.50589 18.9624C7.32747 18.9007 7.14605 18.838 6.96043 18.7768M7.50589 18.9624L6.96043 18.7768M6.96043 18.7768C6.83454 18.7353 6.70912 18.6947 6.58454 18.6544M6.96043 18.7768L6.58454 18.6544M6.58454 18.6544C5.71007 18.3714 4.87682 18.1017 4.21277 17.6197M6.58454 18.6544L4.21277 17.6197M4.21277 17.6197C3.4186 17.0432 2.67694 16.2928 2.0976 15.4954M4.21277 17.6197L2.0976 15.4954M2.0976 15.4954C1.50873 14.6848 0.990188 13.7746 0.69193 12.843M2.0976 15.4954L0.69193 12.843M0.69193 12.843C0.553601 12.4108 0.508229 11.9525 0.501071 11.4516M0.69193 12.843L0.501071 11.4516M0.501071 11.4516C0.497491 11.2012 0.503431 10.9461 0.51061 10.6796M0.501071 11.4516L0.51061 10.6796M0.51061 10.6796C0.511312 10.6535 0.512027 10.6273 0.512746 10.601M0.51061 10.6796L0.512746 10.601M0.512746 10.601C0.519283 10.3614 0.526076 10.1125 0.526076 9.86228M0.512746 10.601L0.526076 9.86228M0.526076 9.86228C0.526076 8.84611 0.704453 7.91143 1.00998 6.98568M0.526076 9.86228L1.00998 6.98568M1.00998 6.98568C1.31459 6.06268 1.75116 5.18177 2.32718 4.38889M1.00998 6.98568L2.32718 4.38889M2.32718 4.38889C2.90363 3.59539 3.5845 2.92352 4.39329 2.33381M2.32718 4.38889L4.39329 2.33381M4.39329 2.33381C4.61373 2.17308 4.82829 2.00365 5.0343 1.84098M4.39329 2.33381L5.0343 1.84098M5.0343 1.84098L5.03636 1.83935M5.0343 1.84098L5.03636 1.83935M5.03636 1.83935C5.24558 1.67414 5.4462 1.51577 5.64999 1.36701M5.03636 1.83935L5.64999 1.36701M5.64999 1.36701C6.05768 1.06943 6.45315 0.829381 6.88061 0.688372M5.64999 1.36701L6.88061 0.688372M6.88061 0.688372C7.30906 0.547039 7.76427 0.503822 8.26477 0.50025M6.88061 0.688372L8.26477 0.50025M8.26477 0.50025C8.51522 0.498463 8.77006 0.5065 9.03747 0.515422M8.26477 0.50025L9.03747 0.515422M9.03747 0.515422L9.07301 0.516609M9.03747 0.515422L9.07301 0.516609M9.07301 0.516609C9.32654 0.525087 9.59135 0.533942 9.85832 0.533942M9.07301 0.516609L9.85832 0.533942M9.85832 0.533942C10.9065 0.533942 11.8594 0.631165 12.772 0.91975M9.85832 0.533942L12.772 0.91975M12.772 0.91975C13.7475 1.2282 14.7049 1.57745 15.4708 2.14255M12.772 0.91975L15.4708 2.14255M15.4708 2.14255C16.2587 2.72386 16.9529 3.47195 17.5498 4.28992M15.4708 2.14255L17.5498 4.28992M17.5498 4.28992C18.1358 5.09294 18.5809 5.98211 18.8845 6.94016M17.5498 4.28992L18.8845 6.94016M18.8845 6.94016C19.2081 7.96103 19.5 8.88493 19.5 9.87227L18.8845 6.94016Z" stroke="#090909" stroke-linejoin="round"/>
</svg>
