<svg width="70" height="71" viewBox="0 0 70 71" fill="none" xmlns="http://www.w3.org/2000/svg">
<path d="M48.2998 13.6299C50.5698 14.2699 46.0798 14.49 44.1398 16.19C43.0298 17.16 42.1498 18.64 41.4098 20.08C40.7198 21.42 40.0098 23 40.2598 24.68C40.4598 26 41.4098 27.35 42.5398 28.86C43.5798 30.26 44.7098 31.57 45.6998 32.94C46.6898 34.31 47.4898 35.8299 47.9598 37.5399C48.3698 39.0199 48.3998 40.6499 48.0498 42.6199C47.7898 44.0699 47.1598 45.6 46.3398 47.43C45.7098 48.82 44.9498 50.31 43.9298 51.96C43.1098 53.29 42.4398 55.2499 41.3298 56.7799C38.2698 57.4099 38.1198 56.47 34.9898 56.47C31.8598 56.47 31.8098 56.95 28.7398 56.32C27.6298 54.8 26.5798 53.4699 25.7598 52.1399C24.7398 50.4899 23.7798 49.0399 23.1498 47.6599C22.3298 45.8299 22.0398 44.1099 21.7798 42.6599C21.4298 40.6899 21.1498 38.91 21.5598 37.43C22.0298 35.72 23.0998 34.23 24.0998 32.83C25.0998 31.43 26.2698 30.1799 27.3098 28.7799C28.4298 27.2799 29.3098 25.9899 29.5198 24.6699C29.7798 22.9899 29.3098 21.41 28.6098 20.07C27.8698 18.64 26.7098 17.46 25.5898 16.48C23.6498 14.79 19.4298 14.37 21.6998 13.73C24.2498 13.01 24.3798 13.9899 27.0298 13.9899C29.6798 13.9899 29.6798 14.1199 32.3298 14.1199C34.9798 14.1199 34.9798 14.1199 37.6298 14.1199C40.2798 14.1199 40.2698 13.9099 42.9098 13.6199C45.5498 13.3299 45.7298 12.9399 48.2898 13.6599L48.2998 13.6299Z" stroke="#090909" stroke-width="2" stroke-linejoin="round"/>
</svg>
