<svg width="20" height="20" viewBox="0 0 20 20" fill="none" xmlns="http://www.w3.org/2000/svg">
<path d="M19.47 9.98989C19.47 10.0456 19.4791 10.0992 19.496 10.1492C19.475 10.5659 19.3745 10.9811 19.2346 11.4128C19.1558 11.6561 19.0668 11.8979 18.9746 12.1476L18.967 12.1681C18.8784 12.4082 18.7866 12.6567 18.7054 12.9054C18.6307 13.1345 18.5663 13.3487 18.5032 13.5585C18.4182 13.8412 18.3355 14.1161 18.233 14.4094C18.0638 14.8933 17.8704 15.3298 17.6058 15.6981C17.1268 16.365 16.4355 16.8602 15.6795 17.4018C15.5678 17.4819 15.4546 17.563 15.3405 17.6458C14.5311 18.2331 13.6878 18.6734 12.7299 18.9899C11.756 19.3116 10.8512 19.5 9.83963 19.5C8.74434 19.5 7.76867 19.4955 6.87934 19.2019C5.9768 18.9039 5.09894 18.3461 4.27111 17.7383C3.49381 17.1676 2.85043 16.4083 2.24271 15.566C1.66134 14.7601 1.26242 13.8912 0.944281 12.9068C0.633846 11.9461 0.518937 11.03 0.518937 9.98989C0.518937 9.73892 0.513878 9.50766 0.50897 9.28326C0.50239 8.98243 0.49608 8.69394 0.502588 8.38685C0.513379 7.87769 0.561213 7.4139 0.695494 6.98908C0.979831 6.08955 1.54878 5.19409 2.1534 4.3523C2.16604 4.3347 2.17867 4.31711 2.19129 4.29954C2.79938 3.4527 3.38441 2.63796 4.14208 2.0792C4.85463 1.55371 5.71947 1.26694 6.6581 0.955692C6.73519 0.930129 6.81278 0.9044 6.89082 0.878361C7.814 0.570345 8.74983 0.5 9.80966 0.5C10.8332 0.5 11.7809 0.662489 12.7144 0.961064C13.6172 1.2498 14.4551 1.76827 15.2783 2.37268C15.439 2.49066 15.5975 2.60376 15.7527 2.71447C16.4546 3.21534 17.0882 3.66737 17.5464 4.3026C18.114 5.08934 18.4443 6.01941 18.7636 7.03833C18.8281 7.24425 18.8938 7.44298 18.9577 7.63667C19.2289 8.45764 19.47 9.1879 19.47 9.98989Z" stroke="#090909" stroke-linejoin="round"/>
<g clip-path="url(#clip0_2297_41673)">
<path d="M14.1 6.68C14.1 4.32 12.21 2.5 9.85 2.5C7.49 2.5 5.5 4.32 5.5 6.68C5.5 7.97 5.8 8.62 7.05 9.92C8.85 11.42 6.62 12.1 8.11 12.92C9.6 13.74 10.03 13.66 11.55 12.84C13.07 12.02 11.1 11.33 12.67 9.95C13.58 9.17 14.1 7.99 14.1 6.69V6.68Z" stroke="#090909" stroke-linejoin="round"/>
<path d="M11.43 14.28C11.83 14.28 12.17 14 12.17 13.6C12.17 13.2 11.83 12.91 11.43 12.91C9.84 12.91 9.84 12.91 8.26 12.91C7.86 12.91 7.5 13.21 7.5 13.6C7.5 13.99 7.86 14.33 8.26 14.33C7.86 14.33 7.52 14.64 7.52 15.03C7.52 15.42 7.87 15.76 8.26 15.76C9.85 15.76 9.85 15.76 11.43 15.76C11.83 15.76 12.12 15.43 12.12 15.03C12.12 14.63 11.82 14.28 11.43 14.28Z" stroke="#090909" stroke-linejoin="round"/>
<path d="M11.05 15.75C11.05 16.42 10.52 16.97 9.84999 16.97C9.17999 16.97 8.64999 16.42 8.64999 15.75" stroke="#090909" stroke-linejoin="round"/>
<path d="M9.66001 12.89C9.66001 11.43 10.33 11.28 9.63002 10C8.82002 8.51 7.29001 8.48 10.81 8.38C14.33 8.28 5.02001 6.22 10.59 6.03" stroke="#090909" stroke-linejoin="round"/>
</g>
<defs>
<clipPath id="clip0_2297_41673">
<rect width="9.6" height="15.47" fill="white" transform="translate(5 2)"/>
</clipPath>
</defs>
</svg>
