<svg width="20" height="20" viewBox="0 0 20 20" fill="none" xmlns="http://www.w3.org/2000/svg">
<path d="M19.47 9.98989C19.47 10.0456 19.4791 10.0992 19.496 10.1492C19.475 10.5659 19.3745 10.9811 19.2346 11.4128C19.1558 11.6561 19.0668 11.8979 18.9746 12.1476L18.967 12.1681C18.8784 12.4082 18.7866 12.6567 18.7054 12.9054C18.6307 13.1345 18.5663 13.3487 18.5032 13.5585C18.4182 13.8412 18.3355 14.1161 18.233 14.4094C18.0638 14.8933 17.8704 15.3298 17.6058 15.6981C17.1268 16.365 16.4355 16.8602 15.6795 17.4018C15.5678 17.4819 15.4546 17.563 15.3405 17.6458C14.5311 18.2331 13.6878 18.6734 12.7299 18.9899C11.756 19.3116 10.8512 19.5 9.83963 19.5C8.74434 19.5 7.76867 19.4955 6.87934 19.2019C5.9768 18.9039 5.09894 18.3461 4.27111 17.7383C3.49381 17.1676 2.85043 16.4083 2.24271 15.566C1.66134 14.7601 1.26242 13.8912 0.944281 12.9068C0.633846 11.9461 0.518937 11.03 0.518937 9.98989C0.518937 9.73892 0.513878 9.50766 0.50897 9.28326C0.50239 8.98243 0.49608 8.69394 0.502588 8.38685C0.513379 7.87769 0.561213 7.4139 0.695494 6.98908C0.979831 6.08955 1.54878 5.19409 2.1534 4.3523C2.16604 4.3347 2.17867 4.31711 2.19129 4.29954C2.79938 3.4527 3.38441 2.63796 4.14208 2.0792C4.85463 1.55371 5.71947 1.26694 6.6581 0.955692C6.73519 0.930129 6.81278 0.9044 6.89082 0.878361C7.814 0.570345 8.74983 0.5 9.80966 0.5C10.8332 0.5 11.7809 0.662489 12.7144 0.961064C13.6172 1.2498 14.4551 1.76827 15.2783 2.37268C15.439 2.49066 15.5975 2.60376 15.7527 2.71447C16.4546 3.21534 17.0882 3.66737 17.5464 4.3026C18.114 5.08934 18.4443 6.01941 18.7636 7.03833C18.8281 7.24425 18.8938 7.44298 18.9577 7.63667C19.2289 8.45764 19.47 9.1879 19.47 9.98989Z" stroke="#090909" stroke-linejoin="round"/>
<path d="M13.6458 3.79809C14.8047 4.47486 12.1573 4.4749 11.5778 5.60621C11.2181 6.29308 11.2481 7.2021 11.9774 8.192C12.5769 9.00008 13.1863 9.73745 13.456 10.7172C13.6558 11.4647 13.7058 12.3435 13.1563 13.5859C12.8366 14.3132 12.3371 15.1516 11.6178 16.1314C9.87941 16.5354 9.7895 16.5051 8.05115 16.1111C7.34182 15.1212 6.88226 14.2929 6.55257 13.5657C6.00309 12.3232 5.98311 11.4546 6.19291 10.7071C6.46266 9.72734 7.142 9.05063 7.74143 8.24255C8.47074 7.25265 8.25096 6.40416 7.8913 5.70719C7.31185 4.57588 4.87416 4.50519 6.03306 3.82843C7.12203 3.19206 7.30185 3.86875 8.57065 3.86875C9.83945 3.86875 9.84944 4.04055 11.0883 3.82843C12.3271 3.61631 12.5469 3.17184 13.6458 3.8082V3.79809Z" stroke="#090909" stroke-linejoin="round"/>
</svg>
