<svg width="70" height="70" viewBox="0 0 70 70" fill="none" xmlns="http://www.w3.org/2000/svg">
<g clip-path="url(#clip0_2338_42487)">
<path d="M34.79 25.35C34.79 23.48 34.71 23.48 34.71 21.6C34.71 19.72 34.74 19.73 34.74 17.85C34.74 15.97 34.77 15.97 34.77 14.1C34.77 12.23 34.91 12.22 34.91 10.35" stroke="#090909" stroke-width="2" stroke-linejoin="round"/>
<path d="M39.34 15.95C38.22 14.44 38.22 14.44 37.1 12.93C35.98 11.42 36.71 9.99 34.83 9.99C32.95 9.99 33.69 11.42 32.57 12.94C31.45 14.46 31.42 14.42 30.3 15.94" stroke="#090909" stroke-width="2" stroke-linejoin="round"/>
<path d="M34.72 59.45C34.72 57.58 34.74 57.58 34.74 55.7C34.74 53.82 34.96 53.83 34.96 51.95C34.96 50.07 34.89 50.07 34.89 48.2C34.89 46.33 34.94 46.32 34.94 44.45" stroke="#090909" stroke-width="2" stroke-linejoin="round"/>
<path d="M30.35 53.41C31.47 54.92 31.45 54.94 32.56 56.45C33.67 57.96 32.95 59.39 34.83 59.39C36.71 59.39 35.89 57.89 37 56.37C38.11 54.85 38.15 54.88 39.26 53.37" stroke="#090909" stroke-width="2" stroke-linejoin="round"/>
<path d="M44.17 34.68C46.04 34.68 46.04 34.77 47.92 34.77C49.8 34.77 49.79 34.63 51.67 34.63C53.55 34.63 53.55 34.75 55.42 34.75C57.29 34.75 57.3 34.75 59.17 34.75" stroke="#090909" stroke-width="2" stroke-linejoin="round"/>
<path d="M53.5 39.11C55.01 37.99 55.05 38.04 56.56 36.92C58.07 35.8 59.52 36.57 59.52 34.69C59.52 32.81 58.06 33.59 56.54 32.47C55.02 31.35 55.04 31.34 53.52 30.23" stroke="#090909" stroke-width="2" stroke-linejoin="round"/>
<path d="M10.08 34.7C11.95 34.7 11.95 34.63 13.83 34.63C15.71 34.63 15.7 34.55 17.58 34.55C19.46 34.55 19.46 34.64 21.33 34.64C23.2 34.64 23.21 34.59 25.08 34.59" stroke="#090909" stroke-width="2" stroke-linejoin="round"/>
<path d="M16.16 30.27C14.65 31.39 14.58 31.3 13.07 32.42C11.56 33.54 10 32.81 10 34.69C10 36.57 11.63 35.75 13.14 36.87C14.65 37.99 14.56 38.11 16.07 39.23" stroke="#090909" stroke-width="2" stroke-linejoin="round"/>
<path d="M41.49 41.24C42.82 42.56 42.72 42.65 44.05 43.98C45.38 45.31 45.44 45.24 46.77 46.56C48.1 47.88 48.02 47.97 49.35 49.29C50.68 50.61 50.78 50.52 52.11 51.84" stroke="#090909" stroke-width="2" stroke-linejoin="round"/>
<path d="M44.91 51.11C46.77 51.39 46.77 51.38 48.63 51.66C50.49 51.94 50.99 53.47 52.32 52.14C53.65 50.81 52.08 50.32 51.79 48.46C51.5 46.6 51.56 46.59 51.28 44.74" stroke="#090909" stroke-width="2" stroke-linejoin="round"/>
<path d="M17.34 17.18C18.67 18.5 18.63 18.53 19.96 19.86C21.29 21.19 21.22 21.25 22.54 22.58C23.86 23.91 23.87 23.9 25.2 25.23C26.53 26.56 26.54 26.54 27.87 27.87" stroke="#090909" stroke-width="2" stroke-linejoin="round"/>
<path d="M24.75 18.3C23.51 18.1133 22.27 17.9267 21.03 17.74C19.17 17.46 18.61 15.85 17.29 17.18C15.97 18.51 17.65 19.05 17.94 20.91C18.23 22.77 18.13 22.78 18.42 24.64" stroke="#090909" stroke-width="2" stroke-linejoin="round"/>
<path d="M28.28 41.35C26.96 42.68 26.9 42.62 25.58 43.95C24.26 45.28 24.19 45.21 22.87 46.54C21.55 47.87 21.58 47.91 20.26 49.23C18.94 50.55 18.94 50.57 17.62 51.89" stroke="#090909" stroke-width="2" stroke-linejoin="round"/>
<path d="M18.5 44.78C18.22 46.64 18.16 46.63 17.88 48.49C17.6 50.35 16.07 50.83 17.4 52.16C18.73 53.49 19.22 52 21.08 51.71C22.94 51.42 22.93 51.35 24.79 51.07" stroke="#090909" stroke-width="2" stroke-linejoin="round"/>
<path d="M52.32 17.17C51 18.5 50.98 18.48 49.65 19.8C48.32 21.12 48.34 21.14 47.02 22.46C45.7 23.78 45.68 23.78 44.36 25.11C43.04 26.44 43.08 26.49 41.76 27.82" stroke="#090909" stroke-width="2" stroke-linejoin="round"/>
<path d="M51.17 24.61C51.45 22.75 51.54 22.76 51.82 20.91C52.1 19.06 53.69 18.47 52.36 17.14C51.03 15.81 50.46 17.45 48.6 17.74C46.74 18.03 46.75 18.07 44.89 18.36" stroke="#090909" stroke-width="2" stroke-linejoin="round"/>
</g>
<defs>
<clipPath id="clip0_2338_42487">
<rect width="51.52" height="51.39" fill="white" transform="translate(9 9)"/>
</clipPath>
</defs>
</svg>
