<svg width="156" height="156" viewBox="0 0 156 156" fill="none" xmlns="http://www.w3.org/2000/svg">
<g clip-path="url(#clip0_2297_41693)">
<path d="M84.97 77.99C84.97 79.23 84.66 80.44 84.09 81.44C83.52 82.44 82.54 83.29 81.51 83.88C80.48 84.47 79.34 84.74 78.11 84.74C76.88 84.74 75.77 84.34 74.77 83.77C73.77 83.2 72.87 82.39 72.27 81.36C71.67 80.33 71.36 79.23 71.36 77.99C71.36 76.75 71.61 75.57 72.18 74.57C72.75 73.57 73.71 72.77 74.74 72.17C75.77 71.57 76.86 71.23 78.1 71.23C79.34 71.23 80.49 71.54 81.49 72.12C82.49 72.7 83.46 73.53 84.05 74.56C84.64 75.59 84.96 76.76 84.96 78L84.97 77.99Z" fill="#F6FF94"/>
<path d="M84.97 77.99C84.97 79.23 84.66 80.44 84.09 81.44C83.52 82.44 82.54 83.29 81.51 83.88C80.48 84.47 79.34 84.74 78.11 84.74C76.88 84.74 75.77 84.34 74.77 83.77C73.77 83.2 72.87 82.39 72.27 81.36C71.67 80.33 71.36 79.23 71.36 77.99C71.36 76.75 71.61 75.57 72.18 74.57C72.75 73.57 73.71 72.77 74.74 72.17C75.77 71.57 76.86 71.23 78.1 71.23C79.34 71.23 80.49 71.54 81.49 72.12C82.49 72.7 83.46 73.53 84.05 74.56C84.64 75.59 84.96 76.76 84.96 78L84.97 77.99Z" stroke="#090909" stroke-width="2" stroke-linejoin="round"/>
<path d="M40.57 77.99C40.57 79.44 39.88 80.68 38.93 81.62C37.98 82.56 36.74 83.2 35.3 83.2C33.86 83.2 32.49 82.7 31.54 81.75C30.59 80.8 30 79.44 30 77.99C30 76.54 30.58 75.17 31.53 74.22C32.48 73.27 33.85 72.73 35.3 72.73C36.75 72.73 38.04 73.35 38.99 74.3C39.94 75.25 40.57 76.54 40.57 77.99Z" fill="#F6FF94"/>
<path d="M40.57 77.99C40.57 79.44 39.88 80.68 38.93 81.62C37.98 82.56 36.74 83.2 35.3 83.2C33.86 83.2 32.49 82.7 31.54 81.75C30.59 80.8 30 79.44 30 77.99C30 76.54 30.58 75.17 31.53 74.22C32.48 73.27 33.85 72.73 35.3 72.73C36.75 72.73 38.04 73.35 38.99 74.3C39.94 75.25 40.57 76.54 40.57 77.99Z" stroke="#090909" stroke-width="2" stroke-linejoin="round"/>
<path d="M126.11 77.99C126.11 79.44 125.52 80.68 124.57 81.62C123.62 82.56 122.38 83.19 120.94 83.19C119.5 83.19 118.13 82.69 117.18 81.74C116.23 80.79 115.67 79.43 115.67 77.98C115.67 76.53 116.36 75.29 117.31 74.35C118.26 73.41 119.5 72.77 120.94 72.77C122.38 72.77 123.75 73.27 124.7 74.22C125.65 75.17 126.11 76.53 126.11 77.98V77.99Z" fill="#F6FF94"/>
<path d="M126.11 77.99C126.11 79.44 125.52 80.68 124.57 81.62C123.62 82.56 122.38 83.19 120.94 83.19C119.5 83.19 118.13 82.69 117.18 81.74C116.23 80.79 115.67 79.43 115.67 77.98C115.67 76.53 116.36 75.29 117.31 74.35C118.26 73.41 119.5 72.77 120.94 72.77C122.38 72.77 123.75 73.27 124.7 74.22C125.65 75.17 126.11 76.53 126.11 77.98V77.99Z" stroke="#090909" stroke-width="2" stroke-linejoin="round"/>
<path d="M78.11 40.33C76.66 40.33 75.4 39.78 74.45 38.83C73.5 37.88 72.91 36.62 72.91 35.17C72.91 33.72 73.42 32.38 74.37 31.44C75.32 30.5 76.66 30 78.1 30C79.54 30 80.79 30.59 81.73 31.54C82.67 32.49 83.3 33.73 83.3 35.17C83.3 36.61 82.8 37.98 81.85 38.93C80.9 39.88 79.54 40.33 78.09 40.33H78.11Z" fill="#F6FF94"/>
<path d="M78.11 40.33C76.66 40.33 75.4 39.78 74.45 38.83C73.5 37.88 72.91 36.62 72.91 35.17C72.91 33.72 73.42 32.38 74.37 31.44C75.32 30.5 76.66 30 78.1 30C79.54 30 80.79 30.59 81.73 31.54C82.67 32.49 83.3 33.73 83.3 35.17C83.3 36.61 82.8 37.98 81.85 38.93C80.9 39.88 79.54 40.33 78.09 40.33H78.11Z" stroke="#090909" stroke-width="2" stroke-linejoin="round"/>
<path d="M78.11 125.97C76.66 125.97 75.31 125.51 74.36 124.56C73.41 123.61 72.85 122.26 72.85 120.81C72.85 119.36 73.48 118.08 74.43 117.13C75.38 116.18 76.66 115.65 78.11 115.65C79.56 115.65 80.82 116.2 81.77 117.15C82.72 118.1 83.31 119.36 83.31 120.81C83.31 122.26 82.8 123.6 81.85 124.54C80.9 125.48 79.56 125.96 78.12 125.96L78.11 125.97Z" fill="#F6FF94"/>
<path d="M78.11 125.97C76.66 125.97 75.31 125.51 74.36 124.56C73.41 123.61 72.85 122.26 72.85 120.81C72.85 119.36 73.48 118.08 74.43 117.13C75.38 116.18 76.66 115.65 78.11 115.65C79.56 115.65 80.82 116.2 81.77 117.15C82.72 118.1 83.31 119.36 83.31 120.81C83.31 122.26 82.8 123.6 81.85 124.54C80.9 125.48 79.56 125.96 78.12 125.96L78.11 125.97Z" stroke="#090909" stroke-width="2" stroke-linejoin="round"/>
<path d="M104.58 51.47C103.56 50.45 103.1 49.03 103.1 47.69C103.1 46.35 103.57 44.95 104.59 43.92C105.61 42.89 107.02 42.43 108.36 42.43C109.7 42.43 110.98 43.01 112.01 44.03C113.04 45.05 113.67 46.33 113.67 47.68C113.67 49.03 113.11 50.37 112.09 51.4C111.07 52.43 109.72 52.89 108.37 52.89C107.02 52.89 105.61 52.49 104.59 51.47H104.58Z" fill="#F6FF94"/>
<path d="M104.58 51.47C103.56 50.45 103.1 49.03 103.1 47.69C103.1 46.35 103.57 44.95 104.59 43.92C105.61 42.89 107.02 42.43 108.36 42.43C109.7 42.43 110.98 43.01 112.01 44.03C113.04 45.05 113.67 46.33 113.67 47.68C113.67 49.03 113.11 50.37 112.09 51.4C111.07 52.43 109.72 52.89 108.37 52.89C107.02 52.89 105.61 52.49 104.59 51.47H104.58Z" stroke="#090909" stroke-width="2" stroke-linejoin="round"/>
<path d="M44.19 111.98C43.17 110.96 42.52 109.64 42.52 108.3C42.52 106.96 43.07 105.56 44.09 104.53C45.11 103.5 46.51 102.99 47.85 102.99C49.19 102.99 50.61 103.48 51.63 104.51C52.65 105.54 53.11 106.95 53.11 108.29C53.11 109.63 52.64 111.03 51.62 112.06C50.6 113.09 49.19 113.55 47.85 113.55C46.51 113.55 45.19 113 44.17 111.98H44.19Z" fill="#F6FF94"/>
<path d="M44.19 111.98C43.17 110.96 42.52 109.64 42.52 108.3C42.52 106.96 43.07 105.56 44.09 104.53C45.11 103.5 46.51 102.99 47.85 102.99C49.19 102.99 50.61 103.48 51.63 104.51C52.65 105.54 53.11 106.95 53.11 108.29C53.11 109.63 52.64 111.03 51.62 112.06C50.6 113.09 49.19 113.55 47.85 113.55C46.51 113.55 45.19 113 44.17 111.98H44.19Z" stroke="#090909" stroke-width="2" stroke-linejoin="round"/>
<path d="M104.69 104.52C105.71 103.5 107.07 103.03 108.41 103.03C109.75 103.03 111.06 103.53 112.09 104.56C113.12 105.59 113.75 106.89 113.75 108.23C113.75 109.57 113.13 110.89 112.1 111.91C111.07 112.93 109.76 113.58 108.42 113.58C107.08 113.58 105.68 113.03 104.65 112.01C103.62 110.99 103.11 109.59 103.11 108.25C103.11 106.91 103.66 105.55 104.68 104.53L104.69 104.52Z" fill="#F6FF94"/>
<path d="M104.69 104.52C105.71 103.5 107.07 103.03 108.41 103.03C109.75 103.03 111.06 103.53 112.09 104.56C113.12 105.59 113.75 106.89 113.75 108.23C113.75 109.57 113.13 110.89 112.1 111.91C111.07 112.93 109.76 113.58 108.42 113.58C107.08 113.58 105.68 113.03 104.65 112.01C103.62 110.99 103.11 109.59 103.11 108.25C103.11 106.91 103.66 105.55 104.68 104.53L104.69 104.52Z" stroke="#090909" stroke-width="2" stroke-linejoin="round"/>
<path d="M44.14 44.07C45.16 43.05 46.47 42.55 47.81 42.54C49.15 42.53 50.43 43.06 51.46 44.08C52.49 45.1 53.13 46.38 53.13 47.73C53.13 49.08 52.56 50.43 51.54 51.45C50.52 52.47 49.16 52.94 47.82 52.94C46.48 52.94 45.17 52.44 44.14 51.41C43.11 50.38 42.48 49.08 42.48 47.74C42.48 46.4 43.11 45.09 44.13 44.07H44.14Z" fill="#F6FF94"/>
<path d="M44.14 44.07C45.16 43.05 46.47 42.55 47.81 42.54C49.15 42.53 50.43 43.06 51.46 44.08C52.49 45.1 53.13 46.38 53.13 47.73C53.13 49.08 52.56 50.43 51.54 51.45C50.52 52.47 49.16 52.94 47.82 52.94C46.48 52.94 45.17 52.44 44.14 51.41C43.11 50.38 42.48 49.08 42.48 47.74C42.48 46.4 43.11 45.09 44.13 44.07H44.14Z" stroke="#090909" stroke-width="2" stroke-linejoin="round"/>
<path d="M78.05 66.06C78.05 64.14 77.95 64.14 77.95 62.21C77.95 60.28 77.99 60.29 77.99 58.36C77.99 56.43 78.02 56.43 78.02 54.51C78.02 52.59 78.2 52.58 78.2 50.65C78.2 48.72 78.2 48.72 78.2 46.79" stroke="#00EAA4" stroke-width="2" stroke-miterlimit="10"/>
<path d="M83.91 53.99C82.48 52.05 82.47 52.06 81.03 50.11C79.59 48.16 80.52 46.34 78.11 46.34C75.7 46.34 76.64 48.18 75.21 50.13C73.78 52.08 73.73 52.04 72.29 53.98" stroke="#00EAA4" stroke-width="2" stroke-linejoin="round"/>
<path d="M77.96 109.86C77.96 107.94 77.99 107.94 77.99 106.01C77.99 104.08 78.27 104.09 78.27 102.16C78.27 100.23 78.18 100.23 78.18 98.31C78.18 96.39 78.25 96.38 78.25 94.45C78.25 92.52 78.22 92.52 78.22 90.59" stroke="#00EAA4" stroke-width="2" stroke-miterlimit="10"/>
<path d="M72.35 102.1C73.78 104.04 73.76 104.06 75.19 106.01C76.62 107.96 75.7 109.79 78.11 109.79C80.52 109.79 79.47 107.86 80.9 105.92C82.33 103.98 82.38 104.01 83.81 102.06" stroke="#00EAA4" stroke-width="2" stroke-linejoin="round"/>
<path d="M90.1 78.05C92.02 78.05 92.02 78.16 93.95 78.16C95.88 78.16 95.87 77.99 97.8 77.99C99.73 77.99 99.73 78.14 101.65 78.14C103.57 78.14 103.58 78.14 105.51 78.14C107.44 78.14 107.44 78.19 109.37 78.19" stroke="#00EAA4" stroke-width="2" stroke-miterlimit="10"/>
<path d="M102.09 83.74C104.03 82.31 104.08 82.36 106.02 80.93C107.96 79.5 109.83 80.48 109.83 78.06C109.83 75.64 107.95 76.65 106.01 75.21C104.07 73.77 104.08 73.76 102.13 72.33" stroke="#00EAA4" stroke-width="2" stroke-linejoin="round"/>
<path d="M46.31 78.08C48.23 78.08 48.23 77.99 50.16 77.99C52.09 77.99 52.08 77.89 54.01 77.89C55.94 77.89 55.94 78.01 57.86 78.01C59.78 78.01 59.79 77.95 61.72 77.95C63.65 77.95 63.65 78.07 65.58 78.07" stroke="#00EAA4" stroke-width="2" stroke-miterlimit="10"/>
<path d="M54.13 72.39C52.19 73.82 52.11 73.71 50.16 75.15C48.21 76.59 46.21 75.65 46.21 78.07C46.21 80.49 48.31 79.43 50.25 80.86C52.19 82.29 52.08 82.45 54.02 83.89" stroke="#00EAA4" stroke-width="2" stroke-linejoin="round"/>
<path d="M86.66 86.48C88.02 87.84 87.91 87.96 89.27 89.32C90.63 90.68 90.72 90.59 92.08 91.95C93.44 93.31 93.34 93.41 94.7 94.77C96.06 96.13 96.19 96 97.56 97.37C98.93 98.74 98.81 98.85 100.18 100.21" stroke="#00EAA4" stroke-width="2" stroke-miterlimit="10"/>
<path d="M91.05 99.15C93.44 99.51 93.44 99.5 95.83 99.86C98.22 100.22 98.86 102.18 100.56 100.47C102.26 98.76 100.25 98.13 99.89 95.74C99.53 93.35 99.59 93.34 99.23 90.96" stroke="#00EAA4" stroke-width="2" stroke-linejoin="round"/>
<path d="M55.64 55.56C57 56.92 56.96 56.96 58.32 58.32C59.68 59.68 59.59 59.77 60.96 61.13C62.33 62.49 62.33 62.49 63.69 63.85C65.05 65.21 65.07 65.19 66.44 66.56C67.81 67.93 67.81 67.91 69.18 69.28" stroke="#00EAA4" stroke-width="2" stroke-miterlimit="10"/>
<path d="M65.16 57.01C63.5667 56.77 61.9733 56.53 60.38 56.29C57.99 55.93 57.28 53.86 55.57 55.57C53.86 57.28 56.04 57.98 56.4 60.36C56.76 62.74 56.65 62.76 57.01 65.15" stroke="#00EAA4" stroke-width="2" stroke-linejoin="round"/>
<path d="M69.69 86.61C68.33 87.97 68.26 87.9 66.9 89.27C65.54 90.64 65.46 90.55 64.1 91.91C62.74 93.27 62.79 93.32 61.43 94.69C60.07 96.06 60.08 96.06 58.71 97.43C57.34 98.8 57.35 98.8 55.99 100.16" stroke="#00EAA4" stroke-width="2" stroke-miterlimit="10"/>
<path d="M57.12 91.02C56.76 93.41 56.68 93.4 56.32 95.78C55.96 98.16 54 98.79 55.71 100.5C57.42 102.21 58.05 100.29 60.43 99.93C62.81 99.57 62.8 99.47 65.19 99.11" stroke="#00EAA4" stroke-width="2" stroke-linejoin="round"/>
<path d="M100.57 55.56C99.21 56.92 99.18 56.9 97.82 58.26C96.46 59.62 96.48 59.64 95.12 61C93.76 62.36 93.75 62.35 92.39 63.71C91.03 65.07 91.09 65.14 89.73 66.5C88.37 67.86 88.28 67.78 86.92 69.15" stroke="#00EAA4" stroke-width="2" stroke-miterlimit="10"/>
<path d="M99.1 65.11C99.46 62.72 99.57 62.74 99.93 60.35C100.29 57.96 102.33 57.21 100.62 55.51C98.91 53.81 98.18 55.91 95.79 56.28C93.4 56.65 93.41 56.71 91.03 57.07" stroke="#00EAA4" stroke-width="2" stroke-linejoin="round"/>
</g>
<defs>
<clipPath id="clip0_2297_41693">
<rect width="98.11" height="97.97" fill="white" transform="translate(29 29)"/>
</clipPath>
</defs>
</svg>
