<svg width="20" height="20" viewBox="0 0 20 20" fill="none" xmlns="http://www.w3.org/2000/svg">
<path d="M19.4802 10.0987C19.4802 10.1458 19.4868 10.1921 19.4995 10.2366C19.4918 11.2456 19.3826 12.2092 19.0987 13.0795C18.8334 13.8929 18.2968 14.6373 17.7257 15.4297C17.6783 15.4954 17.6307 15.5615 17.583 15.628C17.0171 16.4161 16.3161 17.071 15.5062 17.6589C15.3123 17.7996 15.1217 17.9463 14.9375 18.0881C14.9151 18.1054 14.8927 18.1226 14.8704 18.1398C14.663 18.2993 14.4626 18.4521 14.2593 18.5949C13.8528 18.8806 13.4543 19.1121 13.0223 19.2505C12.2224 19.5068 11.4109 19.5029 10.4703 19.4984C10.344 19.4978 10.2154 19.4972 10.0842 19.4972C9.08298 19.4972 8.16677 19.3009 7.2296 18.9914C7.20478 18.9832 7.17999 18.975 7.15525 18.9668C6.19238 18.649 5.2923 18.352 4.55551 17.8108C3.79779 17.2543 3.22759 16.4709 2.60464 15.6071C2.46341 15.4113 2.31622 15.2187 2.17387 15.0325C2.15642 15.0096 2.13905 14.9869 2.12177 14.9643C1.96159 14.7546 1.80798 14.5517 1.66425 14.3459C1.37683 13.9344 1.14263 13.5299 1.0008 13.0909C0.686652 12.1185 0.5 11.1289 0.5 10.1088C0.5 9.10471 0.748757 8.10142 1.06026 7.13658C1.35922 6.21059 1.84868 5.28473 2.42696 4.47934C3.00323 3.67676 3.72059 2.93285 4.50911 2.34423C5.33092 1.73075 6.18952 1.16994 7.11082 0.865492C8.03281 0.560818 9.0171 0.5 10.0743 0.5C10.9597 0.5 11.7884 0.778978 12.68 1.07916C12.7652 1.10783 12.8509 1.13669 12.9373 1.16552C13.8605 1.47352 14.7622 1.90292 15.5436 2.47679C16.3426 3.06363 17.0554 3.73929 17.6331 4.54037C18.2431 5.38616 18.7772 6.20421 19.0784 7.13667C19.3837 8.08145 19.4802 9.04672 19.4802 10.0987Z" stroke="#090909" stroke-linejoin="round"/>
<path d="M7.97421 9.81826C9.07377 9.81826 9.07376 9.81826 10.1832 9.81826C11.4809 9.81826 12.4913 8.72621 12.4913 7.42379C12.4913 6.12136 11.471 5.07946 10.1832 5.07946C9.08367 5.07946 8.22185 3.9774 7.98411 5.06943C6.91428 10.0287 6.69635 10.3192 8.03364 15.1983C8.40016 16.5508 9.38085 15.2183 10.7578 15.2183C12.2337 15.2183 13.4621 13.9961 13.4621 12.5033C13.4621 11.0105 12.2238 9.84834 10.7479 9.84834C9.36104 9.84834 9.36104 9.7982 7.97421 9.7982" stroke="#090909" stroke-miterlimit="10"/>
<path d="M10.0454 3.17584C10.0454 6.64229 9.94545 6.64234 9.95545 10.1188C9.96545 13.5953 10.0455 13.5852 10.0555 17.0617" stroke="#090909" stroke-miterlimit="10"/>
</svg>
