<svg width="70" height="71" viewBox="0 0 70 71" fill="none" xmlns="http://www.w3.org/2000/svg">
<path d="M62.4799 27.6898C62.5299 25.6398 60.7099 27.2398 58.6799 26.9798C56.6499 26.7198 56.5899 27.1398 54.5599 26.8798C52.5299 26.6198 52.5599 26.4198 50.5199 26.1598C48.4799 25.8998 48.5099 25.7398 46.4799 25.4798C44.4499 25.2198 44.4099 25.4798 42.3799 25.2198C40.3499 24.9598 40.3699 24.7298 38.3399 24.4698C36.3099 24.2098 36.3099 23.9398 34.2599 24.0698C32.2099 24.1998 32.3099 24.3699 30.4199 24.8899C28.5299 25.4099 28.5499 25.5098 26.6599 26.0298C24.7699 26.5498 24.8099 26.7198 22.9199 27.2398C21.0299 27.7598 20.9399 27.4698 19.0499 27.9898C17.1599 28.5098 17.1899 28.6598 15.2999 29.1798C13.4099 29.6998 10.8599 28.4498 11.2899 30.3598C11.7599 32.4298 13.5899 30.8098 15.6899 31.1598C17.7899 31.5098 17.7799 31.5698 19.8699 31.9098C21.9599 32.2498 22.5199 30.9499 24.0899 32.3899C25.4399 33.6199 24.1399 34.2198 24.4099 36.0298C24.6799 37.8398 24.6699 37.8498 24.9399 39.6598C25.2099 41.4698 24.4099 41.9398 25.7899 43.1498C27.1699 44.3598 27.5899 43.5298 29.4999 43.6198C31.4099 43.7098 31.4299 43.2898 33.3299 43.3798C35.2299 43.4698 35.2299 43.5999 37.1399 43.6999C39.0499 43.7999 39.0399 43.8898 40.9499 43.9798C42.8599 44.0698 42.8499 44.2698 44.7599 44.3598C46.6699 44.4498 47.3399 45.8298 48.6999 44.4898C50.3299 42.8798 48.7699 42.0898 49.0799 39.8098C49.3899 37.5298 49.4199 37.5399 49.7299 35.2599C50.0399 32.9799 49.0999 32.6098 50.5899 30.8598C51.9499 29.2498 52.4899 30.2798 54.5399 29.7698C56.5899 29.2598 56.5099 28.5298 58.6199 28.5498C60.9199 28.5698 62.4299 29.7798 62.4799 27.6698V27.6898Z" stroke="#090909" stroke-width="2" stroke-linejoin="round"/>
<path d="M15.94 30.2798C15.89 32.3098 15.83 32.3098 15.79 34.3398C15.75 36.3698 15.88 36.3698 15.84 38.3998C15.8 40.4298 15.81 40.4298 15.76 42.4598C15.71 44.4898 15.69 44.4898 15.64 46.5298C15.59 48.5698 15.58 48.5598 15.53 50.5998" stroke="#090909" stroke-width="2" stroke-linejoin="round"/>
<path d="M15.52 45.9298C13.25 46.0298 12.19 48.0698 13.41 49.9898C14.63 51.9098 16.3 51.3598 17.96 49.7898C19.79 48.0498 17.8 45.8298 15.53 45.9298H15.52Z" stroke="#090909" stroke-width="2" stroke-linejoin="round"/>
</svg>
