<svg width="20" height="20" viewBox="0 0 20 20" fill="none" xmlns="http://www.w3.org/2000/svg">
<path d="M19.4993 10.1203C19.4993 11.1589 19.3634 12.1174 19.0588 13.0313C18.7465 13.968 18.3117 14.8912 17.7314 15.6819C17.1179 16.5182 16.4773 17.306 15.6833 17.8792C14.8681 18.4676 13.9543 18.9158 12.9786 19.2217C12.0876 19.5011 11.193 19.5005 10.1456 19.4998C10.093 19.4998 10.04 19.4998 9.9866 19.4998C8.93633 19.4998 7.97448 19.3652 7.04641 19.0716C6.12433 18.78 5.22889 18.2962 4.41063 17.7081C3.60586 17.1297 2.92271 16.4357 2.32218 15.6209C2.1961 15.4498 2.07126 15.2857 1.94964 15.1258C1.42869 14.441 0.967058 13.8342 0.722323 13.0929C0.480573 12.3606 0.492847 11.631 0.507204 10.7776C0.510752 10.5667 0.514428 10.3482 0.514428 10.1203C0.514428 9.96481 0.513407 9.81262 0.512407 9.66346C0.506135 8.72795 0.500661 7.91158 0.752754 7.14749C0.98786 6.4349 1.45593 5.81766 1.97304 5.13576C2.09777 4.97128 2.22535 4.80304 2.35321 4.62879C2.51546 4.40766 2.66898 4.17795 2.81636 3.95649C2.82425 3.94463 2.83212 3.9328 2.83998 3.92099C2.98085 3.70927 3.1165 3.50539 3.25812 3.30824C3.55732 2.89174 3.86234 2.5357 4.22907 2.27095C4.98666 1.72405 5.90771 1.42657 6.91135 1.10241C6.94715 1.09084 6.98306 1.07924 7.01907 1.0676C8.0272 0.741601 8.9812 0.5 9.99672 0.5C11.0662 0.5 12.1116 0.598811 13.0237 0.896608C13.9332 1.19357 14.8565 1.75977 15.6943 2.36193C16.3689 2.84677 16.8614 3.53374 17.4068 4.29442C17.4828 4.40045 17.5599 4.50792 17.6386 4.61647C17.7646 4.79031 17.8895 4.957 18.0112 5.11938C18.522 5.80124 18.976 6.4072 19.2205 7.14758C19.5026 8.00205 19.5012 8.86628 19.4995 9.87543C19.4994 9.95283 19.4993 10.0311 19.4993 10.1103V10.1203Z" stroke="#090909" stroke-linejoin="round"/>
<path d="M10.1279 15.416C10.1279 13.4 10.0779 13.4001 10.0779 11.374" stroke="#090909" stroke-miterlimit="10"/>
<path d="M13.4322 8.62586C13.4322 9.53858 12.885 10.2608 12.2769 10.8526C11.6688 11.4444 10.9493 11.8455 10.0271 11.8455C9.10487 11.8455 8.25358 11.5748 7.64552 10.983C7.03746 10.3912 6.40915 9.53858 6.40915 8.62586C6.40915 7.71313 7.605 7.43238 8.21305 6.83058C8.82111 6.22879 9.10487 4.47357 10.0271 4.47357C10.9493 4.47357 11.4256 6.03815 12.0337 6.63995C12.6417 7.24175 13.4322 7.71313 13.4322 8.62586Z" stroke="#090909" stroke-miterlimit="10"/>
<path d="M14.2019 15.416C14.2019 13.4 14.1519 13.4001 14.1519 11.374" stroke="#090909" stroke-miterlimit="10"/>
<path d="M16.9386 8.62572C16.9386 10.1503 15.6414 11.2536 14.1112 11.2536C12.5809 11.2536 11.4053 10.1503 11.4053 8.62572C11.4053 7.10117 12.5809 5.84753 14.1112 5.84753C15.6414 5.84753 16.9386 7.10117 16.9386 8.62572Z" stroke="#090909" stroke-miterlimit="10"/>
<path d="M6.27681 15.416C6.27681 13.4 6.22681 13.4001 6.22681 11.374" stroke="#090909" stroke-miterlimit="10"/>
<path d="M9.02392 8.62572C9.02392 10.1503 7.72674 11.2536 6.19646 11.2536C4.66618 11.2536 3.4906 10.1503 3.4906 8.62572C3.4906 7.10117 4.66618 5.84753 6.19646 5.84753C7.72674 5.84753 9.02392 7.10117 9.02392 8.62572Z" stroke="#090909" stroke-miterlimit="10"/>
</svg>
