<svg width="20" height="20" viewBox="0 0 20 20" fill="none" xmlns="http://www.w3.org/2000/svg">
<path d="M19.5 9.95495C19.5 10.8126 19.2322 11.6208 18.9434 12.4921C18.9016 12.6183 18.8593 12.7459 18.8174 12.8752C18.5095 13.8232 18.0918 14.7437 17.5232 15.531C16.9656 16.3033 16.2051 16.9154 15.3654 17.5214C15.2891 17.5765 15.2137 17.6312 15.139 17.6854C14.3602 18.2504 13.658 18.7599 12.823 19.0343C11.8682 19.348 10.9151 19.5 9.89187 19.5C8.92636 19.5 8.02233 19.2094 7.0603 18.9001L7.00744 18.8831C6.10437 18.5928 5.2356 18.111 4.4306 17.5231C3.63685 16.9434 2.95671 16.2597 2.36944 15.45C1.77284 14.6275 1.30419 13.8029 0.996213 12.855C0.680197 11.8824 0.502822 10.9636 0.502822 9.94492C0.502822 9.81289 0.502226 9.68274 0.501638 9.55442C0.497219 8.58966 0.493276 7.72889 0.746803 6.95604C1.04702 6.04088 1.55879 5.08496 2.14101 4.27868C2.62407 3.60972 3.31706 3.10676 4.07592 2.55598C4.18003 2.48041 4.28538 2.40395 4.3916 2.32603C5.18228 1.74605 6.04608 1.35602 7.02048 1.03585C8.0023 0.71325 8.90132 0.5 9.90183 0.5C10.9409 0.5 11.911 0.616217 12.8231 0.915707C13.7138 1.20819 14.5209 1.77168 15.3631 2.38674C15.542 2.51739 15.7186 2.64175 15.891 2.76322C16.5777 3.24687 17.1994 3.68478 17.645 4.29183C18.2056 5.05567 18.5133 5.99642 18.836 7.02055C18.8787 7.15634 18.9216 7.28945 18.9637 7.42042C19.2474 8.30233 19.5 9.08749 19.5 9.94492V9.95495Z" stroke="#090909" stroke-linejoin="round"/>
<path d="M3.25946 10.2754C6.58568 10.2754 6.58568 10.3454 9.90195 10.3454C13.2182 10.3454 13.2282 10.4454 16.5444 10.4454" stroke="#090909" stroke-miterlimit="10"/>
<path d="M9.90192 10.8263C8.82637 10.8263 9.3741 11.7778 8.83633 12.7192C8.29855 13.6606 7.22302 13.6506 7.76079 14.592C8.29857 15.5334 8.83633 14.592 9.91187 14.592C10.9874 14.592 11.5351 15.5334 12.0729 14.592C12.6107 13.6506 11.2762 13.7507 10.9775 12.7091C10.6488 11.5574 10.9775 10.8163 9.90192 10.8163V10.8263Z" stroke="#090909" stroke-linejoin="round"/>
<path d="M6.06768 5.67853C6.06768 5.87884 5.90834 6.04909 5.70916 6.04909C5.50999 6.04909 5.35065 5.87884 5.35065 5.67853C5.35065 5.47823 5.50999 5.30798 5.70916 5.30798C5.90834 5.30798 6.06768 5.47823 6.06768 5.67853Z" stroke="#090909" stroke-linejoin="round"/>
<path d="M6.22711 9.65467C6.05781 10.1454 5.34078 10.1554 5.17148 9.66464C4.68351 8.22247 4.70342 8.05223 5.20136 6.61006C5.37066 6.11933 5.87856 6.23951 6.23708 6.61006C7.30266 7.73175 6.72506 8.2125 6.23708 9.64465L6.22711 9.65467Z" stroke="#090909" stroke-linejoin="round"/>
<path d="M13.9848 5.67853C13.9848 5.87884 13.8255 6.04909 13.6263 6.04909C13.4271 6.04909 13.2678 5.87884 13.2678 5.67853C13.2678 5.47823 13.4271 5.30798 13.6263 5.30798C13.8255 5.30798 13.9848 5.47823 13.9848 5.67853Z" stroke="#090909" stroke-linejoin="round"/>
<path d="M14.1443 9.65467C13.975 10.1454 13.258 10.1554 13.0887 9.66464C12.6007 8.22247 12.6206 8.05223 13.1185 6.61006C13.2878 6.11933 13.7957 6.23951 14.1543 6.61006C15.2198 7.73175 14.6422 8.2125 14.1543 9.64465L14.1443 9.65467Z" stroke="#090909" stroke-linejoin="round"/>
</svg>
