<svg width="20" height="20" viewBox="0 0 20 20" fill="none" xmlns="http://www.w3.org/2000/svg">
<path d="M16.8686 9.81029C16.8686 13.5166 13.7272 16.5036 9.97972 16.5036C6.23224 16.5036 3.20193 13.5066 3.20193 9.81029C3.20193 6.11398 6.24235 3.00702 9.97972 3.00702C13.7171 3.00702 16.8686 6.10399 16.8686 9.81029Z" stroke="#090909" stroke-linejoin="round"/>
<path d="M13.8585 9.81036C13.8585 13.5167 12.1009 16.3938 9.97971 16.3938C7.8585 16.3938 6.21204 13.5167 6.21204 9.81036C6.21204 6.10406 7.8686 3.07703 9.97971 3.07703C12.0908 3.07703 13.8585 6.10406 13.8585 9.81036Z" stroke="#090909" stroke-linejoin="round"/>
<path d="M10.0806 3.10699C10.0806 5.34476 10.0806 7.57922 10.0806 9.81033C10.0806 13.167 9.90891 13.1669 9.90891 16.5136" stroke="#090909" stroke-linejoin="round"/>
<path d="M9.9796 12.8372C6.23212 12.8372 3.33313 11.5286 3.33313 9.81029C3.33313 8.09201 6.23212 6.80328 9.9796 6.80328C13.7271 6.80328 16.818 8.08202 16.818 9.81029C16.818 11.5386 13.7271 12.8372 9.9796 12.8372Z" stroke="#090909" stroke-linejoin="round"/>
<path d="M19.5 9.81022C19.5 9.53847 19.7168 9.31735 19.9869 9.31039L19.5 9.81022ZM19.5 9.81022C19.5 10.8919 19.4668 11.8757 19.1722 12.7589M19.5 9.81022L19.1722 12.7589M19.1722 12.7589C18.8692 13.6672 18.352 14.5902 17.7586 15.3984M19.1722 12.7589L17.7586 15.3984M17.7586 15.3984C17.1763 16.1914 16.4366 16.9053 15.6244 17.4983M17.7586 15.3984L15.6244 17.4983M15.6244 17.4983C14.8369 18.0731 13.924 18.4626 12.9313 18.7736M15.6244 17.4983L12.9313 18.7736M12.9313 18.7736C12.6964 18.8472 12.4716 18.9229 12.2535 18.9962M12.9313 18.7736L12.2535 18.9962M12.2535 18.9962C11.4604 19.2631 10.7564 19.5 9.9798 19.5M12.2535 18.9962L9.9798 19.5M9.9798 19.5C8.97607 19.5 7.98509 19.2055 6.98768 18.8934M9.9798 19.5L6.98768 18.8934M6.98768 18.8934C6.0377 18.5962 5.06811 18.1481 4.27147 17.5759M6.98768 18.8934L4.27147 17.5759M4.27147 17.5759C3.49117 17.0155 2.84315 16.2217 2.22058 15.3776M4.27147 17.5759L2.22058 15.3776M2.22058 15.3776C1.63892 14.5889 1.25493 13.6959 0.929321 12.7103M2.22058 15.3776L0.929321 12.7103M0.929321 12.7103C0.616207 11.7625 0.5 10.8483 0.5 9.81022M0.929321 12.7103L0.5 9.81022M0.5 9.81022C0.5 8.79895 0.698384 7.86355 1.00103 6.92695M0.5 9.81022L1.00103 6.92695M1.00103 6.92695C1.05197 6.76932 1.10088 6.61291 1.14923 6.45831M1.00103 6.92695L1.14923 6.45831M1.14923 6.45831C1.41377 5.61234 1.66132 4.82071 2.1303 4.182M1.14923 6.45831L2.1303 4.182M2.1303 4.182C2.70999 3.39251 3.46787 2.67872 4.29253 2.08382M2.1303 4.182L4.29253 2.08382M4.29253 2.08382C4.91184 1.63705 5.62426 1.42024 6.43907 1.17228M4.29253 2.08382L6.43907 1.17228M6.43907 1.17228C6.64385 1.10996 6.85509 1.04568 7.07294 0.975278M6.43907 1.17228L7.07294 0.975278M7.07294 0.975278C8.04949 0.659711 8.94706 0.5 9.9798 0.5M7.07294 0.975278L9.9798 0.5M9.9798 0.5C11.0369 0.5 11.9936 0.606502 12.9214 0.896756M9.9798 0.5L12.9214 0.896756M12.9214 0.896756C13.8547 1.18873 14.7466 1.65232 15.5568 2.23424M12.9214 0.896756L15.5568 2.23424M15.5568 2.23424C16.4099 2.84697 17.206 3.44531 17.7794 4.22285M15.5568 2.23424L17.7794 4.22285M17.7794 4.22285C18.3535 5.00122 18.6867 5.91067 19.0202 6.92005M17.7794 4.22285L19.0202 6.92005M19.0202 6.92005C19.3383 7.88303 19.5 8.79915 19.5 9.82016L19.0202 6.92005Z" stroke="#090909" stroke-linejoin="round"/>
</svg>
