<svg width="70" height="71" viewBox="0 0 70 71" fill="none" xmlns="http://www.w3.org/2000/svg">
<path d="M54.9899 29.4099C53.7399 28.2499 53.2199 29.1999 51.5199 29.1999C49.8199 29.1999 49.82 29.2199 48.11 29.2199C46.4 29.2199 46.3999 29.5799 44.6999 29.5799C42.9999 29.5799 42.6999 30.4698 41.4999 29.2698C40.2999 28.0698 41.0599 27.7799 41.0599 26.0699C41.0599 24.3599 41.0599 24.3699 41.0599 22.6599C41.0599 20.9499 41.4799 20.9498 41.4799 19.2498C41.4799 17.5498 42.1999 17.3199 41.0499 16.0599C39.9899 14.8999 39.72 15.7598 38.15 15.7598C36.5799 15.7598 36.58 15.5799 35.01 15.5799C33.44 15.5799 33.4399 15.8399 31.8599 15.8399C30.2799 15.8399 30.0399 14.9199 28.9799 16.0699C27.8199 17.3199 28.4299 17.5299 28.4299 19.2299C28.4299 20.9299 28.3699 20.9298 28.3699 22.6398C28.3699 24.3498 28.7199 24.3499 28.7199 26.0499C28.7199 27.7499 29.7299 28.0598 28.5199 29.2598C27.3099 30.4598 27.0099 29.4998 25.3099 29.4998C23.6099 29.4998 23.6099 29.2199 21.8999 29.2199C20.1899 29.2199 20.1899 29.5599 18.4899 29.5599C16.7899 29.5599 16.4299 28.3999 15.1699 29.5599C14.0099 30.6199 14.7999 31.0299 14.7999 32.5999C14.7999 34.1699 15.2399 34.1698 15.2399 35.7398C15.2399 37.3098 15.4699 37.3098 15.4699 38.8898C15.4699 40.4698 13.6599 41.2499 14.8099 42.3199C16.0599 43.4799 16.7799 42.3898 18.4799 42.3898C20.1799 42.3898 20.1799 42.3898 21.8899 42.3898C23.5999 42.3898 23.5999 42.1699 25.2999 42.1699C26.9999 42.1699 27.5799 40.7499 28.7899 41.9499C29.9999 43.1499 28.6599 43.7299 28.6599 45.4299C28.6599 47.1299 29.1099 47.1299 29.1099 48.8399C29.1099 50.5499 28.5099 50.5498 28.5099 52.2498C28.5099 53.9498 27.5499 54.4199 28.7099 55.6799C29.7699 56.8399 30.2999 55.8998 31.8699 55.8998C33.4399 55.8998 33.44 55.9998 35.01 55.9998C36.58 55.9998 36.5799 55.6298 38.1599 55.6298C39.7399 55.6298 40.3899 56.9599 41.4599 55.7999C42.6199 54.5499 41.2499 53.9598 41.2499 52.2598C41.2499 50.5598 41.1099 50.5599 41.1099 48.8499C41.1099 47.1399 41.26 47.1399 41.26 45.4399C41.26 43.7399 40.3699 43.5099 41.5699 42.2999C42.7699 41.0899 42.9999 41.7999 44.7099 41.7999C46.4199 41.7999 46.4099 41.7398 48.1199 41.7398C49.8299 41.7398 49.8299 41.7299 51.5299 41.7299C53.2299 41.7299 53.5099 42.9899 54.7599 41.8299C55.9199 40.7699 54.6299 40.4598 54.6299 38.8898C54.6299 37.3198 54.7699 37.3198 54.7699 35.7498C54.7699 34.1798 54.3699 34.0899 54.7199 32.5499C55.1099 30.8699 56.1599 30.4498 55.0099 29.3798L54.9899 29.4099Z" stroke="#090909" stroke-width="2" stroke-miterlimit="10"/>
</svg>
