<svg width="70" height="71" viewBox="0 0 70 71" fill="none" xmlns="http://www.w3.org/2000/svg">
<path d="M44.7701 19.8499C44.5801 20.7099 44.8501 21.57 44.6601 22.33C43.9901 25.47 45.6201 27.23 48.8601 26.57C50.6701 26 52.2101 25.4099 53.1701 28.2699C53.9301 30.3599 53.9301 31.4999 52.2201 32.5399C48.6001 34.7299 48.6201 36.8999 52.1401 39.0899C54.4201 40.5199 54.4501 42.94 52.5501 44.94C51.6901 45.89 50.8401 44.9999 49.8901 44.9099C48.4601 44.7199 46.9901 43.94 45.4601 45.37C43.8401 46.89 44.0001 48.4199 44.5701 50.2299C45.1401 51.8499 45.2601 53.31 43.1701 54.07C41.2701 54.83 39.9001 54.8399 38.7601 52.6499C36.6701 48.8399 33.7101 48.7499 31.3301 52.3599C29.9001 54.4499 27.8001 54.7799 25.8901 52.9699C25.0301 52.2099 25.8301 51.4199 25.9301 50.6599C26.1201 49.4199 27.0301 47.86 26.1701 46.62C25.1201 44.91 23.2901 43.74 21.0001 44.5C17.8601 45.45 17.8101 45.5499 16.5801 42.5899C15.9101 40.9699 16.7901 40.5 18.0301 39.64C19.2701 38.88 20.6001 38.3399 20.7001 36.0499C20.7901 33.7699 19.9801 32.5799 18.1701 31.7299C16.6501 30.9699 15.8001 29.9899 16.6601 28.2699C17.4201 26.6499 18.2001 25.1599 20.4901 25.9199C21.8201 26.3999 23.2601 27.0799 24.7801 25.8499C26.5901 24.3299 26.6001 22.58 25.9401 20.87C25.2701 18.87 25.7101 17.9 27.6101 17.14C29.5101 16.38 30.5401 16.78 31.4001 18.68C32.0701 20.2 33.2101 20.9799 35.1201 21.1699C37.7801 21.3599 38.1901 19.46 39.1401 17.93C39.9001 16.79 40.7901 16.4299 41.9301 17.0999C43.2601 17.8599 45.1601 17.79 44.9701 19.89C44.9601 19.96 44.7801 19.8499 44.7801 19.8499H44.7701ZM43.8101 35.58C43.8101 33.2 42.5001 31.3299 40.9801 29.7999C39.4601 28.2699 37.5801 27.2699 35.2001 27.2699C32.8401 27.3199 30.4601 27.9099 28.9001 29.4599C27.3401 31.0099 26.9101 33.42 26.9601 35.76C26.9601 38.06 27.8601 39.92 29.4401 41.44C31.0201 42.96 32.8801 44.24 35.2001 44.24C37.7001 44.29 40.0501 43.5099 41.5501 41.9699C43.0501 40.4299 43.8301 38.1199 43.8301 35.5899C43.8301 35.5199 43.8101 35.5899 43.8101 35.5899V35.58Z" stroke="#090909" stroke-width="2" stroke-linejoin="round"/>
</svg>
