<svg width="156" height="156" viewBox="0 0 156 156" fill="none" xmlns="http://www.w3.org/2000/svg">
<path d="M97.4535 45.0531C97.0535 46.8331 97.6335 48.6331 97.2335 50.2131C96.5335 53.5131 96.8035 55.7931 98.5435 57.4631C100.284 59.1331 102.864 60.6731 106.184 59.9931C108.174 59.3631 110.124 57.2331 111.854 57.5131C113.384 57.7631 115.274 59.2831 116.204 62.0631C117.784 66.4131 116.004 68.4631 112.444 70.6331C110.204 71.9831 108.224 73.2931 107.314 74.8031C106.094 76.8131 106.294 79.3831 107.434 81.3931C108.304 82.9231 110.194 84.1531 112.404 85.5231C114.794 87.0131 116.534 88.963 116.764 91.003C116.994 93.043 115.774 95.3031 113.814 97.3631C112.034 99.3431 110.044 97.2631 108.074 97.0631C105.114 96.6631 102.214 95.2431 99.0535 98.2131C97.4335 99.7431 96.1235 101.183 95.8235 102.723C95.5035 104.383 95.6035 106.453 96.2135 108.393C97.4035 111.753 98.0735 113.433 93.7235 115.013C89.7735 116.593 87.1635 117.793 84.7935 113.243C83.4835 110.863 82.6635 108.533 81.1635 107.593C79.1535 106.343 76.8235 107.113 74.7235 108.373C73.1835 109.293 71.4335 110.613 69.9735 112.833C68.4735 115.043 66.5735 116.653 64.4335 116.803C62.2935 116.953 59.9335 115.973 57.9835 114.123C56.2035 112.543 57.7835 110.553 57.9835 108.973C58.3835 106.403 60.2835 103.413 58.5035 100.843C57.3835 99.0031 55.5835 98.0931 53.9035 97.3131C52.3335 96.5931 50.5535 95.9331 48.2535 96.6931C44.9535 97.6931 43.2335 98.4631 42.1035 97.7631C40.9735 97.0631 40.3535 95.223 39.0835 92.1931C37.7035 88.833 38.8835 87.1631 41.4435 85.3831C44.0135 83.8031 47.3935 83.4331 47.5935 78.6831C47.6935 76.3931 47.6835 74.4731 46.8035 73.0931C45.8635 71.6131 43.8035 71.3731 41.8635 70.4531C38.7035 68.8731 37.8735 66.3531 39.6535 62.7931C41.2335 59.4331 42.4035 55.7331 47.1435 57.3131C49.9135 58.3031 52.2535 59.4131 55.4135 56.8431C57.1835 55.3531 57.9735 54.2131 58.2735 52.6231C58.6135 50.8531 58.7835 49.1131 58.0535 47.2331C56.6735 43.0831 58.0935 41.5731 62.0435 39.9831C65.9935 38.3931 68.3835 38.4131 70.1635 42.3731C71.5435 45.5331 73.3535 48.2831 77.3035 48.6831C79.9235 48.8731 81.4635 47.3031 82.6335 46.0431C83.9335 44.6331 84.3235 42.4831 85.3635 40.8131C86.9435 38.4431 89.3235 37.6431 91.6935 39.0331C94.4635 40.6131 97.7135 40.6831 97.3135 45.0331C97.2935 45.1731 97.4335 45.0331 97.4335 45.0331L97.4535 45.0531ZM95.4535 77.7231C95.4535 75.3131 94.0535 73.3031 93.2135 71.2231C92.3735 69.1431 91.4435 67.0831 89.8235 65.4631C88.2035 63.8431 86.7535 61.6731 84.5835 60.7931C82.4135 59.9131 79.9835 60.8031 77.5735 60.8031C75.1635 60.8531 73.1435 61.3531 71.0335 62.2531C68.9235 63.1531 66.4735 63.7031 64.8235 65.3431C63.1735 66.9831 61.4135 68.8631 60.5035 71.0331C59.5935 73.2031 59.3835 75.7031 59.4335 78.1131C59.4335 80.4731 60.3735 82.6931 61.2835 84.7631C62.1935 86.8331 63.7735 88.4931 65.4235 90.0931C67.0735 91.6931 68.7335 93.1931 70.8835 94.0831C73.0335 94.9731 75.1935 96.1431 77.5635 96.1431C80.0635 96.1931 82.4135 95.2431 84.5035 94.4631C86.7535 93.6131 89.0935 92.613 90.7135 90.9431C92.3335 89.2731 93.8935 87.1831 94.7235 84.8931C95.4835 82.8131 95.8635 80.3031 95.8635 77.8031C95.8835 77.6631 95.4535 77.7231 95.4535 77.7231Z" fill="#00EAA4"/>
<path d="M97.4535 45.0531C97.0535 46.8331 97.6335 48.6331 97.2335 50.2131C96.5335 53.5131 96.8035 55.7931 98.5435 57.4631C100.283 59.1331 102.864 60.6731 106.184 59.9931C108.174 59.3631 110.124 57.2331 111.854 57.5131C113.384 57.7631 115.274 59.2831 116.204 62.0631C117.784 66.4131 116.004 68.4631 112.444 70.6331C110.204 71.9831 108.224 73.2931 107.314 74.8031C106.094 76.8131 106.294 79.3831 107.434 81.3931C108.304 82.9231 110.194 84.1531 112.404 85.5231C114.794 87.0131 116.534 88.963 116.764 91.003C116.994 93.043 115.774 95.3031 113.814 97.3631C112.034 99.3431 110.044 97.2631 108.074 97.0631C105.114 96.6631 102.214 95.2431 99.0535 98.2131C97.4335 99.7431 96.1235 101.183 95.8235 102.723C95.5035 104.383 95.6035 106.453 96.2135 108.393C97.4035 111.753 98.0735 113.433 93.7235 115.013C89.7735 116.593 87.1635 117.793 84.7935 113.243C83.4835 110.863 82.6635 108.533 81.1635 107.593C79.1535 106.343 76.8235 107.113 74.7235 108.373C73.1835 109.293 71.4335 110.613 69.9735 112.833C68.4735 115.043 66.5735 116.653 64.4335 116.803C62.2935 116.953 59.9335 115.973 57.9835 114.123C56.2035 112.543 57.7835 110.553 57.9835 108.973C58.3835 106.403 60.2835 103.413 58.5035 100.843C57.3835 99.0031 55.5835 98.0931 53.9035 97.3131C52.3335 96.5931 50.5535 95.9331 48.2535 96.6931C44.9535 97.6931 43.2335 98.4631 42.1035 97.7631C40.9735 97.0631 40.3535 95.2231 39.0835 92.1931C37.7035 88.8331 38.8835 87.1631 41.4435 85.3831C44.0135 83.8031 47.3935 83.4331 47.5935 78.6831C47.6935 76.3931 47.6835 74.4731 46.8035 73.0931C45.8635 71.6131 43.8035 71.3731 41.8635 70.4531C38.7035 68.8731 37.8735 66.3531 39.6535 62.7931C41.2335 59.4331 42.4035 55.7331 47.1435 57.3131C49.9135 58.3031 52.2535 59.4131 55.4135 56.8431C57.1835 55.3531 57.9735 54.2131 58.2735 52.6231C58.6135 50.8531 58.7835 49.1131 58.0535 47.2331C56.6735 43.0831 58.0935 41.5731 62.0435 39.9831C65.9935 38.3931 68.3835 38.4131 70.1635 42.3731C71.5435 45.5331 73.3535 48.2831 77.3035 48.6831C79.9235 48.8731 81.4635 47.3031 82.6335 46.0431C83.9335 44.6331 84.3235 42.4831 85.3635 40.8131C86.9435 38.4431 89.3235 37.6431 91.6935 39.0331C94.4635 40.6131 97.7135 40.6831 97.3135 45.0331C97.2935 45.1731 97.4335 45.0331 97.4335 45.0331L97.4535 45.0531ZM95.4535 77.7231C95.4535 75.3131 94.0535 73.3031 93.2135 71.2231C92.3735 69.1431 91.4435 67.0831 89.8235 65.4631C88.2035 63.8431 86.7535 61.6731 84.5835 60.7931C82.4135 59.9131 79.9835 60.8031 77.5735 60.8031C75.1635 60.8531 73.1435 61.3531 71.0335 62.2531C68.9235 63.1531 66.4735 63.7031 64.8235 65.3431C63.1735 66.9831 61.4135 68.8631 60.5035 71.0331C59.5935 73.2031 59.3835 75.7031 59.4335 78.1131C59.4335 80.4731 60.3735 82.6931 61.2835 84.7631C62.1935 86.8331 63.7735 88.4931 65.4235 90.0931C67.0735 91.6931 68.7335 93.1931 70.8835 94.0831C73.0335 94.9731 75.1935 96.1431 77.5635 96.1431C80.0635 96.1931 82.4135 95.2431 84.5035 94.4631C86.7535 93.6131 89.0935 92.6131 90.7135 90.9431C92.3335 89.2731 93.8935 87.1831 94.7235 84.8931C95.4835 82.8131 95.8635 80.3031 95.8635 77.8031C95.8835 77.6631 95.4535 77.7231 95.4535 77.7231Z" stroke="#090909" stroke-width="2" stroke-linejoin="round"/>
<path d="M106.083 59.823C105.893 58.703 105.453 58.293 104.333 58.483C102.783 58.733 102.873 59.053 101.763 60.163C100.653 61.273 101.043 61.663 99.9234 62.783C98.8034 63.903 99.0234 64.113 97.9134 65.223C96.8034 66.333 97.0134 67.353 95.4534 67.583C93.0834 67.923 92.6634 67.433 90.9634 65.743C89.2634 64.053 89.2634 63.703 89.6034 61.333C89.8234 59.773 90.9633 60.533 92.0733 59.423C93.1833 58.313 93.1934 58.313 94.3034 57.203C95.4134 56.093 95.0434 55.713 96.1534 54.593C97.2634 53.473 98.1833 53.963 98.4333 52.403C98.6133 51.283 98.0134 50.533 96.8934 50.343C95.3134 50.083 95.3934 51.643 93.8434 52.063C92.2934 52.483 92.2333 52.243 90.6833 52.653C89.1334 53.063 89.2034 53.343 87.6534 53.753C86.1034 54.163 85.6534 53.053 84.5834 54.253C83.4634 55.523 84.3034 55.813 84.0134 57.473C83.7234 59.133 83.0434 59.023 82.7534 60.683C82.4634 62.343 82.7134 62.393 82.4134 64.063C82.1134 65.733 82.4634 65.793 82.1734 67.463L82.2434 67.623C80.9934 68.883 80.7434 68.623 79.4834 69.883C78.2234 71.143 78.3034 71.213 77.0534 72.473C75.8034 73.733 75.9334 73.863 74.6834 75.123C73.4334 76.383 73.2834 76.233 72.0334 77.493C70.7834 78.753 70.6034 78.573 69.3534 79.833C68.1034 81.093 67.9634 80.953 66.7134 82.203C65.4634 83.453 66.0834 84.083 64.8233 85.333C63.5633 86.583 63.0334 86.063 61.7834 87.313C60.5334 88.563 60.4534 88.493 59.2034 89.753C57.9534 91.013 58.4734 91.533 57.2134 92.793C55.9534 94.053 55.8034 93.903 54.5434 95.163C53.2834 96.423 51.4734 95.813 51.4234 97.593C51.3734 99.373 52.8534 99.093 54.0534 100.283C55.2534 101.473 55.7234 101.013 56.9134 102.213C58.1034 103.413 57.4334 104.713 59.1334 104.673C60.8334 104.633 60.5634 103.703 61.8134 102.443C63.0634 101.183 62.6134 100.733 63.8634 99.473C65.1134 98.213 65.7234 98.823 66.9834 97.573C68.2434 96.323 68.1834 96.263 69.4434 95.013C70.7034 93.763 70.7634 93.823 72.0234 92.573C73.2834 91.323 73.2134 91.253 74.4634 90.003C75.7134 88.753 75.4834 88.513 76.7334 87.263C77.9834 86.013 77.6734 85.693 78.9334 84.433C80.1934 83.173 80.1434 83.133 81.4034 81.883C82.6634 80.633 82.9934 80.953 84.2434 79.703C85.4934 78.453 85.4734 78.413 86.7234 77.153C87.9734 75.893 87.4934 75.133 89.0634 74.303C90.6334 73.473 90.8234 73.893 92.4934 73.593C94.1634 73.293 94.1834 73.443 95.8534 73.153C97.5234 72.863 97.5034 72.743 99.1734 72.443C100.843 72.143 101.423 73.503 102.693 72.373C103.893 71.313 103.293 70.783 103.703 69.233C104.113 67.683 103.853 67.613 104.263 66.063C104.673 64.513 104.153 64.303 104.813 62.843C105.503 61.303 106.323 61.403 106.063 59.823H106.083Z" fill="#E9FFF4"/>
<path d="M106.083 59.823C105.893 58.703 105.453 58.293 104.333 58.483C102.783 58.733 102.873 59.053 101.763 60.163C100.653 61.273 101.043 61.663 99.9234 62.783C98.8034 63.903 99.0234 64.113 97.9134 65.223C96.8034 66.333 97.0134 67.353 95.4534 67.583C93.0834 67.923 92.6634 67.433 90.9634 65.743C89.2634 64.053 89.2634 63.703 89.6034 61.333C89.8234 59.773 90.9633 60.533 92.0733 59.423C93.1833 58.313 93.1934 58.313 94.3034 57.203C95.4134 56.093 95.0434 55.713 96.1534 54.593C97.2634 53.473 98.1833 53.963 98.4333 52.403C98.6133 51.283 98.0134 50.533 96.8934 50.343C95.3134 50.083 95.3934 51.643 93.8434 52.063C92.2934 52.483 92.2333 52.243 90.6833 52.653C89.1333 53.063 89.2034 53.343 87.6534 53.753C86.1034 54.163 85.6534 53.053 84.5834 54.253C83.4634 55.523 84.3034 55.813 84.0134 57.473C83.7234 59.133 83.0434 59.023 82.7534 60.683C82.4634 62.343 82.7134 62.393 82.4134 64.063C82.1134 65.733 82.4634 65.793 82.1734 67.463L82.2434 67.623C80.9934 68.883 80.7434 68.623 79.4834 69.883C78.2234 71.143 78.3034 71.213 77.0534 72.473C75.8034 73.733 75.9334 73.863 74.6834 75.123C73.4334 76.383 73.2834 76.233 72.0334 77.493C70.7834 78.753 70.6034 78.573 69.3534 79.833C68.1034 81.093 67.9634 80.953 66.7134 82.203C65.4634 83.453 66.0833 84.083 64.8233 85.333C63.5633 86.583 63.0334 86.063 61.7834 87.313C60.5334 88.563 60.4534 88.493 59.2034 89.753C57.9534 91.013 58.4734 91.533 57.2134 92.793C55.9534 94.053 55.8034 93.903 54.5434 95.163C53.2834 96.423 51.4734 95.813 51.4234 97.593C51.3734 99.373 52.8534 99.093 54.0534 100.283C55.2534 101.473 55.7234 101.013 56.9134 102.213C58.1034 103.413 57.4334 104.713 59.1334 104.673C60.8334 104.633 60.5634 103.703 61.8134 102.443C63.0634 101.183 62.6134 100.733 63.8634 99.473C65.1134 98.213 65.7234 98.823 66.9834 97.573C68.2434 96.323 68.1834 96.263 69.4434 95.013C70.7034 93.763 70.7634 93.823 72.0234 92.573C73.2834 91.323 73.2134 91.253 74.4634 90.003C75.7134 88.753 75.4834 88.513 76.7334 87.263C77.9834 86.013 77.6734 85.693 78.9334 84.433C80.1934 83.173 80.1434 83.133 81.4034 81.883C82.6634 80.633 82.9934 80.953 84.2434 79.703C85.4934 78.453 85.4734 78.413 86.7234 77.153C87.9734 75.893 87.4934 75.133 89.0634 74.303C90.6334 73.473 90.8234 73.893 92.4934 73.593C94.1634 73.293 94.1834 73.443 95.8534 73.153C97.5234 72.863 97.5034 72.743 99.1734 72.443C100.843 72.143 101.423 73.503 102.693 72.373C103.893 71.313 103.293 70.783 103.703 69.233C104.113 67.683 103.853 67.613 104.263 66.063C104.673 64.513 104.153 64.303 104.813 62.843C105.503 61.303 106.323 61.403 106.063 59.823H106.083Z" stroke="#090909" stroke-width="2" stroke-linejoin="round"/>
<path d="M87.7834 71.8232C87.0034 72.6132 85.6834 72.6132 84.8934 71.8232C84.1034 71.0332 84.1134 69.7233 84.8934 68.9433C85.6734 68.1633 86.9634 68.1833 87.7534 68.9633C88.5434 69.7433 88.5634 71.0432 87.7834 71.8232Z" fill="#E9FFF4"/>
<path d="M87.7834 71.8232C87.0034 72.6132 85.6834 72.6132 84.8934 71.8232C84.1034 71.0332 84.1134 69.7233 84.8934 68.9433C85.6734 68.1633 86.9634 68.1833 87.7534 68.9633C88.5434 69.7433 88.5634 71.0432 87.7834 71.8232Z" stroke="#090909" stroke-width="2" stroke-linejoin="round"/>
</svg>
