<svg width="70" height="70" viewBox="0 0 70 70" fill="none" xmlns="http://www.w3.org/2000/svg">
<g clip-path="url(#clip0_2338_42332)">
<path d="M39.66 15.75C40.22 14.55 40.7 13.58 41.03 12.95C42.83 9.5 48.7 10.38 46.75 17.5C46.05 20.06 45.27 22.36 44.58 24.25" stroke="#090909" stroke-width="2" stroke-miterlimit="10"/>
<path d="M49.11 42.25C50.57 45.78 49.32 51.72 46.18 54.64C43.35 57.27 39.92 58.7 36.54 59.07C32.85 59.47 29.16 58.59 26.22 56.72C23.28 54.85 20.91 51.88 20.24 48.09C19.23 42.41 21.76 38.9 21.87 37.12C22.18 32.16 26.49 29.87 27.08 33.22C29.82 29.59 29.98 25.27 32.78 31.14C35.06 33.16 33.84 28.56 35.22 25.43" stroke="#090909" stroke-width="2" stroke-miterlimit="10"/>
<path d="M46.63 34.4C46.63 28.95 46.82 29.58 44.5 23.78C43.31 20.81 41.36 17.66 38.64 14.66C34.53 10.13 29.89 14.27 32.74 19.97C36.85 28.21 36.05 25.9 38.38 32.23" stroke="#090909" stroke-width="2" stroke-miterlimit="10"/>
<path d="M27.09 33.23C27.21 38.75 27.22 40.55 26.47 44.23C25.72 47.91 19.82 47.15 21.76 37.12" stroke="#090909" stroke-width="2" stroke-miterlimit="10"/>
<path d="M33.34 31.22C34.21 37.15 34.47 39 32.98 43.08C31.49 47.16 27.57 43.99 26.99 39.75" stroke="#090909" stroke-width="2" stroke-miterlimit="10"/>
<path d="M44.05 49.39C48.87 45.55 48.61 45.64 50.14 38.87C50.79 36 48.81 33.41 44.73 33.29C42.47 33.22 39.59 33.95 36.13 35.75C30.72 38.57 29.43 41.12 31.18 42.34C32.57 43.31 35.84 43.51 40.59 42.03C32.24 44.01 29.28 45.01 31.87 54.61" stroke="#090909" stroke-width="2" stroke-miterlimit="10"/>
<path d="M34.89 39.43C35.08 40.32 34.39 41.25 33.22 41.51C32.05 41.77 30.68 41.49 30.48 40.6C30.28 39.71 30.92 38.61 32.09 38.35C33.26 38.09 34.69 38.54 34.89 39.43Z" stroke="#090909" stroke-width="2" stroke-miterlimit="10"/>
<path d="M25.72 44.68C25.72 45.55 25.08 46.26 24.28 46.26C23.48 46.26 22.83 45.55 22.83 44.68C22.83 43.81 23.48 43.1 24.28 43.1C25.08 43.1 25.72 43.81 25.72 44.68Z" stroke="#090909" stroke-width="2" stroke-miterlimit="10"/>
</g>
<defs>
<clipPath id="clip0_2338_42332">
<rect width="32.26" height="50.17" fill="white" transform="translate(19 10)"/>
</clipPath>
</defs>
</svg>
