<svg width="20" height="20" viewBox="0 0 20 20" fill="none" xmlns="http://www.w3.org/2000/svg">
<path d="M19.5 10.1572C19.5 10.6274 19.3989 11.0919 19.2501 11.5736C19.1757 11.8144 19.0912 12.0541 19.0032 12.3005C18.9931 12.3286 18.983 12.3569 18.9728 12.3852C18.8952 12.6021 18.8153 12.8252 18.7428 13.0475C18.4318 14.0018 18.0549 14.9263 17.4958 15.7057C16.9186 16.5102 16.2313 17.2332 15.4454 17.8203C14.6421 18.4205 13.7889 18.9205 12.8649 19.2291C12.0929 19.487 11.3124 19.4818 10.3945 19.4758C10.2517 19.4748 10.1055 19.4739 9.95547 19.4739C9.70726 19.4739 9.45986 19.4807 9.22183 19.4872C9.19557 19.4879 9.16942 19.4887 9.14339 19.4894C8.87848 19.4966 8.62505 19.5025 8.37686 19.4989C7.87998 19.4917 7.43051 19.4461 7.0149 19.3087C6.12219 19.0137 5.25336 18.4612 4.43582 17.8504C3.64828 17.262 2.95042 16.5375 2.36342 15.7325C1.75154 14.8934 1.19132 14.0579 0.891459 13.1289C0.587494 12.1872 0.5 11.2038 0.5 10.1472C0.5 9.07432 0.5606 8.04917 0.851445 7.15677C0.987038 6.74074 1.22627 6.33516 1.52322 5.91388C1.67103 5.70419 1.82859 5.49679 1.9911 5.28401C2.00255 5.26902 2.01404 5.25398 2.02554 5.23892C2.17542 5.04275 2.32945 4.84115 2.47454 4.63891C2.5866 4.48272 2.69442 4.32836 2.80012 4.17703C3.29706 3.46559 3.74725 2.82107 4.37104 2.36794C4.97102 1.93211 5.66464 1.71703 6.45633 1.47154C6.66538 1.40672 6.88126 1.33978 7.10406 1.26609C7.34206 1.18738 7.57628 1.10171 7.80118 1.01945C7.82091 1.01223 7.84056 1.00504 7.86013 0.997888C8.10592 0.908056 8.34122 0.822932 8.57644 0.748337C9.04583 0.599476 9.49308 0.5 9.95547 0.5C10.9834 0.5 12.0086 0.635302 12.9089 0.926564C13.313 1.05727 13.7073 1.29818 14.1212 1.60246C14.3271 1.75379 14.5305 1.91514 14.7405 2.08195L14.749 2.08867C14.9538 2.2513 15.1655 2.41948 15.3793 2.57659C15.5644 2.7127 15.7468 2.84136 15.9244 2.9667C16.5996 3.44324 17.207 3.87185 17.6448 4.47945C18.1118 5.12745 18.3488 5.8861 18.6165 6.74318C18.6667 6.9039 18.718 7.06808 18.7721 7.23564C18.8447 7.46067 18.9187 7.67549 18.9904 7.88346C19.2622 8.67244 19.5 9.36278 19.5 10.1371V10.1572Z" stroke="#090909" stroke-linejoin="round"/>
<g clip-path="url(#clip0_2338_42599)">
<path d="M12.73 6.57C13 7.66 12.62 7.84 11.74 8.55C11.15 9.03 10.97 8.35 10.27 8.63C9.98999 8.74 10.05 8.97 10.22 9.21C10.84 10.07 11.58 9.64 11.72 10.69C11.81 11.34 11.11 10.72 10.45 10.72C9.78999 10.72 9.78999 10.7 9.12999 10.7C8.46999 10.7 7.77999 11.35 7.86999 10.7C8.00999 9.64 8.73999 10.09 9.36999 9.22C9.54999 8.97 9.60999 8.73 9.31999 8.61C8.60999 8.33 8.38999 9.07 7.79999 8.59C6.92999 7.89 6.57999 7.66 6.84999 6.57C7.02999 5.85 7.55999 6.52 8.29999 6.52C9.03999 6.52 9.03999 6.61 9.77999 6.61C10.52 6.61 10.56 6.79 11.27 6.61C12.08 6.4 12.54 5.86 12.72 6.58L12.73 6.57Z" stroke="#090909" stroke-linejoin="round"/>
<path d="M14.35 6.58999C13.85 7.18999 13.54 6.48999 12.75 6.48999C11.96 6.48999 11.97 6.58999 11.18 6.58999C10.39 6.58999 10.4 6.63999 9.61 6.63999C8.82 6.63999 8.83 6.63999 8.04 6.63999C7.25 6.63999 7.25 6.51999 6.47 6.51999C5.69 6.51999 5.42 7.15999 4.91 6.55999C4.31 5.84999 4.36 5.46999 4.96 4.75999C5.46 4.15999 5.68 4.78999 6.46 4.78999C7.24 4.78999 7.24 4.69999 8.03 4.69999C8.82 4.69999 8.81 4.70999 9.6 4.70999C10.39 4.70999 10.38 4.78999 11.17 4.78999C11.96 4.78999 11.96 4.62999 12.74 4.62999C13.52 4.62999 13.63 4.30999 14.33 4.67999C15.21 5.14999 14.94 5.88999 14.34 6.59999L14.35 6.58999Z" stroke="#090909" stroke-linejoin="round"/>
<path d="M14.76 10.64C15.19 11.26 14.39 11.39 14.06 12.07C13.73 12.75 13.61 12.7 13.28 13.38C13.11 13.73 12.83 14.07 12.45 14.07C11.75 14.07 11.67 13.65 11.1 14.06C10.7 14.34 10.8 14.55 11.03 14.99C11.35 15.62 11.51 15.53 12.02 16.03C12.53 16.53 13.42 16.34 13.05 16.95C12.64 17.64 12.28 16.99 11.47 16.99C10.66 16.99 10.66 17.03 9.86001 17.03C9.06001 17.03 9.05001 16.99 8.24001 16.99C7.43001 16.99 7.11001 17.63 6.69001 16.94C6.32001 16.33 7.14001 16.49 7.65001 15.99C8.16001 15.49 8.39001 15.65 8.72001 15.02C8.95001 14.58 9.12001 14.21 8.72001 13.92C8.15001 13.52 7.96001 13.92 7.26001 13.92C6.87001 13.92 6.49001 13.8 6.32001 13.46C5.99001 12.78 6.09001 12.73 5.76001 12.04C5.43001 11.35 4.57001 11.32 5.00001 10.69C5.46001 10.03 5.83001 10.72 6.63001 10.72C7.43001 10.72 7.44001 10.66 8.24001 10.66C9.04001 10.66 9.04001 10.66 9.85001 10.66C10.66 10.66 10.66 10.72 11.46 10.72C12.26 10.72 12.3 10.94 13.09 10.74C13.98 10.52 14.3 9.97998 14.77 10.65L14.76 10.64Z" stroke="#090909" stroke-linejoin="round"/>
</g>
<defs>
<clipPath id="clip0_2338_42599">
<rect width="11.41" height="13.76" fill="white" transform="translate(4 4)"/>
</clipPath>
</defs>
</svg>
