<svg width="20" height="20" viewBox="0 0 20 20" fill="none" xmlns="http://www.w3.org/2000/svg">
<path d="M19.4799 10.1243C19.4799 10.17 19.4861 10.2148 19.498 10.2577C19.4721 11.1865 19.1994 12.0579 18.8919 12.9794C18.8214 13.1908 18.7588 13.3919 18.6974 13.5894C18.607 13.8799 18.5191 14.1624 18.412 14.4578C18.2395 14.9335 18.0426 15.3631 17.7761 15.7258C17.2175 16.4863 16.4015 17.0782 15.5325 17.7048C14.665 18.3303 13.8626 18.9065 12.9435 19.2064C12.043 19.5001 11.0985 19.5001 10.0168 19.5L9.95976 19.5C8.9548 19.5 8.03046 19.2522 7.05501 18.9373C6.05327 18.614 5.10601 18.3068 4.33584 17.7539C3.51076 17.1616 2.73407 16.4918 2.16519 15.7082C1.66003 15.0124 1.39278 14.196 1.092 13.2773C1.06108 13.1829 1.0298 13.0873 0.99787 12.9907C0.678671 12.025 0.5 11.1239 0.5 10.1143C0.5 9.05641 0.570468 8.08456 0.85804 7.19503C1.14239 6.31546 1.71019 5.47833 2.32448 4.6421C2.36803 4.58282 2.41125 4.52379 2.45424 4.46508C3.03451 3.6726 3.5722 2.93826 4.29333 2.42666C5.12939 1.83353 6.01798 1.30838 6.95587 1.00241C7.92071 0.687659 8.92443 0.5 9.9497 0.5C10.9743 0.5 12.0081 0.697352 12.9436 1.00243C13.6677 1.23858 14.3147 1.72276 15.0209 2.25125C15.1708 2.36343 15.3234 2.4776 15.4799 2.59183C16.3059 3.19448 17.0436 3.83494 17.6135 4.61991C18.1941 5.41975 18.6238 6.28693 18.9307 7.23503C19.2475 8.21363 19.4799 9.12899 19.4799 10.1243Z" stroke="#090909" stroke-linejoin="round"/>
<path d="M16.0764 9.65676C15.7746 9.1396 15.1408 10.2037 14.9094 9.65676C14.6579 9.06998 15.6841 9.26892 15.674 8.63242C15.6639 7.99592 15.4728 7.85667 14.8591 7.67765C13.6921 7.32957 13.6519 7.67766 12.4346 7.68761C11.2173 7.69755 11.1971 7.49865 10.01 7.75723C9.63778 7.83679 9.90941 8.18488 9.53718 8.2545C8.42048 8.4534 8.41042 8.2843 7.2736 8.22463C6.13677 8.16496 6.14683 8.07544 5.01001 8.02571C3.87319 7.97599 3.84301 7.72735 2.74643 8.02571C2.39432 8.11522 2.38426 8.52297 2.71625 8.64232C3.77259 9.03018 3.82288 8.80147 4.93958 8.86114C6.05628 8.92082 6.0764 8.82138 7.20317 8.88105C8.32993 8.94073 8.36012 8.75177 9.44664 9.07002C9.87923 9.19931 10.4225 9.51756 9.99995 9.69658C8.93355 10.1441 8.83296 9.56727 7.68607 9.74629C6.2575 9.96509 6.04622 9.66673 4.9094 10.5618C4.34602 10.9994 4.26554 11.6458 4.9094 11.9641C6.16695 12.5807 6.3078 11.9641 7.71625 11.9541C9.12471 11.9442 9.11464 11.9541 10.513 11.9243C11.9114 11.8945 11.9114 11.9143 13.3199 11.8944C14.7283 11.8746 14.7987 12.2525 16.1066 11.7552C17.1428 11.3673 16.5895 10.5916 16.0563 9.66671L16.0764 9.65676Z" stroke="#090909" stroke-linejoin="round"/>
<path d="M5.64374 12.1731C6.2876 12.73 6.09645 13.098 6.93146 13.3168C8.24937 13.6648 8.29967 13.2273 9.66788 13.2074C11.0361 13.1875 11.0361 13.2472 12.4043 13.2273C13.7725 13.2074 13.8832 13.6947 15.1407 13.1577C15.8349 12.8593 15.4727 12.4814 15.7645 11.7952" stroke="#090909" stroke-linejoin="round"/>
<path d="M8.36011 12.5708C8.36011 12.9487 8.05829 13.257 7.67599 13.257C7.2937 13.257 6.97177 12.9686 6.97177 12.5907C6.97177 12.2128 7.27359 11.8945 7.65588 11.8945C8.03818 11.8945 8.35005 12.1929 8.36011 12.5708Z" stroke="#090909" stroke-linejoin="round"/>
<path d="M9.7483 12.551C9.7483 12.9289 9.44649 13.2471 9.0642 13.2471C8.68191 13.2471 8.37004 12.9487 8.35998 12.5708C8.34992 12.1929 8.66178 11.8846 9.04408 11.8746C9.42637 11.8647 9.73824 12.173 9.7483 12.551Z" stroke="#090909" stroke-linejoin="round"/>
<path d="M11.1368 12.5309C11.1368 12.9089 10.835 13.2271 10.4527 13.2371C10.0704 13.247 9.7585 12.9387 9.74844 12.5607C9.73838 12.1828 10.0503 11.8646 10.4325 11.8646C10.8148 11.8646 11.1267 12.163 11.1368 12.5409V12.5309Z" stroke="#090909" stroke-linejoin="round"/>
<path d="M12.525 12.5111C12.525 12.889 12.2232 13.1973 11.8409 13.2073C11.4586 13.2172 11.1367 12.9189 11.1367 12.531C11.1367 12.1432 11.4385 11.8348 11.8208 11.8348C12.2031 11.8348 12.525 12.1332 12.525 12.5111Z" stroke="#090909" stroke-linejoin="round"/>
<path d="M13.9135 12.4912C13.9135 12.8691 13.6116 13.1873 13.2294 13.1873C12.8471 13.1873 12.5352 12.889 12.5352 12.5111C12.5352 12.1331 12.8269 11.8248 13.2092 11.8248C13.5915 11.8248 13.9135 12.1133 13.9135 12.4912Z" stroke="#090909" stroke-linejoin="round"/>
<path d="M15.2916 12.4714C15.2916 12.8494 14.9898 13.1577 14.6075 13.1676C14.2252 13.1776 13.9133 12.8693 13.9033 12.4913C13.8932 12.1134 14.2051 11.7952 14.5874 11.7952C14.9697 11.7952 15.2815 12.0935 15.2916 12.4714Z" stroke="#090909" stroke-linejoin="round"/>
</svg>
