<svg width="156" height="156" viewBox="0 0 156 156" fill="none" xmlns="http://www.w3.org/2000/svg">
<g clip-path="url(#clip0_2297_41697)">
<path d="M57.07 88.76C59.82 89.7 59.48 90.68 62.23 91.61C64.98 92.54 65 92.5 67.75 93.44C70.5 94.38 70.68 93.87 73.43 94.8C76.18 95.73 76.37 95.19 79.12 96.13C81.77 97.03 84.55 96.12 85.62 93.53L85.83 93.62C86.88 91.08 85.64 87.98 83.2 86.7C80.26 85.16 80.31 85.07 77.37 83.53C74.43 81.99 74.16 82.51 71.21 80.97C68.26 79.43 68.61 78.76 65.67 77.22C62.73 75.68 62.63 76.09 59.4 75.28C56.17 74.47 56.44 73.65 53.28 73.65C50.12 73.65 50.11 74.51 46.95 74.51C43.79 74.51 43.78 75.01 40.61 75.01C37.44 75.01 36.5 72.24 34.22 74.43C31.94 76.62 33.45 77.52 33.45 80.55C33.45 83.58 33.9 83.58 33.9 86.62C33.9 89.66 32.68 90.1 34.01 92.82C35.43 95.71 36.59 94.95 39.08 96.98C41.57 99.01 41.51 99.09 44 101.13C46.49 103.17 47.17 102.34 49.66 104.38C52.15 106.42 51.5 107.23 53.99 109.27C56.48 111.31 56.27 111.7 59.33 112.74C62.66 113.87 62.73 113.08 66.24 113.08C69.75 113.08 69.75 113.87 73.27 113.87C76.79 113.87 76.78 113.85 80.29 113.85C83.8 113.85 83.8 113.69 87.32 113.69C90.84 113.69 90.84 113.61 94.35 113.61C97.86 113.61 97.92 113.95 101.12 112.51C103.83 111.29 103.19 110.73 104.97 108.35C106.75 105.97 107.25 106.34 109.03 103.96C110.81 101.58 109.85 100.86 111.63 98.48C113.41 96.1 114.25 96.72 116.03 94.34C117.81 91.96 117.19 91.49 118.98 89.11C119.98 87.77 121.28 85.74 121.26 83.65C121.23 81.18 119.69 79.31 118.58 78.7C117.37 78.03 115.72 77.03 113.75 77.7C112.38 78.16 110.55 78.9 109.03 80.12C106.5 82.43 107.5 83.51 105.02 85.87C102.54 88.23 101.5 87.14 99.01 89.5C96.52 91.86 97.85 93.7 94.59 94.77C90.06 96.26 89.84 95.19 85.06 95.22" fill="#E9FFF4"/>
<path d="M57.07 88.76C59.82 89.7 59.48 90.68 62.23 91.61C64.98 92.54 65 92.5 67.75 93.44C70.5 94.38 70.68 93.87 73.43 94.8C76.18 95.73 76.37 95.19 79.12 96.13C81.77 97.03 84.55 96.12 85.62 93.53L85.83 93.62C86.88 91.08 85.64 87.98 83.2 86.7C80.26 85.16 80.31 85.07 77.37 83.53C74.43 81.99 74.16 82.51 71.21 80.97C68.26 79.43 68.61 78.76 65.67 77.22C62.73 75.68 62.63 76.09 59.4 75.28C56.17 74.47 56.44 73.65 53.28 73.65C50.12 73.65 50.11 74.51 46.95 74.51C43.79 74.51 43.78 75.01 40.61 75.01C37.44 75.01 36.5 72.24 34.22 74.43C31.94 76.62 33.45 77.52 33.45 80.55C33.45 83.58 33.9 83.58 33.9 86.62C33.9 89.66 32.68 90.1 34.01 92.82C35.43 95.71 36.59 94.95 39.08 96.98C41.57 99.01 41.51 99.09 44 101.13C46.49 103.17 47.17 102.34 49.66 104.38C52.15 106.42 51.5 107.23 53.99 109.27C56.48 111.31 56.27 111.7 59.33 112.74C62.66 113.87 62.73 113.08 66.24 113.08C69.75 113.08 69.75 113.87 73.27 113.87C76.79 113.87 76.78 113.85 80.29 113.85C83.8 113.85 83.8 113.69 87.32 113.69C90.84 113.69 90.84 113.61 94.35 113.61C97.86 113.61 97.92 113.95 101.12 112.51C103.83 111.29 103.19 110.73 104.97 108.35C106.75 105.97 107.25 106.34 109.03 103.96C110.81 101.58 109.85 100.86 111.63 98.48C113.41 96.1 114.25 96.72 116.03 94.34C117.81 91.96 117.19 91.49 118.98 89.11C119.98 87.77 121.28 85.74 121.26 83.65C121.23 81.18 119.69 79.31 118.58 78.7C117.37 78.03 115.72 77.03 113.75 77.7C112.38 78.16 110.55 78.9 109.03 80.12C106.5 82.43 107.5 83.51 105.02 85.87C102.54 88.23 101.5 87.14 99.01 89.5C96.52 91.86 97.85 93.7 94.59 94.77C90.06 96.26 89.84 95.19 85.06 95.22" stroke="#090909" stroke-width="2" stroke-linejoin="round"/>
<path d="M85.8394 93.1017C86.6608 90.962 85.2284 88.4219 82.6401 87.4284C80.0518 86.4348 77.2877 87.364 76.4663 89.5037C75.6449 91.6435 77.0773 94.1835 79.6656 95.1771C82.254 96.1707 85.0181 95.2415 85.8394 93.1017Z" fill="white" stroke="#090909" stroke-width="2" stroke-linejoin="round"/>
<path d="M121.14 86.708C122.526 84.307 122.866 81.9084 121.9 81.3506C120.934 80.7928 119.027 82.287 117.641 84.688C116.255 87.0891 115.914 89.4877 116.88 90.0455C117.846 90.6033 119.753 89.1091 121.14 86.708Z" fill="white" stroke="#090909" stroke-width="2" stroke-linejoin="round"/>
<path d="M59.76 66.28C57.69 65.62 57.77 65.36 55.7 64.7C53.63 64.04 53.27 65.17 51.2 64.51" stroke="#090909" stroke-width="2" stroke-linejoin="round"/>
<path d="M72.03 57.02C70.05 54.76 69.32 55.41 67.34 53.15C65.36 50.89 66 50.33 64.02 48.07" stroke="#090909" stroke-width="2" stroke-linejoin="round"/>
<path d="M86.69 51.16C86.5 48.9 86.44 48.91 86.26 46.65C86.08 44.39 86.69 44.34 86.5 42.08" stroke="#090909" stroke-width="2" stroke-linejoin="round"/>
<path d="M97.27 56.82C98.87 54.84 98.34 54.41 99.94 52.44C101.54 50.47 101.9 50.75 103.5 48.78" stroke="#090909" stroke-width="2" stroke-linejoin="round"/>
<path d="M106.81 66.86C109.82 65.49 110.18 66.28 113.2 64.91C116.22 63.54 116.03 63.13 119.04 61.76" stroke="#090909" stroke-width="2" stroke-linejoin="round"/>
</g>
<defs>
<clipPath id="clip0_2297_41697">
<rect width="91.45" height="72.84" fill="white" transform="translate(32 42)"/>
</clipPath>
</defs>
</svg>
