<svg width="70" height="70" viewBox="0 0 70 70" fill="none" xmlns="http://www.w3.org/2000/svg">
<g clip-path="url(#clip0_2338_42290)">
<path d="M24.26 40.44C27.25 41.46 27.07 41.99 30.06 43.01C33.05 44.03 33.06 44 36.05 45.02C37.49 45.51 39.27 44.47 39.86 43.06L39.57 42.94C40.14 41.56 39.77 40.05 38.45 39.35C35.25 37.68 35.31 37.57 32.1 35.89C28.89 34.21 29.15 33.49 25.65 32.61C22.15 31.73 22.19 32.55 18.75 32.55C15.31 32.55 14.78 30.82 11.98 32.83C9.97 34.27 11.65 35.14 11.65 37.61C11.65 40.08 11.11 40.16 12.25 42.35C13.6 44.94 13.83 44.76 16.09 46.6C18.35 48.44 18.65 48.09 20.91 49.93C23.17 51.77 22.77 52.38 25.52 53.37C28.27 54.36 28.29 53.68 31.15 53.68C34.01 53.68 34.02 54.08 36.88 54.08C39.74 54.08 39.75 53.84 42.62 53.84C45.49 53.84 45.99 55.27 48.44 53.77C51.89 51.66 50.9 50.49 53.33 47.25C55.76 44.01 55.8 44.05 58.22 40.81C59.41 39.23 58.78 35.63 57.67 35.01C56.56 34.39 54.68 34.23 52.67 35.85C50.59 37.72 50.9 38.06 48.87 39.98C46.84 41.9 47.26 42.6 44.68 43.68C42.29 44.68 42.08 43.27 39.49 43.29" stroke="#090909" stroke-width="2" stroke-linejoin="round"/>
<path d="M39.9023 42.797C40.3496 41.6317 39.5711 40.2491 38.1635 39.7088C36.7559 39.1684 35.2522 39.6751 34.8049 40.8403C34.3576 42.0056 35.1361 43.3882 36.5437 43.9286C37.9513 44.4689 39.455 43.9623 39.9023 42.797Z" stroke="#090909" stroke-width="2" stroke-linejoin="round"/>
<path d="M59.1031 39.3259C59.8569 38.0201 60.0415 36.7154 59.5154 36.4116C58.9893 36.1079 57.9517 36.9201 57.1978 38.2259C56.4439 39.5316 56.2593 40.8364 56.7854 41.1401C57.3115 41.4439 58.3492 40.6316 59.1031 39.3259Z" stroke="#090909" stroke-width="2" stroke-linejoin="round"/>
<path d="M25.72 28.22C23.47 27.5 23.51 27.36 21.26 26.64" stroke="#090909" stroke-width="2" stroke-linejoin="round"/>
<path d="M32.4 23.18C30.25 20.72 29.85 21.07 27.7 18.62" stroke="#090909" stroke-width="2" stroke-linejoin="round"/>
<path d="M40.37 19.99C40.17 17.53 40.13 17.54 39.93 15.08" stroke="#090909" stroke-width="2" stroke-linejoin="round"/>
<path d="M46.12 23.07C47.86 20.92 47.57 20.69 49.31 18.54" stroke="#090909" stroke-width="2" stroke-linejoin="round"/>
<path d="M51.31 28.53C54.59 27.04 54.78 27.47 58.06 25.98" stroke="#090909" stroke-width="2" stroke-linejoin="round"/>
</g>
<defs>
<clipPath id="clip0_2338_42290">
<rect width="50.81" height="40.47" fill="white" transform="translate(10 15)"/>
</clipPath>
</defs>
</svg>
