<svg width="20" height="20" viewBox="0 0 20 20" fill="none" xmlns="http://www.w3.org/2000/svg">
<path d="M19.5 10.1572C19.5 10.6274 19.3989 11.0919 19.2501 11.5736C19.1757 11.8144 19.0912 12.0541 19.0032 12.3005C18.9931 12.3286 18.983 12.3569 18.9728 12.3852C18.8952 12.6021 18.8153 12.8252 18.7428 13.0475C18.4318 14.0018 18.0549 14.9263 17.4958 15.7057C16.9186 16.5102 16.2313 17.2332 15.4454 17.8203C14.6421 18.4205 13.7889 18.9205 12.8649 19.2291C12.0929 19.487 11.3124 19.4818 10.3945 19.4758C10.2517 19.4748 10.1055 19.4739 9.95547 19.4739C9.70726 19.4739 9.45986 19.4807 9.22183 19.4872C9.19557 19.4879 9.16942 19.4887 9.14339 19.4894C8.87848 19.4966 8.62505 19.5025 8.37686 19.4989C7.87998 19.4917 7.43051 19.4461 7.0149 19.3087C6.12219 19.0137 5.25336 18.4612 4.43582 17.8504C3.64828 17.262 2.95042 16.5375 2.36342 15.7325C1.75154 14.8934 1.19132 14.0579 0.891459 13.1289C0.587494 12.1872 0.5 11.2038 0.5 10.1472C0.5 9.07432 0.5606 8.04917 0.851445 7.15677C0.987038 6.74074 1.22627 6.33516 1.52322 5.91388C1.67103 5.70419 1.82859 5.49679 1.9911 5.28401C2.00255 5.26902 2.01404 5.25398 2.02554 5.23892C2.17542 5.04275 2.32945 4.84115 2.47454 4.63891C2.5866 4.48272 2.69442 4.32836 2.80012 4.17703C3.29706 3.46559 3.74725 2.82107 4.37104 2.36794C4.97102 1.93211 5.66464 1.71703 6.45633 1.47154C6.66538 1.40672 6.88126 1.33978 7.10406 1.26609C7.34206 1.18738 7.57628 1.10171 7.80118 1.01945C7.82091 1.01223 7.84056 1.00504 7.86013 0.997888C8.10592 0.908056 8.34122 0.822932 8.57644 0.748337C9.04583 0.599476 9.49308 0.5 9.95547 0.5C10.9834 0.5 12.0086 0.635302 12.9089 0.926564C13.313 1.05727 13.7073 1.29818 14.1212 1.60246C14.3271 1.75379 14.5305 1.91514 14.7405 2.08195L14.749 2.08867C14.9538 2.2513 15.1655 2.41948 15.3793 2.57659C15.5644 2.7127 15.7468 2.84136 15.9244 2.9667C16.5996 3.44324 17.207 3.87185 17.6448 4.47945C18.1118 5.12745 18.3488 5.8861 18.6165 6.74318C18.6667 6.9039 18.718 7.06808 18.7721 7.23564C18.8447 7.46067 18.9187 7.67549 18.9904 7.88346C19.2622 8.67244 19.5 9.36278 19.5 10.1371V10.1572Z" stroke="#090909" stroke-linejoin="round"/>
<g clip-path="url(#clip0_2338_42606)">
<path d="M6.91 11.49C8.67 12.09 8.62 12.25 10.37 12.84C10.79 12.98 11.4 12.7 11.57 12.29L11.49 12.26C11.66 11.85 11.43 11.43 11.04 11.23C9.16 10.25 9.37 9.72 7.31 9.2C5.25 8.68 4.88 7.99 3.24 9.17C2.06 10.02 2.46 10.9 3.25 12.12C4.65 14.28 4.78 14.65 7.24 15.4C10.46 16.38 10.83 16.56 13.97 15.31C16.18 14.43 15.46 13.5 16.89 11.6C17.24 11.13 17.04 10.1 16.72 9.92C16.4 9.74 15.8 9.62 15.21 10.09C14 11.2 14.34 11.63 12.92 12.45C12.26 12.83 12.16 12.53 11.39 12.54" stroke="#090909" stroke-linejoin="round"/>
<path d="M11.5015 12.1896C11.6321 11.8493 11.4036 11.4451 10.9911 11.2868C10.5786 11.1284 10.1384 11.2759 10.0077 11.6162C9.8771 11.9565 10.1056 12.3608 10.5181 12.5191C10.9306 12.6774 11.3708 12.5299 11.5015 12.1896Z" stroke="#090909" stroke-linejoin="round"/>
<path d="M17.153 11.1672C17.3739 10.7846 17.4289 10.4027 17.2758 10.3144C17.1228 10.226 16.8196 10.4646 16.5987 10.8472C16.3778 11.2298 16.3228 11.6117 16.4758 11.7C16.6289 11.7884 16.932 11.5498 17.153 11.1672Z" stroke="#090909" stroke-linejoin="round"/>
<path d="M7.34 7.9C6.68 7.69 6.69 7.65 6.03 7.44" stroke="#090909" stroke-linejoin="round"/>
<path d="M9.30001 6.42C8.67001 5.7 8.55001 5.8 7.92001 5.08" stroke="#090909" stroke-linejoin="round"/>
<path d="M11.64 5.49C11.58 4.77 11.57 4.77 11.51 4.05" stroke="#090909" stroke-linejoin="round"/>
<path d="M13.33 6.39C13.84 5.76 13.76 5.69 14.27 5.06" stroke="#090909" stroke-linejoin="round"/>
<path d="M14.86 7.99001C15.82 7.55001 15.88 7.68001 16.84 7.24001" stroke="#090909" stroke-linejoin="round"/>
</g>
<defs>
<clipPath id="clip0_2338_42606">
<rect width="15.86" height="12.7" fill="white" transform="translate(2 4)"/>
</clipPath>
</defs>
</svg>
