<svg width="70" height="71" viewBox="0 0 70 71" fill="none" xmlns="http://www.w3.org/2000/svg">
<path d="M43.51 52.1499C43.41 51.7999 43.17 52.3399 42.94 52.0599C42.81 51.0099 42.6 50 42.18 49.1C41.74 48.15 41.04 47.31 40.34 46.6C39.64 45.89 38.65 45.4499 37.72 45.0399C36.79 44.6299 35.85 44.23 34.79 44.23C33.73 44.23 32.65 44.33 31.73 44.73C30.81 45.13 30.12 45.9999 29.39 46.7499C28.66 47.4999 28.1 48.27 27.66 49.23C27.22 50.19 26.77 51.0199 26.64 52.0699C26.41 52.3499 26.15 51.7999 26.05 52.1499C25.7 53.3299 25.73 53.3899 26.08 54.5599C26.18 54.9099 26.6 54.2199 26.83 54.4999C26.96 55.5499 27.24 56.5899 27.66 57.4899C28.1 58.4399 28.48 59.4499 29.18 60.1699C29.88 60.8899 30.94 61.2499 31.87 61.6599C32.8 62.0699 33.74 62.5399 34.79 62.5399C35.84 62.5399 36.91 62.3299 37.83 61.9299C38.75 61.5299 39.66 60.8999 40.39 60.1599C41.12 59.4199 41.71 58.55 42.15 57.59C42.59 56.63 42.63 55.5499 42.76 54.4899C42.99 54.2099 43.46 54.9299 43.68 54.6499C44.44 53.6899 43.86 53.3299 43.51 52.1499Z" stroke="#090909" stroke-width="2" stroke-miterlimit="10"/>
<path d="M33.3499 51.9098C33.3499 52.3898 32.9599 52.7698 32.4699 52.7698C31.9799 52.7698 31.5999 52.3898 31.5999 51.9098C31.5999 51.4298 31.9899 51.0298 32.4699 51.0298C32.9499 51.0298 33.3499 51.4298 33.3499 51.9098Z" fill="#090909"/>
<path d="M33.3499 51.9098C33.3499 52.3898 32.9599 52.7698 32.4699 52.7698C31.9799 52.7698 31.5999 52.3898 31.5999 51.9098C31.5999 51.4298 31.9899 51.0298 32.4699 51.0298C32.9499 51.0298 33.3499 51.4298 33.3499 51.9098Z" stroke="#090909" stroke-width="0.5" stroke-miterlimit="10"/>
<path d="M37.99 51.9098C37.99 52.3898 37.6 52.7698 37.12 52.7698C36.64 52.7698 36.23 52.3898 36.23 51.9098C36.23 51.4298 36.64 51.0498 37.12 51.0498C37.6 51.0498 37.99 51.4198 37.99 51.9098Z" fill="#090909"/>
<path d="M37.99 51.9098C37.99 52.3898 37.6 52.7698 37.12 52.7698C36.64 52.7698 36.23 52.3898 36.23 51.9098C36.23 51.4298 36.64 51.0498 37.12 51.0498C37.6 51.0498 37.99 51.4198 37.99 51.9098Z" stroke="#090909" stroke-width="0.5" stroke-miterlimit="10"/>
<path d="M43.65 17.0999C43.55 16.7499 43.04 17.4398 42.81 17.1598C42.68 16.1098 42.47 15.0598 42.05 14.1498C41.61 13.1998 40.93 12.4198 40.23 11.6998C39.53 10.9798 38.8 10.1198 37.86 9.70984C36.92 9.29984 35.85 9.07983 34.79 9.07983C33.73 9.07983 32.66 9.31986 31.73 9.72986C30.8 10.1399 30.02 10.8898 29.29 11.6398C28.56 12.3898 28.05 13.2298 27.6 14.1798C27.15 15.1298 26.7 15.9397 26.57 16.9897C26.34 17.2697 25.92 16.6998 25.82 17.0498C25.47 18.2298 25.48 18.4199 25.82 19.5999C25.92 19.9499 26.59 19.1798 26.82 19.4598C26.95 20.5098 27 21.6498 27.42 22.5598C27.86 23.5098 28.62 24.2697 29.32 24.9897C30.02 25.7097 30.85 26.3698 31.79 26.7898C32.73 27.2098 33.72 27.4498 34.78 27.4498C35.84 27.4498 36.8 27.0898 37.73 26.6798C38.66 26.2698 39.55 25.7698 40.28 25.0198C41.01 24.2698 41.58 23.4498 42.02 22.4998C42.46 21.5498 42.84 20.6898 42.97 19.6398C43.2 19.3598 43.21 19.6998 43.45 19.4298C44.28 18.4898 43.99 18.2498 43.65 17.0798V17.0999Z" stroke="#090909" stroke-width="2" stroke-miterlimit="10" stroke-linejoin="round"/>
<path d="M33.3398 16.8998C33.3398 17.3798 32.9498 17.7598 32.4698 17.7598C31.9898 17.7598 31.5798 17.3798 31.5798 16.8998C31.5798 16.4198 31.9898 16.0098 32.4698 16.0098C32.9498 16.0098 33.3398 16.4198 33.3398 16.8998Z" fill="#090909"/>
<path d="M33.3398 16.8998C33.3398 17.3798 32.9498 17.7598 32.4698 17.7598C31.9898 17.7598 31.5798 17.3798 31.5798 16.8998C31.5798 16.4198 31.9898 16.0098 32.4698 16.0098C32.9498 16.0098 33.3398 16.4198 33.3398 16.8998Z" stroke="#090909" stroke-width="0.5" stroke-miterlimit="10"/>
<path d="M37.99 16.8998C37.99 17.3798 37.6 17.7698 37.12 17.7698C36.64 17.7698 36.26 17.3798 36.26 16.8998C36.26 16.4198 36.64 16.0398 37.12 16.0398C37.6 16.0398 37.99 16.4098 37.99 16.8998Z" fill="#090909"/>
<path d="M37.99 16.8998C37.99 17.3798 37.6 17.7698 37.12 17.7698C36.64 17.7698 36.26 17.3798 36.26 16.8998C36.26 16.4198 36.64 16.0398 37.12 16.0398C37.6 16.0398 37.99 16.4098 37.99 16.8998Z" stroke="#090909" stroke-width="0.5" stroke-miterlimit="10"/>
<path d="M31.6399 34.6099C31.5399 34.2599 31.0899 34.9098 30.8599 34.6298C30.7299 33.5798 30.6099 32.4999 30.1799 31.5999C29.7399 30.6499 28.8899 29.9597 28.1899 29.2397C27.4899 28.5197 26.7199 27.7898 25.7899 27.3798C24.8599 26.9698 23.8499 26.8198 22.7999 26.8198C21.7499 26.8198 20.6999 26.8898 19.7699 27.2998C18.8399 27.7098 18.0499 28.4198 17.3199 29.1598C16.5899 29.8998 15.8699 30.6499 15.4199 31.5999C14.9699 32.5499 14.9599 33.6598 14.8399 34.7098C14.6099 34.9898 13.9499 34.2198 13.8499 34.5698C13.4999 35.7498 13.5599 35.9199 13.9099 37.0999C14.0099 37.4499 14.3699 36.8898 14.5999 37.1798C14.7299 38.2298 15.2599 39.0698 15.6799 39.9698C16.1199 40.9198 16.4899 41.9398 17.1899 42.6598C17.8899 43.3798 18.8999 43.8297 19.8399 44.2397C20.7799 44.6497 21.7499 44.9598 22.7999 44.9598C23.8499 44.9598 24.8499 44.6798 25.7799 44.2698C26.7099 43.8598 27.6899 43.3998 28.4099 42.6598C29.1299 41.9198 29.4899 40.9299 29.9299 39.9799C30.3699 39.0299 30.6799 38.0798 30.8099 37.0198C31.0399 36.7398 31.4199 37.3898 31.6499 37.1198C32.4699 36.1798 31.9899 35.7799 31.6399 34.6099Z" stroke="#090909" stroke-width="2" stroke-miterlimit="10"/>
<path d="M21.3598 34.3998C21.3598 34.8798 20.9498 35.2698 20.4698 35.2698C19.9898 35.2698 19.5798 34.8798 19.5798 34.3998C19.5798 33.9198 19.9798 33.5098 20.4698 33.5098C20.9598 33.5098 21.3598 33.9198 21.3598 34.3998Z" fill="#090909"/>
<path d="M21.3598 34.3998C21.3598 34.8798 20.9498 35.2698 20.4698 35.2698C19.9898 35.2698 19.5798 34.8798 19.5798 34.3998C19.5798 33.9198 19.9798 33.5098 20.4698 33.5098C20.9598 33.5098 21.3598 33.9198 21.3598 34.3998Z" stroke="#090909" stroke-width="0.5" stroke-miterlimit="10"/>
<path d="M26.01 34.3998C26.01 34.8798 25.6 35.2798 25.12 35.2798C24.64 35.2798 24.24 34.8898 24.24 34.3998C24.24 33.9098 24.64 33.5398 25.12 33.5398C25.6 33.5398 26.01 33.9198 26.01 34.3998Z" fill="#090909"/>
<path d="M26.01 34.3998C26.01 34.8798 25.6 35.2798 25.12 35.2798C24.64 35.2798 24.24 34.8898 24.24 34.3998C24.24 33.9098 24.64 33.5398 25.12 33.5398C25.6 33.5398 26.01 33.9198 26.01 34.3998Z" stroke="#090909" stroke-width="0.5" stroke-miterlimit="10"/>
<path d="M56.1299 35.7998C56.0299 35.4498 55.3899 36.2198 55.1599 35.9298C55.0299 34.8798 54.8399 33.7998 54.4199 32.8898C53.9799 31.9398 53.3299 31.1498 52.6299 30.4298C51.9299 29.7098 51.1199 29.0298 50.1899 28.6198C49.2599 28.2098 48.2699 28.0798 47.2099 28.0798C46.1499 28.0798 45.1999 28.3199 44.2699 28.7299C43.3399 29.1399 42.3899 29.5698 41.6699 30.3198C40.9499 31.0698 40.4099 31.9298 39.9599 32.8798C39.5099 33.8298 39.3199 34.8298 39.1899 35.8898C38.9599 36.1698 38.6499 35.5398 38.5499 35.8898C38.1999 37.0698 38.1299 37.0998 38.4799 38.2798C38.5799 38.6298 38.9799 37.9597 39.2099 38.2397C39.3399 39.2897 39.4499 40.3898 39.8699 41.2998C40.3099 42.2498 40.9899 43.0698 41.6999 43.7898C42.4099 44.5098 43.3299 45.0198 44.2599 45.4398C45.1899 45.8598 46.1499 46.1798 47.2099 46.1798C48.2699 46.1798 49.2399 45.8598 50.1599 45.4498C51.0799 45.0398 51.9699 44.5198 52.6999 43.7698C53.4299 43.0198 54.1299 42.2598 54.5699 41.3098C55.0099 40.3598 55.1099 39.3098 55.2299 38.2598C55.4599 37.9798 55.7199 38.5298 55.9599 38.2598C56.8099 37.3198 56.4799 36.9798 56.1299 35.8098V35.7998Z" stroke="#090909" stroke-width="2" stroke-miterlimit="10"/>
<path d="M45.75 35.6198C45.75 36.0998 45.36 36.4998 44.88 36.4998C44.4 36.4998 44.02 36.1098 44.02 35.6198C44.02 35.1298 44.4 34.7498 44.88 34.7498C45.36 34.7498 45.75 35.1398 45.75 35.6198Z" fill="#090909"/>
<path d="M45.75 35.6198C45.75 36.0998 45.36 36.4998 44.88 36.4998C44.4 36.4998 44.02 36.1098 44.02 35.6198C44.02 35.1298 44.4 34.7498 44.88 34.7498C45.36 34.7498 45.75 35.1398 45.75 35.6198Z" stroke="#090909" stroke-width="0.5" stroke-miterlimit="10"/>
<path d="M50.3999 35.6198C50.3999 36.0998 50.0099 36.4998 49.5199 36.4998C49.0299 36.4998 48.6499 36.0998 48.6499 35.6198C48.6499 35.1398 49.0399 34.7397 49.5199 34.7397C49.9999 34.7397 50.3999 35.1398 50.3999 35.6198Z" fill="#090909"/>
<path d="M50.3999 35.6198C50.3999 36.0998 50.0099 36.4998 49.5199 36.4998C49.0299 36.4998 48.6499 36.0998 48.6499 35.6198C48.6499 35.1398 49.0399 34.7397 49.5199 34.7397C49.9999 34.7397 50.3999 35.1398 50.3999 35.6198Z" stroke="#090909" stroke-width="0.5" stroke-miterlimit="10"/>
</svg>
