<svg width="20" height="20" viewBox="0 0 20 20" fill="none" xmlns="http://www.w3.org/2000/svg">
<path d="M12.2849 14.6024C12.255 14.503 12.1553 14.6918 12.1254 14.5924C11.9759 13.33 10.9791 12.316 9.80292 12.316C8.62671 12.316 7.63989 13.33 7.4804 14.5924C7.4505 14.6918 7.36079 14.5129 7.33089 14.6123C7.23121 14.9503 7.18137 14.9701 7.28105 15.2982C7.31095 15.3976 7.4206 15.2087 7.4505 15.3081C7.60002 16.5705 8.62671 17.4851 9.80292 17.4851C10.9791 17.4851 11.9161 16.5407 12.0756 15.2783C12.1055 15.1789 12.2749 15.3876 12.3348 15.3081C12.554 15.0298 12.3846 14.9304 12.2849 14.6024Z" stroke="#090909" stroke-miterlimit="10"/>
<path d="M9.39427 14.5328C9.39427 14.6719 9.28462 14.7813 9.14507 14.7813C9.00552 14.7813 8.89587 14.6719 8.89587 14.5328C8.89587 14.3936 9.00552 14.2842 9.14507 14.2842C9.28462 14.2842 9.39427 14.3936 9.39427 14.5328Z" fill="#090909"/>
<path d="M10.7101 14.5327C10.7101 14.6719 10.6005 14.7813 10.4609 14.7813C10.3214 14.7813 10.2117 14.6719 10.2117 14.5327C10.2117 14.3936 10.3313 14.2942 10.4609 14.2942C10.5905 14.2942 10.7101 14.4035 10.7101 14.5327Z" fill="#090909"/>
<path d="M12.3247 4.64211C12.2948 4.5427 12.1054 4.75146 12.0855 4.65206C11.936 3.38963 10.979 2.40552 9.80284 2.40552C8.62663 2.40552 7.67968 3.38963 7.53016 4.65206C7.50026 4.75146 7.28097 4.53275 7.25106 4.63216C7.15138 4.97013 7.16135 5.01981 7.25106 5.35778C7.28097 5.45719 7.43048 5.25838 7.46038 5.35778C7.6099 6.62021 8.62663 7.57453 9.80284 7.57453C10.979 7.57453 11.936 6.60037 12.0855 5.33794C12.1154 5.23854 12.2749 5.45721 12.3446 5.37768C12.5839 5.10929 12.4244 4.98008 12.3247 4.64211Z" stroke="#090909" stroke-miterlimit="10"/>
<path d="M9.39427 4.58237C9.39427 4.72154 9.28462 4.83088 9.14507 4.83088C9.00552 4.83088 8.89587 4.72154 8.89587 4.58237C8.89587 4.44321 9.01549 4.33386 9.14507 4.33386C9.27465 4.33386 9.39427 4.45315 9.39427 4.58237Z" fill="#090909"/>
<path d="M10.7101 4.58237C10.7101 4.72154 10.6005 4.83088 10.4609 4.83088C10.3214 4.83088 10.2117 4.72154 10.2117 4.58237C10.2117 4.44321 10.3214 4.34381 10.4609 4.34381C10.6005 4.34381 10.7101 4.45315 10.7101 4.58237Z" fill="#090909"/>
<path d="M8.90589 9.61221C8.87599 9.5128 8.70655 9.71161 8.68661 9.61221C8.5371 8.34978 7.57021 7.32593 6.394 7.32593C5.21779 7.32593 4.29077 8.35973 4.13129 9.62216C4.10138 9.72156 3.91199 9.5128 3.88209 9.61221C3.78241 9.95018 3.80235 9.97001 3.90203 10.308C3.93193 10.4074 4.04157 10.2185 4.06151 10.3179C4.21102 11.5804 5.20781 12.5346 6.38402 12.5346C7.56023 12.5346 8.56699 11.5804 8.72648 10.3179C8.75638 10.2185 8.79626 10.3578 8.85607 10.2783C9.09529 10.0099 8.99561 9.94023 8.89593 9.60226L8.90589 9.61221Z" stroke="#090909" stroke-miterlimit="10" stroke-linejoin="round"/>
<path d="M5.97538 9.55259C5.97538 9.69175 5.85577 9.80104 5.72619 9.80104C5.5966 9.80104 5.47699 9.69175 5.47699 9.55259C5.47699 9.41342 5.5966 9.30408 5.72619 9.30408C5.85577 9.30408 5.97538 9.42336 5.97538 9.55259Z" fill="#090909"/>
<path d="M7.30094 9.55259C7.30094 9.69175 7.18133 9.80104 7.05175 9.80104C6.92217 9.80104 6.80255 9.69175 6.80255 9.55259C6.80255 9.41342 6.9122 9.30408 7.05175 9.30408C7.1913 9.30408 7.30094 9.41342 7.30094 9.55259Z" fill="#090909"/>
<path d="M15.8834 9.95033C15.8535 9.85093 15.6242 10.0696 15.5943 9.97023C15.4448 8.7078 14.5178 7.73364 13.3416 7.73364C12.1654 7.73364 11.2284 8.7078 11.0689 9.97023C11.039 10.0696 10.8695 9.86089 10.8396 9.97023C10.74 10.3082 10.7599 10.3182 10.8596 10.6562C10.8895 10.7556 11.049 10.5568 11.0789 10.6562C11.2284 11.9186 12.1654 12.9125 13.3416 12.9125C14.5178 12.9125 15.4946 11.9284 15.6442 10.666C15.6741 10.5666 15.7638 10.7258 15.8336 10.6462C16.0828 10.3778 15.9831 10.2883 15.8834 9.95033Z" stroke="#090909" stroke-miterlimit="10"/>
<path d="M12.923 9.90061C12.923 10.0398 12.8133 10.1491 12.6738 10.1491C12.5342 10.1491 12.4246 10.0398 12.4246 9.90061C12.4246 9.76144 12.5342 9.6521 12.6738 9.6521C12.8133 9.6521 12.923 9.76144 12.923 9.90061Z" fill="#090909"/>
<path d="M14.2485 9.90061C14.2485 10.0398 14.1389 10.1491 13.9993 10.1491C13.8598 10.1491 13.7501 10.0398 13.7501 9.90061C13.7501 9.76144 13.8598 9.6521 13.9993 9.6521C14.1389 9.6521 14.2485 9.76144 14.2485 9.90061Z" fill="#090909"/>
<path d="M19.4996 9.87283C19.4933 9.90466 19.49 9.93725 19.49 9.97018C19.49 10.9621 19.2317 11.9443 18.9168 12.906C18.6713 13.6558 18.1843 14.3135 17.6506 15.0343C17.5591 15.1579 17.4663 15.2834 17.373 15.4115C17.2712 15.5512 17.1728 15.6893 17.076 15.8249C16.5654 16.5409 16.1031 17.1892 15.4596 17.6573C14.7929 18.1422 14.0197 18.389 13.1402 18.6697C13.0085 18.7117 12.8744 18.7545 12.738 18.799C12.5533 18.8592 12.3752 18.9197 12.2018 18.9786C11.3807 19.2575 10.667 19.5 9.86268 19.5C8.85555 19.5 7.86362 19.2859 6.92888 18.9784C6.0024 18.6736 5.05369 18.218 4.26493 17.6468C3.4986 17.0918 2.88066 16.306 2.27427 15.4634C1.70874 14.6775 1.33927 13.8075 1.01786 12.8265C0.698981 11.8532 0.504449 10.9637 0.504449 9.96023C0.504449 9.80623 0.503453 9.65519 0.502476 9.50695C0.496329 8.57501 0.490913 7.75377 0.738309 7.00592C1.04291 6.08516 1.51897 5.1187 2.09321 4.33013C2.59679 3.63859 3.33147 3.1068 4.12264 2.53412C4.19649 2.48067 4.27083 2.42685 4.34552 2.37252C5.19842 1.75213 5.99624 1.19308 6.91757 0.89288C7.85404 0.587746 8.82203 0.5 9.87264 0.5C10.8219 0.5 11.7014 0.777824 12.6548 1.07899C12.6906 1.09029 12.7264 1.10162 12.7624 1.11298C13.7137 1.41307 14.6342 1.80091 15.4106 2.36319C16.1963 2.9322 16.8685 3.647 17.4633 4.46021C17.5597 4.59197 17.6554 4.72056 17.7496 4.847C18.2876 5.56967 18.7734 6.22213 19.0265 6.99461C19.3301 7.92151 19.4907 8.88338 19.4996 9.87283Z" stroke="#090909" stroke-linejoin="round"/>
</svg>
