<svg width="24" height="24" viewBox="0 0 24 24" fill="none" xmlns="http://www.w3.org/2000/svg">
<path d="M3 11.9948C3.87122 11.9948 7.13296 12.535 8 12.4519C9.39793 12.3177 10.0866 11.8218 11.5 11.8095C13.8391 11.7891 14.403 11.7559 16.7274 11.8774C17.2641 11.9055 17.4925 11.9392 18 11.9392C17.4868 11.4045 17.6308 10.7459 17.1105 10.2158C15.1622 8.23111 9.12732 2.45561 11.1279 4.39104C12.6243 5.83864 14.2582 7.19694 15.8144 8.58514C17.13 9.75868 18.585 10.8904 20.105 11.8095C20.4578 12.0228 21.3426 12.1667 20.8584 12.4519C19.498 13.253 18.1647 14.0273 16.8934 14.9597C15.3977 16.0568 13.8539 17.1073 12.3347 18.1716C12.2147 18.2557 12.0396 18.3779 11.9643 18.5052C11.6151 19.0965 10.7743 19.4117 10.4703 20" stroke="#090909" stroke-width="2" stroke-linecap="round"/>
</svg>
