<svg width="22" height="21" viewBox="0 0 22 21" fill="none" xmlns="http://www.w3.org/2000/svg">
<g clip-path="url(#clip0_1760_2953)">
<path fill-rule="evenodd" clip-rule="evenodd" d="M11.0133 0.537696C8.51753 0.535224 6.10238 1.39886 4.2007 2.97383C2.29903 4.5488 1.03513 6.73216 0.635519 9.13264C0.235908 11.5331 0.726704 13.9938 2.01994 16.0737C3.31318 18.1536 5.32434 19.7168 7.69299 20.4832C8.21522 20.5774 8.40864 20.257 8.40864 19.9869C8.40864 19.7168 8.40864 19.1011 8.40864 18.2468C5.48802 18.875 4.86907 16.8773 4.86907 16.8773C4.67446 16.2581 4.26102 15.7262 3.70212 15.3759C2.75436 14.7477 3.77948 14.7477 3.77948 14.7477C4.11171 14.7934 4.4289 14.9122 4.70704 15.095C4.98517 15.2779 5.21697 15.52 5.38486 15.8031C5.52751 16.0551 5.71983 16.2772 5.9508 16.4566C6.18176 16.6361 6.44682 16.7693 6.73076 16.8487C7.0147 16.9281 7.31192 16.952 7.60539 16.9192C7.89885 16.8864 8.18278 16.7974 8.44087 16.6574C8.48133 16.1406 8.70999 15.6549 9.0856 15.2879C6.75168 15.0304 4.30171 14.1509 4.30171 10.2309C4.28568 9.21507 4.67119 8.23215 5.37841 7.48563C5.06279 6.60249 5.09962 5.63599 5.48157 4.77807C5.48157 4.77807 6.36484 4.50166 8.36995 5.82717C10.0918 5.36655 11.9091 5.36655 13.6309 5.82717C15.6361 4.50166 16.5129 4.77807 16.5129 4.77807C16.8988 5.63477 16.938 6.60198 16.6225 7.48563C17.3297 8.23215 17.7152 9.21507 17.6992 10.2309C17.6992 14.1634 15.2428 15.0241 12.9024 15.2565C13.1533 15.5023 13.3471 15.7978 13.4706 16.123C13.5941 16.4481 13.6444 16.7954 13.618 17.1411C13.618 18.5106 13.618 19.6163 13.618 19.9492C13.618 20.2822 13.805 20.5397 14.3402 20.4455C16.7014 19.6719 18.7038 18.1062 19.9902 16.0277C21.2767 13.9491 21.7635 11.4929 21.3639 9.0971C20.9643 6.70129 19.7042 4.52168 17.8084 2.94706C15.9126 1.37244 13.5044 0.505188 11.0133 0.5V0.537696Z" fill="#090909"/>
</g>
<defs>
<clipPath id="clip0_1760_2953">
<rect width="21" height="20" fill="white" transform="translate(0.5 0.5)"/>
</clipPath>
</defs>
</svg>
