<svg width="23" height="14" viewBox="0 0 23 14" fill="none" xmlns="http://www.w3.org/2000/svg">
<path d="M2.98933 1.72478C1.4893 2.08362 2.23191 8.88525 2.23191 10.1402C2.23191 10.7029 1.89375 12.5669 2.69478 12.5964C4.67992 12.6695 6.68295 12.5964 8.66999 12.5964C11.3602 12.5964 14.2166 12.9588 17.0016 12.9588C20.41 12.9588 20.7717 13.5082 20.41 10.5943C20.41 7.68815 20.2893 5.73103 20.41 3.53671C20.4612 2.60674 21.4508 1.72478 19.863 1.72478C18.271 1.72478 16.679 1.72478 15.087 1.72478C12.7516 1.72478 10.4163 1.72478 8.08089 1.72478C6.73129 1.72478 4.18961 1.57427 2.98933 1" stroke="#090909" stroke-width="2" stroke-linecap="round"/>
<path d="M1.5 1.64722C2.21295 1.73249 2.69391 2.60882 3.27778 2.97034C4.0382 3.44117 5.0721 4.15045 5.74691 4.74237C6.74976 5.62202 8.07882 6.24572 9.2037 6.96332C9.98236 7.46005 10.7919 8.01063 11.5988 8.45183C12.0376 8.69178 13.3283 7.54158 13.8086 7.2941C14.8699 6.74731 15.7758 5.87568 16.8827 5.42756C18.537 4.75782 19.7789 3.04678 21.5 2.49779" stroke="#090909" stroke-width="2" stroke-linecap="round"/>
</svg>
