<svg width="20" height="21" viewBox="0 0 20 21" fill="none" xmlns="http://www.w3.org/2000/svg">
<path d="M5.82929 4.80389C5.50108 4.80389 4.97893 4.80389 4.66029 4.80389C4.15801 4.80389 2.09968 4.721 2.09968 4.721C2.09968 5.28424 2.09968 6.9894 2.09968 6.9894V13.4476C2.09968 13.4476 2.01886 17.2106 2.01886 17.5346C2.01886 17.9599 1.88438 18.3245 2.33362 18.3245C3.50134 18.3245 4.66221 18.4122 5.83001 18.4122C6.66186 18.4122 7.48799 18.3245 8.31832 18.3245C10.0004 18.3245 11.648 18.5 13.3375 18.5C14.2767 18.5 15.1824 18.4122 16.1235 18.4122C16.4638 18.4122 17.5912 18.4413 17.9315 18.4413L17.8675 13.5852C17.8675 13.0952 17.7305 12.3108 17.9057 11.8689C18.0925 11.3979 17.944 10.5151 17.944 9.98686C17.944 9.34325 17.944 8.69965 17.944 8.05604C17.944 6.9743 17.8675 5.88581 17.8675 4.82827C17.8675 4.27284 17.0647 4.57943 16.7233 4.62836C16.4236 4.67129 16.1023 4.63323 15.8003 4.63323C15.1539 4.63323 15.473 4.721 14.8096 4.721" stroke="#090909" stroke-width="2" stroke-linecap="round" stroke-linejoin="round"/>
<path d="M9.80056 2.67642C10.1894 4.76809 9.90264 8.73319 9.84331 10.8192C9.84033 10.924 9.81591 13.4713 9.92366 13.4938C10.0686 13.5242 10.672 12.8415 10.7102 12.8064C11.4064 12.1676 12.438 11.8292 13.1124 11.1675C13.7769 10.5155 14.3971 9.83681 15.0341 9.16154C15.0878 9.1047 15.2465 8.83841 15.0893 9.01717C14.3296 9.88121 13.5081 10.7718 12.6958 11.5841C12.3042 11.9757 11.5998 12.6779 11.1526 13.2487C10.8313 13.8 10.1247 14.446 9.80056 14.9944C9.65766 15.2362 9.44624 14.6667 9.36452 14.5584C8.52192 13.441 7.72839 12.3624 6.98913 11.1761C6.40365 10.2366 5.9158 9.31363 5.12921 8.52704" stroke="#090909" stroke-width="2" stroke-linecap="round"/>
</svg>
