<svg width="25" height="24" viewBox="0 0 25 24" fill="none" xmlns="http://www.w3.org/2000/svg">
<path d="M21.5 12.0052C20.6288 12.0052 17.367 11.465 16.5 11.5481C15.1021 11.6823 14.4134 12.1782 13 12.1905C10.6609 12.2109 10.097 12.2441 7.77256 12.1226C7.23592 12.0945 7.00754 12.0608 6.5 12.0608C7.0132 12.5955 6.86917 13.2541 7.38947 13.7842C9.33779 15.7689 15.3727 21.5444 13.3721 19.609C11.8757 18.1614 10.2418 16.8031 8.6856 15.4149C7.37002 14.2413 5.91503 13.1096 4.39497 12.1905C4.04222 11.9772 3.15737 11.8333 3.64156 11.5481C5.00195 10.747 6.33533 9.97274 7.60655 9.04033C9.10229 7.94324 10.6461 6.89268 12.1653 5.82835C12.2853 5.74429 12.4604 5.62214 12.5357 5.4948C12.8849 4.9035 13.7257 4.58825 14.0297 4" stroke="#090909" stroke-width="2" stroke-linecap="round"/>
</svg>
