<svg width="24" height="24" viewBox="0 0 24 24" fill="none" xmlns="http://www.w3.org/2000/svg">
<path d="M9.28787 9C9.2999 9.10826 9.41912 9.19253 9.48618 9.26868C9.84745 9.67893 10.2459 10.0381 10.6408 10.4137C10.9683 10.7252 11.3039 11.0301 11.6292 11.3413C12.1623 11.8512 12.7103 12.3393 13.2285 12.8574C13.7327 13.3617 14.2863 13.7885 14.7701 14.3096C14.957 14.5107 15.1765 14.6759 15.3683 14.8789C15.4851 15.0026 15.7914 15.3331 15.9664 15.3331" stroke="#9A948C" stroke-width="2" stroke-linecap="round"/>
<path d="M9 15.8512C10.4755 14.3757 11.9394 12.8712 13.5227 11.514C13.9374 11.1586 14.36 10.8146 14.7573 10.4393C14.9253 10.2807 15.1024 9.99806 15.3331 9.92117" stroke="#9A948C" stroke-width="2" stroke-linecap="round"/>
<path d="M14.1808 4.19335C13.7998 4.19335 13.4082 4.14502 13.018 4.14502C12.3001 4.14502 11.6039 4.25858 10.8946 4.33837C10.1539 4.42169 9.46231 4.63543 8.7713 4.88083C8.23551 5.07111 7.51377 5.19298 7.07769 5.57368C6.52248 6.05838 6.09422 6.56072 5.64247 7.13662C5.21029 7.6876 4.73444 8.19081 4.53025 8.87412C4.46946 9.07756 4.39395 9.27132 4.31118 9.46761C4.16667 9.81026 4.14511 10.2366 4.0921 10.6009C4.05145 10.8802 4.08495 11.1619 4.04435 11.4414C3.99345 11.7919 3.97646 12.2055 4.04716 12.5532C4.25335 13.5671 3.99071 14.8053 4.63698 15.6979C4.92702 16.0985 5.21122 16.4336 5.59754 16.7694C6.0286 17.1441 6.44394 17.5933 6.91198 17.9214C7.34853 18.2275 7.74865 18.574 8.20677 18.8587C8.81128 19.2344 9.6025 19.2762 10.2318 19.5918C10.9035 19.9287 11.9625 20 12.709 20C13.418 20 14.0524 19.8634 14.7425 19.7315C15.2463 19.6351 15.809 19.4688 16.2311 19.1782C16.8745 18.7353 17.5219 18.1879 18.0005 17.5777C18.5353 16.896 18.9204 16.1747 19.2588 15.3891C19.7069 14.3485 19.9946 13.159 19.9946 12.0242C19.9946 11.4445 20.0362 10.8536 19.8879 10.2867C19.8301 10.0655 19.729 9.8525 19.6688 9.62873C19.6033 9.38499 19.5308 9.13345 19.3992 8.9144C18.9502 8.16701 18.5377 7.31371 17.8994 6.68546C17.7198 6.50873 17.5047 6.38517 17.304 6.23162C17.1855 6.14104 17.122 6.00294 16.9838 5.93085C16.77 5.81934 16.5848 5.59001 16.3996 5.44478C16.1729 5.26707 15.9128 5.12199 15.675 4.95603C15.0832 4.54315 14.4233 4.30932 13.7763 4" stroke="#9A948C" stroke-width="2" stroke-linecap="round"/>
</svg>
