<svg width="30" height="30" viewBox="0 0 30 30" fill="none" xmlns="http://www.w3.org/2000/svg">
<g clip-path="url(#clip0_1726_35222)">
<rect width="30" height="30" rx="15" fill="#DFDAD1"/>
<g clip-path="url(#clip1_1726_35222)">
<g clip-path="url(#clip2_1726_35222)">
<path d="M18.4764 18.7693C17.7635 18.4195 17.8222 18.1279 17.9396 17.3533C19.055 16.6702 20.1872 14.7961 20.3801 13.1052C20.464 12.8886 20.5898 13.2718 20.6568 13.0469C20.9168 12.2139 21.0426 12.2722 20.8162 11.4309C20.7491 11.1727 20.3549 11.6891 20.2794 11.4309C19.9272 8.27401 17.8809 6.4165 15.1972 6.4165C12.5135 6.4165 10.8362 8.10741 10.484 11.2643C10.3834 11.5725 10.0479 11.0644 9.93888 11.3726C9.64536 12.1972 10.0563 12.2139 10.2827 13.0552C10.3414 13.2801 10.5427 12.8553 10.6266 13.0719C10.8111 14.7628 11.6917 16.6119 12.9329 17.3699C13.1258 18.1029 13.1006 18.2862 12.4129 18.611C9.01637 20.1853 6.60944 17.4616 5.30953 20.96C2.35748 28.9231 -1.22356 32.4548 5.24244 38.0023C12.7316 44.4245 17.6209 44.3745 25.1101 37.9524C31.5761 32.4049 26.7454 29.2813 25.0933 20.96C24.414 17.5532 21.5877 20.3186 18.4764 18.786V18.7693Z" fill="white"/>
<path d="M18.4764 18.7693C17.7635 18.4195 17.8222 18.1279 17.9396 17.3533C19.055 16.6702 20.1872 14.7961 20.3801 13.1052C20.464 12.8886 20.5898 13.2718 20.6568 13.0469C20.9168 12.2139 21.0426 12.2722 20.8162 11.4309C20.7491 11.1727 20.3549 11.6891 20.2794 11.4309C19.9272 8.27401 17.8809 6.4165 15.1972 6.4165C12.5135 6.4165 10.8362 8.10741 10.484 11.2643C10.3834 11.5725 10.0479 11.0644 9.93888 11.3726C9.64536 12.1972 10.0563 12.2139 10.2827 13.0552C10.3414 13.2801 10.5427 12.8553 10.6266 13.0719C10.8111 14.7628 11.6917 16.6119 12.9329 17.3699C13.1258 18.1029 13.1006 18.2862 12.4129 18.611C9.01637 20.1853 6.60944 17.4616 5.30953 20.96C2.35748 28.9231 -1.22356 32.4548 5.24244 38.0024C12.7316 44.4245 17.6209 44.3745 25.1101 37.9524C31.5761 32.4049 26.7454 29.2813 25.0933 20.96C24.414 17.5532 21.5877 20.3186 18.4764 18.786V18.7693Z" stroke="#090909" stroke-miterlimit="10"/>
<path d="M13.8002 12C14.1316 12 14.4002 11.7314 14.4002 11.4C14.4002 11.0687 14.1316 10.8 13.8002 10.8C13.4688 10.8 13.2002 11.0687 13.2002 11.4C13.2002 11.7314 13.4688 12 13.8002 12Z" fill="#090909"/>
<path d="M16.8002 12.1105C17.1316 12.1105 17.4002 11.8419 17.4002 11.5105C17.4002 11.1792 17.1316 10.9105 16.8002 10.9105C16.4688 10.9105 16.2002 11.1792 16.2002 11.5105C16.2002 11.8419 16.4688 12.1105 16.8002 12.1105Z" fill="#090909"/>
<path d="M17.2425 13.8C15.6658 14.683 14.4162 14.2498 13.2002 13.925" stroke="#090909" stroke-miterlimit="10"/>
</g>
<path d="M21.3274 11.1461C21.2596 10.9199 20.9318 11.4006 20.7792 11.2139C20.6945 10.524 20.6266 9.78322 20.3497 9.18379C20.0615 8.55608 19.6715 7.97927 19.2081 7.5099C18.7447 7.04053 18.1852 6.5655 17.5748 6.29406C16.9645 6.02262 16.2637 6 15.5685 6C14.8734 6 14.2404 6.18662 13.6357 6.45241C13.031 6.71819 12.4489 7.05749 11.9685 7.54948C11.4881 8.04147 11.1038 8.57305 10.81 9.1951C10.5161 9.81715 10.437 10.5184 10.3522 11.2083C10.1996 11.3949 9.78705 10.8916 9.71923 11.1178C9.49317 11.8926 9.6175 11.9604 9.84356 12.7352C9.91138 12.9614 10.16 12.5259 10.3126 12.7125C10.3974 13.4025 10.55 14.0867 10.8269 14.6861C11.1151 15.3139 11.5503 15.8228 12.0137 16.2978C12.4772 16.7729 12.9575 17.3214 13.5679 17.5872C14.1783 17.853 14.8734 18 15.5685 18C16.2637 18 16.9023 17.7172 17.5127 17.4515C18.123 17.1857 18.6825 16.8181 19.1629 16.3261C19.6433 15.8341 19.9824 15.2912 20.2762 14.6635C20.5701 14.0358 20.8414 13.4816 20.9262 12.7861C21.0788 12.5994 21.1466 12.8878 21.2992 12.7012C21.8135 12.0735 21.5591 11.9095 21.3331 11.1348L21.3274 11.1461Z" fill="white" stroke="#090909" stroke-miterlimit="10" stroke-linejoin="round"/>
<path d="M14.6518 11.0557C14.6518 11.4042 14.3636 11.6842 14.0203 11.6842C13.6769 11.6842 13.3887 11.4042 13.3887 11.0557C13.3887 10.7073 13.6769 10.421 14.0203 10.421C14.3636 10.421 14.6518 10.7073 14.6518 11.0557Z" fill="#090909"/>
<path d="M17.81 11.0619C17.81 11.4104 17.5218 11.6842 17.1785 11.6842C16.8351 11.6842 16.5469 11.4104 16.5469 11.0619C16.5469 10.7135 16.8351 10.421 17.1785 10.421C17.5218 10.421 17.81 10.7135 17.81 11.0619Z" fill="#090909"/>
</g>
</g>
<rect x="0.5" y="0.5" width="29" height="29" rx="14.5" stroke="#090909"/>
<defs>
<clipPath id="clip0_1726_35222">
<rect width="30" height="30" rx="15" fill="white"/>
</clipPath>
<clipPath id="clip1_1726_35222">
<rect width="30" height="30" fill="white"/>
</clipPath>
<clipPath id="clip2_1726_35222">
<rect width="27.6" height="37.2" fill="white" transform="translate(1.2002 6)"/>
</clipPath>
</defs>
</svg>
