<svg width="46" height="48" viewBox="0 0 46 48" fill="none" xmlns="http://www.w3.org/2000/svg">
<g clip-path="url(#clip0_1751_37196)">
<path d="M21.6641 1.5625C25.1172 1.5625 28.1797 3.29688 31.0078 5.03125C33.8359 6.76562 36.6172 8.73437 38.3828 11.6719C40.0547 14.4375 41.0234 17.75 41.4453 21.2031C41.9453 21.9688 43.0859 20.3281 43.3516 21.2031C44.2266 24.0469 44.0547 24.3281 43.1797 27.1562C42.9141 28.0156 41.7734 26.3281 41.2891 27.0938C40.8828 30.5625 39.7734 33.7969 38.1016 36.5781C36.3203 39.5312 34.1484 42.2344 31.3359 43.9531C28.5234 45.6719 25.1172 46.4375 21.6484 46.4375C17.8359 46.4375 14.2109 45.3906 11.1797 43.3281C8.14844 41.2656 5.58594 38.4531 3.89844 35.0312C2.33594 31.8594 2.07031 28.1094 2.07031 24.2344C2.07031 20.3594 2.75781 16.8125 4.32031 13.6406C5.99219 10.2344 8.03906 6.92188 11.0078 4.90625C13.9766 2.89063 17.8516 1.5625 21.6641 1.5625Z" fill="#FBF8F4" stroke="#DFDAD1" stroke-width="3.32031" stroke-miterlimit="10"/>
<path d="M24.6327 20.7033C24.6327 21.8752 25.6171 22.8283 26.8046 22.8283C27.9921 22.8283 28.8983 21.8752 28.8983 20.7033C28.8983 19.5314 27.9921 18.5314 26.8046 18.5314C25.6171 18.5314 24.6327 19.5158 24.6327 20.7033Z" fill="#DFDAD1"/>
<path d="M24.6327 20.7033C24.6327 21.8752 25.6171 22.8283 26.8046 22.8283C27.9921 22.8283 28.8983 21.8752 28.8983 20.7033C28.8983 19.5314 27.9921 18.5314 26.8046 18.5314C25.6171 18.5314 24.6327 19.5158 24.6327 20.7033Z" stroke="#DFDAD1" stroke-width="0.830078" stroke-miterlimit="10"/>
<path d="M16.1484 20.7033C16.1484 21.8752 17.0859 22.8127 18.2578 22.8127C19.4296 22.8127 20.3671 21.8752 20.3671 20.7033C20.3671 19.5314 19.4453 18.5471 18.2578 18.5471C17.0703 18.5471 16.1484 19.5314 16.1484 20.7033Z" fill="#DFDAD1"/>
<path d="M16.1484 20.7033C16.1484 21.8752 17.0859 22.8127 18.2578 22.8127C19.4296 22.8127 20.3671 21.8752 20.3671 20.7033C20.3671 19.5314 19.4453 18.5471 18.2578 18.5471C17.0703 18.5471 16.1484 19.5314 16.1484 20.7033Z" stroke="#DFDAD1" stroke-width="0.830078" stroke-miterlimit="10"/>
<path d="M10.6187 16.2319C13.555 16.6197 15.8451 15.0976 18.1373 13.4472" stroke="#DFDAD1" stroke-width="3.32031" stroke-linecap="round"/>
<path d="M23.9851 12.0549C24.7994 13.0571 25.7285 13.8318 26.9399 14.2826C27.364 14.4404 27.7493 14.4177 28.2085 14.4218C29.5442 14.434 30.8673 14.4991 32.1999 14.5611" stroke="#DFDAD1" stroke-width="3.32031" stroke-linecap="round"/>
<path d="M19.2734 28.7628H25.5389" stroke="#DFDAD1" stroke-width="3.32031" stroke-linecap="round"/>
</g>
<defs>
<clipPath id="clip0_1751_37196">
<rect width="44.9531" height="48" fill="white" transform="translate(0.523438)"/>
</clipPath>
</defs>
</svg>
