<svg width="132" height="132" viewBox="0 0 132 132" fill="none" xmlns="http://www.w3.org/2000/svg">
<path d="M82.9482 4.56442L84.7565 14.5007L92.4149 7.91676L92.6466 18.0136L101.241 12.7088L99.89 22.7175L109.208 18.8224L106.308 28.4966L116.121 26.1072L111.744 35.2087L121.809 34.3837L116.062 42.6883L126.133 43.4481L119.157 50.7515L128.985 53.0773L120.953 59.1995L130.296 63.0342L121.405 67.8245L130.033 73.0735L120.502 76.4139L128.203 82.9481L118.267 84.7564L124.851 92.4148L114.754 92.6465L120.059 101.241L110.05 99.8899L113.945 109.208L104.271 106.308L106.66 116.121L97.5587 111.744L98.3837 121.809L90.0791 116.062L89.3193 126.133L82.0159 119.157L79.6901 128.985L73.5679 120.953L69.7332 130.296L64.943 121.405L59.6939 130.033L56.3535 120.502L49.8193 128.203L48.011 118.267L40.3526 124.851L40.1209 114.754L31.5268 120.059L32.8775 110.05L23.5594 113.945L26.4591 104.271L16.6464 106.66L21.0238 97.5587L10.9581 98.3837L16.7054 90.079L6.63459 89.3192L13.6103 82.0159L3.78229 79.69L11.8146 73.5678L2.47145 69.7332L11.3626 64.9429L2.73434 59.6938L12.2654 56.3534L4.56449 49.8193L14.5008 48.0109L7.91683 40.3525L18.0136 40.1209L12.7088 31.5268L22.7176 32.8774L18.8225 23.5593L28.4967 26.4591L26.1072 16.6463L35.2087 21.0238L34.3837 10.958L42.6884 16.7054L43.4482 6.63452L50.7515 13.6102L53.0774 3.78223L59.1996 11.8145L63.0342 2.47138L67.8245 11.3625L73.0736 2.73427L76.414 12.2653L82.9482 4.56442Z" fill="#00EAA4" stroke="#090909" stroke-width="3" stroke-linejoin="round"/>
</svg>
