<svg width="59" height="52" viewBox="0 0 59 52" fill="none" xmlns="http://www.w3.org/2000/svg">
<path d="M27.8445 35.0093C27.9494 35.9535 28.5789 36.548 29.4532 36.548C30.3275 36.548 30.957 35.9535 31.0619 35.0093L32.5657 21.8597C32.6706 20.8456 32.1111 20.0762 31.1668 20.0762H27.7396C26.7953 20.0762 26.2358 20.8456 26.3407 21.8597L27.8445 35.0093ZM26.4106 41.8288V41.8988C26.4106 43.5774 27.7046 44.8714 29.4532 44.8714C31.2018 44.8714 32.4958 43.5774 32.4958 41.8988V41.8288C32.4958 40.1501 31.2018 38.8562 29.4532 38.8562C27.7046 38.8562 26.4106 40.1501 26.4106 41.8288Z" fill="black"/>
<path d="M27.7214 3.38525C28.4912 2.05192 30.4157 2.05192 31.1855 3.38525L56.5889 47.3853C57.3587 48.7186 56.3965 50.3853 54.8569 50.3853H4.05004C2.51044 50.3853 1.54819 48.7186 2.31799 47.3853L27.7214 3.38525Z" stroke="black" stroke-width="3"/>
</svg>
