<svg width="203" height="201" viewBox="0 0 203 201" fill="none" xmlns="http://www.w3.org/2000/svg">
<path d="M32.0987 94.7198C32.0987 93.1031 33.6876 91.9651 35.2183 92.4854C40.1246 94.1529 44.8044 95.7446 49.487 97.3305C65.0809 102.614 80.6831 107.877 96.2604 113.206C98.3324 113.915 100.218 113.878 102.277 113.173C122.815 106.161 143.374 99.2078 163.928 92.2417C164.23 92.1386 164.534 92.0424 164.849 91.9459C165.543 91.7325 166.36 92.1866 166.36 92.913C166.36 110.525 166.327 128.133 166.369 145.745C166.369 147.564 165.842 149.077 164.433 150.084C161.694 152.04 158.984 154.116 156.005 155.637C145.968 160.759 135.189 163.643 124.145 165.587C114.262 167.327 104.287 168.098 94.263 167.663C76.4769 166.892 59.2005 163.684 42.9933 155.993C40.1505 154.642 37.5274 152.794 34.9001 151.029C32.8363 149.645 31.9993 147.755 32.02 145.065C32.1692 128.286 32.0946 111.503 32.0987 94.7198Z" fill="#72C5FF"/>
<path d="M3.01473 71.2552C0.166024 70.2903 0.167347 66.2591 3.0164 65.2952C8.74626 63.3566 14.3713 61.4526 19.9982 59.5577C45.6621 50.9175 71.3218 42.2689 97.0064 33.695C98.2703 33.2723 99.903 33.1562 101.138 33.5706C134.659 44.7843 168.147 56.085 201.643 67.3775C202.495 67.6665 202.474 68.8868 201.622 69.1752C196.888 70.7768 192.396 72.2956 187.905 73.8173C159.195 83.5474 130.478 93.2609 101.784 103.041C99.9735 103.658 98.4195 103.621 96.6127 103.004C65.5322 92.4248 34.4343 81.898 3.01473 71.2552Z" fill="#72C5FF"/>
</svg>
