<svg width="606" height="601" viewBox="0 0 606 601" fill="none" xmlns="http://www.w3.org/2000/svg">
<path d="M94.4934 282.659C94.4934 277.809 99.26 274.395 103.852 275.956C118.571 280.959 132.61 285.734 146.658 290.492C193.44 306.342 240.246 322.131 286.978 338.119C293.194 340.245 298.851 340.133 305.03 338.019C366.643 316.984 428.318 296.123 489.981 275.225C490.887 274.916 491.801 274.627 492.743 274.338C494.826 273.698 497.279 275.06 497.279 277.239C497.279 330.075 497.179 382.899 497.303 435.735C497.303 441.193 495.725 445.73 491.498 448.751C483.28 454.619 475.15 460.848 466.211 465.41C436.101 480.776 403.765 489.429 370.634 495.26C340.983 500.481 311.059 502.793 280.986 501.488C227.628 499.176 175.799 489.553 127.177 466.479C118.649 462.427 110.779 456.882 102.897 451.586C96.7063 447.434 94.195 441.765 94.2572 433.696C94.7047 383.359 94.481 333.009 94.4934 282.659Z" fill="#72C5FF"/>
<path d="M7.24147 212.266C-1.30466 209.371 -1.30069 197.277 7.24648 194.386C24.436 188.57 41.3113 182.858 58.192 177.173C135.184 151.252 212.163 125.307 289.216 99.5849C293.008 98.3168 297.906 97.9687 301.611 99.2119C402.174 132.853 502.637 166.755 603.125 200.632C605.681 201.499 605.619 205.16 603.062 206.025C588.861 210.831 575.387 215.387 561.913 219.952C475.784 249.142 389.63 278.283 303.55 307.622C298.118 309.475 293.456 309.363 288.035 307.511C194.794 275.774 101.5 244.194 7.24147 212.266Z" fill="#72C5FF"/>
</svg>
