<svg width="31" height="31" viewBox="0 0 31 31" fill="none" xmlns="http://www.w3.org/2000/svg">
<path fill-rule="evenodd" clip-rule="evenodd" d="M30.3252 15.3853C30.3252 23.6695 23.6095 30.3853 15.3252 30.3853C7.04092 30.3853 0.325195 23.6695 0.325195 15.3853C0.325195 7.10098 7.04092 0.385254 15.3252 0.385254C23.6095 0.385254 30.3252 7.10098 30.3252 15.3853ZM15.3158 6.38525C20.8376 6.38525 25.3283 10.0321 25.3283 14.5134C25.3283 16.304 24.6345 17.9165 23.1814 19.5196C21.0814 21.9384 16.3845 24.8821 15.3158 25.3321C14.2603 25.7765 14.3935 25.0597 14.4421 24.798L14.4439 24.7884C14.4626 24.6384 14.5845 23.9353 14.5845 23.9353C14.622 23.6728 14.6595 23.279 14.5564 23.0259C14.4439 22.7446 14.0033 22.604 13.6751 22.529C8.86576 21.8915 5.30326 18.5259 5.30326 14.5134C5.30326 10.0321 9.79389 6.38525 15.3158 6.38525Z" fill="black"/>
<path d="M22 17.1017C22.1031 17.1017 22.1875 17.0173 22.1875 16.9142V16.2017C22.1875 16.0985 22.1031 16.0142 22 16.0142H20.0875V15.2735H22C22.1031 15.2735 22.1875 15.1892 22.1875 15.086V14.3735C22.1875 14.2704 22.1031 14.186 22 14.186H20.0875V13.4454H22C22.1031 13.4454 22.1875 13.361 22.1875 13.2579V12.5454C22.1875 12.4423 22.1031 12.3579 22 12.3579H19.1875C19.0844 12.3579 19 12.4423 19 12.5454V16.9048C19 17.0079 19.0844 17.0923 19.1875 17.0923H22V17.1017Z" fill="black"/>
<path d="M11.5938 17.1017C11.6969 17.1017 11.7812 17.0173 11.7812 16.9142V16.2017C11.7812 16.0985 11.6969 16.0142 11.5938 16.0142H9.68125V12.5454C9.68125 12.4423 9.59688 12.3579 9.49375 12.3579H8.78125C8.67812 12.3579 8.59375 12.4423 8.59375 12.5454V16.9142C8.59375 17.0173 8.67812 17.1017 8.78125 17.1017H11.5938Z" fill="black"/>
<path d="M13.2809 12.3481H12.5684C12.4652 12.3481 12.3809 12.4325 12.3809 12.5356V16.9044C12.3809 17.0075 12.4652 17.0919 12.5684 17.0919H13.2809C13.384 17.0919 13.4684 17.0075 13.4684 16.9044V12.5356C13.4777 12.4325 13.3934 12.3481 13.2809 12.3481Z" fill="black"/>
<path d="M18.1184 12.3481H17.4059C17.3027 12.3481 17.2184 12.4325 17.2184 12.5356V15.1325L15.2215 12.4325C15.2215 12.4231 15.2121 12.4231 15.2027 12.4138L15.1934 12.4044L15.184 12.395C15.184 12.395 15.184 12.395 15.1746 12.395L15.1652 12.3856C15.1652 12.3856 15.1652 12.3856 15.1559 12.3856C15.1559 12.3856 15.1465 12.3856 15.1465 12.3763C15.1465 12.3763 15.1465 12.3763 15.1371 12.3763C15.1371 12.3763 15.1277 12.3763 15.1277 12.3669C15.1277 12.3669 15.1277 12.3669 15.1184 12.3669H15.109C15.109 12.3669 15.109 12.3669 15.0996 12.3669H15.0902H15.0809H15.0715H15.0621C15.0621 12.3669 15.0621 12.3669 15.0527 12.3669H14.3496C14.2465 12.3669 14.1621 12.4513 14.1621 12.5544V16.9231C14.1621 17.0263 14.2465 17.1106 14.3496 17.1106H15.0621C15.1652 17.1106 15.2496 17.0263 15.2496 16.9231V14.3263L17.2559 17.0263C17.2652 17.045 17.284 17.0638 17.3027 17.0731L17.3121 17.0825C17.3121 17.0825 17.3121 17.0825 17.3215 17.0825H17.3309H17.3402C17.3402 17.0825 17.3402 17.0825 17.3496 17.0825H17.359C17.3777 17.0825 17.3871 17.0919 17.4059 17.0919H18.109C18.2121 17.0919 18.2965 17.0075 18.2965 16.9044V12.5356C18.3059 12.4325 18.2215 12.3481 18.1184 12.3481Z" fill="black"/>
</svg>
