<svg width="19" height="109" viewBox="0 0 19 109" fill="none" xmlns="http://www.w3.org/2000/svg">
<path d="M10.2774 59.8066C9.8869 59.416 9.25373 59.416 8.86321 59.8066L2.49924 66.1705C2.10872 66.5611 2.10872 67.1942 2.49924 67.5847C2.88977 67.9753 3.52293 67.9753 3.91346 67.5847L9.57031 61.9279L15.2272 67.5847C15.6177 67.9753 16.2509 67.9753 16.6414 67.5847C17.0319 67.1942 17.0319 66.5611 16.6414 66.1705L10.2774 59.8066ZM10.5703 108.958V60.5137H8.57031V108.958H10.5703Z" fill="white"/>
<path d="M12.6903 50.1069C12.6903 50.7709 12.5263 51.2989 12.1983 51.6909C11.8703 52.0829 11.3943 52.2789 10.7703 52.2789C10.1623 52.2789 9.69431 52.0869 9.36631 51.7029C9.03831 51.3109 8.87431 50.7789 8.87431 50.1069L8.87431 48.0189L8.25031 48.0189C7.21831 48.0189 6.70231 48.5829 6.70231 49.7109C6.70231 50.1909 6.80231 50.5949 7.00231 50.9229C7.19431 51.2429 7.46231 51.5029 7.80631 51.7029L7.26631 52.3149C6.87431 52.1069 6.54631 51.7869 6.28231 51.3549C6.01031 50.9229 5.87431 50.3589 5.87431 49.6629C5.87431 48.9749 6.01831 48.4189 6.30631 47.9949C5.89031 47.9629 5.68231 47.7389 5.68231 47.3229L5.68231 45.7269L6.57031 45.7269L6.57031 47.6589C6.97031 47.2589 7.51431 47.0589 8.20231 47.0589L12.5703 47.0589L12.5703 48.0189L9.55831 48.0189L9.55831 49.8909C9.55831 50.3229 9.65031 50.6589 9.83431 50.8989C10.0183 51.1389 10.2783 51.2589 10.6143 51.2589L10.8903 51.2589C11.2503 51.2589 11.5263 51.1509 11.7183 50.9349C11.9023 50.7109 11.9943 50.4109 11.9943 50.0349C11.9943 49.9229 11.9903 49.8309 11.9823 49.7589C11.9743 49.6789 11.9663 49.6149 11.9583 49.5669L12.6183 49.4829C12.6423 49.5309 12.6583 49.6229 12.6663 49.7589C12.6823 49.8869 12.6903 50.0029 12.6903 50.1069ZM4.53031 47.5386C4.53031 47.3546 4.48231 47.2106 4.38631 47.1066C4.29031 47.0026 4.16231 46.9506 4.00231 46.9506L3.76231 46.9506C3.60231 46.9506 3.47431 47.0026 3.37831 47.1066C3.28231 47.2106 3.23431 47.3546 3.23431 47.5386C3.23431 47.7226 3.28231 47.8666 3.37831 47.9706C3.47431 48.0746 3.60231 48.1266 3.76231 48.1266L4.00231 48.1266C4.16231 48.1266 4.29031 48.0746 4.38631 47.9706C4.48231 47.8666 4.53031 47.7226 4.53031 47.5386ZM5.16631 47.5386C5.16631 47.9466 5.05031 48.2706 4.81831 48.5106C4.58631 48.7506 4.27431 48.8706 3.88231 48.8706C3.49031 48.8706 3.17831 48.7506 2.94631 48.5106C2.71431 48.2706 2.59831 47.9466 2.59831 47.5386C2.59831 47.1306 2.71431 46.8066 2.94631 46.5666C3.17831 46.3266 3.49031 46.2066 3.88231 46.2066C4.27431 46.2066 4.58631 46.3266 4.81831 46.5666C5.05031 46.8066 5.16631 47.1306 5.16631 47.5386ZM8.07031 41.8115C7.15031 41.8115 6.69031 42.2875 6.69031 43.2395C6.69031 43.6235 6.77431 43.9395 6.94231 44.1875C7.11031 44.4275 7.33431 44.6315 7.61431 44.7995L7.09831 45.3875C6.74631 45.2035 6.45431 44.9355 6.22231 44.5835C5.99031 44.2235 5.87431 43.7555 5.87431 43.1795C5.87431 42.4275 6.05831 41.8515 6.42631 41.4515C6.79431 41.0515 7.31431 40.8515 7.98631 40.8515L12.5703 40.8515L12.5703 41.8115L8.07031 41.8115ZM8.46631 38.9267C8.07431 38.9267 7.71831 38.8627 7.39831 38.7347C7.07831 38.5987 6.80631 38.4067 6.58231 38.1587C6.35031 37.9107 6.17431 37.6107 6.05431 37.2587C5.93431 36.9067 5.87431 36.5107 5.87431 36.0707C5.87431 35.6387 5.93431 35.2467 6.05431 34.8947C6.17431 34.5427 6.35031 34.2427 6.58231 33.9947C6.80631 33.7467 7.07831 33.5547 7.39831 33.4187C7.71831 33.2827 8.07431 33.2147 8.46631 33.2147L12.5703 33.2147L12.5703 34.1747L8.56231 34.1747C7.96231 34.1747 7.50231 34.3427 7.18231 34.6787C6.86231 35.0067 6.70231 35.4707 6.70231 36.0707C6.70231 36.6707 6.86231 37.1387 7.18231 37.4747C7.50231 37.8027 7.96231 37.9667 8.56231 37.9667L10.1223 37.9667L10.1223 37.9067C9.97031 37.8507 9.82631 37.7747 9.69031 37.6787C9.54631 37.5827 9.42231 37.4627 9.31831 37.3187C9.20631 37.1747 9.11831 37.0067 9.05431 36.8147C8.99031 36.6147 8.95831 36.3867 8.95831 36.1307L8.95831 35.7347L9.91831 35.7347L9.91831 36.2867C9.91831 36.7987 10.0183 37.2067 10.2183 37.5107C10.4183 37.8147 10.6943 37.9667 11.0463 37.9667L12.5703 37.9667L12.5703 38.9267L8.46631 38.9267ZM4.73431 34.2267C4.73431 34.5867 4.64631 34.8507 4.47031 35.0187C4.29431 35.1867 4.06231 35.2707 3.77431 35.2707L3.03031 35.2707L3.03031 34.3107L3.90631 34.3107L3.90631 31.2507L4.73431 31.2507L4.73431 34.2267ZM12.7143 24.6498C12.7143 25.0178 12.6623 25.3498 12.5583 25.6458C12.4463 25.9418 12.2903 26.1978 12.0903 26.4138C11.8823 26.6218 11.6383 26.7818 11.3583 26.8938C11.0783 27.0058 10.7623 27.0618 10.4103 27.0618L8.61031 27.0618C7.98631 27.0618 7.51431 27.2218 7.19431 27.5418C6.86631 27.8618 6.70231 28.2898 6.70231 28.8258C6.70231 29.2978 6.81431 29.7138 7.03831 30.0738C7.26231 30.4258 7.57031 30.6578 7.96231 30.7698L8.20231 30.1818C8.27431 30.0058 8.35831 29.8818 8.45431 29.8098C8.55031 29.7298 8.68631 29.6898 8.86231 29.6898L11.7303 29.6898L11.7303 28.9218L12.5703 28.9218L12.5703 29.6178C12.5703 29.9618 12.4783 30.2218 12.2943 30.3978C12.1103 30.5658 11.8663 30.6498 11.5623 30.6498L8.82631 30.6498L8.39431 31.6698C8.02631 31.6458 7.69031 31.5578 7.38631 31.4058C7.07431 31.2538 6.80631 31.0538 6.58231 30.8058C6.35831 30.5498 6.18631 30.2578 6.06631 29.9298C5.93831 29.5938 5.87431 29.2298 5.87431 28.8378C5.87431 27.9498 6.11031 27.2738 6.58231 26.8098C7.04631 26.3378 7.68231 26.1018 8.49031 26.1018L10.4223 26.1018C10.8943 26.1018 11.2543 25.9698 11.5023 25.7058C11.7503 25.4338 11.8743 25.0818 11.8743 24.6498C11.8743 24.2098 11.7503 23.8578 11.5023 23.5938C11.2543 23.3298 10.8943 23.1978 10.4223 23.1978L6.01831 23.1978L6.01831 22.2378L10.4103 22.2378C10.7623 22.2378 11.0783 22.2938 11.3583 22.4058C11.6383 22.5178 11.8823 22.6818 12.0903 22.8978C12.2903 23.1058 12.4463 23.3578 12.5583 23.6538C12.6623 23.9498 12.7143 24.2818 12.7143 24.6498ZM15.3543 26.0058C15.3543 26.3658 15.2663 26.6298 15.0903 26.7978C14.9223 26.9658 14.6943 27.0498 14.4063 27.0498L13.6503 27.0498L13.6503 26.0898L14.5383 26.0898L14.5383 22.2378L15.3543 22.2378L15.3543 26.0058ZM12.7143 17.3296C12.7143 17.6096 12.6783 17.8536 12.6063 18.0616C12.5423 18.2696 12.4543 18.4496 12.3423 18.6016C12.2303 18.7536 12.1023 18.8816 11.9583 18.9856C11.8143 19.0816 11.6623 19.1616 11.5023 19.2256L11.5023 19.2856L12.5703 19.2856L12.5703 20.2456L6.01831 20.2456L6.01831 19.2856L10.5543 19.2856C10.7783 19.2856 10.9743 19.2376 11.1423 19.1416C11.3103 19.0456 11.4503 18.9216 11.5623 18.7696C11.6743 18.6096 11.7583 18.4336 11.8143 18.2416C11.8703 18.0416 11.8983 17.8376 11.8983 17.6296C11.8983 17.1016 11.7463 16.7056 11.4423 16.4416C11.1303 16.1696 10.6743 16.0336 10.0743 16.0336L6.01831 16.0336L6.01831 15.0736L10.1943 15.0736C11.0023 15.0736 11.6263 15.2736 12.0663 15.6736C12.4983 16.0736 12.7143 16.6256 12.7143 17.3296ZM8.07031 10.2412C7.15031 10.2412 6.69031 10.7172 6.69031 11.6692C6.69031 12.0532 6.77431 12.3692 6.94231 12.6172C7.11031 12.8572 7.33431 13.0612 7.61431 13.2292L7.09831 13.8172C6.74631 13.6332 6.45431 13.3652 6.22231 13.0132C5.99031 12.6532 5.87431 12.1852 5.87431 11.6092C5.87431 10.8572 6.05831 10.2812 6.42631 9.88119C6.79431 9.48119 7.31431 9.28119 7.98631 9.28119L12.5703 9.28119L12.5703 10.2412L8.07031 10.2412ZM8.82631 6.70841L8.39431 7.72841C8.02631 7.70441 7.69031 7.61641 7.38631 7.46441C7.07431 7.30441 6.80631 7.09641 6.58231 6.84041C6.35831 6.58441 6.18631 6.28841 6.06631 5.95241C5.93831 5.60841 5.87431 5.23641 5.87431 4.83641C5.87431 3.90041 6.11031 3.18441 6.58231 2.68841C7.04631 2.19241 7.67831 1.94441 8.47831 1.94441L12.5703 1.94441L12.5703 2.90441L8.59831 2.90441C7.97431 2.90441 7.50231 3.08041 7.18231 3.43241C6.86231 3.77641 6.70231 4.23241 6.70231 4.80041C6.70231 5.04841 6.73431 5.28441 6.79831 5.50841C6.85431 5.72441 6.93831 5.92041 7.05031 6.09641C7.15431 6.27241 7.28631 6.42441 7.44631 6.55241C7.59831 6.68041 7.77031 6.77241 7.96231 6.82841L8.20231 6.22841C8.26631 6.06041 8.35031 5.94041 8.45431 5.86841C8.55031 5.78841 8.68631 5.74841 8.86231 5.74841L12.5703 5.74841L12.5703 6.70841L8.82631 6.70841Z" fill="white"/>
</svg>
