<svg width="62" height="76" viewBox="0 0 62 76" fill="none" xmlns="http://www.w3.org/2000/svg">
<path d="M31.6231 26.4179C31.2326 26.0274 30.5994 26.0274 30.2089 26.4179L23.8449 32.7819C23.4544 33.1724 23.4544 33.8055 23.8449 34.1961C24.2355 34.5866 24.8686 34.5866 25.2592 34.1961L30.916 28.5392L36.5729 34.1961C36.9634 34.5866 37.5966 34.5866 37.9871 34.1961C38.3776 33.8055 38.3776 33.1724 37.9871 32.7819L31.6231 26.4179ZM31.916 75.5692V27.125H29.916V75.5692H31.916Z" fill="white"/>
<path d="M3.97395 15.265C3.19928 15.265 2.58328 15.0737 2.12595 14.691C1.66861 14.3083 1.43995 13.753 1.43995 13.025C1.43995 12.3157 1.66395 11.7697 2.11195 11.387C2.56928 11.0043 3.18995 10.813 3.97395 10.813H6.40995V10.085C6.40995 8.881 5.75195 8.279 4.43595 8.279C3.87595 8.279 3.40461 8.39567 3.02195 8.629C2.64861 8.853 2.34528 9.16567 2.11195 9.567L1.39795 8.937C1.64061 8.47967 2.01395 8.097 2.51795 7.789C3.02195 7.47167 3.67995 7.313 4.49195 7.313C5.29461 7.313 5.94328 7.481 6.43795 7.817C6.47528 7.33167 6.73661 7.089 7.22195 7.089H9.08395V8.125H6.82995C7.29661 8.59167 7.52995 9.22633 7.52995 10.029V15.125H6.40995V11.611H4.22595C3.72195 11.611 3.32995 11.7183 3.04995 11.933C2.76995 12.1477 2.62995 12.451 2.62995 12.843V13.165C2.62995 13.585 2.75595 13.907 3.00795 14.131C3.26928 14.3457 3.61928 14.453 4.05795 14.453C4.18861 14.453 4.29595 14.4483 4.37995 14.439C4.47328 14.4297 4.54795 14.4203 4.60395 14.411L4.70195 15.181C4.64595 15.209 4.53861 15.2277 4.37995 15.237C4.23061 15.2557 4.09528 15.265 3.97395 15.265ZM6.97027 5.745C7.18494 5.745 7.35294 5.689 7.47427 5.577C7.59561 5.465 7.65627 5.31567 7.65627 5.129V4.849C7.65627 4.66233 7.59561 4.513 7.47427 4.401C7.35294 4.289 7.18494 4.233 6.97027 4.233C6.75561 4.233 6.58761 4.289 6.46627 4.401C6.34494 4.513 6.28427 4.66233 6.28427 4.849V5.129C6.28427 5.31567 6.34494 5.465 6.46627 5.577C6.58761 5.689 6.75561 5.745 6.97027 5.745ZM6.97027 6.487C6.49427 6.487 6.11627 6.35167 5.83627 6.081C5.55627 5.81033 5.41627 5.44633 5.41627 4.989C5.41627 4.53167 5.55627 4.16767 5.83627 3.897C6.11627 3.62633 6.49427 3.491 6.97027 3.491C7.44627 3.491 7.82427 3.62633 8.10427 3.897C8.38427 4.16767 8.52427 4.53167 8.52427 4.989C8.52427 5.44633 8.38427 5.81033 8.10427 6.081C7.82427 6.35167 7.44627 6.487 6.97027 6.487ZM13.6519 9.875C13.6519 8.80167 13.0965 8.265 11.9859 8.265C11.5379 8.265 11.1692 8.363 10.8799 8.559C10.5999 8.755 10.3619 9.01633 10.1659 9.343L9.47988 8.741C9.69455 8.33033 10.0072 7.98967 10.4179 7.719C10.8379 7.44833 11.3839 7.313 12.0559 7.313C12.9332 7.313 13.6052 7.52767 14.0719 7.957C14.5385 8.38633 14.7719 8.993 14.7719 9.777V15.125H13.6519V9.875ZM17.0175 10.337C17.0175 9.87967 17.0921 9.46433 17.2415 9.091C17.4001 8.71767 17.6241 8.40033 17.9135 8.139C18.2028 7.86833 18.5528 7.663 18.9635 7.523C19.3741 7.383 19.8361 7.313 20.3495 7.313C20.8535 7.313 21.3108 7.383 21.7215 7.523C22.1321 7.663 22.4821 7.86833 22.7715 8.139C23.0608 8.40033 23.2848 8.71767 23.4435 9.091C23.6021 9.46433 23.6815 9.87967 23.6815 10.337V15.125H22.5615V10.449C22.5615 9.749 22.3655 9.21233 21.9735 8.839C21.5908 8.46567 21.0495 8.279 20.3495 8.279C19.6495 8.279 19.1035 8.46567 18.7115 8.839C18.3288 9.21233 18.1375 9.749 18.1375 10.449V12.269H18.2075C18.2728 12.0917 18.3615 11.9237 18.4735 11.765C18.5855 11.597 18.7255 11.4523 18.8935 11.331C19.0615 11.2003 19.2575 11.0977 19.4815 11.023C19.7148 10.9483 19.9808 10.911 20.2795 10.911H20.7415V12.031H20.0975C19.5001 12.031 19.0241 12.1477 18.6695 12.381C18.3148 12.6143 18.1375 12.9363 18.1375 13.347V15.125H17.0175V10.337ZM22.5008 5.983C22.0808 5.983 21.7728 5.88033 21.5768 5.675C21.3808 5.46967 21.2828 5.199 21.2828 4.863V3.995H22.4028V5.017H25.9728V5.983H22.5008ZM33.6739 15.293C33.2445 15.293 32.8572 15.2323 32.5119 15.111C32.1665 14.9803 31.8679 14.7983 31.6159 14.565C31.3732 14.3223 31.1865 14.0377 31.0559 13.711C30.9252 13.3843 30.8599 13.0157 30.8599 12.605V10.505C30.8599 9.777 30.6732 9.22633 30.2999 8.853C29.9265 8.47033 29.4272 8.279 28.8019 8.279C28.2512 8.279 27.7659 8.40967 27.3459 8.671C26.9352 8.93233 26.6645 9.29167 26.5339 9.749L27.2199 10.029C27.4252 10.113 27.5699 10.211 27.6539 10.323C27.7472 10.435 27.7939 10.5937 27.7939 10.799V14.145H28.6899V15.125H27.8779C27.4765 15.125 27.1732 15.0177 26.9679 14.803C26.7719 14.5883 26.6739 14.3037 26.6739 13.949V10.757L25.4839 10.253C25.5119 9.82367 25.6145 9.43167 25.7919 9.077C25.9692 8.713 26.2025 8.40033 26.4919 8.139C26.7905 7.87767 27.1312 7.677 27.5139 7.537C27.9059 7.38767 28.3305 7.313 28.7879 7.313C29.8239 7.313 30.6125 7.58833 31.1539 8.139C31.7045 8.68033 31.9799 9.42233 31.9799 10.365V12.619C31.9799 13.1697 32.1339 13.5897 32.4419 13.879C32.7592 14.1683 33.1699 14.313 33.6739 14.313C34.1872 14.313 34.5979 14.1683 34.9059 13.879C35.2139 13.5897 35.3679 13.1697 35.3679 12.619V7.481H36.4879V12.605C36.4879 13.0157 36.4225 13.3843 36.2919 13.711C36.1612 14.0377 35.9699 14.3223 35.7179 14.565C35.4752 14.7983 35.1812 14.9803 34.8359 15.111C34.4905 15.2323 34.1032 15.293 33.6739 15.293ZM32.0919 18.373C31.6719 18.373 31.3639 18.2703 31.1679 18.065C30.9719 17.869 30.8739 17.603 30.8739 17.267V16.385H31.9939V17.421H36.4879V18.373H32.0919ZM42.2141 15.293C41.8874 15.293 41.6027 15.251 41.3601 15.167C41.1174 15.0923 40.9074 14.9897 40.7301 14.859C40.5527 14.7283 40.4034 14.579 40.2821 14.411C40.1701 14.243 40.0767 14.0657 40.0021 13.879H39.9321V15.125H38.8121V7.481H39.9321V12.773C39.9321 13.0343 39.9881 13.263 40.1001 13.459C40.2121 13.655 40.3567 13.8183 40.5341 13.949C40.7207 14.0797 40.9261 14.1777 41.1501 14.243C41.3834 14.3083 41.6214 14.341 41.8641 14.341C42.4801 14.341 42.9421 14.1637 43.2501 13.809C43.5674 13.445 43.7261 12.913 43.7261 12.213V7.481H44.8461V12.353C44.8461 13.2957 44.6127 14.0237 44.1461 14.537C43.6794 15.041 43.0354 15.293 42.2141 15.293ZM50.4839 9.875C50.4839 8.80167 49.9286 8.265 48.8179 8.265C48.3699 8.265 48.0012 8.363 47.7119 8.559C47.4319 8.755 47.1939 9.01633 46.9979 9.343L46.3119 8.741C46.5266 8.33033 46.8392 7.98967 47.2499 7.719C47.6699 7.44833 48.2159 7.313 48.8879 7.313C49.7652 7.313 50.4372 7.52767 50.9039 7.957C51.3706 8.38633 51.6039 8.993 51.6039 9.777V15.125H50.4839V9.875ZM54.6055 10.757L53.4155 10.253C53.4435 9.82367 53.5462 9.43167 53.7235 9.077C53.9102 8.713 54.1528 8.40033 54.4515 8.139C54.7502 7.87767 55.0955 7.677 55.4875 7.537C55.8888 7.38767 56.3228 7.313 56.7895 7.313C57.8815 7.313 58.7168 7.58833 59.2955 8.139C59.8742 8.68033 60.1635 9.41767 60.1635 10.351V15.125H59.0435V10.491C59.0435 9.763 58.8382 9.21233 58.4275 8.839C58.0262 8.46567 57.4942 8.279 56.8315 8.279C56.5422 8.279 56.2668 8.31633 56.0055 8.391C55.7535 8.45633 55.5248 8.55433 55.3195 8.685C55.1142 8.80633 54.9368 8.96033 54.7875 9.147C54.6382 9.32433 54.5308 9.525 54.4655 9.749L55.1655 10.029C55.3615 10.1037 55.5015 10.2017 55.5855 10.323C55.6788 10.435 55.7255 10.5937 55.7255 10.799V15.125H54.6055V10.757Z" fill="white"/>
</svg>
