<svg width="23" height="24" viewBox="0 0 23 24" fill="none" xmlns="http://www.w3.org/2000/svg">
<g clip-path="url(#clip0_1793_119)">
<path d="M10.8053 0.78125C12.4886 0.78125 13.9814 1.64844 15.36 2.51562C16.7386 3.38281 18.0944 4.36719 18.9551 5.83594C19.7701 7.21875 20.2423 8.875 20.4479 10.6016C20.6917 10.9844 21.2477 10.1641 21.3772 10.6016C21.8037 12.0234 21.7199 12.1641 21.2934 13.5781C21.1639 14.0078 20.6079 13.1641 20.3718 13.5469C20.1737 15.2812 19.633 16.8984 18.818 18.2891C17.9497 19.7656 16.891 21.1172 15.52 21.9766C14.149 22.8359 12.4886 23.2188 10.7977 23.2188C8.93921 23.2188 7.17215 22.6953 5.69452 21.6641C4.2169 20.6328 2.96777 19.2266 2.14517 17.5156C1.38351 15.9297 1.25403 14.0547 1.25403 12.1172C1.25403 10.1797 1.58916 8.40625 2.35082 6.82031C3.1658 5.11719 4.16358 3.46094 5.61074 2.45313C7.0579 1.44531 8.94682 0.78125 10.8053 0.78125Z" fill="#FBF8F4" stroke="#9A948C" stroke-width="2" stroke-miterlimit="10"/>
<path d="M12.2524 10.3517C12.2524 10.9376 12.7323 11.4142 13.3112 11.4142C13.89 11.4142 14.3318 10.9376 14.3318 10.3517C14.3318 9.76575 13.89 9.26575 13.3112 9.26575C12.7323 9.26575 12.2524 9.75793 12.2524 10.3517Z" fill="#9A948C"/>
<path d="M12.2524 10.3517C12.2524 10.9376 12.7323 11.4142 13.3112 11.4142C13.89 11.4142 14.3318 10.9376 14.3318 10.3517C14.3318 9.76575 13.89 9.26575 13.3112 9.26575C12.7323 9.26575 12.2524 9.75793 12.2524 10.3517Z" stroke="#9A948C" stroke-width="0.5" stroke-miterlimit="10"/>
<path d="M8.11658 10.3517C8.11658 10.9376 8.57358 11.4064 9.14482 11.4064C9.71607 11.4064 10.1731 10.9376 10.1731 10.3517C10.1731 9.76575 9.72369 9.27356 9.14482 9.27356C8.56596 9.27356 8.11658 9.76575 8.11658 10.3517Z" fill="#9A948C"/>
<path d="M8.11658 10.3517C8.11658 10.9376 8.57358 11.4064 9.14482 11.4064C9.71607 11.4064 10.1731 10.9376 10.1731 10.3517C10.1731 9.76575 9.72369 9.27356 9.14482 9.27356C8.56596 9.27356 8.11658 9.76575 8.11658 10.3517Z" stroke="#9A948C" stroke-width="0.5" stroke-miterlimit="10"/>
<path d="M8.19055 14.4684H14.7658" stroke="#9A948C" stroke-width="2" stroke-miterlimit="10" stroke-linecap="round"/>
<path d="M6.18079 6.99287C6.40806 6.94624 6.62358 6.79502 6.8405 6.71229C7.07061 6.62454 7.30381 6.53596 7.54044 6.46885C8.28575 6.25749 9.00334 6.24621 9.76495 6.1759" stroke="#9A948C" stroke-width="2" stroke-miterlimit="10" stroke-linecap="round"/>
<path d="M5.89122 22.4781C5.47265 21.1076 5.20811 19.5533 5.42459 18.1251C5.48756 17.7097 5.65064 17.0629 6.09637 16.8914C6.39842 16.7752 6.61703 17.1864 6.73597 17.3907C6.84641 17.5803 6.89821 17.8249 7.01353 18.0054C7.1061 18.1504 7.54193 17.9945 7.64509 17.9766C9.05473 17.731 10.8827 17.7476 12.078 18.678C12.6405 19.1158 12.6311 19.9044 12.4521 20.543C12.2086 21.4121 11.5609 21.9716 10.7747 22.3172C9.93247 22.6874 9.00046 22.8291 8.0916 22.8701C7.6078 22.8919 7.05141 22.92 6.57909 22.7752C6.2641 22.6786 6.15919 22.3475 6.03603 22.0696" stroke="#9A948C" stroke-width="2" stroke-miterlimit="10" stroke-linecap="round"/>
</g>
<defs>
<clipPath id="clip0_1793_119">
<rect width="21.913" height="24" fill="white" transform="translate(0.5)"/>
</clipPath>
</defs>
</svg>
