<svg width="10" height="13" viewBox="0 0 10 13" fill="none" xmlns="http://www.w3.org/2000/svg">
<path d="M0.862976 8.43193C0.862976 5.83697 0.409123 0.699715 0.548415 0.687832C0.687707 0.675948 2.0806 0.664062 2.0806 0.664062C2.89945 0.602496 3.63358 0.592961 4.45297 0.548418C5.08282 0.514178 5.7249 0.474306 6.35531 0.521863L6.36301 0.522442C6.56372 0.537539 6.70157 0.547908 6.75975 0.827245C6.90217 1.51105 6.90688 2.3326 6.91703 3.03463C6.94076 4.675 6.75975 5.96854 6.75975 8.10135C6.68 8.71233 6.79363 8.9586 6.75975 9.57791C6.75023 9.75203 6.79269 10.2279 6.75975 10.3982C6.70976 10.6567 5.52475 10.6659 5.41912 10.6659C4.24199 10.6659 3.08116 10.7707 1.90902 10.9148C1.62019 10.9503 0.938597 11.2164 0.862976 10.5796C0.783111 9.90704 0.862976 9.11088 0.862976 8.43193Z" fill="#FBF8F4" stroke="#090909" stroke-linecap="round"/>
<path d="M2.78217 9.93193C2.78217 7.33697 2.32831 2.19972 2.4676 2.18783C2.6069 2.17595 3.99979 2.16406 3.99979 2.16406C4.81864 2.1025 5.55277 2.09296 6.37216 2.04842C7.00201 2.01418 7.64409 1.97431 8.2745 2.02186L8.2822 2.02244C8.48291 2.03754 8.62076 2.04791 8.67894 2.32725C8.82136 3.01105 8.82607 3.8326 8.83622 4.53463C8.85995 6.175 8.67894 7.46854 8.67894 9.60135C8.59919 10.2123 8.71282 10.4586 8.67894 11.0779C8.66942 11.252 8.71188 11.7279 8.67894 11.8982C8.62895 12.1567 7.44394 12.1659 7.33831 12.1659C6.16118 12.1659 5.00035 12.2707 3.82821 12.4148C3.53938 12.4503 2.85779 12.7164 2.78217 12.0796C2.7023 11.407 2.78217 10.6109 2.78217 9.93193Z" fill="#FBF8F4" stroke="#090909" stroke-linecap="round"/>
</svg>
