<svg width="24" height="24" viewBox="0 0 24 24" fill="none" xmlns="http://www.w3.org/2000/svg">
<path d="M5.04285 4.90186C5.06834 5.13132 5.32104 5.30992 5.46317 5.47132C6.2289 6.34088 7.07345 7.1021 7.91053 7.89835C8.60455 8.55852 9.31582 9.20481 10.0054 9.86437C11.1353 10.9452 12.2969 11.9796 13.3951 13.0778C14.4638 14.1466 15.6373 15.0513 16.6627 16.1557C17.0587 16.5821 17.5241 16.9321 17.9305 17.3624C18.1782 17.6246 18.8273 18.3251 19.1982 18.3251" stroke="#090909" stroke-width="2" stroke-linecap="round"/>
<path d="M4.43274 19.4233C7.56015 16.2958 10.6629 13.1069 14.0188 10.2304C14.8977 9.47708 15.7934 8.74798 16.6357 7.95251C16.9917 7.61622 17.367 7.01721 17.8559 6.85425" stroke="#090909" stroke-width="2" stroke-linecap="round"/>
</svg>
