<svg width="29" height="31" viewBox="0 0 29 31" fill="none" xmlns="http://www.w3.org/2000/svg">
<g clip-path="url(#clip0_2365_141)">
<path d="M13.53 1C15.74 1 17.7 2.11 19.51 3.22C21.32 4.33 23.1 5.59 24.23 7.47C25.3 9.24 25.92 11.36 26.19 13.57C26.51 14.06 27.24 13.01 27.41 13.57C27.97 15.39 27.86 15.57 27.3 17.38C27.13 17.93 26.4 16.85 26.09 17.34C25.83 19.56 25.12 21.63 24.05 23.41C22.91 25.3 21.52 27.03 19.72 28.13C17.92 29.23 15.74 29.72 13.52 29.72C11.08 29.72 8.75999 29.05 6.81999 27.73C4.87999 26.41 3.23999 24.61 2.15999 22.42C1.15999 20.39 0.98999 17.99 0.98999 15.51C0.98999 13.03 1.42999 10.76 2.42999 8.73C3.49999 6.55 4.80999 4.43 6.70999 3.14C8.60999 1.85 11.09 1 13.53 1Z" fill="#FBF8F4" stroke="#DFDAD1" stroke-width="2" stroke-miterlimit="10"/>
<path d="M7.96997 13.25C7.96997 14 8.59997 14.61 9.35997 14.61C10.12 14.61 10.7 14 10.7 13.25C10.7 12.5 10.12 11.86 9.35997 11.86C8.59997 11.86 7.96997 12.49 7.96997 13.25Z" fill="#DFDAD1"/>
<path d="M7.96997 13.25C7.96997 14 8.59997 14.61 9.35997 14.61C10.12 14.61 10.7 14 10.7 13.25C10.7 12.5 10.12 11.86 9.35997 11.86C8.59997 11.86 7.96997 12.49 7.96997 13.25Z" stroke="#DFDAD1" stroke-width="0.5" stroke-miterlimit="10"/>
<path d="M2.54004 13.25C2.54004 14 3.14004 14.6 3.89004 14.6C4.64004 14.6 5.24004 14 5.24004 13.25C5.24004 12.5 4.65004 11.87 3.89004 11.87C3.13004 11.87 2.54004 12.5 2.54004 13.25Z" fill="#DFDAD1"/>
<path d="M2.54004 13.25C2.54004 14 3.14004 14.6 3.89004 14.6C4.64004 14.6 5.24004 14 5.24004 13.25C5.24004 12.5 4.65004 11.87 3.89004 11.87C3.13004 11.87 2.54004 12.5 2.54004 13.25Z" stroke="#DFDAD1" stroke-width="0.5" stroke-miterlimit="10"/>
<path d="M4.99712 22.0037C4.96889 21.4432 5.91461 21.0786 7.28839 21.0095C8.66216 20.9403 9.96256 21.1917 9.99079 21.7522C10.019 22.3126 8.76963 22.9374 7.38899 23.0069C6.00834 23.0765 5.02534 22.5641 4.99712 22.0037Z" fill="#DFDAD1" stroke="#DFDAD1" stroke-width="2" stroke-miterlimit="10"/>
</g>
<defs>
<clipPath id="clip0_2365_141">
<rect width="28.77" height="30.72" fill="white"/>
</clipPath>
</defs>
</svg>
