<svg width="16" height="17" viewBox="0 0 16 17" fill="none" xmlns="http://www.w3.org/2000/svg">
<g clip-path="url(#clip0_1980_475)">
<path d="M10.4796 9.75174C12.1709 9.91209 12.0256 12.8956 10.7 14.1055C8.05491 16.5205 3.74024 15.3718 3.17286 12.2318C2.8783 10.6011 3.55046 9.59917 3.58209 9.08896C3.67204 7.66428 4.96792 7.01413 5.1409 7.97429C5.1409 7.97429 6.0068 5.66136 6.82624 7.34552C6.82624 7.34552 9.31635 3.19096 9.84123 2.19971C10.3661 1.20845 12.0663 1.45627 11.4999 3.5C10.4796 6 9.84123 7.78888 9.84123 7.78888L10.4796 9.7498V9.75174Z" fill="white" stroke="#9A948C" stroke-miterlimit="10"/>
<path d="M10.8722 8.31152C10.8722 8.31152 10.8722 5.17255 8.52656 2.6293C7.32755 1.32998 5.93776 2.54184 6.76906 4.17741C7.96906 6.54184 8.40201 7.69733 8.40201 7.69733" fill="white"/>
<path d="M10.8722 8.31152C10.8722 8.31152 10.8722 5.17255 8.52656 2.6293C7.32755 1.32998 5.93776 2.54184 6.76906 4.17741C7.96906 6.54184 8.40201 7.69733 8.40201 7.69733" stroke="#9A948C" stroke-miterlimit="10"/>
<path d="M5.14199 7.97522C5.14199 7.97522 5.18944 10.0792 4.96901 11.1336C4.74858 12.188 3.01679 11.9694 3.58318 9.08989" stroke="#9A948C" stroke-miterlimit="10"/>
<path d="M6.82632 7.34644C6.82632 7.34644 7.55383 9.8994 7.11891 11.0695C6.68398 12.2395 5.27937 11.0617 5.11133 9.84401" stroke="#9A948C" stroke-miterlimit="10"/>
<path d="M10.9999 13.623C10.9999 13.623 12.2106 12.3912 12.4999 9.99999C12.6624 8.65738 12.2954 7.29009 9.30655 8.39093C6.31774 9.49177 7.16202 10.9076 10.3832 10.3302C10.3832 10.3302 7.01719 10.7961 7.43584 13.623" fill="white"/>
<path d="M10.9999 13.623C10.9999 13.623 12.2106 12.3912 12.4999 9.99999C12.6624 8.65738 12.2954 7.29009 9.30655 8.39093C6.31774 9.49177 7.16202 10.9076 10.3832 10.3302C10.3832 10.3302 7.01719 10.7961 7.43584 13.623" stroke="#9A948C" stroke-miterlimit="10"/>
</g>
<defs>
<clipPath id="clip0_1980_475">
<rect width="16" height="16" fill="white" transform="translate(0 0.5)"/>
</clipPath>
</defs>
</svg>
