<svg width="25" height="24" viewBox="0 0 25 24" fill="none" xmlns="http://www.w3.org/2000/svg">
<path d="M3.56714 5.289C4.82915 5.289 6.33688 5.08354 7.53147 5.86614C8.12381 6.2542 8.80543 6.54351 9.34566 7.06933C9.67722 7.39205 10.0202 7.72483 10.3685 8.01819C10.621 8.23088 10.8136 8.51298 11.0591 8.72738C11.3219 8.95702 11.593 9.45514 11.7272 9.82297C12.1331 10.935 12.7195 11.886 13.2801 12.8701C14.3381 14.727 15.4791 16.7805 17.3266 17.3307C17.7428 17.4546 18.1768 17.5944 18.6032 17.6143C18.8636 17.6265 19.3131 17.6314 19.5589 17.7464C19.8305 17.8735 21.0456 17.5485 21.1715 17.8785" stroke="#090909" stroke-width="2" stroke-linecap="round"/>
<path d="M3.5 19.111C4.53702 19.0815 5.52331 18.9174 6.52364 18.5632C6.90542 18.428 7.31353 18.1973 7.66591 17.9665C8.36493 17.5085 8.81854 16.709 9.42783 16.1177C9.78431 15.7717 9.99639 15.1919 10.3013 14.7776C10.693 14.2453 10.9814 13.4752 11.2943 12.8603C11.9135 11.6433 12.3724 10.3003 13.0749 9.16757C13.4125 8.62311 13.9481 8.25026 14.3515 7.80298C14.6836 7.43475 15.1152 7.40504 15.49 7.18182C15.7659 7.01752 16.1078 6.9668 16.4009 6.82967C16.7174 6.68156 17.0784 6.48648 17.4088 6.43838C18.1138 6.33574 19.249 5.95413 19.921 6.34546C20.2401 6.5313 20.8485 6.34546 21.2387 6.34546" stroke="#090909" stroke-width="2" stroke-linecap="round"/>
<path d="M18.8198 3C19.083 3.13264 19.2875 3.51678 19.5141 3.73365C19.6696 3.88236 19.8493 3.99519 20.0143 4.12493C20.3278 4.37138 20.5498 4.65036 20.802 4.98086C20.9419 5.16413 21.5 5.66263 21.5 5.94439C21.5 6.07544 21.202 6.47904 21.138 6.60956C20.9305 7.03229 20.6168 7.43927 20.3652 7.82254C19.991 8.39266 19.3471 8.74937 19.0886 9.42679" stroke="#090909" stroke-width="2" stroke-linecap="round"/>
<path d="M18.5248 14.5009C19.3251 15.2642 20.374 16.1571 20.9799 17.2435C21.0648 17.3957 21.4716 17.7895 21.2694 17.9802C21.0637 18.1742 20.859 18.3173 20.6486 18.509C20.2158 18.9035 19.7982 19.3461 19.3543 19.7162C19.2032 19.8422 19.0516 20.015 18.8755 20.0809C18.5223 20.2131 18.2846 20.8108 17.9236 21" stroke="#090909" stroke-width="2" stroke-linecap="round"/>
</svg>
