<svg width="102" height="102" viewBox="0 0 102 102" fill="none" xmlns="http://www.w3.org/2000/svg">
<path d="M75.8892 7.88342L75.9357 16.2323L83.8565 13.5927L82.2733 21.7902L90.5568 20.7466L87.4049 28.4778L95.7328 29.0703L91.1331 36.0379L99.1855 38.2437L93.3148 44.1802L100.782 47.9145L93.8661 52.5916L100.461 57.711L92.7659 60.949L98.2357 67.2567L90.0563 68.9311L94.1904 76.1847L85.8416 76.2312L88.4811 84.152L80.2836 82.5688L81.3272 90.8524L73.5961 87.7004L73.0036 96.0283L66.0359 91.4286L63.8301 99.481L57.8937 93.6104L54.1593 101.078L49.4822 94.1617L44.3628 100.757L41.1249 93.0614L34.8172 98.5312L33.1428 90.3518L25.8892 94.486L25.8426 86.1371L17.9219 88.7767L19.505 80.5792L11.2215 81.6228L14.3735 73.8916L6.04552 73.2991L10.6452 66.3314L2.59287 64.1256L8.4635 58.1892L0.996213 54.4548L7.91218 49.7778L1.31692 44.6584L9.01245 41.4204L3.54265 35.1127L11.722 33.4383L7.58789 26.1847L15.9368 26.1382L13.2972 18.2174L21.4947 19.8005L20.4511 11.517L28.1822 14.669L28.7747 6.34106L35.7424 10.9407L37.9482 2.8884L43.8847 8.75903L47.619 1.29175L52.2961 8.20772L57.4155 1.61245L60.6534 9.30798L66.9611 3.83819L68.6356 12.0175L75.8892 7.88342Z" fill="#090909" stroke="#080808" stroke-linejoin="round"/>
</svg>
