<svg width="270" height="42" viewBox="0 0 270 42" fill="none" xmlns="http://www.w3.org/2000/svg">
<path d="M66.1154 30.04V26.5632L67.2531 26.3046C67.5117 26.2768 67.5674 26.1893 67.5674 25.9068V14.7842C67.5674 14.5575 67.5117 14.4699 67.2531 14.3864L66.1154 14.104V10.647H74.7836V14.1278L73.6419 14.4142C73.3873 14.4978 73.3276 14.5853 73.3276 14.8121V25.9227C73.3276 26.1773 73.3873 26.237 73.614 26.3205L74.7836 26.6348V30.0559L66.1154 30.04Z" fill="black"/>
<path d="M50.3345 30.04L45.5012 14.7404C45.4843 14.6742 45.448 14.6146 45.3969 14.5693C45.3459 14.5239 45.2824 14.4948 45.2147 14.4858L43.7071 14.2312V10.7027H53.4612V14.2312L52.3235 14.5733C52.2135 14.5878 52.1125 14.6418 52.0393 14.7252C51.9661 14.8087 51.9257 14.9159 51.9257 15.0268C51.9452 15.3455 52.0026 15.6606 52.0968 15.9657L54.1733 24.1565H54.3125L56.3811 15.9776C56.4722 15.6718 56.5296 15.357 56.5522 15.0388C56.5456 14.9253 56.4993 14.8177 56.4216 14.7349C56.3438 14.652 56.2394 14.5991 56.1265 14.5853L55.0167 14.2432V10.7146H64.5162V14.2153L62.9529 14.5256C62.8822 14.5398 62.8174 14.5746 62.7664 14.6256C62.7155 14.6765 62.6807 14.7414 62.6664 14.812L57.9763 30.0519L50.3345 30.04Z" fill="black"/>
<path d="M76.7209 28.6438C76.7397 26.8796 76.8646 25.1181 77.0948 23.3689H81.7611L82.2185 25.5926C82.8163 25.7934 83.4418 25.8994 84.0723 25.9069C85.1543 25.9069 85.8664 25.4215 85.8664 24.6498C85.8664 23.6831 84.6412 23.3132 83.1852 22.8835C80.2773 22.0004 76.8004 20.8587 76.8004 16.3516C76.8004 11.8445 79.7641 10.3646 84.2434 10.3646C87.0956 10.3646 88.9494 11.1045 90.9424 12.0473C90.971 13.7158 90.8673 15.3838 90.6321 17.0358H85.9619L85.7351 15.0707C85.2831 14.8805 84.7974 14.7831 84.307 14.7842C83.2528 14.7842 82.5686 15.0388 82.5686 15.8663C82.5686 16.8369 83.8814 17.4097 85.3055 17.8911C88.0902 18.8021 91.6386 20.0591 91.6386 24.1963C91.6386 28.3335 89.0131 30.3543 84.0524 30.3543C81.5115 30.3385 79.0064 29.754 76.7209 28.6438Z" fill="black"/>
<path d="M12.0816 10.7027V14.2233L13.4779 14.6211C14.0587 14.7762 14.0507 15.0746 13.7484 15.9776L11.0433 24.1764H10.8484L8.75991 15.9776C8.52521 15.1024 8.52918 14.7365 9.03042 14.6211L10.5142 14.2233V10.7027H0.676514V14.2233L2.26773 14.5336C2.42288 14.5734 2.45868 14.649 2.49846 14.8041L7.27212 30.04H14.1343L16.5211 21.9447L18.9079 30.0281H25.7899L30.5636 14.7922C30.5819 14.7256 30.6171 14.6649 30.666 14.6161C30.7148 14.5672 30.7755 14.532 30.8421 14.5137L32.3816 14.2114V10.6908H22.5518V14.2114L24.0356 14.6092C24.5408 14.7245 24.5408 15.0905 24.3061 15.9657L22.2177 24.1644H22.0267L19.3057 15.9776C19.0074 15.0746 18.9954 14.7842 19.5762 14.6211L20.9725 14.2233V10.7027H12.0816Z" fill="black"/>
<path d="M36.8807 21.3043H39.4545V20.5723C39.4545 19.7767 39.001 19.355 38.1816 19.355C37.3621 19.355 36.8807 19.7807 36.8807 20.5723V21.3043ZM31.395 24.6419V20.9105C31.395 17.4893 34.0524 15.2258 38.0702 15.2258C42.088 15.2258 44.7414 17.4893 44.7414 20.9105V24.0929H36.8807V24.8567C36.8807 25.6762 37.8434 26.2132 38.8698 26.2132C39.8961 26.2132 40.9065 25.7597 41.0736 25.0556H44.7215V27.8402C43.2536 29.5667 41.0179 30.3305 38.6987 30.3305C34.3388 30.3265 31.395 28.063 31.395 24.6419Z" fill="black"/>
<path d="M70.5748 8.92057C72.2665 8.92057 73.6379 7.54917 73.6379 5.85747C73.6379 4.16577 72.2665 2.79437 70.5748 2.79437C68.8831 2.79437 67.5117 4.16577 67.5117 5.85747C67.5117 7.54917 68.8831 8.92057 70.5748 8.92057Z" fill="black"/>
<path d="M110.029 30.1946V26.1089H108.372L108.201 27.3089C108.115 27.9089 107.829 28.1946 106.829 28.1946H101.801C100.972 28.1946 100.772 27.9089 100.772 26.8232V21.366H107.458V19.5089H100.772V14.1374C100.772 13.0517 100.972 12.766 101.801 12.766H106.515C107.515 12.766 107.801 13.0517 107.886 13.6803L108.058 14.8517H109.715V10.766H96.6579V12.1946L97.1436 12.3089C97.8865 12.4803 98.3436 12.6803 98.3436 13.6517V27.3089C98.3436 28.3089 97.9436 28.4803 97.3151 28.6232L96.6579 28.766V30.1946H110.029ZM126.141 30.1946V26.1089H124.484L124.313 27.3089C124.227 27.8803 123.998 28.1946 123.227 28.1946H118.684C117.741 28.1946 117.513 27.966 117.513 27.1089V13.6517C117.513 12.7374 117.741 12.4231 118.541 12.3374L119.484 12.1946V10.766H113.113V12.1946L114.055 12.3374C114.855 12.4231 115.084 12.7374 115.084 13.6517V27.3089C115.084 28.166 115.027 28.4803 114.198 28.6232L113.398 28.766V30.1946H126.141ZM141.642 30.1946V26.1089H139.985L139.814 27.3089C139.728 27.9089 139.442 28.1946 138.442 28.1946H133.414C132.585 28.1946 132.385 27.9089 132.385 26.8232V21.366H139.071V19.5089H132.385V14.1374C132.385 13.0517 132.585 12.766 133.414 12.766H138.128C139.128 12.766 139.414 13.0517 139.499 13.6803L139.671 14.8517H141.328V10.766H128.271V12.1946L128.756 12.3089C129.499 12.4803 129.956 12.6803 129.956 13.6517V27.3089C129.956 28.3089 129.556 28.4803 128.928 28.6232L128.271 28.766V30.1946H141.642ZM152.44 30.5089C155.011 30.5089 157.354 29.6232 158.668 28.9946V26.9374H156.811C155.84 27.7089 154.525 28.366 152.44 28.366C150.097 28.366 147.325 27.566 147.325 23.2517V17.8231C147.325 13.8231 149.668 12.5946 152.44 12.5946C154.125 12.5946 155.411 12.966 156.354 13.6517L156.525 16.2803H158.44C158.497 15.366 158.64 14.0803 158.668 12.3089C157.44 11.4803 155.297 10.4517 152.44 10.4517C148.44 10.4517 144.897 12.5946 144.897 18.0231V23.3089C144.897 28.9374 148.697 30.5089 152.44 30.5089ZM170.983 30.1946V28.766L170.04 28.6232C169.411 28.5374 169.011 28.3089 169.011 27.3089V15.2517C169.011 14.2231 169.04 13.5089 169.068 12.766H172.04C172.583 12.766 172.84 12.9946 172.926 13.6803L173.068 14.7089H174.754V10.766H160.84V14.7089H162.526L162.668 13.6803C162.754 12.9946 163.011 12.766 163.554 12.766H166.526C166.554 13.5089 166.583 14.2231 166.583 15.2517V27.3089C166.583 28.3089 166.183 28.5374 165.554 28.6232L164.611 28.766V30.1946H170.983ZM183.986 30.1946V28.766L183.043 28.6232C182.414 28.5374 182.014 28.3089 182.014 27.3089V13.6517C182.014 12.6517 182.414 12.4231 183.043 12.3374L183.986 12.1946V10.766H177.614V12.1946L178.557 12.3374C179.186 12.4231 179.586 12.6517 179.586 13.6517V27.3089C179.586 28.3089 179.186 28.5374 178.557 28.6232L177.614 28.766V30.1946H183.986ZM195.216 30.5089C199.045 30.5089 202.845 28.7089 202.845 23.0803V17.9089C202.845 12.4803 199.274 10.4517 195.216 10.4517C191.216 10.4517 187.674 12.4803 187.674 17.9089V23.0803C187.674 28.7089 191.445 30.5089 195.216 30.5089ZM195.216 28.366C192.188 28.366 190.102 26.8803 190.102 23.0803V17.766C190.102 14.2803 192.188 12.5946 195.216 12.5946C198.245 12.5946 200.416 14.2231 200.416 17.766V23.0803C200.416 26.9374 198.245 28.366 195.216 28.366ZM217.349 12.1946L218.291 12.3374C219.206 12.4803 219.32 12.6517 219.32 13.6517V25.7089L210.377 10.766H205.977V12.1946L206.891 12.366C207.606 12.5089 207.634 12.6803 207.634 13.6517V27.3089C207.634 28.3089 207.52 28.4803 206.606 28.6232L205.663 28.766V30.1946H211.891V28.766L210.949 28.6232C210.034 28.4803 209.92 28.3089 209.92 27.3089V14.4231L219.349 30.1946H221.606V13.6517C221.606 12.6517 221.72 12.4803 222.634 12.3374L223.577 12.1946V10.766H217.349V12.1946ZM228.544 17.6803L229.373 15.3374C229.858 13.9374 229.973 13.2803 229.973 11.766V10.766H226.973V13.2517L227.544 13.3374C227.744 13.366 227.916 13.566 227.916 13.8517C227.916 14.2231 227.858 14.5946 227.744 14.966L226.973 17.6803H228.544Z" fill="#090909"/>
<rect x="250.655" y="7.68553" width="18.3758" height="20.8131" transform="rotate(15 250.655 7.68553)" fill="#00EAA4" stroke="#090909" stroke-width="1.5"/>
<path d="M257.218 27.4741C260.383 27.4741 262.515 25.8807 262.515 23.017V22.4356C262.515 19.2488 260.685 18.1938 257.649 18.1938C256.4 18.1938 255.41 18.5814 254.979 18.8182V18.2584C254.979 16.0836 256.056 15.3515 257.434 15.3515C258.08 15.3515 258.812 15.5023 259.264 16.1267H261.654C261.762 15.3946 261.805 14.6625 261.848 13.9304C260.943 13.4567 259.479 12.8753 257.434 12.8753C253.988 12.8753 251.964 14.7702 251.964 18.4091V22.2633C251.964 25.5793 253.902 27.4741 257.218 27.4741ZM257.218 24.9979C255.776 24.9979 254.979 24.1582 254.979 22.2418V21.3159C255.431 21.1221 256.249 20.67 257.649 20.67C258.51 20.67 259.501 20.7346 259.501 22.5648V22.8878C259.501 24.718 258.08 24.9979 257.218 24.9979Z" fill="#090909"/>
<rect x="237.066" y="7.68553" width="18.3758" height="20.8131" transform="rotate(15 237.066 7.68553)" fill="#00EAA4" stroke="#090909" stroke-width="1.5"/>
<path d="M243.14 27.4741C246.305 27.4741 248.436 25.8807 248.436 23.017V22.4356C248.436 19.2488 246.606 18.1938 243.57 18.1938C242.321 18.1938 241.331 18.5814 240.9 18.8182V18.2584C240.9 16.0836 241.977 15.3515 243.355 15.3515C244.001 15.3515 244.733 15.5023 245.185 16.1267H247.575C247.683 15.3946 247.726 14.6625 247.769 13.9304C246.865 13.4567 245.4 12.8753 243.355 12.8753C239.91 12.8753 237.886 14.7702 237.886 18.4091V22.2633C237.886 25.5793 239.824 27.4741 243.14 27.4741ZM243.14 24.9979C241.697 24.9979 240.9 24.1582 240.9 22.2418V21.3159C241.352 21.1221 242.171 20.67 243.57 20.67C244.431 20.67 245.422 20.7346 245.422 22.5648V22.8878C245.422 24.718 244.001 24.9979 243.14 24.9979Z" fill="#090909"/>
</svg>
