<svg width="8" height="8" viewBox="0 0 8 8" fill="none" xmlns="http://www.w3.org/2000/svg">
<path fill-rule="evenodd" clip-rule="evenodd" d="M6.23613 6C5.68681 6.61375 4.88853 7 4.00003 7C3.11153 7 2.31324 6.61375 1.76392 6H0.535156C1.22678 7.1956 2.51946 8 4.00003 8C5.48059 8 6.77328 7.1956 7.4649 6H6.23613ZM1.76392 2C2.31324 1.38625 3.11153 1 4.00003 1C4.88853 1 5.68681 1.38625 6.23613 2H7.4649C6.77328 0.804397 5.48059 0 4.00003 0C2.51946 0 1.22678 0.804397 0.535156 2H1.76392Z" fill="#231F20"/>
<path d="M0 3H8V5H0V3Z" fill="#231F20"/>
</svg>
