<svg width="8" height="8" viewBox="0 0 8 8" fill="none" xmlns="http://www.w3.org/2000/svg">
<path fill-rule="evenodd" clip-rule="evenodd" d="M0.484566 1.25015C0.805973 0.848393 1.31413 0.5 2 0.5C2.52335 0.5 2.86359 0.672186 3.11342 0.818686C3.12739 0.826877 3.14073 0.834708 3.15348 0.842195C3.38252 0.976632 3.42234 1 3.5 1H5.5C6.72783 1 8 1.89192 8 3.5V7.5H7V3.5C7 2.5361 6.27217 2 5.5 2H3.5C3.12911 2 2.84099 1.82369 2.66791 1.71777C2.64592 1.70431 2.62579 1.69199 2.60758 1.68131C2.43108 1.57781 2.27131 1.5 2 1.5C1.68587 1.5 1.44403 1.65161 1.26543 1.87485C1.07417 2.11393 1 2.38162 1 2.5V5.5C1 5.73704 1.08757 5.83693 1.16715 5.89423C1.27223 5.96989 1.41334 6 1.5 6V7C1.25332 7 0.894434 6.93011 0.582848 6.70577C0.245766 6.46307 0 6.06296 0 5.5V2.5C0 2.11838 0.175828 1.63607 0.484566 1.25015Z" fill="#231F20"/>
<path fill-rule="evenodd" clip-rule="evenodd" d="M0.5 3H1.5C2.32843 3 3 3.67157 3 4.5V7.5H2V4.5C2 4.22386 1.77614 4 1.5 4H0.5V3Z" fill="#231F20"/>
<path fill-rule="evenodd" clip-rule="evenodd" d="M3.5 4.5H6.5V7.5H5.5V5.5H4.5V7.5H3.5V4.5Z" fill="#231F20"/>
</svg>
