<svg width="21" height="21" viewBox="0 0 21 21" fill="none" xmlns="http://www.w3.org/2000/svg">
<g clip-path="url(#clip0_1760_2944)">
<path d="M7.00011 5.14091C6.64535 5.14091 5.00011 5.14091 4.6557 5.14091C4.1128 5.14091 1.88801 5.06275 1.88801 5.06275C1.88801 5.59385 1.88801 7.20168 1.88801 7.20168V13.2912C1.88801 13.2912 1.80066 16.8395 1.80066 17.145C1.80066 17.546 1.65531 17.8898 2.14087 17.8898C3.40302 17.8898 4.65777 17.9725 5.92001 17.9725C6.81913 17.9725 7.71207 17.8898 8.60955 17.8898C10.4277 17.8898 12.2085 18.0553 14.0346 18.0553C15.0498 18.0553 16.0288 17.9725 17.0459 17.9725C17.4137 17.9725 18.6323 18 19.0001 18L18.9309 13.421C18.9309 12.959 18.7829 12.2194 18.9723 11.8027C19.1742 11.3585 19.0137 10.5261 19.0137 10.028C19.0137 9.42118 19.0137 8.81431 19.0137 8.20744C19.0137 7.18744 18.9309 6.16108 18.9309 5.1639C18.9309 4.64017 18.0633 4.92927 17.6942 4.9754C17.3703 5.01588 17.023 4.98 16.6965 4.98C15.9979 4.98 15.2619 5.06275 14.5449 5.06275" stroke="#090909" stroke-width="2" stroke-linecap="round"/>
<path d="M10.3006 2.67642C10.6894 4.76809 10.4026 8.73319 10.3433 10.8192C10.3403 10.924 10.3159 13.4713 10.4237 13.4938C10.5686 13.5242 11.172 12.8415 11.2102 12.8064C11.9064 12.1676 12.938 11.8292 13.6124 11.1675C14.2769 10.5155 14.8971 9.83681 15.5341 9.16154C15.5878 9.1047 15.7465 8.83841 15.5893 9.01717C14.8296 9.88121 14.0081 10.7718 13.1958 11.5841C12.8042 11.9757 12.0998 12.6779 11.6526 13.2487C11.3313 13.8 10.6247 14.446 10.3006 14.9944C10.1577 15.2362 9.94624 14.6667 9.86452 14.5584C9.02192 13.441 8.22839 12.3624 7.48913 11.1761C6.90365 10.2366 6.4158 9.31363 5.62921 8.52704" stroke="#090909" stroke-width="2" stroke-linecap="round"/>
</g>
<defs>
<clipPath id="clip0_1760_2944">
<rect width="20" height="20" fill="white" transform="translate(0.5 0.5)"/>
</clipPath>
</defs>
</svg>
