<svg width="76" height="75" viewBox="0 0 76 75" fill="none" xmlns="http://www.w3.org/2000/svg">
<g clip-path="url(#clip0_453_12291)">
<rect x="0.75" width="75" height="75" rx="37.5" fill="#090909"/>
<g clip-path="url(#clip1_453_12291)">
<g clip-path="url(#clip2_453_12291)">
<path d="M46.9404 46.9232C45.1583 46.0486 45.305 45.3197 45.5985 43.3831C48.3871 41.6755 51.2175 36.9901 51.6997 32.7629C51.9094 32.2215 52.2239 33.1794 52.3916 32.6171C53.0416 30.5347 53.3561 30.6805 52.79 28.5773C52.6222 27.9317 51.6368 29.2228 51.4481 28.5773C50.5675 20.685 45.4518 16.0412 38.7426 16.0412C32.0334 16.0412 27.8401 20.2685 26.9595 28.1608C26.7079 28.9313 25.8693 27.661 25.5967 28.4315C24.8629 30.4931 25.8902 30.5347 26.4563 32.6379C26.6031 33.2002 27.1063 32.1382 27.316 32.6796C27.7772 36.9069 29.9787 41.5298 33.0817 43.4248C33.5639 45.2573 33.501 45.7154 31.7818 46.5275C23.2904 50.4633 17.2731 43.6538 14.0233 52.3999C6.64322 72.3077 -2.30938 81.137 13.8556 95.0058C32.5785 111.061 44.8018 110.936 63.5247 94.8809C79.6897 81.0121 67.6131 73.2031 63.4828 52.3999C61.7845 43.8829 54.7189 50.7965 46.9404 46.9648V46.9232Z" fill="#9A948C"/>
<path d="M46.9404 46.9232C45.1583 46.0486 45.305 45.3197 45.5985 43.3831C48.3871 41.6755 51.2175 36.9901 51.6997 32.7629C51.9094 32.2215 52.2239 33.1794 52.3916 32.6171C53.0416 30.5347 53.3561 30.6805 52.79 28.5773C52.6222 27.9317 51.6368 29.2228 51.4481 28.5773C50.5675 20.685 45.4518 16.0412 38.7426 16.0412C32.0334 16.0412 27.8401 20.2685 26.9595 28.1608C26.7079 28.9313 25.8693 27.661 25.5967 28.4315C24.8629 30.4931 25.8903 30.5347 26.4563 32.6379C26.6031 33.2002 27.1063 32.1382 27.316 32.6796C27.7772 36.9069 29.9787 41.5298 33.0817 43.4248C33.5639 45.2573 33.501 45.7154 31.7818 46.5275C23.2904 50.4633 17.2731 43.6538 14.0233 52.3999C6.64322 72.3077 -2.30938 81.137 13.8556 95.0058C32.5785 111.061 44.8018 110.936 63.5247 94.8809C79.6897 81.0121 67.6131 73.2031 63.4828 52.3999C61.7845 43.8829 54.7189 50.7965 46.9404 46.9648V46.9232Z" stroke="#090909" stroke-width="1.5" stroke-miterlimit="10"/>
<path d="M35.25 30C36.0784 30 36.75 29.3285 36.75 28.5C36.75 27.6716 36.0784 27 35.25 27C34.4216 27 33.75 27.6716 33.75 28.5C33.75 29.3285 34.4216 30 35.25 30Z" fill="#090909"/>
<path d="M42.75 30.2762C43.5784 30.2762 44.25 29.6046 44.25 28.7762C44.25 27.9477 43.5784 27.2762 42.75 27.2762C41.9216 27.2762 41.25 27.9477 41.25 28.7762C41.25 29.6046 41.9216 30.2762 42.75 30.2762Z" fill="#090909"/>
<path d="M43.8557 34.5C39.9141 36.7073 36.7901 35.6245 33.75 34.8124" stroke="#090909" stroke-width="1.5" stroke-miterlimit="10"/>
</g>
<path d="M54.0695 27.8652C53.9 27.2997 53.0805 28.5014 52.699 28.0349C52.4871 26.3101 52.3176 24.4581 51.6253 22.9595C50.9047 21.3902 49.9298 19.9482 48.7712 18.7747C47.6127 17.6013 46.2139 16.4138 44.688 15.7352C43.1621 15.0566 41.4102 15 39.6723 15C37.9345 15 36.3521 15.4665 34.8403 16.131C33.3285 16.7955 31.8732 17.6437 30.6723 18.8737C29.4713 20.1037 28.5106 21.4326 27.7759 22.9877C27.0412 24.5429 26.8434 26.296 26.6315 28.0207C26.25 28.4873 25.2186 27.229 25.049 27.7945C24.4839 29.7314 24.7947 29.901 25.3599 31.8379C25.5294 32.4034 26.1511 31.3148 26.5326 31.7813C26.7445 33.5061 27.126 35.2168 27.8183 36.7154C28.5388 38.2846 29.6268 39.557 30.7853 40.7446C31.9439 41.9321 33.1448 43.3035 34.6707 43.968C36.1966 44.6324 37.9345 45 39.6723 45C41.4102 45 43.0067 44.2931 44.5326 43.6287C46.0585 42.9642 47.4573 42.0452 48.6582 40.8153C49.8592 39.5853 50.7069 38.2281 51.4416 36.6588C52.1763 35.0895 52.8545 33.7041 53.0664 31.9651C53.4479 31.4986 53.6174 32.2196 53.9989 31.7531C55.2846 30.1838 54.6488 29.7738 54.0837 27.8369L54.0695 27.8652Z" fill="white" stroke="#090909" stroke-width="1.5" stroke-miterlimit="10" stroke-linejoin="round"/>
<path d="M37.3806 27.6394C37.3806 28.5105 36.6601 29.2105 35.8016 29.2105C34.9431 29.2105 34.2227 28.5105 34.2227 27.6394C34.2227 26.7682 34.9431 26.0526 35.8016 26.0526C36.6601 26.0526 37.3806 26.7682 37.3806 27.6394Z" fill="#090909"/>
<path d="M45.277 27.6549C45.277 28.5261 44.5565 29.2105 43.6981 29.2105C42.8396 29.2105 42.1191 28.5261 42.1191 27.6549C42.1191 26.7838 42.8396 26.0526 43.6981 26.0526C44.5565 26.0526 45.277 26.7838 45.277 27.6549Z" fill="#090909"/>
</g>
</g>
<rect x="1.5" y="0.75" width="73.5" height="73.5" rx="36.75" stroke="white" stroke-width="1.5"/>
<defs>
<clipPath id="clip0_453_12291">
<rect x="0.75" width="75" height="75" rx="37.5" fill="white"/>
</clipPath>
<clipPath id="clip1_453_12291">
<rect width="75" height="75" fill="white" transform="translate(0.75)"/>
</clipPath>
<clipPath id="clip2_453_12291">
<rect width="69" height="93" fill="white" transform="translate(3.75 15)"/>
</clipPath>
</defs>
</svg>
