<svg width="70" height="71" viewBox="0 0 70 71" fill="none" xmlns="http://www.w3.org/2000/svg">
<path d="M30.76 38.5698C32.23 37.0998 32.26 37.1297 33.74 35.6497C35.47 33.9197 35.5 31.0797 33.77 29.3497C32.04 27.6197 29.16 27.6197 27.43 29.3497C25.96 30.8197 24.16 30.2798 24.58 32.3198C25.22 35.4098 26.74 34.5898 28.97 36.8198C31.2 39.0498 31.22 39.0397 33.46 41.2697C35.7 43.4997 34.8 45.3798 37.95 45.6698C40.56 45.9098 39.8 43.8797 41.65 42.0297C43.62 40.0597 43.66 36.7998 41.69 34.8298C39.72 32.8598 36.42 32.8697 34.45 34.8397C32.6 36.6897 32.65 36.7497 30.8 38.5997" stroke="#090909" stroke-width="2" stroke-miterlimit="10"/>
<path d="M24.73 27.1997C27.02 29.4897 27.06 29.4497 29.35 31.7397C31.64 34.0297 31.67 33.9997 33.97 36.2897C36.27 38.5797 36.26 38.5897 38.56 40.8797C40.86 43.1697 40.88 43.1497 43.17 45.4397" stroke="#090909" stroke-width="2" stroke-miterlimit="10"/>
<path d="M52.26 32.5097C50.79 32.5097 49.48 31.9197 48.55 30.9297C47.89 31.2397 47.15 31.3997 46.37 31.3997C43.56 31.3997 41.46 29.1497 41.46 26.3397C41.46 25.3997 41.66 24.4697 42.11 23.7097C41.02 22.7797 40.34 21.4397 40.34 19.8897C40.34 18.7797 40.71 17.6497 41.31 16.8097C39.57 16.2897 37.61 16.1797 35.7 16.1797C33.11 16.1797 30.62 16.5997 28.37 17.5297C26.12 18.4597 23.99 19.9897 22.22 21.7497C20.45 23.5097 19.06 25.5997 18.09 27.9297C17.12 30.2597 16.75 32.6297 16.75 35.2297C16.75 37.8297 17.01 40.3297 17.94 42.5897C18.87 44.8497 20.33 47.0797 22.1 48.8397C23.87 50.5997 25.99 52.0897 28.32 53.0597C30.65 54.0297 33.11 54.2097 35.7 54.2097C38.29 54.2097 40.79 53.8897 43.04 52.9497C45.29 52.0097 47.4 50.4497 49.16 48.6897C50.92 46.9297 52.53 44.9397 53.5 42.5997C54.47 40.2597 54.66 37.8197 54.66 35.2297C54.66 34.1197 54.62 33.1597 54.44 32.0997C53.76 32.4397 53.09 32.5097 52.27 32.5097H52.26Z" stroke="#090909" stroke-width="2" stroke-linejoin="round"/>
</svg>
