<svg width="156" height="156" viewBox="0 0 156 156" fill="none" xmlns="http://www.w3.org/2000/svg">
<path d="M108.73 69.7701C106.41 69.7701 104.27 68.7401 102.8 67.1701C101.75 67.6701 100.63 67.5801 99.4 67.5801C97.17 67.5801 95.09 66.9901 93.63 65.5301C92.17 64.0701 91.24 61.9901 91.24 59.7601C91.24 58.2601 91.72 56.8701 92.43 55.6701C90.71 54.1901 89.5 51.9901 89.5 49.5401C89.5 47.0901 90.5 44.9101 92.25 43.4301C89.94 42.4401 87.78 41.5601 85.26 41.0501C82.74 40.5401 80.27 40.3501 77.68 40.3501C75.09 40.3501 72.68 40.5401 70.29 41.0101C67.9 41.4801 65.33 41.9501 63.07 42.8901C60.81 43.8301 58.58 45.1401 56.53 46.5101C54.48 47.8801 52.51 49.5001 50.77 51.2501C49.03 53.0001 47.33 54.9001 45.95 56.9601C44.58 59.0101 43.81 61.4301 42.86 63.7401C41.91 66.0501 41.01 68.3101 40.52 70.7701C40.05 73.1601 39.99 75.6401 39.99 78.1601C39.99 80.6801 40.24 83.1301 40.71 85.5201C41.2 87.9801 42.11 90.2501 43.04 92.5101C43.97 94.7701 44.7 97.2301 46.07 99.2801C47.44 101.33 49.02 103.32 50.77 105.07C52.52 106.82 54.42 108.5 56.48 109.88C58.54 111.26 61 111.89 63.31 112.85C65.62 113.81 67.82 114.88 70.27 115.37C72.72 115.86 75.15 115.82 77.67 115.82C80.19 115.82 82.72 116 85.1 115.53C87.56 115.04 89.76 113.76 92.02 112.82C94.28 111.88 96.47 110.74 98.51 109.37C100.55 108 102.84 106.84 104.58 105.09C106.32 103.34 107.77 101.27 109.15 99.2101C110.53 97.1501 111.54 94.9001 112.5 92.6001C113.46 90.3001 114.19 87.9901 114.68 85.5301C115.17 83.0701 115.27 80.6901 115.27 78.1701C115.27 74.5101 114.81 71.1301 113.84 67.7801C112.43 69.0001 110.72 69.7601 108.71 69.7601L108.73 69.7701Z" fill="#F6FF94"/>
<path d="M108.73 69.7701C106.41 69.7701 104.27 68.7401 102.8 67.1701C101.75 67.6701 100.63 67.5801 99.4 67.5801C97.17 67.5801 95.09 66.9901 93.63 65.5301C92.17 64.0701 91.24 61.9901 91.24 59.7601C91.24 58.2601 91.72 56.8701 92.43 55.6701C90.71 54.1901 89.5 51.9901 89.5 49.5401C89.5 47.0901 90.5 44.9101 92.25 43.4301C89.94 42.4401 87.78 41.5601 85.26 41.0501C82.74 40.5401 80.27 40.3501 77.68 40.3501C75.09 40.3501 72.68 40.5401 70.29 41.0101C67.9 41.4801 65.33 41.9501 63.07 42.8901C60.81 43.8301 58.58 45.1401 56.53 46.5101C54.48 47.8801 52.51 49.5001 50.77 51.2501C49.03 53.0001 47.33 54.9001 45.95 56.9601C44.58 59.0101 43.81 61.4301 42.86 63.7401C41.91 66.0501 41.01 68.3101 40.52 70.7701C40.05 73.1601 39.99 75.6401 39.99 78.1601C39.99 80.6801 40.24 83.1301 40.71 85.5201C41.2 87.9801 42.11 90.2501 43.04 92.5101C43.97 94.7701 44.7 97.2301 46.07 99.2801C47.44 101.33 49.02 103.32 50.77 105.07C52.52 106.82 54.42 108.5 56.48 109.88C58.54 111.26 61 111.89 63.31 112.85C65.62 113.81 67.82 114.88 70.27 115.37C72.72 115.86 75.15 115.82 77.67 115.82C80.19 115.82 82.72 116 85.1 115.53C87.56 115.04 89.76 113.76 92.02 112.82C94.28 111.88 96.47 110.74 98.51 109.37C100.55 108 102.84 106.84 104.58 105.09C106.32 103.34 107.77 101.27 109.15 99.2101C110.53 97.1501 111.54 94.9001 112.5 92.6001C113.46 90.3001 114.19 87.9901 114.68 85.5301C115.17 83.0701 115.27 80.6901 115.27 78.1701C115.27 74.5101 114.81 71.1301 113.84 67.7801C112.43 69.0001 110.72 69.7601 108.71 69.7601L108.73 69.7701Z" stroke="#090909" stroke-width="2" stroke-linejoin="round"/>
<path d="M69.1801 85.9998C72.6901 82.4798 72.8201 82.6098 76.3301 79.0898C78.3901 77.0198 79.4801 74.1798 79.4801 71.4698C79.4801 68.7598 78.1601 66.1498 76.0901 64.0898C74.0201 62.0298 71.4001 60.7498 68.7001 60.7598C66.0001 60.7698 63.4401 62.1098 61.3801 64.1698C57.8701 67.6898 54.9801 66.1398 54.3101 71.0698C53.8001 74.7998 56.8901 73.7098 59.5601 76.3698C62.2301 79.0298 62.1101 79.1498 64.7801 81.8098C66.5601 83.5832 68.3401 85.3565 70.1201 87.1298C72.7901 89.7898 72.9601 89.6198 75.6301 92.2898C78.3001 94.9598 78.2801 94.9798 80.9501 97.6398C83.6201 100.3 82.4701 102.86 86.2201 103.21C89.3301 103.5 88.4901 100.86 90.7001 98.6398C92.9101 96.4298 92.7801 96.2998 94.9901 94.0898C96.5401 92.5398 97.4601 90.6998 97.9901 88.7198C98.5301 86.6798 98.7701 84.5698 98.2201 82.5298C97.6701 80.4898 96.7101 78.5898 95.1601 77.0398C93.6101 75.4898 91.6501 74.4998 89.6701 73.9698C87.6901 73.4398 85.4201 73.3298 83.3801 73.8798C81.3401 74.4298 79.4701 75.4998 77.9201 77.0498C75.7101 79.2598 75.8601 79.3998 73.6501 81.6198C71.4401 83.8298 71.2801 83.6698 69.0801 85.8898" stroke="#090909" stroke-width="2" stroke-miterlimit="10"/>
<path d="M54.8501 58.6201C57.2801 61.0501 57.1001 61.2301 59.5301 63.6601C61.9601 66.0901 62.0501 66.0001 64.4901 68.4301C66.9301 70.8601 66.8301 70.9501 69.2601 73.3801C71.6901 75.8101 71.7401 75.7601 74.1701 78.1901C76.6001 80.6201 76.5601 80.6601 79.0001 83.0801C81.4401 85.5001 81.5601 85.3801 83.9901 87.8101C86.4201 90.2401 86.3001 90.3701 88.7301 92.8001C90.3568 94.4201 91.9801 96.0401 93.6001 97.6601C96.0401 100.09 96.2601 99.8701 98.7001 102.3" stroke="#090909" stroke-width="2" stroke-miterlimit="10"/>
</svg>
