<svg width="70" height="70" viewBox="0 0 70 70" fill="none" xmlns="http://www.w3.org/2000/svg">
<g clip-path="url(#clip0_2297_41690)">
<path d="M49.29 24.9902C49.29 23.4502 48.84 22.0702 48.39 20.6802C47.94 19.2902 47.73 17.6702 46.86 16.4702C45.99 15.2702 44.74 14.3102 43.53 13.4402C42.32 12.5702 41.01 11.8002 39.57 11.3302C38.13 10.8602 36.67 10.9302 35.13 10.9302C33.59 10.9302 32.07 10.8402 30.68 11.2902C29.29 11.7402 27.89 12.5002 26.69 13.3702C25.49 14.2402 24.42 15.3602 23.54 16.5702C22.66 17.7802 21.95 19.1202 21.48 20.5502C21.01 21.9802 20.99 23.4502 20.99 24.9802C20.99 26.1702 21.01 27.6102 21.56 28.9502C22.07 30.2102 22.75 31.4802 23.39 32.5502C24.53 34.4802 24.3 34.4402 25.71 35.8602C27.54 37.3802 28.61 38.8302 29.18 40.2002C30.47 43.3202 26.88 44.3502 29.39 45.6602C31.9 46.9702 32.26 45.5402 35.14 45.5402C38.02 45.5402 38.27 46.8502 40.86 45.5902C43.45 44.3302 39.98 43.1702 41.12 40.1702C41.66 38.7402 42.97 37.4702 44.66 35.9902L44.33 35.6102C45.36 34.7202 46.62 33.9902 47.36 32.8502C48.1 31.7102 48.35 30.3002 48.74 28.9802C49.13 27.6602 49.3 26.3802 49.3 24.9802L49.29 24.9902Z" stroke="#090909" stroke-width="2" stroke-linejoin="round"/>
<path d="M40.42 50.3102C41.74 50.3102 42.88 49.3702 42.88 48.0502C42.88 46.7302 41.74 45.7602 40.42 45.7602C37.78 45.7602 37.78 45.7402 35.13 45.7402C32.48 45.7402 32.49 45.5202 29.84 45.5202C28.52 45.5202 27.41 46.7302 27.41 48.0502C27.41 49.3702 28.52 50.5202 29.84 50.5202C28.52 50.5202 27.4 51.5002 27.4 52.8102C27.4 54.1202 28.52 55.2302 29.84 55.2302C32.48 55.2302 32.48 55.1202 35.13 55.1202C37.78 55.1202 37.77 55.0602 40.42 55.0602C41.74 55.0602 42.96 54.1302 42.96 52.8202C42.96 51.5102 41.74 50.3102 40.42 50.3102Z" stroke="#090909" stroke-width="2" stroke-linejoin="round"/>
<path d="M39.14 55.2102C39.14 57.4502 37.38 59.2602 35.14 59.2602C32.9 59.2602 31.16 57.4402 31.16 55.2102" stroke="#090909" stroke-width="2" stroke-linejoin="round"/>
<path d="M34.5 45.6702C34.5 43.2402 34.39 43.2402 34.39 40.8102C34.39 38.3802 35.06 38.3402 34.34 36.0202C33.73 34.0302 32.47 34.3702 31.96 32.7302C31.61 31.6002 32.06 30.4502 34.24 29.8002C35.21 29.5102 36.55 29.2802 38.35 29.2302C42.22 29.1302 41.39 28.5802 39.26 27.7202C37.94 27.1902 36.22 26.2802 34.67 25.6802C32.15 24.7102 30.26 23.8602 32.6 23.2902C33.53 23.0602 35.14 22.8802 37.6 22.8002" stroke="#090909" stroke-width="2" stroke-linejoin="round"/>
</g>
<defs>
<clipPath id="clip0_2297_41690">
<rect width="30.29" height="50.34" fill="white" transform="translate(20 9.92017)"/>
</clipPath>
</defs>
</svg>
