<svg width="156" height="156" viewBox="0 0 156 156" fill="none" xmlns="http://www.w3.org/2000/svg">
<g clip-path="url(#clip0_2297_41702)">
<path d="M120.14 78.69C120.14 81.15 120.89 83.7 120.48 86.04C120.07 88.38 118.64 90.65 117.82 92.9C117 95.15 115.78 97.27 114.57 99.35C113.36 101.43 112.69 103.99 111.13 105.84C109.57 107.69 107.19 108.79 105.34 110.35C103.49 111.91 101.35 112.95 99.25 114.16C97.15 115.37 95.52 117.57 93.23 118.4C90.94 119.23 88.33 118.79 85.92 119.22C83.51 119.65 81.23 120.98 78.77 120.98C76.31 120.98 73.77 120.77 71.42 120.36C69.07 119.95 66.61 119.1 64.36 118.28C62.11 117.46 59.66 116.59 57.58 115.38C55.5 114.17 53.96 112 52.12 110.45C50.28 108.9 48.7 107.08 47.14 105.23C45.58 103.38 44.14 101.48 42.93 99.39C41.72 97.3 40.85 95.09 40.02 92.8C39.19 90.51 39.08 88.18 38.66 85.77C38.24 83.36 37.92 81.16 37.92 78.7C37.92 76.24 37.31 73.8 37.72 71.46C38.13 69.12 38.85 66.72 39.67 64.47C40.49 62.22 41.21 59.79 42.42 57.71C43.63 55.63 45.51 53.93 47.06 52.09C48.61 50.25 49.86 48 51.71 46.44C53.56 44.88 56.3 44.62 58.4 43.41C60.5 42.2 62.19 40.25 64.48 39.42C66.77 38.59 69.16 38.28 71.57 37.85C73.98 37.42 76.31 37.94 78.77 37.94C81.23 37.94 83.68 37.17 86.02 37.58C88.36 37.99 90.47 39.57 92.71 40.38C94.95 41.19 97.39 41.62 99.47 42.82C101.55 44.02 103.27 45.73 105.12 47.28C106.97 48.83 108.6 50.5 110.15 52.35C111.7 54.2 113.99 55.55 115.2 57.65C116.41 59.75 116.59 62.33 117.43 64.61C118.27 66.89 118.96 69.11 119.38 71.52C119.8 73.93 120.12 76.22 120.12 78.68L120.14 78.69Z" fill="#F6FF94"/>
<path d="M120.14 78.69C120.14 81.15 120.89 83.7 120.48 86.04C120.07 88.38 118.64 90.65 117.82 92.9C117 95.15 115.78 97.27 114.57 99.35C113.36 101.43 112.69 103.99 111.13 105.84C109.57 107.69 107.19 108.79 105.34 110.35C103.49 111.91 101.35 112.95 99.25 114.16C97.15 115.37 95.52 117.57 93.23 118.4C90.94 119.23 88.33 118.79 85.92 119.22C83.51 119.65 81.23 120.98 78.77 120.98C76.31 120.98 73.77 120.77 71.42 120.36C69.07 119.95 66.61 119.1 64.36 118.28C62.11 117.46 59.66 116.59 57.58 115.38C55.5 114.17 53.96 112 52.12 110.45C50.28 108.9 48.7 107.08 47.14 105.23C45.58 103.38 44.14 101.48 42.93 99.39C41.72 97.3 40.85 95.09 40.02 92.8C39.19 90.51 39.08 88.18 38.66 85.77C38.24 83.36 37.92 81.16 37.92 78.7C37.92 76.24 37.31 73.8 37.72 71.46C38.13 69.12 38.85 66.72 39.67 64.47C40.49 62.22 41.21 59.79 42.42 57.71C43.63 55.63 45.51 53.93 47.06 52.09C48.61 50.25 49.86 48 51.71 46.44C53.56 44.88 56.3 44.62 58.4 43.41C60.5 42.2 62.19 40.25 64.48 39.42C66.77 38.59 69.16 38.28 71.57 37.85C73.98 37.42 76.31 37.94 78.77 37.94C81.23 37.94 83.68 37.17 86.02 37.58C88.36 37.99 90.47 39.57 92.71 40.38C94.95 41.19 97.39 41.62 99.47 42.82C101.55 44.02 103.27 45.73 105.12 47.28C106.97 48.83 108.6 50.5 110.15 52.35C111.7 54.2 113.99 55.55 115.2 57.65C116.41 59.75 116.59 62.33 117.43 64.61C118.27 66.89 118.96 69.11 119.38 71.52C119.8 73.93 120.12 76.22 120.12 78.68L120.14 78.69Z" stroke="#090909" stroke-width="2" stroke-linejoin="round"/>
<path d="M71.27 77.43C75.5 77.43 75.5 77.27 79.73 77.26C82.21 77.26 84.56 76.53 86.19 74.9C87.82 73.27 88.54 70.92 88.53 68.43C88.52 65.94 87.67 63.71 86.04 62.09C84.41 60.47 82.17 59.35 79.69 59.35C75.46 59.35 74.42 56.69 71.3 59.54C68.46 62.13 71.17 63.31 71.17 67.16C71.17 71.01 71.27 71.01 71.28 74.86C71.29 78.71 71.11 78.71 71.12 82.56C71.13 86.41 71.2 86.41 71.21 90.26C71.22 94.11 68.21 95.67 71.33 97.92C75.64 101.03 76.62 98.13 81.93 98.12C84.76 98.12 87.37 96.83 89.22 94.97C91.07 93.11 92.35 90.5 92.34 87.67C92.34 84.84 91.09 82.19 89.23 80.34C87.37 78.49 84.72 77.26 81.89 77.27C76.57 77.27 76.57 77.44 71.26 77.45" stroke="#090909" stroke-width="2" stroke-miterlimit="10"/>
<path d="M78.79 52.37C78.79 56.13 79.01 56.13 79.01 59.89C79.01 63.65 79.16 63.65 79.16 67.41C79.16 71.17 78.97 71.17 78.98 74.93C78.99 78.69 78.83 78.69 78.84 82.45C78.85 86.21 79.2 86.21 79.21 89.97C79.22 93.73 79.25 93.73 79.25 97.5C79.25 101.27 79.2 101.26 79.21 105.03" stroke="#090909" stroke-width="2" stroke-miterlimit="10"/>
<path d="M41.08 30C41.43 33.15 40.29 39.58 33 40.12C35.69 39.95 41.08 41.33 41.08 48.22C41.01 45.52 42.32 40.12 48.13 40.12C45.78 40.01 41.08 37.83 41.08 30Z" fill="white" stroke="#090909" stroke-width="2" stroke-linejoin="round"/>
</g>
<defs>
<clipPath id="clip0_2297_41702">
<rect width="89.6" height="92.99" fill="white" transform="translate(32 29)"/>
</clipPath>
</defs>
</svg>
