<svg width="70" height="71" viewBox="0 0 70 71" fill="none" xmlns="http://www.w3.org/2000/svg">
<path d="M27.5198 34.4098C31.4098 34.4098 31.4098 34.3798 35.3098 34.3798C37.5998 34.3798 39.5798 33.2798 41.0698 31.7798C42.5598 30.2798 43.5098 28.2998 43.4998 26.0098C43.4898 23.7198 42.6198 21.6798 41.1098 20.1798C39.5998 18.6798 37.5598 17.8998 35.2698 17.8998C31.3798 17.8998 30.3398 15.1099 27.4598 17.7299C24.8398 20.1199 27.3598 21.2999 27.3698 24.8399C27.3798 28.3799 27.6498 28.3798 27.6498 31.9198C27.6498 35.4598 27.4698 35.4598 27.4798 39.0098C27.4898 42.5598 27.5898 42.5599 27.5998 46.0999C27.6098 49.6399 24.7098 51.0598 27.5898 53.1398C31.5598 56.0098 32.4498 53.1898 37.3398 53.1798C39.9498 53.1798 42.3498 52.1498 44.0498 50.4398C45.7498 48.7298 46.6998 46.3199 46.6898 43.7199C46.6798 41.1199 45.6698 38.7698 43.9598 37.0598C42.2498 35.3498 39.8998 34.3598 37.2898 34.3698C32.3898 34.3698 32.3898 34.1798 27.4998 34.1898" stroke="#090909" stroke-width="2" stroke-miterlimit="10"/>
<path d="M34.8199 11.2197C34.8199 14.6797 34.4599 14.6796 34.4699 18.1396C34.4799 21.5996 34.7699 21.5997 34.7699 25.0597C34.7699 28.5197 34.6899 28.5196 34.6899 31.9896C34.6899 35.4596 34.4799 35.4497 34.4799 38.9097C34.4799 42.3697 34.6299 42.3697 34.6399 45.8397C34.6499 49.3097 34.5499 49.3097 34.5599 52.7697C34.5699 56.2297 34.5999 56.2397 34.6099 59.6997" stroke="#090909" stroke-width="2" stroke-miterlimit="10"/>
</svg>
