<svg width="156" height="156" viewBox="0 0 156 156" fill="none" xmlns="http://www.w3.org/2000/svg">
<path d="M54.9036 66.3156C53.7236 67.8256 55.1436 68.2456 55.4136 70.1356C55.6936 72.0356 55.6336 72.0356 55.9036 73.9356C56.1836 75.8356 56.3736 75.8056 56.6436 77.7056C56.9136 79.6056 56.9136 79.6056 57.1936 81.4956C57.4736 83.3856 57.3536 83.4156 57.6336 85.3156C57.9136 87.2156 56.9636 87.6456 58.3936 88.9256C59.8236 90.2056 60.1936 89.0156 62.1536 89.1156C64.1136 89.2156 64.0836 89.6056 66.0436 89.7056C68.0036 89.8056 67.9936 89.8156 69.9536 89.9156C71.9136 90.0156 71.9136 89.8856 73.8736 89.9756C75.8336 90.0756 75.8336 89.9056 77.7936 90.0056C79.7536 90.1056 79.7436 90.3156 81.6936 90.4156C83.6436 90.5156 83.6636 90.2456 85.6136 90.3456C87.5736 90.4456 87.5736 90.4156 89.5236 90.5056C91.4736 90.5956 91.4836 90.5656 93.4336 90.6656C95.3936 90.7656 95.3936 90.7256 97.3536 90.8256C99.3136 90.9256 99.8936 92.6456 101.414 91.3956C102.934 90.1456 101.714 89.3156 101.974 87.3956C102.234 85.4656 102.004 85.4356 102.264 83.5156C102.524 81.5956 102.554 81.5956 102.814 79.6656C103.074 77.7356 103.204 77.7556 103.454 75.8356C103.714 73.9056 103.604 73.8956 103.864 71.9656C104.124 70.0356 104.074 70.0356 104.334 68.1056C104.594 66.1756 104.464 66.1556 104.724 64.2256C104.984 62.2956 106.764 61.7756 105.394 60.3956C104.024 59.0056 103.464 60.6856 101.524 60.9156C99.5836 61.1456 99.6036 61.2756 97.6636 61.5056C95.7236 61.7356 95.7036 61.6056 93.7636 61.8356C91.8236 62.0656 91.8436 62.2056 89.9036 62.4356C87.9636 62.6656 87.9336 62.4356 85.9936 62.6656C84.0536 62.8956 84.0436 62.8456 82.1036 63.0756C80.1636 63.3056 80.1736 63.3756 78.2336 63.6056C76.2936 63.8356 76.2736 63.6656 74.3336 63.8956C72.3936 64.1256 72.4236 64.4256 70.4836 64.6556C68.5436 64.8856 68.5236 64.7156 66.5836 64.9456C64.6436 65.1756 64.6236 64.9856 62.6736 65.2156C60.7236 65.4456 60.7436 66.2356 58.7936 66.0456C56.6936 65.8456 56.1036 64.7856 54.8936 66.3256L54.9036 66.3156Z" fill="#090909"/>
<path d="M54.9036 66.3156C53.7236 67.8256 55.1436 68.2456 55.4136 70.1356C55.6936 72.0356 55.6336 72.0356 55.9036 73.9356C56.1836 75.8356 56.3736 75.8056 56.6436 77.7056C56.9136 79.6056 56.9136 79.6056 57.1936 81.4956C57.4736 83.3856 57.3536 83.4156 57.6336 85.3156C57.9136 87.2156 56.9636 87.6456 58.3936 88.9256C59.8236 90.2056 60.1936 89.0156 62.1536 89.1156C64.1136 89.2156 64.0836 89.6056 66.0436 89.7056C68.0036 89.8056 67.9936 89.8156 69.9536 89.9156C71.9136 90.0156 71.9136 89.8856 73.8736 89.9756C75.8336 90.0756 75.8336 89.9056 77.7936 90.0056C79.7536 90.1056 79.7436 90.3156 81.6936 90.4156C83.6436 90.5156 83.6636 90.2456 85.6136 90.3456C87.5736 90.4456 87.5736 90.4156 89.5236 90.5056C91.4736 90.5956 91.4836 90.5656 93.4336 90.6656C95.3936 90.7656 95.3936 90.7256 97.3536 90.8256C99.3136 90.9256 99.8936 92.6456 101.414 91.3956C102.934 90.1456 101.714 89.3156 101.974 87.3956C102.234 85.4656 102.004 85.4356 102.264 83.5156C102.524 81.5956 102.554 81.5956 102.814 79.6656C103.074 77.7356 103.204 77.7556 103.454 75.8356C103.714 73.9056 103.604 73.8956 103.864 71.9656C104.124 70.0356 104.074 70.0356 104.334 68.1056C104.594 66.1756 104.464 66.1556 104.724 64.2256C104.984 62.2956 106.764 61.7756 105.394 60.3956C104.024 59.0056 103.464 60.6856 101.524 60.9156C99.5836 61.1456 99.6036 61.2756 97.6636 61.5056C95.7236 61.7356 95.7036 61.6056 93.7636 61.8356C91.8236 62.0656 91.8436 62.2056 89.9036 62.4356C87.9636 62.6656 87.9336 62.4356 85.9936 62.6656C84.0536 62.8956 84.0436 62.8456 82.1036 63.0756C80.1636 63.3056 80.1736 63.3756 78.2336 63.6056C76.2936 63.8356 76.2736 63.6656 74.3336 63.8956C72.3936 64.1256 72.4236 64.4256 70.4836 64.6556C68.5436 64.8856 68.5236 64.7156 66.5836 64.9456C64.6436 65.1756 64.6236 64.9856 62.6736 65.2156C60.7236 65.4456 60.7436 66.2356 58.7936 66.0456C56.6936 65.8456 56.1036 64.7856 54.8936 66.3256L54.9036 66.3156Z" stroke="#090909" stroke-width="2" stroke-linejoin="round"/>
<path d="M74.3835 53.3555C72.3735 53.4955 72.2935 53.0655 70.3535 53.5955C68.4135 54.1255 68.4735 54.3355 66.5335 54.8655C64.5935 55.3955 64.6235 55.5355 62.6835 56.0655C60.7435 56.5955 60.8635 57.0255 58.9135 57.5655C56.9635 58.1055 56.8035 57.4755 54.8535 58.0155C53.5602 58.3755 52.2635 58.7321 50.9635 59.0855C49.0235 59.6255 49.1235 60.0055 47.1835 60.5355C45.2435 61.0755 45.2635 61.1555 43.3235 61.6955C41.3835 62.2355 41.3535 62.1455 39.4135 62.6755C37.4735 63.2055 37.4135 62.9955 35.4635 63.5355C33.5135 64.0755 32.0835 62.7555 31.9935 64.7755C31.9035 66.7955 33.5635 64.7955 35.4735 65.1155C37.3835 65.4355 37.3735 65.4755 39.2835 65.7855C41.1935 66.0955 41.0835 66.7355 42.9935 67.0455C44.9035 67.3555 44.9335 67.1555 46.8435 67.4655C48.7535 67.7755 48.7635 67.7055 50.6735 68.0255C52.5835 68.3355 52.5335 68.6155 54.4435 68.9255C56.3535 69.2355 56.4735 68.5355 58.3735 68.8455C60.2835 69.1555 60.2735 69.1855 62.1835 69.4955C64.0935 69.8055 64.0535 70.0655 65.9635 70.3755C67.8735 70.6855 67.8535 70.8055 69.7635 71.1155C71.6735 71.4255 71.7235 71.1655 73.6335 71.4855C75.5435 71.8055 75.5135 72.7755 77.4535 72.6955C79.3935 72.6155 79.3335 71.6355 81.2735 71.1655C83.2035 70.6855 83.2535 70.8755 85.1935 70.3955C87.1335 69.9155 87.1135 69.8255 89.0435 69.3455C90.9835 68.8655 91.0835 69.2955 93.0235 68.8255C94.9635 68.3455 94.8535 67.9255 96.7935 67.4455C98.7335 66.9655 98.6635 66.7055 100.603 66.2255C102.543 65.7455 102.553 65.7955 104.493 65.3155C106.433 64.8355 106.473 64.9955 108.403 64.5155C110.343 64.0355 110.453 64.5155 112.393 64.0255C113.687 63.7055 114.98 63.3888 116.273 63.0755C118.213 62.5955 118.113 62.2055 120.053 61.7255C121.993 61.2455 121.943 61.0455 123.883 60.5655C125.823 60.0855 127.673 61.8555 127.373 59.8855C127.063 57.8355 125.793 59.3555 123.733 59.0955C121.673 58.8355 121.683 58.7755 119.633 58.5055C117.573 58.2455 117.533 58.5755 115.483 58.3155C113.433 58.0555 113.413 58.1355 111.363 57.8755C109.313 57.6155 109.373 57.0955 107.323 56.8255C105.263 56.5655 105.263 56.5755 103.213 56.3155C101.163 56.0555 101.173 55.9455 99.1135 55.6855C97.0535 55.4255 97.0535 55.4455 94.9935 55.1755C92.9335 54.9155 92.8535 55.5855 90.7935 55.3255C88.7335 55.0655 88.7235 55.1655 86.6635 54.8955C84.6035 54.6255 84.6635 54.2155 82.6035 53.9455C80.5435 53.6755 80.5535 53.6255 78.4935 53.3555C76.4535 53.0855 76.4535 53.1955 74.3835 53.3355V53.3555Z" fill="#090909"/>
<path d="M74.3835 53.3555C72.3735 53.4955 72.2935 53.0655 70.3535 53.5955C68.4135 54.1255 68.4735 54.3355 66.5335 54.8655C64.5935 55.3955 64.6235 55.5355 62.6835 56.0655C60.7435 56.5955 60.8635 57.0255 58.9135 57.5655C56.9635 58.1055 56.8035 57.4755 54.8535 58.0155C53.5602 58.3755 52.2635 58.7321 50.9635 59.0855C49.0235 59.6255 49.1235 60.0055 47.1835 60.5355C45.2435 61.0755 45.2635 61.1555 43.3235 61.6955C41.3835 62.2355 41.3535 62.1455 39.4135 62.6755C37.4735 63.2055 37.4135 62.9955 35.4635 63.5355C33.5135 64.0755 32.0835 62.7555 31.9935 64.7755C31.9035 66.7955 33.5635 64.7955 35.4735 65.1155C37.3835 65.4355 37.3735 65.4755 39.2835 65.7855C41.1935 66.0955 41.0835 66.7355 42.9935 67.0455C44.9035 67.3555 44.9335 67.1555 46.8435 67.4655C48.7535 67.7755 48.7635 67.7055 50.6735 68.0255C52.5835 68.3355 52.5335 68.6155 54.4435 68.9255C56.3535 69.2355 56.4735 68.5355 58.3735 68.8455C60.2835 69.1555 60.2735 69.1855 62.1835 69.4955C64.0935 69.8055 64.0535 70.0655 65.9635 70.3755C67.8735 70.6855 67.8535 70.8055 69.7635 71.1155C71.6735 71.4255 71.7235 71.1655 73.6335 71.4855C75.5435 71.8055 75.5135 72.7755 77.4535 72.6955C79.3935 72.6155 79.3335 71.6355 81.2735 71.1655C83.2035 70.6855 83.2535 70.8755 85.1935 70.3955C87.1335 69.9155 87.1135 69.8255 89.0435 69.3455C90.9835 68.8655 91.0835 69.2955 93.0235 68.8255C94.9635 68.3455 94.8535 67.9255 96.7935 67.4455C98.7335 66.9655 98.6635 66.7055 100.603 66.2255C102.543 65.7455 102.553 65.7955 104.493 65.3155C106.433 64.8355 106.473 64.9955 108.403 64.5155C110.343 64.0355 110.453 64.5155 112.393 64.0255C113.687 63.7055 114.98 63.3888 116.273 63.0755C118.213 62.5955 118.113 62.2055 120.053 61.7255C121.993 61.2455 121.943 61.0455 123.883 60.5655C125.823 60.0855 127.673 61.8555 127.373 59.8855C127.063 57.8355 125.793 59.3555 123.733 59.0955C121.673 58.8355 121.683 58.7755 119.633 58.5055C117.573 58.2455 117.533 58.5755 115.483 58.3155C113.433 58.0555 113.413 58.1355 111.363 57.8755C109.313 57.6155 109.373 57.0955 107.323 56.8255C105.263 56.5655 105.263 56.5755 103.213 56.3155C101.163 56.0555 101.173 55.9455 99.1135 55.6855C97.0535 55.4255 97.0535 55.4455 94.9935 55.1755C92.9335 54.9155 92.8535 55.5855 90.7935 55.3255C88.7335 55.0655 88.7235 55.1655 86.6635 54.8955C84.6035 54.6255 84.6635 54.2155 82.6035 53.9455C80.5435 53.6755 80.5535 53.6255 78.4935 53.3555C76.4535 53.0855 76.4535 53.1955 74.3835 53.3355V53.3555Z" stroke="#090909" stroke-width="2" stroke-linejoin="round"/>
<path d="M39.8035 64.6758C39.7635 66.5858 39.8935 66.5858 39.8535 68.4958C39.8135 70.4058 39.6735 70.3958 39.6335 72.3058C39.5935 74.2158 39.7635 74.2158 39.7235 76.1258C39.6835 78.0358 39.7635 78.0358 39.7235 79.9458C39.6835 81.8558 39.5935 81.8558 39.5435 83.7658C39.4935 85.6758 39.6235 85.6758 39.5835 87.5858C39.5435 89.4958 39.4835 89.4958 39.4435 91.4058C39.4035 93.3158 39.1435 93.3058 39.1035 95.2158C39.0635 97.1258 39.3135 97.1358 39.2635 99.0458C39.2135 100.956 39.2935 100.956 39.2535 102.876" stroke="#090909" stroke-width="2" stroke-linejoin="round"/>
<path d="M39.1036 94.1255C36.9636 94.2155 38.0736 96.0155 37.0836 97.9055C36.0936 99.8055 34.0236 99.8855 35.1736 101.696C36.3236 103.506 37.2736 101.626 39.4136 101.536C41.5536 101.446 42.7136 103.266 43.7036 101.366C44.6936 99.4655 42.0936 99.7755 41.4136 97.7455C40.6636 95.4955 41.2436 94.0355 39.1036 94.1255Z" fill="#00EAA4"/>
<path d="M39.1036 94.1255C36.9636 94.2155 38.0736 96.0155 37.0836 97.9055C36.0936 99.8055 34.0236 99.8855 35.1736 101.696C36.3236 103.506 37.2736 101.626 39.4136 101.536C41.5536 101.446 42.7136 103.266 43.7036 101.366C44.6936 99.4655 42.0936 99.7755 41.4136 97.7455C40.6636 95.4955 41.2436 94.0355 39.1036 94.1255Z" stroke="#090909" stroke-width="2" stroke-linejoin="round"/>
</svg>
