<svg width="20" height="20" viewBox="0 0 20 20" fill="none" xmlns="http://www.w3.org/2000/svg">
<path d="M17.999 7.77944C17.2448 5.86466 16.0281 7.43855 13.9869 7.1779C11.9457 6.91725 11.9557 6.66666 9.89438 6.77693C8.20509 6.86716 8.25537 7.16788 6.62641 7.619C4.99745 8.07013 2.9361 6.87717 3.31821 8.52128C3.73047 10.2957 5.64098 7.83957 6.99845 9.07265C8.16487 10.1353 6.2242 11.1979 7.41072 12.2405C8.59725 13.2831 9.06984 12.2907 10.7189 12.3709C12.368 12.4511 12.8707 13.7343 14.0472 12.5814C15.455 11.198 12.9009 9.74434 14.55 8.65161C16.3197 7.48871 18.6727 9.46364 17.999 7.77944Z" stroke="#090909" stroke-linejoin="round"/>
<path d="M4.61452 8.49115C4.54452 11.3984 4.53451 11.3984 4.46451 14.3057" stroke="#090909" stroke-linejoin="round"/>
<path d="M4.49472 12.9724C3.84113 13.0025 3.53948 13.5839 3.89141 14.1353C4.24335 14.6867 4.72601 14.5263 5.19861 14.0751C5.72148 13.5739 5.14832 12.9423 4.49472 12.9724Z" stroke="#090909" stroke-linejoin="round"/>
<path d="M19.1231 12.9156C19.4201 12.018 19.4999 11.0579 19.5 9.99676L19.1231 12.9156ZM19.1231 12.9156C18.8202 13.831 18.3339 14.7276 17.7457 15.5352M19.1231 12.9156L17.7457 15.5352M17.7457 15.5352C17.6483 15.6688 17.5534 15.8015 17.4598 15.9325M17.7457 15.5352L17.4598 15.9325M17.4598 15.9325C16.935 16.6664 16.4505 17.3441 15.7944 17.8212M17.4598 15.9325L15.7944 17.8212M15.7944 17.8212C15.4245 18.0902 14.9971 18.2788 14.5195 18.4415M15.7944 17.8212L14.5195 18.4415M14.5195 18.4415C14.2303 18.54 13.9592 18.6184 13.6762 18.7002M14.5195 18.4415L13.6762 18.7002M13.6762 18.7002C13.4624 18.762 13.2419 18.8258 13.0017 18.9017M13.6762 18.7002L13.0017 18.9017M13.0017 18.9017C11.9769 19.2254 11.0929 19.5 10.0955 19.5M13.0017 18.9017L10.0955 19.5M10.0955 19.5C9.09754 19.5 8.16991 19.2242 7.19493 18.9035M10.0955 19.5L7.19493 18.9035M7.19493 18.9035C7.05519 18.8575 6.91629 18.8129 6.77865 18.7687M7.19493 18.9035L6.77865 18.7687M6.77865 18.7687C5.9121 18.4903 5.09562 18.2279 4.436 17.7504M6.77865 18.7687L4.436 17.7504M4.436 17.7504C3.65954 17.1882 3.02458 16.4019 2.40453 15.5544M4.436 17.7504L2.40453 15.5544M2.40453 15.5544C1.81576 14.7496 1.38586 13.8756 1.0684 12.9069M2.40453 15.5544L1.0684 12.9069M1.0684 12.9069C0.741127 11.9083 0.5 10.9867 0.5 9.98493M1.0684 12.9069L0.5 9.98493M0.5 9.98493C0.5 8.9671 0.698573 7.97828 1.00762 7.0443M0.5 9.98493L1.00762 7.0443M1.00762 7.0443C1.32058 6.0985 1.74314 5.13918 2.31466 4.35454M1.00762 7.0443L2.31466 4.35454M2.31466 4.35454C2.90396 3.54548 3.62166 2.78499 4.42367 2.21116M2.31466 4.35454L4.42367 2.21116M4.42367 2.21116C5.21878 1.64228 6.14944 1.25033 7.1433 0.926586M4.42367 2.21116L7.1433 0.926586M7.1433 0.926586C8.09719 0.615855 9.04825 0.500035 10.0955 0.500035M7.1433 0.926586L10.0955 0.500035M10.0955 0.500035L10.1509 0.500032M10.0955 0.500035L10.1509 0.500032M10.1509 0.500032C11.2379 0.49995 12.2274 0.499876 13.0967 0.785777M10.1509 0.500032L13.0967 0.785777M13.0967 0.785777C14.0233 1.09056 15.0027 1.58836 15.8053 2.16945M13.0967 0.785777L15.8053 2.16945M15.8053 2.16945C16.6146 2.75538 17.3896 3.49162 17.9776 4.29525M15.8053 2.16945L17.9776 4.29525M17.9776 4.29525C18.5466 5.07302 18.8783 6.03089 19.2017 7.0487M17.9776 4.29525L19.2017 7.0487M19.2017 7.0487C19.4953 7.97261 19.5 8.90428 19.5 9.99497L19.2017 7.0487Z" stroke="#090909" stroke-linejoin="round"/>
</svg>
