<svg width="70" height="71" viewBox="0 0 70 71" fill="none" xmlns="http://www.w3.org/2000/svg">
<path d="M35.44 53.6298C35.44 51.8698 35.28 51.8699 35.28 50.1099C35.28 48.3499 35.45 48.3498 35.45 46.5898C35.45 44.8298 35.32 44.8298 35.32 43.0598C35.32 41.2898 35.32 41.2998 35.32 39.5298" stroke="#090909" stroke-width="2" stroke-miterlimit="10"/>
<path d="M46.88 29.9197C46.88 30.9497 46.01 31.8096 45.75 32.7696C45.49 33.7296 45.37 34.6797 44.87 35.5497C44.37 36.4197 44.06 37.4396 43.35 38.1496C42.64 38.8596 42.25 40.2396 41.38 40.7496C40.51 41.2596 38.41 38.2296 37.43 38.4896C36.45 38.7496 36.17 44.4096 35.13 44.4096C34.09 44.4096 33.55 39.6396 32.59 39.3896C31.63 39.1396 28.91 42.6797 28.05 42.1797C27.19 41.6797 26.08 40.3897 25.37 39.6797C24.66 38.9697 26.42 36.1196 25.91 35.2396C25.4 34.3596 22.52 34.3596 22.26 33.3696C22 32.3796 25.75 30.9597 25.75 29.9197C25.75 28.8797 25.63 28.3897 25.88 27.4397C26.13 26.4897 26.7 26.2097 27.2 25.3397C27.7 24.4697 27.46 23.6697 28.17 22.9597C28.88 22.2497 28.71 20.8197 29.58 20.3097C30.45 19.7997 31.79 21.4397 32.78 21.1797C33.77 20.9197 34.09 21.3197 35.12 21.3197C36.15 21.3197 36.91 19.4297 37.86 19.6897C38.81 19.9497 41.23 17.3397 42.09 17.8397C42.95 18.3397 41.77 21.8397 42.48 22.5497C43.19 23.2597 45.98 22.4697 46.49 23.3497C47 24.2297 47.41 25.5697 47.67 26.5497C47.93 27.5297 46.87 28.8796 46.87 29.9096L46.88 29.9197Z" stroke="#090909" stroke-width="2" stroke-miterlimit="10"/>
<path d="M49.5098 53.6298C49.5098 51.8698 49.3499 51.8699 49.3499 50.1099C49.3499 48.3499 49.5199 48.3498 49.5199 46.5898C49.5199 44.8298 49.3899 44.8298 49.3899 43.0598C49.3899 41.2898 49.3899 41.2998 49.3899 39.5298" stroke="#090909" stroke-width="2" stroke-miterlimit="10"/>
<path d="M58.98 29.9197C58.98 30.9597 58.21 31.8096 57.91 32.7496C57.61 33.6896 57.3601 34.6197 56.7801 35.4197C56.2001 36.2197 55.71 37.1596 54.9 37.7496C54.09 38.3396 53.3901 39.4997 52.4301 39.8097C51.4701 40.1197 50.25 37.2897 49.21 37.2897C48.17 37.2897 46.42 41.6797 45.48 41.3797C44.54 41.0797 45.22 37.0997 44.41 36.5097C43.6 35.9197 40.27 37.6497 39.67 36.8397C39.07 36.0297 38.59 34.4297 38.28 33.4597C37.97 32.4897 40.35 30.9497 40.35 29.9097C40.35 28.8697 38.35 27.4197 38.66 26.4797C38.97 25.5397 42.3 26.1297 42.89 25.3197C43.48 24.5097 43.71 24.0597 44.52 23.4597C45.33 22.8597 45.88 22.9697 46.84 22.6597C47.8 22.3497 48.16 21.7197 49.19 21.7197C50.22 21.7197 51.11 20.8296 52.04 21.1296C52.97 21.4296 52.8001 23.2297 53.6101 23.8197C54.4201 24.4097 54.39 24.8897 54.98 25.7097C55.57 26.5297 57.2601 26.2197 57.5701 27.1897C57.8801 28.1597 58.97 28.8797 58.97 29.9097L58.98 29.9197Z" stroke="#090909" stroke-width="2" stroke-miterlimit="10"/>
<path d="M22.17 53.6298C22.17 51.8698 22.01 51.8699 22.01 50.1099C22.01 48.3499 22.18 48.3498 22.18 46.5898C22.18 44.8298 22.05 44.8298 22.05 43.0598C22.05 41.2898 22.05 41.2998 22.05 39.5298" stroke="#090909" stroke-width="2" stroke-miterlimit="10"/>
<path d="M31.64 29.9197C31.64 30.9597 30.87 31.8096 30.57 32.7496C30.27 33.6896 30.02 34.6197 29.44 35.4197C28.86 36.2197 28.37 37.1596 27.56 37.7496C26.75 38.3396 26.05 39.4997 25.09 39.8097C24.13 40.1197 22.91 37.2897 21.87 37.2897C20.83 37.2897 19.08 41.6797 18.14 41.3797C17.2 41.0797 17.88 37.0997 17.07 36.5097C16.26 35.9197 12.93 37.6497 12.33 36.8397C11.73 36.0297 11.25 34.4297 10.94 33.4597C10.63 32.4897 13.01 30.9497 13.01 29.9097C13.01 28.8697 11.01 27.4197 11.32 26.4797C11.63 25.5397 14.96 26.1297 15.55 25.3197C16.14 24.5097 16.37 24.0597 17.18 23.4597C17.99 22.8597 18.54 22.9697 19.5 22.6597C20.46 22.3497 20.82 21.7197 21.85 21.7197C22.88 21.7197 23.77 20.8296 24.7 21.1296C25.63 21.4296 25.46 23.2297 26.27 23.8197C27.08 24.4097 27.05 24.8897 27.64 25.7097C28.23 26.5297 29.92 26.2197 30.23 27.1897C30.54 28.1597 31.63 28.8797 31.63 29.9097L31.64 29.9197Z" stroke="#090909" stroke-width="2" stroke-miterlimit="10"/>
</svg>
