<svg width="156" height="156" viewBox="0 0 156 156" fill="none" xmlns="http://www.w3.org/2000/svg">
<path d="M35.99 95.5098C39.45 95.5098 39.45 95.9598 42.91 95.9598C46.37 95.9598 46.37 96.6098 49.83 96.6098C53.29 96.6098 53.29 96.1398 56.75 96.1398C60.21 96.1398 60.21 96.8598 63.66 96.8598C67.11 96.8598 67.12 96.8298 70.58 96.8298C74.04 96.8298 74.04 96.2098 77.5 96.2098C80.96 96.2098 80.96 96.3698 84.42 96.3698C87.88 96.3698 87.88 96.4998 91.34 96.4998C94.8 96.4998 94.8 96.7998 98.25 96.7998C101.7 96.7998 101.71 96.6598 105.17 96.6598C108.63 96.6598 108.63 96.7098 112.09 96.7098C115.55 96.7098 115.55 96.8598 119.01 96.8598" stroke="#090909" stroke-width="2" stroke-miterlimit="10"/>
<path d="M77.4898 98.96C76.1498 98.96 76.8598 100.21 76.1898 101.37C75.5198 102.53 75.4998 102.53 74.8298 103.69C74.1598 104.85 74.1198 104.83 73.4498 106C72.7798 107.17 72.7398 107.14 72.0698 108.3C71.3998 109.46 71.4798 109.51 70.8098 110.68C70.1398 111.85 70.2198 111.89 69.5498 113.06C68.8798 114.23 68.8098 114.19 68.1398 115.36C67.4698 116.53 67.3798 116.47 66.6998 117.64C66.0198 118.81 66.0898 118.85 65.4198 120.01C64.7498 121.18 63.2998 121.21 63.9698 122.38C64.6398 123.55 65.3898 122.42 66.7398 122.42C68.0898 122.42 68.0898 122.32 69.4298 122.32C70.7698 122.32 70.7798 122.35 72.1198 122.35C73.4598 122.35 73.4598 122.37 74.8098 122.37C76.1598 122.37 76.1498 122.42 77.4998 122.42C78.8498 122.42 78.8498 122.4 80.1898 122.4C81.5298 122.4 81.5398 122.4 82.8798 122.4C84.2198 122.4 84.2298 122.42 85.5698 122.42C86.9098 122.42 86.9198 122.38 88.2698 122.38C89.6198 122.38 90.3498 123.53 91.0198 122.36C91.6898 121.19 90.2898 121.17 89.6198 120C88.9498 118.83 88.8598 118.88 88.1898 117.72C87.5198 116.56 87.4898 116.57 86.8198 115.41C86.1498 114.25 86.2698 114.18 85.5998 113.02C84.9298 111.86 84.8398 111.91 84.1598 110.74C83.4798 109.57 83.5898 109.51 82.9198 108.35C82.2498 107.19 82.2898 107.16 81.6198 105.99C80.9498 104.82 80.8298 104.89 80.1498 103.73C79.4698 102.57 79.2098 102.66 78.8398 101.36C78.4198 99.9 78.8498 98.96 77.5098 98.96H77.4898Z" fill="#F6FF94"/>
<path d="M77.4898 98.96C76.1498 98.96 76.8598 100.21 76.1898 101.37C75.5198 102.53 75.4998 102.53 74.8298 103.69C74.1598 104.85 74.1198 104.83 73.4498 106C72.7798 107.17 72.7398 107.14 72.0698 108.3C71.3998 109.46 71.4798 109.51 70.8098 110.68C70.1398 111.85 70.2198 111.89 69.5498 113.06C68.8798 114.23 68.8098 114.19 68.1398 115.36C67.4698 116.53 67.3798 116.47 66.6998 117.64C66.0198 118.81 66.0898 118.85 65.4198 120.01C64.7498 121.18 63.2998 121.21 63.9698 122.38C64.6398 123.55 65.3898 122.42 66.7398 122.42C68.0898 122.42 68.0898 122.32 69.4298 122.32C70.7698 122.32 70.7798 122.35 72.1198 122.35C73.4598 122.35 73.4598 122.37 74.8098 122.37C76.1598 122.37 76.1498 122.42 77.4998 122.42C78.8498 122.42 78.8498 122.4 80.1898 122.4C81.5298 122.4 81.5398 122.4 82.8798 122.4C84.2198 122.4 84.2298 122.42 85.5698 122.42C86.9098 122.42 86.9198 122.38 88.2698 122.38C89.6198 122.38 90.3498 123.53 91.0198 122.36C91.6898 121.19 90.2898 121.17 89.6198 120C88.9498 118.83 88.8598 118.88 88.1898 117.72C87.5198 116.56 87.4898 116.57 86.8198 115.41C86.1498 114.25 86.2698 114.18 85.5998 113.02C84.9298 111.86 84.8398 111.91 84.1598 110.74C83.4798 109.57 83.5898 109.51 82.9198 108.35C82.2498 107.19 82.2898 107.16 81.6198 105.99C80.9498 104.82 80.8298 104.89 80.1498 103.73C79.4698 102.57 79.2098 102.66 78.8398 101.36C78.4198 99.9 78.8498 98.96 77.5098 98.96H77.4898Z" stroke="#090909" stroke-width="2" stroke-linejoin="round"/>
<path d="M53.2898 40.2397V37.7397H49.0798V41.1497L53.2898 40.2397Z" fill="#F6FF94" stroke="#090909" stroke-width="2" stroke-miterlimit="10"/>
<path d="M44.33 65.2697C42.22 65.9397 43.2699 67.2997 45.0099 69.4197C45.6299 72.2097 45.03 72.2797 45.03 75.1297C45.03 77.9797 45.0499 77.9897 45.0499 80.8497C45.0499 83.7097 44.9799 83.7097 44.9799 86.5697C44.9799 89.4297 43.1299 90.1297 44.9799 92.2997C46.5799 94.1597 47.4499 92.2997 49.8999 92.2997C52.3499 92.2997 53.1199 94.0697 54.7699 92.2597C56.5899 90.2597 54.7599 89.5897 54.7599 86.8997C54.7599 84.1997 54.7999 84.1997 54.7999 81.4997C54.7999 78.7997 54.7699 78.7997 54.7699 76.0997C54.7699 73.3997 54.8499 73.3997 54.8499 70.6997C54.8499 67.9997 56.6699 67.2497 54.7899 65.3097C52.9099 63.3697 52.17 65.5697 49.56 65.3097C46.95 65.0497 46.81 64.4797 44.31 65.2797L44.33 65.2697Z" fill="#090909"/>
<path d="M44.33 65.2697C42.22 65.9397 43.2699 67.2997 45.0099 69.4197C45.6299 72.2097 45.03 72.2797 45.03 75.1297C45.03 77.9797 45.0499 77.9897 45.0499 80.8497C45.0499 83.7097 44.9799 83.7097 44.9799 86.5697C44.9799 89.4297 43.1299 90.1297 44.9799 92.2997C46.5799 94.1597 47.4499 92.2997 49.8999 92.2997C52.3499 92.2997 53.1199 94.0697 54.7699 92.2597C56.5899 90.2597 54.7599 89.5897 54.7599 86.8997C54.7599 84.1997 54.7999 84.1997 54.7999 81.4997C54.7999 78.7997 54.7699 78.7997 54.7699 76.0997C54.7699 73.3997 54.8499 73.3997 54.8499 70.6997C54.8499 67.9997 56.6699 67.2497 54.7899 65.3097C52.9099 63.3697 52.17 65.5697 49.56 65.3097C46.95 65.0497 46.81 64.4797 44.31 65.2797L44.33 65.2697Z" stroke="#090909" stroke-width="2" stroke-miterlimit="10"/>
<path d="M42.8098 64.67C41.3698 66.86 43.1598 68.91 43.4498 69.89C43.6898 70.7 43.9798 70.87 44.2298 70.77C44.3598 70.77 44.3098 70.87 44.4698 70.9C44.6498 70.93 44.8298 70.95 44.8198 70.68C44.8598 70.49 44.8898 70.94 45.1498 70.95C45.5298 70.96 45.8298 70.7 45.8598 70.13C45.8598 69.77 45.6798 69.73 45.8798 69.43C46.1698 69 46.2898 69.56 46.3998 68.67C46.5098 67.78 46.9798 66.49 46.2198 64.27C44.9298 62.97 43.7398 63.27 42.8198 64.68L42.8098 64.67Z" fill="#F6FF94"/>
<path d="M42.8098 64.67C41.3698 66.86 43.1598 68.91 43.4498 69.89C43.6898 70.7 43.9798 70.87 44.2298 70.77C44.3598 70.77 44.3098 70.87 44.4698 70.9C44.6498 70.93 44.8298 70.95 44.8198 70.68C44.8598 70.49 44.8898 70.94 45.1498 70.95C45.5298 70.96 45.8298 70.7 45.8598 70.13C45.8598 69.77 45.6798 69.73 45.8798 69.43C46.1698 69 46.2898 69.56 46.3998 68.67C46.5098 67.78 46.9798 66.49 46.2198 64.27C44.9298 62.97 43.7398 63.27 42.8198 64.68L42.8098 64.67Z" stroke="#090909" stroke-width="2" stroke-miterlimit="10"/>
<path d="M45.8499 69.3901C45.5699 69.3901 45.6499 68.0101 45.6999 66.5801" stroke="#090909" stroke-width="2" stroke-miterlimit="10"/>
<path d="M51.01 92.2898C51.01 88.9998 51.05 88.9998 51.05 85.7098C51.05 82.4198 50.99 82.4198 50.99 79.1198C50.99 75.8198 51.01 75.8298 51.01 72.5298" fill="white"/>
<path d="M51.01 92.2898C51.01 88.9998 51.05 88.9998 51.05 85.7098C51.05 82.4198 50.99 82.4198 50.99 79.1198C50.99 75.8198 51.01 75.8298 51.01 72.5298" stroke="#090909" stroke-width="2" stroke-miterlimit="10"/>
<path d="M51.0698 30.6599C49.1698 30.6599 47.5398 32.1299 47.2898 34.1699C47.2398 34.3299 47.1098 34.0399 47.0598 34.1999C46.8998 34.7299 46.8598 34.7699 47.0198 35.2999C47.0698 35.4599 47.3298 35.1299 47.3698 35.2999C47.6098 37.3499 49.1598 38.9399 51.0598 38.9399C53.1298 38.9399 54.8398 37.0599 54.8398 34.7499C54.8398 32.4399 53.1298 30.6499 51.0598 30.6499L51.0698 30.6599Z" fill="#F6FF94"/>
<path d="M51.0698 30.6599C49.1698 30.6599 47.5398 32.1299 47.2898 34.1699C47.2398 34.3299 47.1098 34.0399 47.0598 34.1999C46.8998 34.7299 46.8598 34.7699 47.0198 35.2999C47.0698 35.4599 47.3298 35.1299 47.3698 35.2999C47.6098 37.3499 49.1598 38.9399 51.0598 38.9399C53.1298 38.9399 54.8398 37.0599 54.8398 34.7499C54.8398 32.4399 53.1298 30.6499 51.0598 30.6499L51.0698 30.6599Z" stroke="#090909" stroke-width="2" stroke-miterlimit="10"/>
<path d="M52.6899 34.0997C52.6899 34.3197 52.5199 34.4997 52.2899 34.4997C52.0599 34.4997 51.8799 34.3197 51.8799 34.0997C51.8799 33.8797 52.0699 33.6997 52.2899 33.6997C52.5099 33.6997 52.6899 33.8697 52.6899 34.0997Z" fill="#090909"/>
<path d="M52.6899 34.0997C52.6899 34.3197 52.5199 34.4997 52.2899 34.4997C52.0599 34.4997 51.8799 34.3197 51.8799 34.0997C51.8799 33.8797 52.0699 33.6997 52.2899 33.6997C52.5099 33.6997 52.6899 33.8697 52.6899 34.0997Z" stroke="#090909" stroke-width="0.5" stroke-miterlimit="10"/>
<path d="M54.3 34.0997C54.3 34.3197 54.12 34.4997 53.89 34.4997C53.66 34.4997 53.48 34.3197 53.48 34.0997C53.48 33.8797 53.66 33.6997 53.89 33.6997C54.12 33.6997 54.3 33.8697 54.3 34.0997Z" fill="#090909"/>
<path d="M54.3 34.0997C54.3 34.3197 54.12 34.4997 53.89 34.4997C53.66 34.4997 53.48 34.3197 53.48 34.0997C53.48 33.8797 53.66 33.6997 53.89 33.6997C54.12 33.6997 54.3 33.8697 54.3 34.0997Z" stroke="#090909" stroke-width="0.5" stroke-miterlimit="10"/>
<path d="M47.0099 65.2599C44.4699 65.2599 44.2399 66.3599 41.9499 65.2599C39.0599 63.8799 41.2799 62.5599 40.9199 58.9699C40.7199 56.9999 40.6099 54.7599 40.7099 52.5799C40.8099 50.3999 41.1399 48.1099 41.8999 46.3099C42.9499 43.8099 44.7799 42.3699 46.6099 41.4599C49.8599 39.8399 50.0399 38.9099 53.3099 40.0399C57.1899 41.3799 57.1199 42.3099 57.1199 46.9499C57.1199 49.7299 57.1799 49.7299 57.1799 52.5199C57.1799 55.3099 57.1699 55.3099 57.1699 58.0899C57.1699 60.8699 57.3199 60.8799 57.1799 63.6699C57.1399 64.4999 57.5899 65.0899 56.7899 65.3099C54.1599 66.0499 54.0499 65.2899 51.3199 65.2899C48.5899 65.2899 47.6799 67.3199 45.8699 65.2699C43.8199 62.9499 45.8499 62.1899 45.8499 59.0999C45.8499 55.9999 45.8299 55.9999 45.8299 52.9099C45.8299 49.8199 45.8099 49.8099 45.8099 46.7199" fill="#E9FFF4"/>
<path d="M47.0099 65.2599C44.4699 65.2599 44.2399 66.3599 41.9499 65.2599C39.0599 63.8799 41.2799 62.5599 40.9199 58.9699C40.7199 56.9999 40.6099 54.7599 40.7099 52.5799C40.8099 50.3999 41.1399 48.1099 41.8999 46.3099C42.9499 43.8099 44.7799 42.3699 46.6099 41.4599C49.8599 39.8399 50.0399 38.9099 53.3099 40.0399C57.1899 41.3799 57.1199 42.3099 57.1199 46.9499C57.1199 49.7299 57.1799 49.7299 57.1799 52.5199C57.1799 55.3099 57.1699 55.3099 57.1699 58.0899C57.1699 60.8699 57.3199 60.8799 57.1799 63.6699C57.1399 64.4999 57.5899 65.0899 56.7899 65.3099C54.1599 66.0499 54.0499 65.2899 51.3199 65.2899C48.5899 65.2899 47.6799 67.3199 45.8699 65.2699C43.8199 62.9499 45.8499 62.1899 45.8499 59.0999C45.8499 55.9999 45.8299 55.9999 45.8299 52.9099C45.8299 49.8199 45.8099 49.8099 45.8099 46.7199" stroke="#090909" stroke-width="2" stroke-linejoin="round"/>
<path d="M50.0698 92.3198C48.3998 92.7798 49.7898 94.0397 49.7898 95.6997C54.0698 97.0597 56.7998 96.3697 58.7398 96.3697C60.6698 96.3697 60.3398 91.4498 56.2198 92.3598C53.1098 92.4098 53.0298 91.5098 50.0698 92.3298V92.3198Z" fill="#090909"/>
<path d="M50.0698 92.3198C48.3998 92.7798 49.7898 94.0397 49.7898 95.6997C54.0698 97.0597 56.7998 96.3697 58.7398 96.3697C60.6698 96.3697 60.3398 91.4498 56.2198 92.3598C53.1098 92.4098 53.0298 91.5098 50.0698 92.3298V92.3198Z" stroke="#090909" stroke-width="2" stroke-miterlimit="10"/>
<path d="M45 92.27C43.77 92.5 44.8 93.48 44.71 94.77C44.65 95.6 45.34 96.35 46.17 96.35C49.93 96.35 49.93 96.31 53.69 96.31C55.62 96.31 55.29 91.37 51.17 92.28C48.08 92.41 48.03 91.71 45.01 92.28L45 92.27Z" fill="#090909"/>
<path d="M45 92.27C43.77 92.5 44.8 93.48 44.71 94.77C44.65 95.6 45.34 96.35 46.17 96.35C49.93 96.35 49.93 96.31 53.69 96.31C55.62 96.31 55.29 91.37 51.17 92.28C48.08 92.41 48.03 91.71 45.01 92.28L45 92.27Z" stroke="#090909" stroke-width="2" stroke-miterlimit="10"/>
<path d="M101.69 40.2397V37.7397H105.9V41.1497L101.69 40.2397Z" fill="#F6FF94" stroke="#090909" stroke-width="2" stroke-miterlimit="10"/>
<path d="M110.64 65.3197C112.75 65.9897 111.72 67.2997 109.98 69.4197C109.36 72.2097 110 72.2797 110 75.1297C110 77.9797 110.02 77.9897 110.02 80.8497C110.02 83.7097 109.95 83.7097 109.95 86.5697C109.95 89.4297 111.82 90.1097 109.95 92.2797C108.35 94.1397 107.51 92.2797 105.05 92.2797C102.59 92.2797 101.75 94.1397 100.1 92.3197C98.2798 90.3197 100.09 89.5897 100.09 86.8897C100.09 84.1897 100.13 84.1897 100.13 81.4897C100.13 78.7897 100.1 78.7897 100.1 76.0897C100.1 73.3897 100.18 73.3897 100.18 70.6897C100.18 67.9897 98.2298 67.2097 100.12 65.2697C102.01 63.3297 102.77 65.5297 105.38 65.2697C107.99 65.0097 108.12 64.5097 110.62 65.2997L110.64 65.3197Z" fill="#090909"/>
<path d="M110.64 65.3197C112.75 65.9897 111.72 67.2997 109.98 69.4197C109.36 72.2097 110 72.2797 110 75.1297C110 77.9797 110.02 77.9897 110.02 80.8497C110.02 83.7097 109.95 83.7097 109.95 86.5697C109.95 89.4297 111.82 90.1097 109.95 92.2797C108.35 94.1397 107.51 92.2797 105.05 92.2797C102.59 92.2797 101.75 94.1397 100.1 92.3197C98.2798 90.3197 100.09 89.5897 100.09 86.8897C100.09 84.1897 100.13 84.1897 100.13 81.4897C100.13 78.7897 100.1 78.7897 100.1 76.0897C100.1 73.3897 100.18 73.3897 100.18 70.6897C100.18 67.9897 98.2298 67.2097 100.12 65.2697C102.01 63.3297 102.77 65.5297 105.38 65.2697C107.99 65.0097 108.12 64.5097 110.62 65.2997L110.64 65.3197Z" stroke="#090909" stroke-width="2" stroke-miterlimit="10"/>
<path d="M112.09 64.73C113.53 66.92 111.85 68.92 111.55 69.89C111.31 70.7 111 70.94 110.76 70.84C110.63 70.84 110.69 70.9 110.53 70.93C110.35 70.96 110.06 70.97 110.07 70.7C110.03 70.51 110.1 70.88 109.85 70.89C109.47 70.9 109.06 70.7 109.04 70.13C109.04 69.77 109.36 69.7 109.16 69.41C108.87 68.98 108.7 69.57 108.6 68.68C108.5 67.79 108.07 66.54 108.83 64.32C110.08 63.04 111.17 63.34 112.1 64.75L112.09 64.73Z" fill="#F6FF94"/>
<path d="M112.09 64.73C113.53 66.92 111.85 68.92 111.55 69.89C111.31 70.7 111 70.94 110.76 70.84C110.63 70.84 110.69 70.9 110.53 70.93C110.35 70.96 110.06 70.97 110.07 70.7C110.03 70.51 110.1 70.88 109.85 70.89C109.47 70.9 109.06 70.7 109.04 70.13C109.04 69.77 109.36 69.7 109.16 69.41C108.87 68.98 108.7 69.57 108.6 68.68C108.5 67.79 108.07 66.54 108.83 64.32C110.08 63.04 111.17 63.34 112.1 64.75L112.09 64.73Z" stroke="#090909" stroke-width="2" stroke-miterlimit="10"/>
<path d="M109.14 69.4198C109.42 69.4198 109.39 68.0198 109.33 66.5898" stroke="#090909" stroke-width="2" stroke-miterlimit="10"/>
<path d="M104.17 92.2898C104.17 88.9998 104.21 88.9998 104.21 85.7098C104.21 82.4198 104.15 82.4198 104.15 79.1198C104.15 75.8198 104.17 75.8298 104.17 72.5298" fill="white"/>
<path d="M104.17 92.2898C104.17 88.9998 104.21 88.9998 104.21 85.7098C104.21 82.4198 104.15 82.4198 104.15 79.1198C104.15 75.8198 104.17 75.8298 104.17 72.5298" stroke="#090909" stroke-width="2" stroke-miterlimit="10"/>
<path d="M103.92 30.5C105.82 30.5 107.31 32.18 107.56 34.22C107.61 34.38 107.96 34.02 108.01 34.19C108.17 34.72 108.14 34.79 107.97 35.32C107.92 35.48 107.69 35.16 107.64 35.32C107.4 37.37 105.81 38.93 103.91 38.93C101.84 38.93 100.19 37.07 100.19 34.76C100.19 32.45 101.84 30.5 103.91 30.5H103.92Z" fill="#F6FF94"/>
<path d="M103.92 30.5C105.82 30.5 107.31 32.18 107.56 34.22C107.61 34.38 107.96 34.02 108.01 34.19C108.17 34.72 108.14 34.79 107.97 35.32C107.92 35.48 107.69 35.16 107.64 35.32C107.4 37.37 105.81 38.93 103.91 38.93C101.84 38.93 100.19 37.07 100.19 34.76C100.19 32.45 101.84 30.5 103.91 30.5H103.92Z" stroke="#090909" stroke-width="2" stroke-miterlimit="10"/>
<path d="M102.29 34.0999C102.29 34.3199 102.48 34.4999 102.7 34.4999C102.92 34.4999 103.09 34.3199 103.09 34.0999C103.09 33.8799 102.92 33.6899 102.7 33.6899C102.48 33.6899 102.29 33.8799 102.29 34.0999Z" fill="#090909"/>
<path d="M102.29 34.0999C102.29 34.3199 102.48 34.4999 102.7 34.4999C102.92 34.4999 103.09 34.3199 103.09 34.0999C103.09 33.8799 102.92 33.6899 102.7 33.6899C102.48 33.6899 102.29 33.8799 102.29 34.0999Z" stroke="#090909" stroke-width="0.5" stroke-miterlimit="10"/>
<path d="M100.69 34.0999C100.69 34.3199 100.87 34.4999 101.09 34.4999C101.31 34.4999 101.49 34.3199 101.49 34.0999C101.49 33.8799 101.32 33.6899 101.09 33.6899C100.86 33.6899 100.69 33.8699 100.69 34.0999Z" fill="#090909"/>
<path d="M100.69 34.0999C100.69 34.3199 100.87 34.4999 101.09 34.4999C101.31 34.4999 101.49 34.3199 101.49 34.0999C101.49 33.8799 101.32 33.6899 101.09 33.6899C100.86 33.6899 100.69 33.8699 100.69 34.0999Z" stroke="#090909" stroke-width="0.5" stroke-miterlimit="10"/>
<path d="M107.97 65.3302C110.51 65.3302 110.77 66.4202 113.06 65.3302C115.95 63.9502 113.64 62.5702 114.01 58.9802C114.21 57.0102 114.35 54.7802 114.24 52.6002C114.13 50.4202 113.76 48.1602 113.01 46.3702C111.96 43.8702 110.26 42.3002 108.43 41.3902C105.18 39.7702 104.98 38.9902 101.71 40.1202C97.8299 41.4602 97.8599 42.3402 97.8599 46.9702C97.8599 49.7502 97.9199 49.7502 97.9199 52.5402C97.9199 55.3302 97.9099 55.3302 97.9099 58.1102C97.9099 60.9002 97.7899 60.9002 97.9199 63.6802C97.9599 64.5102 97.4199 65.0602 98.2199 65.2802C100.85 66.0202 100.95 65.3002 103.68 65.3002C106.41 65.3002 107.36 67.3602 109.17 65.3202C111.22 63.0002 109.15 62.2102 109.15 59.1202C109.15 56.0202 109.13 56.0202 109.13 52.9302C109.13 49.8402 109.11 49.8302 109.11 46.7402" fill="#E9FFF4"/>
<path d="M107.97 65.3302C110.51 65.3302 110.77 66.4202 113.06 65.3302C115.95 63.9502 113.64 62.5702 114.01 58.9802C114.21 57.0102 114.35 54.7802 114.24 52.6002C114.13 50.4202 113.76 48.1602 113.01 46.3702C111.96 43.8702 110.26 42.3002 108.43 41.3902C105.18 39.7702 104.98 38.9902 101.71 40.1202C97.8299 41.4602 97.8599 42.3402 97.8599 46.9702C97.8599 49.7502 97.9199 49.7502 97.9199 52.5402C97.9199 55.3302 97.9099 55.3302 97.9099 58.1102C97.9099 60.9002 97.7899 60.9002 97.9199 63.6802C97.9599 64.5102 97.4199 65.0602 98.2199 65.2802C100.85 66.0202 100.95 65.3002 103.68 65.3002C106.41 65.3002 107.36 67.3602 109.17 65.3202C111.22 63.0002 109.15 62.2102 109.15 59.1202C109.15 56.0202 109.13 56.0202 109.13 52.9302C109.13 49.8402 109.11 49.8302 109.11 46.7402" stroke="#090909" stroke-width="2" stroke-linejoin="round"/>
<path d="M104.93 92.2699C106.6 92.7299 105.22 94.1299 105.22 95.7899C100.94 97.1499 98.18 96.2599 96.24 96.2599C94.3 96.2599 94.64 91.3399 98.76 92.2499C101.87 92.2699 101.96 91.4599 104.93 92.2799V92.2699Z" fill="#090909"/>
<path d="M104.93 92.2699C106.6 92.7299 105.22 94.1299 105.22 95.7899C100.94 97.1499 98.18 96.2599 96.24 96.2599C94.3 96.2599 94.64 91.3399 98.76 92.2499C101.87 92.2699 101.96 91.4599 104.93 92.2799V92.2699Z" stroke="#090909" stroke-width="2" stroke-miterlimit="10"/>
<path d="M109.97 92.3198C111.2 92.5498 110.11 93.4898 110.21 94.7798C110.27 95.6098 109.65 96.2698 108.82 96.2698C105.06 96.2698 105.06 96.3098 101.3 96.3098C99.3698 96.3098 99.6998 91.4098 103.82 92.3198C106.91 92.4698 106.95 91.7498 109.98 92.3198H109.97Z" fill="#090909"/>
<path d="M109.97 92.3198C111.2 92.5498 110.11 93.4898 110.21 94.7798C110.27 95.6098 109.65 96.2698 108.82 96.2698C105.06 96.2698 105.06 96.3098 101.3 96.3098C99.3698 96.3098 99.6998 91.4098 103.82 92.3198C106.91 92.4698 106.95 91.7498 109.98 92.3198H109.97Z" stroke="#090909" stroke-width="2" stroke-miterlimit="10"/>
</svg>
