<svg width="70" height="71" viewBox="0 0 70 71" fill="none" xmlns="http://www.w3.org/2000/svg">
<path d="M11.6499 36.4294C15.5399 36.4294 15.5399 36.6794 19.4299 36.6794C23.3199 36.6794 23.3199 37.0494 27.2099 37.0494C31.0999 37.0494 31.0999 36.7794 34.9899 36.7794C38.8799 36.7794 38.8799 37.1794 42.7699 37.1794C46.6599 37.1794 46.6599 37.1594 50.5599 37.1594C54.4599 37.1594 54.4499 36.8094 58.3499 36.8094" stroke="#090909" stroke-width="2" stroke-miterlimit="10"/>
<path d="M35 38.3696C33.49 38.3696 34.27 39.7296 33.51 41.0396C32.75 42.3496 32.75 42.3496 31.99 43.6596C31.23 44.9696 31.21 44.9596 30.45 46.2696C29.69 47.5796 29.67 47.5696 28.91 48.8796C28.15 50.1896 26.68 50.1996 27.44 51.5096C28.2 52.8196 28.94 51.4496 30.45 51.4496C31.96 51.4496 31.96 51.4896 33.48 51.4896C35 51.4896 34.99 51.5496 36.51 51.5496C38.03 51.5496 38.03 51.5096 39.54 51.5096C41.05 51.5096 41.86 52.8596 42.62 51.5496C43.38 50.2396 41.86 50.1896 41.1 48.8796C40.34 47.5696 40.29 47.5996 39.54 46.2896C38.79 44.9796 38.8 44.9696 38.04 43.6596C37.28 42.3496 36.95 42.4896 36.54 41.0296C36.07 39.4096 36.52 38.3796 35.01 38.3696H35Z" stroke="#090909" stroke-width="2" stroke-linejoin="round"/>
<path d="M21.52 20.3696C21.52 21.0696 20.97 21.6595 20.27 21.6595C19.57 21.6595 19.01 21.0696 19.01 20.3696C19.01 19.6696 19.57 19.0796 20.27 19.0796C20.97 19.0796 21.52 19.6696 21.52 20.3696Z" stroke="#090909" stroke-width="2" stroke-linejoin="round"/>
<path d="M22.0699 34.2496C21.0399 35.7496 19.3899 35.8296 18.3599 34.3196C16.8599 32.1196 18.4499 31.5996 18.4499 28.9396C18.4499 26.2796 16.9699 25.8296 18.4699 23.6296C19.4999 22.1296 21.1399 22.0596 22.1699 23.5596C23.6699 25.7596 21.6099 26.3196 22.0699 28.9396C22.5299 31.5596 23.5799 32.0496 22.0699 34.2496Z" stroke="#090909" stroke-width="2" stroke-linejoin="round"/>
<path d="M49.3599 20.3696C49.3599 21.0696 48.8099 21.6595 48.1099 21.6595C47.4099 21.6595 46.8499 21.0696 46.8499 20.3696C46.8499 19.6696 47.4099 19.0796 48.1099 19.0796C48.8099 19.0796 49.3599 19.6696 49.3599 20.3696Z" stroke="#090909" stroke-width="2" stroke-linejoin="round"/>
<path d="M49.91 34.2496C48.88 35.7496 47.23 35.8296 46.2 34.3196C44.7 32.1196 46.29 31.5996 46.29 28.9396C46.29 26.2796 44.81 25.8296 46.31 23.6296C47.34 22.1296 48.98 22.0596 50.01 23.5596C51.51 25.7596 49.45 26.3196 49.91 28.9396C50.37 31.5596 51.42 32.0496 49.91 34.2496Z" stroke="#090909" stroke-width="2" stroke-linejoin="round"/>
</svg>
