<svg width="156" height="156" viewBox="0 0 156 156" fill="none" xmlns="http://www.w3.org/2000/svg">
<path d="M37.0902 121.69C35 119.19 35.5202 115.42 35.6302 114.55C35.8902 112.58 36.1402 110.31 37.0902 107.74C37.8302 105.72 38.2002 103.3 39.3302 100.99C40.3102 98.9997 42.3802 97.4298 43.6202 95.2598C44.7402 93.2998 45.5002 91.0198 46.8302 88.9398C48.0602 87.0098 49.8302 85.3698 51.2202 83.3698C52.5402 81.4798 53.6902 79.4198 55.1502 77.4798C56.5402 75.6198 58.1602 73.9097 59.6702 72.0197C61.1302 70.1997 62.0402 67.8998 63.6002 66.0698C65.1602 64.2398 67.2702 62.9598 68.8402 61.2298C70.4602 59.4398 72.0702 57.7298 73.6802 56.0598C75.3602 54.3198 76.1002 51.7098 77.7502 50.1098C79.5102 48.4098 82.0302 47.6498 83.7402 46.1298C85.5802 44.4898 86.4002 41.7798 88.1502 40.3598C90.1002 38.7798 92.3002 37.6998 94.1202 36.4098C96.2202 34.9198 98.4302 33.9198 100.3 32.8698C102.68 31.5298 105.07 31.2098 106.98 30.6398C108.35 30.2298 109.48 29.9997 110.43 29.9897" stroke="#090909" stroke-width="2" stroke-linejoin="round" stroke-dasharray="4 4"/>
<path d="M111.93 30.21C112.4 30.37 112.82 30.61 113.22 30.95" stroke="#090909" stroke-width="2" stroke-linejoin="round"/>
<path d="M117.23 75.81C117.23 78.27 116.29 80.67 115.88 83.01C115.47 85.35 114.89 87.77 114.08 90.02C113.25 92.31 112.72 94.79 111.52 96.87C110.32 98.95 108.94 101.11 107.39 102.95C105.83 104.8 103.88 106.42 102.03 107.97C100.18 109.52 98.2201 111.11 96.1201 112.33C94.0401 113.53 91.4401 113.77 89.1501 114.6C86.8601 115.43 84.5701 115.82 82.1601 116.24C79.7501 116.66 77.4901 117.28 75.0301 117.28C72.5701 117.28 70.0901 117.52 67.7401 117.11C65.3901 116.7 63.0801 115.61 60.8301 114.79C58.5401 113.96 56.2501 113.11 54.1701 111.91C52.0701 110.7 50.3301 108.97 48.4801 107.42C46.6301 105.87 45.0001 104.14 43.4501 102.28C41.9001 100.43 40.9301 98.27 39.7101 96.17C38.4901 94.07 36.3401 92.45 35.5101 90.17C34.6801 87.89 33.8001 85.54 33.3801 83.13C32.9601 80.72 33.3201 78.25 33.3201 75.79C33.3201 73.33 33.0901 70.81 33.5001 68.47C33.9101 66.13 35.9101 64.1 36.7201 61.85C37.5501 59.56 37.9501 57.16 39.1501 55.08C40.3501 53 41.4001 50.73 42.9601 48.88C44.5201 47.03 46.6701 45.75 48.5201 44.2C50.3701 42.65 52.5501 41.71 54.6501 40.5C56.7301 39.3 58.4101 37.27 60.7001 36.43C62.9501 35.61 65.3201 34.87 67.7301 34.45C70.1401 34.03 72.5601 34 75.0201 34C77.4801 34 79.9101 34.35 82.2501 34.76C84.5901 35.17 87.2501 35.19 89.4901 36C91.7801 36.83 93.3901 39.13 95.4701 40.33C97.5701 41.54 100.35 41.82 102.2 43.37C104.05 44.92 105.35 47.16 106.91 49.01C108.46 50.86 109.41 53.12 110.62 55.22C111.83 57.32 113.64 59.13 114.47 61.42C115.29 63.67 115.21 66.21 115.63 68.62C116.05 71.03 117.22 73.32 117.22 75.78L117.23 75.81Z" fill="#E9FFF4"/>
<path d="M98.78 75.8099C98.78 78.3499 97.61 80.7499 97.36 83.1599C97.1 85.6999 97.12 88.1499 96.61 90.4999C96.07 93.0099 95.92 95.5399 95.13 97.7899C94.27 100.24 93.45 102.65 92.32 104.72C91.07 107.04 89.2 108.81 87.67 110.56C85.92 112.57 84.14 114.29 82.12 115.42C79.88 116.67 77.49 117.65 75.02 117.65C72.55 117.65 70.16 116.66 67.92 115.41C65.9 114.28 64.28 112.42 62.53 110.42C61 108.67 59.91 106.53 58.65 104.22C57.53 102.15 55.29 100.41 54.43 97.9699C53.64 95.7199 54.07 92.9999 53.53 90.4899C53.02 88.1399 52.8 85.7199 52.54 83.1799C52.28 80.6399 51.03 78.3499 51.03 75.8199C51.03 73.2899 51.49 70.7799 51.73 68.3699C51.99 65.8299 53.34 63.5699 53.84 61.2099C54.38 58.6999 54.85 56.3399 55.65 54.0899C56.51 51.6399 56.58 48.9699 57.7 46.8899C58.95 44.5699 60.57 42.5899 62.1 40.8299C63.85 38.8199 66.06 37.6499 68.09 36.5199C70.33 35.2699 72.53 33.6499 75 33.6499C77.47 33.6499 79.51 35.5599 81.75 36.8199C83.77 37.9499 85.58 39.3299 87.32 41.3399C88.85 43.0899 90.04 45.1199 91.3 47.4299C92.42 49.4999 93.5 51.6299 94.36 54.0799C95.15 56.3299 96.3 58.5399 96.84 61.0599C97.35 63.4099 98.41 65.7899 98.67 68.3199C98.93 70.8499 98.74 73.2699 98.74 75.8099H98.78Z" stroke="#00EAA4" stroke-width="2" stroke-linejoin="round"/>
<path d="M75.6601 34.27C75.6601 37.73 75.6801 37.73 75.6801 41.19C75.6801 44.65 74.6101 44.65 74.6101 48.11C74.6101 51.57 74.9101 51.57 74.9101 55.03C74.9101 58.49 74.3301 58.49 74.3301 61.95C74.3301 65.41 74.3101 65.41 74.3101 68.87C74.3101 72.33 75.1301 72.33 75.1301 75.79C75.1301 79.25 75.0201 79.25 75.0201 82.71C75.0201 86.17 74.3301 86.17 74.3301 89.63C74.3301 93.09 75.7301 93.09 75.7301 96.55C75.7301 100.01 75.3501 100.01 75.3501 103.48C75.3501 106.95 75.7801 106.95 75.7801 110.41C75.7801 113.87 75.3501 113.88 75.3501 117.34" stroke="#00EAA4" stroke-width="2" stroke-linejoin="round"/>
<path d="M75.0301 94.5701C72.6201 94.5701 70.3301 94.2401 68.0401 94.0501C65.6301 93.8601 63.3401 93.6501 61.0901 93.2701C58.6801 92.8701 56.1601 93.4301 53.9801 92.8301C51.5901 92.1801 49.7001 90.4701 47.6401 89.6101C45.3001 88.6401 42.8101 88.3801 40.9901 87.1901C38.8101 85.7601 37.2701 83.9001 35.9801 82.2201C34.4201 80.1901 33.0901 78.0701 33.0901 75.7901C33.0901 73.5101 34.0601 71.1201 35.6201 69.0801C36.9101 67.4001 39.0501 66.1901 41.2301 64.7701C43.0501 63.5801 45.1901 62.6901 47.5301 61.7201C49.5801 60.8701 51.5601 59.3501 53.9501 58.7001C56.1301 58.1101 58.5801 58.2101 60.9901 57.8001C63.2401 57.4201 65.5301 56.6201 67.9401 56.4301C70.3501 56.2401 72.6201 56.2901 75.0201 56.2901C77.4201 56.2901 79.8101 56.2601 82.1001 56.4401C84.5101 56.6301 86.8501 57.0801 89.1001 57.4601C91.5101 57.8601 93.7001 58.8401 95.8801 59.4301C98.2701 60.0801 100.9 59.7801 102.95 60.6301C105.29 61.6001 106.94 63.6401 108.75 64.8301C110.93 66.2601 113.41 67.1701 114.7 68.8501C116.26 70.8801 117.23 73.4901 117.23 75.7701C117.23 78.0501 116.14 80.5801 114.59 82.6101C113.3 84.2901 111.05 85.4601 108.87 86.8901C107.05 88.0801 104.88 88.9701 102.55 89.9401C100.5 90.7901 98.4601 92.1601 96.0701 92.8101C93.8901 93.4001 91.3801 92.8901 88.9701 93.2901C86.7201 93.6701 84.5001 94.7901 82.0901 94.9801C79.6801 95.1701 77.4301 94.5301 75.0201 94.5301L75.0301 94.5701Z" stroke="#00EAA4" stroke-width="2" stroke-linejoin="round"/>
<path d="M116.57 76.5598C113.11 76.5598 113.11 76.1798 109.65 76.1798C106.19 76.1798 106.19 75.0898 102.73 75.0898C99.27 75.0898 99.27 76.5399 95.81 76.5399C92.35 76.5399 92.35 76.5799 88.89 76.5799C85.43 76.5799 85.43 75.5898 81.97 75.5898C78.51 75.5898 78.51 75.1498 75.05 75.1498C71.59 75.1498 71.59 75.4398 68.13 75.4398C64.67 75.4398 64.67 75.9099 61.21 75.9099C57.75 75.9099 57.75 76.2899 54.29 76.2899C50.83 76.2899 50.83 75.9099 47.36 75.9099C43.89 75.9099 43.89 75.1299 40.43 75.1299C36.97 75.1299 36.96 75.6999 33.5 75.6999" stroke="#00EAA4" stroke-width="2" stroke-linejoin="round"/>
<path d="M116.39 75.8098C116.39 78.2698 117.14 80.8198 116.73 83.1598C116.32 85.4998 114.89 87.7698 114.07 90.0198C113.25 92.2698 112.03 94.3898 110.82 96.4698C109.61 98.5498 108.94 101.11 107.38 102.96C105.82 104.81 103.44 105.91 101.59 107.47C99.7401 109.02 97.6001 110.07 95.5001 111.28C93.4001 112.49 91.7701 114.69 89.4801 115.52C87.2301 116.34 84.5801 115.91 82.1701 116.34C79.8301 116.75 77.4801 118.1 75.0201 118.1C72.5601 118.1 70.0201 117.89 67.6701 117.48C65.2601 117.06 62.8601 116.22 60.6101 115.4C58.3201 114.57 55.9101 113.71 53.8301 112.5C51.7301 111.29 50.2101 109.12 48.3701 107.57C46.5301 106.02 44.9501 104.2 43.3901 102.35C41.8301 100.5 40.3901 98.5998 39.1801 96.5098C37.9701 94.4198 37.1001 92.2098 36.2701 89.9198C35.4501 87.6698 35.3301 85.2998 34.9101 82.8898C34.4901 80.4798 34.1701 78.2798 34.1701 75.8198C34.1701 73.3598 33.5601 70.9198 33.9701 68.5798C34.3801 66.2398 35.1001 63.8398 35.9201 61.5898C36.7401 59.3398 37.4601 56.9098 38.6701 54.8298C39.8801 52.7498 41.7601 51.0498 43.3101 49.2098C44.8701 47.3598 46.1101 45.1198 47.9601 43.5598C49.8101 42.0098 52.5501 41.7398 54.6501 40.5298C56.7301 39.3298 58.4401 37.3698 60.7301 36.5398C62.9801 35.7198 65.4101 35.3998 67.8201 34.9698C70.1601 34.5598 72.5601 35.0598 75.0201 35.0598C77.4801 35.0598 79.9301 34.2898 82.2701 34.6998C84.6801 35.1198 86.7201 36.6898 88.9601 37.4998C91.2501 38.3298 93.6401 38.7398 95.7201 39.9398C97.8201 41.1498 99.5201 42.8498 101.37 44.3998C103.22 45.9498 104.85 47.6198 106.4 49.4698C107.95 51.3198 110.24 52.6698 111.45 54.7698C112.66 56.8698 112.84 59.4498 113.68 61.7298C114.52 64.0098 115.21 66.2298 115.63 68.6398C116.05 71.0498 116.37 73.3398 116.37 75.7998L116.39 75.8098Z" stroke="#090909" stroke-width="2" stroke-linejoin="round"/>
<path d="M113.74 30.6899C113.79 31.3899 115.23 36.2901 115.12 37.1501C114.86 39.1201 114.69 41.5801 113.74 44.1501C113 46.1701 111.99 48.3701 110.86 50.6801C109.88 52.6701 107.86 54.2801 106.61 56.4501C105.49 58.4101 104.44 60.5101 103.11 62.5901C101.88 64.5201 100.57 66.4701 99.1701 68.4701C97.8501 70.3601 96.7501 72.4701 95.2901 74.4101C93.9001 76.2701 92.2601 77.9801 90.7501 79.8701C89.2901 81.6901 88.4601 84.0801 86.9001 85.9101C85.3401 87.7401 83.7001 89.4701 82.1301 91.2001C80.5101 92.9901 78.5601 94.4201 76.9501 96.0901C75.2701 97.8301 73.2201 99.1301 71.5701 100.73C69.8101 102.43 67.8801 103.79 66.1701 105.31C64.3301 106.95 62.5401 108.44 60.7801 109.87C58.8301 111.45 57.2301 113.18 55.4101 114.47C53.3101 115.96 51.4501 117.39 49.5801 118.45C47.2001 119.79 45.2101 121.19 43.3001 121.76C41.7101 122.24 40.1401 122.54 38.8101 122.53" stroke="#090909" stroke-width="2" stroke-linejoin="round" stroke-dasharray="4 4"/>
<path d="M91.85 97.0699C92.13 96.7299 92.2 96.7899 92.48 96.4599C92.98 95.8499 92.5 94.7699 92.28 93.9499C92.24 93.8299 92.31 93.6999 92.28 93.5899C91.77 91.7899 91.98 91.7299 91.47 89.9399C90.96 88.1499 90.53 88.2699 90.02 86.4699C89.35 84.0299 90.29 83.2499 91.19 82.1499C92.89 80.0799 92.76 79.9699 94.46 77.8899C95.12 77.0899 96.05 74.7499 95.25 74.0899C94.45 73.4299 92.33 74.7999 91.67 75.5999C89.97 77.6699 89.9 77.6199 88.2 79.6899C87.3 80.7899 86.69 81.8099 84.15 81.6199C82.29 81.4799 82.33 81.0199 80.47 80.8699C78.61 80.7199 78.6 80.8599 76.75 80.7199C76.64 80.7199 76.52 80.7199 76.4 80.7199C75.55 80.6699 74.67 80.8599 74.18 81.4599C73.9 81.7999 73.69 81.6199 73.41 81.9599C73.33 82.0599 73.42 82.1399 73.34 82.2499C73.17 82.4599 73.09 82.5299 73.52 82.6999C75.87 83.5799 75.83 83.6799 78.18 84.5499C80.53 85.4199 81.78 83.9799 83.1 86.1099C83.96 87.4899 81.68 87.3399 80.65 88.5899C79.62 89.8399 79.65 89.8599 78.62 91.1199C77.69 92.2499 77.66 92.7999 76.52 92.7899C76.26 92.7899 76.26 92.5699 76 92.5699C76 92.5699 76 92.3599 75.99 92.3599C75.08 92.3399 75.08 92.3899 74.16 92.3799C74.13 92.3799 74.09 92.4299 74.07 92.4299C73.84 92.4299 73.68 92.5399 73.46 92.8099C73.08 93.2799 73.21 93.3899 72.82 93.8599C72.5 94.2499 72.25 94.3199 72.68 94.4399C75.11 95.1099 75.52 94.1899 77.47 95.7799C79.42 97.3699 78.61 97.9599 79.75 100.22C79.94 100.61 79.96 100.34 80.28 99.9599C80.66 99.4899 80.64 99.4699 81.02 98.9999C81.25 98.7199 81.25 98.7199 81.22 98.5099C81.2 98.4699 81.51 98.3799 81.5 98.3499C81.31 97.4599 80.99 97.5299 80.8 96.6299C80.75 96.3699 81.14 96.2899 81.09 96.0299C80.85 94.9099 80.86 94.8399 81.79 93.7099C82.82 92.4599 82.78 92.4199 83.81 91.1699C84.84 89.9199 84.27 88.0299 85.79 88.5999C88.14 89.4799 87.22 90.6599 88.54 92.7899C89.86 94.9199 89.84 94.9299 91.16 97.0599C91.41 97.4499 91.61 97.5499 91.79 97.3599C91.88 97.2599 91.81 97.2199 91.91 97.1299C91.93 97.1199 91.86 97.0599 91.86 97.0599L91.85 97.0699Z" fill="#090909"/>
</svg>
