<svg width="70" height="71" viewBox="0 0 70 71" fill="none" xmlns="http://www.w3.org/2000/svg">
<path d="M58.87 35.9197C58.87 38.4597 58.06 40.8897 57.32 43.1697C56.58 45.4497 55.45 47.7597 54.01 49.7297C52.57 51.6997 51 53.7497 49 55.1997C47 56.6497 44.75 57.8797 42.38 58.6497C40.01 59.4197 37.53 59.6797 34.99 59.6797C32.45 59.6797 29.9 59.3597 27.61 58.6197C25.32 57.8797 23.23 56.2497 21.26 54.8197C19.29 53.3897 17.64 51.5697 16.19 49.5797C14.74 47.5897 13.43 45.5497 12.66 43.1797C11.89 40.8097 11.26 38.4597 11.26 35.9297C11.26 33.3997 11.92 30.9597 12.66 28.6697C13.4 26.3797 14.47 24.0297 15.9 22.0597C17.33 20.0897 19.26 18.4797 21.26 17.0297C23.26 15.5797 25.41 14.5197 27.78 13.7497C30.15 12.9797 32.45 12.8697 34.99 12.8697C37.53 12.8697 40.05 12.5697 42.34 13.3097C44.63 14.0497 47.07 15.1497 49.05 16.5797C51.03 18.0097 52.63 20.0697 54.08 22.0597C55.53 24.0497 56.91 26.1797 57.68 28.5497C58.45 30.9197 58.87 33.3897 58.87 35.9197Z" stroke="#090909" stroke-width="2" stroke-linejoin="round"/>
<path d="M48.43 35.9197C48.43 38.4797 47.61 40.8597 47.19 43.1597C46.71 45.7297 46.23 48.0997 45.32 50.1897C44.23 52.6797 43.14 54.9197 41.58 56.4697C39.66 58.3897 37.37 59.6297 35.01 59.6297C32.65 59.6297 30.49 58.2497 28.57 56.3397C27.01 54.7897 25.58 52.7597 24.5 50.2797C23.59 48.1897 22.7 45.8397 22.22 43.2697C21.79 40.9597 21.73 38.4697 21.73 35.9097C21.73 33.3497 22.17 30.9297 22.6 28.6197C23.08 26.0497 23.93 23.7897 24.85 21.6997C25.94 19.2097 26.68 16.6997 28.24 15.1497C30.16 13.2297 32.65 12.6797 35.02 12.6797C37.39 12.6797 39.35 13.7597 41.27 15.6697C42.83 17.2197 44.7 18.9397 45.79 21.4297C46.7 23.5197 47.26 25.9897 47.74 28.5597C48.17 30.8697 48.46 33.3397 48.46 35.8997L48.43 35.9197Z" stroke="#090909" stroke-width="2" stroke-linejoin="round"/>
<path d="M35.3598 12.4297C35.3598 15.7897 35.3598 15.7897 35.3598 19.1397C35.3598 22.4897 34.7498 22.4997 34.7498 25.8497C34.7498 29.1997 34.9198 29.2097 34.9198 32.5597C34.9198 35.9097 34.5898 35.9097 34.5898 39.2697C34.5898 42.6297 34.5798 42.6297 34.5798 45.9797C34.5798 49.3297 35.0498 49.3397 35.0498 52.6997C35.0498 56.0597 34.9898 56.0597 34.9898 59.4197" stroke="#090909" stroke-width="2" stroke-linejoin="round"/>
<path d="M34.9999 46.5398C32.5699 46.5398 30.2999 46.2398 28.0999 45.9198C25.6399 45.5598 23.4099 45.0798 21.3699 44.3898C18.8799 43.5498 16.5099 43.0498 14.8899 41.8298C12.6699 40.1598 11.8799 38.0298 11.8799 35.9198C11.8799 33.8098 12.6999 31.7198 14.9199 30.0498C16.5399 28.8298 18.7699 27.9498 21.2499 27.1198C23.2899 26.4298 25.5299 25.6098 27.9999 25.2598C30.1999 24.9398 32.5699 24.7998 34.9999 24.7998C37.4299 24.7998 39.7499 25.2698 41.9499 25.5898C44.4099 25.9498 46.6499 26.5898 48.6899 27.2698C51.1799 28.1098 53.4999 28.7698 55.1299 29.9898C57.3499 31.6598 58.3799 33.8198 58.3799 35.9298C58.3799 38.0398 57.3199 40.1498 55.0999 41.8198C53.4799 43.0398 51.2899 44.0498 48.8099 44.8898C46.7699 45.5798 44.4699 46.1898 42.0099 46.5498C39.8099 46.8698 37.4399 46.5498 35.0199 46.5498L34.9999 46.5398Z" stroke="#090909" stroke-width="2" stroke-linejoin="round"/>
</svg>
