<svg width="20" height="20" viewBox="0 0 20 20" fill="none" xmlns="http://www.w3.org/2000/svg">
<path d="M18.9718 7.19868C19.2794 8.13209 19.4798 8.97501 19.4986 9.919C19.4863 9.96252 19.4799 10.008 19.4799 10.0544C19.4799 11.0554 19.2561 11.9751 18.9421 12.9189C18.8725 13.1279 18.8081 13.3337 18.745 13.5354C18.4958 14.3311 18.2671 15.0618 17.826 15.6641C17.2648 16.4302 16.463 17.0365 15.6101 17.6606C15.5 17.7413 15.3916 17.8215 15.2845 17.9009C14.5363 18.4551 13.8497 18.9637 13.0451 19.2243C12.1863 19.5025 11.2921 19.5011 10.2752 19.4995C10.1976 19.4994 10.1193 19.4993 10.0402 19.4993C9.03731 19.4993 8.10454 19.2419 7.13733 18.9255C6.88251 18.8421 6.61901 18.7672 6.36367 18.6946L6.36263 18.6943C6.1044 18.6208 5.85357 18.5495 5.60809 18.47C5.11463 18.3101 4.67661 18.1272 4.3163 17.8678C3.52996 17.3016 2.82135 16.5092 2.2243 15.694C1.65041 14.9105 1.21885 13.9747 0.908434 13.013C0.607337 12.08 0.5 11.108 0.5 10.0644C0.5 9.06196 0.724476 8.11151 1.03829 7.15865C1.04625 7.13448 1.0542 7.11033 1.06214 7.0862C1.38228 6.11355 1.69027 5.17784 2.23437 4.43496C2.82958 3.62231 3.53859 2.83804 4.33727 2.26043C4.96507 1.80641 5.71122 1.57639 6.54683 1.31879C6.73862 1.25967 6.93512 1.1991 7.13598 1.13403C7.16174 1.12568 7.18741 1.11736 7.213 1.10907C8.2137 0.784686 9.09194 0.5 10.0604 0.5C11.07 0.5 12.0583 0.741251 13.0136 1.05371C13.9631 1.36429 14.9262 1.78365 15.7139 2.35078C16.4061 2.84915 16.9232 3.55658 17.4925 4.33532C17.5529 4.41795 17.6139 4.50138 17.6757 4.58546C18.2598 5.37944 18.6512 6.22591 18.9718 7.19868Z" stroke="#090909" stroke-linejoin="round"/>
<path d="M15.7546 8.26894H11.8411V4.37878H8.21936V8.26894H4.30588V11.8498H8.21936V15.73H11.8411V11.8498H15.7546V8.26894Z" stroke="#090909" stroke-linejoin="round"/>
</svg>
