<svg width="70" height="70" viewBox="0 0 70 70" fill="none" xmlns="http://www.w3.org/2000/svg">
<g clip-path="url(#clip0_2338_42349)">
<path d="M40.11 52.75C38.8 52.75 38.8 52.58 37.49 52.58C36.18 52.58 36.18 52.51 34.87 52.51C33.56 52.51 33.56 52.85 32.25 52.85C30.94 52.85 30.94 52.31 29.62 52.31C28.3 52.31 27.79 53.58 26.88 52.64C25.97 51.7 26.82 51.18 26.82 49.83C26.82 48.48 26.96 48.48 26.96 47.14C26.96 45.8 26.77 45.79 26.77 44.45C26.77 43.11 27.27 43.1 27.27 41.76C27.27 40.42 27.24 40.41 27.24 39.07C27.24 37.73 26.83 37.72 26.83 36.38C26.83 35.04 26.9 35.04 26.9 33.69C26.9 32.34 26.83 32.34 26.83 31C26.83 29.66 27.19 29.65 27.19 28.3C27.19 26.95 26.8 26.95 26.8 25.6C26.8 24.25 26.88 24.25 26.88 22.9C26.88 21.55 26.88 21.55 26.88 20.2C26.88 18.85 26.04 18.46 26.98 17.49C27.92 16.52 28.3 17.25 29.61 17.25C30.92 17.25 30.92 17.73 32.23 17.73C33.54 17.73 33.54 17.46 34.85 17.46C36.16 17.46 36.16 17.77 37.48 17.77C38.8 17.77 39.32 16.43 40.26 17.34C41.2 18.25 39.95 18.77 39.95 20.05C39.95 21.33 40.24 21.33 40.24 22.6C40.24 23.87 40.08 23.88 40.08 25.16C40.08 26.44 39.96 26.44 39.96 27.72C39.96 29 40.09 29 40.09 30.28C40.09 31.56 39.93 31.56 39.93 32.84C39.93 34.12 40.37 34.12 40.37 35.4" stroke="#090909" stroke-width="2" stroke-linejoin="round"/>
<path d="M27.07 52.6C26.16 53.54 25.69 52.66 24.38 52.66C23.07 52.66 23.07 52.37 21.76 52.37C20.45 52.37 20.45 52.49 19.14 52.49C17.83 52.49 17.27 53.62 16.36 52.68C15.45 51.74 16.69 51.17 16.69 49.81C16.69 48.45 16.33 48.45 16.33 47.09C16.33 45.73 16.4 45.73 16.4 44.37C16.4 43.01 16.31 43.01 16.31 41.65C16.31 40.29 16.59 40.29 16.59 38.93C16.59 37.57 16.33 37.57 16.33 36.21C16.33 34.85 16.41 34.85 16.41 33.48C16.41 32.11 15.55 31.71 16.49 30.73C17.43 29.75 17.83 30.54 19.14 30.54C20.45 30.54 20.45 30.82 21.76 30.82C23.07 30.82 23.07 30.83 24.38 30.83C25.69 30.83 25.96 29.94 26.87 30.88C27.78 31.82 27.05 32.11 27.05 33.48C27.05 34.85 27.13 34.84 27.13 36.2C27.13 37.56 27.02 37.56 27.02 38.92C27.02 40.28 26.98 40.28 26.98 41.64C26.98 43 27.19 43 27.19 44.36C27.19 45.72 26.85 45.72 26.85 47.08C26.85 48.44 26.79 48.46 27.09 49.79C27.42 51.25 28.01 51.63 27.06 52.61L27.07 52.6Z" stroke="#090909" stroke-width="2" stroke-linejoin="round"/>
<path d="M33.37 39.84C32.73 40.94 33.39 41.11 33.39 42.38C33.39 43.65 33.39 43.65 33.39 44.92C33.39 46.19 33.33 46.19 33.33 47.46C33.33 48.73 33.38 48.73 33.38 50C33.38 51.27 32.54 51.6 33.47 52.46C34.47 53.39 34.77 52.56 36.14 52.56C37.51 52.56 37.51 52.65 38.88 52.65C40.25 52.65 40.25 52.55 41.62 52.55C42.99 52.55 42.99 52.4 44.36 52.4C45.73 52.4 45.73 52.37 47.1 52.37C48.47 52.37 48.47 52.72 49.84 52.72C51.21 52.72 51.66 53.56 52.67 52.63C53.6 51.77 52.58 51.27 52.58 50C52.58 48.73 52.47 48.73 52.47 47.46C52.47 46.19 52.56 46.19 52.56 44.92C52.56 43.65 52.56 43.65 52.56 42.38C52.56 41.11 53.15 40.98 52.51 39.89C51.79 38.65 51.33 39.15 50.13 38.36C48.93 37.57 49.07 37.35 47.88 36.56C46.69 35.77 46.62 35.85 45.42 35.06C44.22 34.27 44.44 33.69 43 33.69C41.56 33.69 41.72 34.16 40.52 34.95C39.32 35.74 39.5 36.01 38.3 36.8C37.1 37.59 37.16 37.73 35.86 38.35C34.56 38.97 34.13 38.59 33.4 39.84H33.37Z" stroke="#090909" stroke-width="2" stroke-linejoin="round"/>
<path d="M45.35 52.54C44.52 53.39 44.16 52.5 42.97 52.5C41.78 52.5 41.4 53.4 40.57 52.55C39.74 51.7 40.58 51.31 40.58 50.09C40.58 48.87 40.52 48.87 40.52 47.64C40.52 46.41 39.7 46.04 40.55 45.16C41.4 44.28 41.77 45.2 42.96 45.2C44.15 45.2 44.51 44.34 45.34 45.2C46.17 46.06 45.34 46.42 45.34 47.64C45.34 48.86 45.06 48.9 45.32 50.09C45.59 51.37 46.2 51.66 45.35 52.54Z" stroke="#090909" stroke-width="2" stroke-linejoin="round"/>
</g>
<defs>
<clipPath id="clip0_2338_42349">
<rect width="39.04" height="38.06" fill="white" transform="translate(15 16)"/>
</clipPath>
</defs>
</svg>
