<svg width="20" height="20" viewBox="0 0 20 20" fill="none" xmlns="http://www.w3.org/2000/svg">
<path d="M19.5 10.1572C19.5 10.6274 19.3989 11.0919 19.2501 11.5736C19.1757 11.8144 19.0912 12.0541 19.0032 12.3005C18.9931 12.3286 18.983 12.3569 18.9728 12.3852C18.8952 12.6021 18.8153 12.8252 18.7428 13.0475C18.4318 14.0018 18.0549 14.9263 17.4958 15.7057C16.9186 16.5102 16.2313 17.2332 15.4454 17.8203C14.6421 18.4205 13.7889 18.9205 12.8649 19.2291C12.0929 19.487 11.3124 19.4818 10.3945 19.4758C10.2517 19.4748 10.1055 19.4739 9.95547 19.4739C9.70726 19.4739 9.45986 19.4807 9.22183 19.4872C9.19557 19.4879 9.16942 19.4887 9.14339 19.4894C8.87848 19.4966 8.62505 19.5025 8.37686 19.4989C7.87998 19.4917 7.43051 19.4461 7.0149 19.3087C6.12219 19.0137 5.25336 18.4612 4.43582 17.8504C3.64828 17.262 2.95042 16.5375 2.36342 15.7325C1.75154 14.8934 1.19132 14.0579 0.891459 13.1289C0.587494 12.1872 0.5 11.2038 0.5 10.1472C0.5 9.07432 0.5606 8.04917 0.851445 7.15677C0.987038 6.74074 1.22627 6.33516 1.52322 5.91388C1.67103 5.70419 1.82859 5.49679 1.9911 5.28401C2.00255 5.26902 2.01404 5.25398 2.02554 5.23892C2.17542 5.04275 2.32945 4.84115 2.47454 4.63891C2.5866 4.48272 2.69442 4.32836 2.80012 4.17703C3.29706 3.46559 3.74725 2.82107 4.37104 2.36794C4.97102 1.93211 5.66464 1.71703 6.45633 1.47154C6.66538 1.40672 6.88126 1.33978 7.10406 1.26609C7.34206 1.18738 7.57628 1.10171 7.80118 1.01945C7.82091 1.01223 7.84056 1.00504 7.86013 0.997888C8.10592 0.908056 8.34122 0.822932 8.57644 0.748337C9.04583 0.599476 9.49308 0.5 9.95547 0.5C10.9834 0.5 12.0086 0.635302 12.9089 0.926564C13.313 1.05727 13.7073 1.29818 14.1212 1.60246C14.3271 1.75379 14.5305 1.91514 14.7405 2.08195L14.749 2.08867C14.9538 2.2513 15.1655 2.41948 15.3793 2.57659C15.5644 2.7127 15.7468 2.84136 15.9244 2.9667C16.5996 3.44324 17.207 3.87185 17.6448 4.47945C18.1118 5.12745 18.3488 5.8861 18.6165 6.74318C18.6667 6.9039 18.718 7.06808 18.7721 7.23564C18.8447 7.46067 18.9187 7.67549 18.9904 7.88346C19.2622 8.67244 19.5 9.36278 19.5 10.1371V10.1572Z" stroke="#090909" stroke-linejoin="round"/>
<g clip-path="url(#clip0_2338_42618)">
<path d="M11.48 14.8C10.85 14.8 10.85 14.78 10.23 14.78C9.61001 14.78 9.60001 14.78 8.97001 14.78C8.34001 14.78 8.15001 15.24 7.68001 14.82C7.26001 14.45 7.74001 14.23 7.74001 13.67C7.74001 13.11 7.68001 13.11 7.68001 12.55C7.68001 11.99 7.68001 11.99 7.68001 11.43C7.68001 10.87 7.70001 10.87 7.70001 10.31C7.70001 9.75 7.67001 9.75 7.67001 9.19C7.67001 8.63 7.74001 8.63 7.74001 8.07C7.74001 7.51 7.74001 7.51 7.74001 6.95C7.74001 6.39 7.68001 6.39 7.68001 5.83C7.68001 5.27 7.28001 5.07 7.69001 4.7C8.16001 4.28 8.33001 4.69 8.95001 4.69C9.57001 4.69 9.58001 4.74 10.21 4.74C10.84 4.74 11 4.29 11.49 4.69C11.89 5.01 11.49 5.22 11.49 5.73C11.49 6.24 11.49 6.24 11.49 6.76C11.49 7.28 11.48 7.27 11.48 7.79C11.48 8.31 11.51 8.31 11.51 8.82C11.51 9.33 11.44 9.34 11.44 9.85" stroke="#090909" stroke-linejoin="round"/>
<path d="M7.72 14.78C7.41 15.17 7.21 14.79 6.71 14.79C6.21 14.79 6.21 14.75 5.7 14.75C5.19 14.75 5.01 15.16 4.7 14.77C4.31 14.28 4.66 14.15 4.66 13.52C4.66 12.89 4.72 12.89 4.72 12.27C4.72 11.65 4.67 11.64 4.67 11.02C4.67 10.4 4.67 10.39 4.67 9.76C4.67 9.13 4.27 8.98 4.67 8.49C4.98 8.1 5.2 8.52 5.7 8.52C6.2 8.52 6.2 8.48 6.71 8.48C7.22 8.48 7.41 8.1 7.73 8.5C8.12 8.99 7.73 9.14 7.73 9.76C7.73 10.38 7.76 10.39 7.76 11.01C7.76 11.63 7.72 11.64 7.72 12.26C7.72 12.88 7.6 12.9 7.72 13.52C7.85 14.17 8.13 14.29 7.74 14.78H7.72Z" stroke="#090909" stroke-linejoin="round"/>
<path d="M9.91001 11.12C9.67001 11.68 9.91001 11.73 9.91001 12.33C9.91001 12.93 9.91001 12.94 9.91001 13.55C9.91001 14.16 9.48001 14.34 9.91001 14.77C10.34 15.2 10.51 14.77 11.11 14.77C11.71 14.77 11.71 14.75 12.31 14.75C12.91 14.75 12.91 14.77 13.51 14.77C14.11 14.77 14.3 15.2 14.72 14.77C15.14 14.34 14.72 14.15 14.72 13.55C14.72 12.95 14.7 12.94 14.7 12.33C14.7 11.72 14.94 11.68 14.7 11.12C14.5 10.66 14.34 10.79 13.94 10.48C13.54 10.17 13.54 10.18 13.14 9.88C12.74 9.58 12.83 9.29 12.33 9.29C11.83 9.29 11.94 9.61 11.54 9.91C11.14 10.21 11.18 10.27 10.73 10.51C10.28 10.75 10.13 10.65 9.93001 11.11L9.91001 11.12Z" stroke="#090909" stroke-linejoin="round"/>
<path d="M12.16 12.65V14.77" stroke="#090909" stroke-linejoin="round"/>
</g>
<defs>
<clipPath id="clip0_2338_42618">
<rect width="11.4" height="11.48" fill="white" transform="translate(4 4)"/>
</clipPath>
</defs>
</svg>
