<svg width="70" height="70" viewBox="0 0 70 70" fill="none" xmlns="http://www.w3.org/2000/svg">
<g clip-path="url(#clip0_2338_42364)">
<path d="M18.07 28.49C19.53 28.49 19.53 28.71 20.99 28.71C22.45 28.71 22.45 28.68 23.9 28.68C25.35 28.68 25.36 28.55 26.82 28.55C28.28 28.55 28.28 28.69 29.74 28.69C31.2 28.69 31.2 28.46 32.66 28.46C34.12 28.46 34.12 28.52 35.57 28.52C37.02 28.52 37.03 28.52 38.49 28.52C39.95 28.52 39.95 28.7 41.41 28.7C42.87 28.7 42.87 28.49 44.33 28.49C45.79 28.49 45.79 28.57 47.25 28.57C48.71 28.57 48.71 28.73 50.17 28.73" stroke="#090909" stroke-width="2" stroke-linejoin="round"/>
<path d="M21.92 55.02C23.44 55.02 23.44 54.98 24.97 54.98C26.5 54.98 26.49 54.96 28.02 54.96C29.55 54.96 29.54 54.88 31.06 54.88C32.58 54.88 32.58 54.97 34.11 54.97C35.64 54.97 35.63 54.83 37.16 54.83C38.69 54.83 38.68 54.87 40.21 54.87C41.74 54.87 41.74 55.04 43.26 55.04C44.78 55.04 44.79 55.02 46.31 55.02" stroke="#090909" stroke-width="2" stroke-linejoin="round"/>
<path d="M34.24 19.56C34.24 21.03 34.2 21.03 34.2 22.51C34.2 23.99 34.25 23.98 34.25 25.46C34.25 26.94 34.12 26.93 34.12 28.41C34.12 29.89 34.05 29.88 34.05 31.36C34.05 32.84 33.95 32.83 33.95 34.31C33.95 35.79 34.03 35.78 34.03 37.26C34.03 38.74 34.03 38.73 34.03 40.21C34.03 41.69 34.15 41.68 34.15 43.16C34.15 44.64 34 44.63 34 46.11C34 47.59 34.06 47.59 34.06 49.06C34.06 50.53 34.09 50.54 34.09 52.01C34.09 53.48 34.21 53.49 34.21 54.96" stroke="#090909" stroke-width="2" stroke-linejoin="round"/>
<path d="M18.07 28.57C16.72 28.57 17.41 29.79 16.74 30.96C16.07 32.13 16 32.1 15.33 33.27C14.66 34.44 14.63 34.43 13.95 35.6C13.27 36.77 13.31 36.8 12.63 37.97C11.95 39.14 10.66 39.13 11.33 40.31C12 41.49 12.65 40.31 14 40.31C15.35 40.31 15.35 40.39 16.71 40.39C18.07 40.39 18.06 40.34 19.42 40.34C20.78 40.34 20.78 40.27 22.13 40.27C23.48 40.27 24.13 41.48 24.81 40.3C25.49 39.12 24.12 39.17 23.44 38C22.76 36.83 22.81 36.8 22.13 35.63C21.45 34.46 21.47 34.44 20.8 33.27C20.13 32.1 19.86 32.22 19.48 30.91C19.06 29.46 19.42 28.55 18.07 28.55V28.57Z" stroke="#090909" stroke-width="2" stroke-linejoin="round"/>
<path d="M50.15 28.61C48.8 28.61 49.52 29.8 48.84 30.97C48.16 32.14 48.12 32.12 47.44 33.29C46.76 34.46 46.71 34.43 46.03 35.61C45.35 36.79 45.43 36.83 44.75 38.01C44.07 39.19 42.69 39.16 43.37 40.34C44.05 41.52 44.72 40.37 46.07 40.37C47.42 40.37 47.42 40.4 48.78 40.4C50.14 40.4 50.13 40.4 51.49 40.4C52.85 40.4 52.85 40.38 54.2 40.38C55.55 40.38 56.21 41.51 56.89 40.34C57.57 39.17 56.27 39.16 55.59 37.99C54.91 36.82 54.93 36.8 54.26 35.63C53.59 34.46 53.55 34.48 52.87 33.3C52.19 32.12 51.83 32.28 51.45 30.97C51.03 29.53 51.49 28.62 50.13 28.62L50.15 28.61Z" stroke="#090909" stroke-width="2" stroke-linejoin="round"/>
<path d="M9.71002 40.66C10.93 41.87 11.99 42.75 13.49 43.37C14.99 43.99 16.43 44.49 18.08 44.49C19.73 44.49 21.04 43.83 22.59 43.18C24.14 42.53 25.71 42.35 26.93 41.13" stroke="#090909" stroke-width="2" stroke-linejoin="round"/>
<path d="M59.71 41.86C58.49 43.07 56.76 44.03 55.26 44.65C53.76 45.27 51.79 45.45 50.14 45.44C48.49 45.43 46.5 45.46 44.95 44.81C43.4 44.16 42.29 42.57 41.07 41.35" stroke="#090909" stroke-width="2" stroke-linejoin="round"/>
<path d="M36.12 17.02C36.12 18.13 35.23 19.02 34.11 19.02C32.99 19.02 32.08 18.13 32.08 17.02C32.08 15.91 33 15 34.11 15C35.22 15 36.12 15.91 36.12 17.02Z" stroke="#090909" stroke-width="2" stroke-linejoin="round"/>
</g>
<defs>
<clipPath id="clip0_2338_42364">
<rect width="51.42" height="42.03" fill="white" transform="translate(9 14)"/>
</clipPath>
</defs>
</svg>
