<svg width="20" height="20" viewBox="0 0 20 20" fill="none" xmlns="http://www.w3.org/2000/svg">
<path d="M12.9283 5.41915C12.8785 5.65736 12.9482 5.90546 12.8984 6.12382C12.7092 7.01712 13.1673 7.51342 14.0936 7.32484C14.6116 7.16603 15.0498 6.99727 15.3187 7.80124C15.5379 8.39678 15.5379 8.71442 15.0498 9.01219C14.0239 9.6375 14.0239 10.2529 15.0299 10.8683C15.6773 11.2752 15.6873 11.9601 15.1494 12.5258C14.9104 12.7938 14.6614 12.5457 14.3924 12.5258C13.9841 12.4762 13.5657 12.2479 13.1375 12.6548C12.6793 13.0916 12.7191 13.5184 12.8885 14.0345C13.0478 14.4911 13.0877 14.9079 12.4901 15.1263C11.9522 15.3447 11.5637 15.3447 11.2351 14.7194C10.6375 13.6375 9.80081 13.6077 9.12351 14.64C8.71515 15.2355 8.11754 15.3248 7.57969 14.8186C7.34064 14.6002 7.55976 14.3819 7.58964 14.1636C7.63944 13.8162 7.89841 13.3695 7.65937 13.0221C7.36057 12.5357 6.84264 12.2082 6.18527 12.4166C5.28886 12.6846 5.27889 12.7144 4.93028 11.8807C4.74104 11.4241 4.99005 11.2851 5.33865 11.0469C5.68726 10.8286 6.0757 10.6796 6.09562 10.0246C6.1255 9.37939 5.88647 9.04194 5.3785 8.7938C4.94025 8.57544 4.7012 8.29753 4.95021 7.81118C5.16933 7.3546 5.38845 6.92782 6.03586 7.14618C6.41435 7.28514 6.82272 7.47371 7.26097 7.12631C7.7789 6.68959 7.77889 6.20325 7.58964 5.7169C7.4004 5.15115 7.51993 4.87322 8.06774 4.65486C8.61555 4.4365 8.9044 4.55561 9.14344 5.09159C9.33268 5.52831 9.66137 5.7467 10.1992 5.79632C10.9562 5.84595 11.0757 5.30993 11.3446 4.88313C11.5637 4.55559 11.8128 4.45634 12.1414 4.64493C12.5199 4.86329 13.0578 4.84342 13.008 5.43896C13.008 5.45881 12.9582 5.42908 12.9582 5.42908L12.9283 5.41915ZM12.6594 9.88564C12.6594 8.53577 11.5637 7.57297 10.2092 7.57297C8.85459 7.60275 7.78886 8.61516 7.81874 9.93526C7.81874 11.2256 8.88447 12.4067 10.2092 12.4067C11.6136 12.4365 12.5299 11.3348 12.5299 9.88564C12.5299 9.86579 12.6594 9.88564 12.6594 9.88564Z" stroke="#090909" stroke-linejoin="round"/>
<path d="M19.49 9.8958C19.49 9.9291 19.4933 9.96164 19.4995 9.99311C19.4896 10.9729 19.3303 11.8839 19.0454 12.7817C18.7368 13.7538 18.398 14.6957 17.8429 15.4574C17.2862 16.2213 16.5073 16.8372 15.6653 17.4394C14.8509 18.0218 14.0099 18.4816 13.0623 18.7901C12.8779 18.8501 12.6993 18.9108 12.5249 18.97C11.6965 19.2511 10.9632 19.5 10.1594 19.5C9.16586 19.5 8.17251 19.2334 7.21348 18.928C6.32307 18.6444 5.43796 18.1053 4.61896 17.5029C3.82976 16.9224 3.14746 16.2066 2.55487 15.397C1.98634 14.6202 1.64743 13.7409 1.32127 12.756C1.2348 12.4949 1.13667 12.2387 1.04216 11.9937C1.03625 11.9784 1.03037 11.9632 1.0245 11.948C0.935037 11.7162 0.849497 11.4946 0.772903 11.2717C0.610051 10.7979 0.5 10.3519 0.5 9.8958C0.5 9.1351 0.741405 8.42802 1.00534 7.65495C1.0779 7.44242 1.15216 7.22491 1.22358 6.99993C1.52849 6.03937 1.8975 5.09048 2.45588 4.32424C3.01258 3.56029 3.79147 2.94436 4.63348 2.34219C5.46023 1.75094 6.28928 1.257 7.22652 0.95184C8.17952 0.641544 9.12305 0.5 10.1394 0.5C11.2223 0.5 12.2251 0.504414 13.1122 0.793086C13.9074 1.05184 14.6362 1.58288 15.407 2.14448C15.4918 2.20626 15.5771 2.26842 15.663 2.33062C16.4711 2.91537 17.2043 3.58393 17.7716 4.37158C18.3312 5.14872 18.6706 6.03861 18.997 7.03417C19.3133 7.99877 19.49 8.8884 19.49 9.8958Z" stroke="#090909" stroke-linejoin="round"/>
</svg>
