<svg width="70" height="71" viewBox="0 0 70 71" fill="none" xmlns="http://www.w3.org/2000/svg">
<path d="M38.06 35.3899C38.06 36.9299 36.54 37.9099 35 37.9099C33.46 37.9099 32.53 36.9299 32.53 35.3899C32.53 33.8499 33.45 32.48 35 32.48C36.55 32.48 38.06 33.8499 38.06 35.3899Z" stroke="#090909" stroke-width="2" stroke-miterlimit="10"/>
<path d="M24.0299 35.3898C24.0299 36.9298 23.3099 37.8198 21.7599 37.8198C20.2099 37.8198 18.9199 36.9398 18.9199 35.3898C18.9199 33.8398 20.2199 32.0398 21.7599 32.0398C23.2999 32.0398 24.0299 33.8498 24.0299 35.3898Z" stroke="#090909" stroke-width="2" stroke-miterlimit="10"/>
<path d="M45.95 35.3899C45.95 36.9299 46.7 37.8099 48.24 37.8099C49.78 37.8099 51.3699 36.9299 51.3699 35.3899C51.3699 33.8499 49.79 32.8999 48.24 32.8999C46.69 32.8999 45.95 33.8499 45.95 35.3899Z" stroke="#090909" stroke-width="2" stroke-miterlimit="10"/>
</svg>
