<svg width="156" height="156" viewBox="0 0 156 156" fill="none" xmlns="http://www.w3.org/2000/svg">
<g clip-path="url(#clip0_2297_41688)">
<path d="M97.83 48.77C98.98 51.1 96.56 50.88 95.42 53.21C94.28 55.54 94.88 55.84 93.74 58.17C92.6 60.5 93.25 61.13 91.04 62.49C88.83 63.85 88.53 62.38 85.89 62.38C83.25 62.38 82.83 61.24 80.77 62.89C79.13 64.2 79.82 64.96 80.69 66.87C81.72 69.11 82.09 68.92 83.85 70.65C85.61 72.38 85.67 72.32 87.43 74.05C89.19 75.78 92.07 74.99 91.35 77.35C90.68 79.54 88.88 77.38 86.59 77.38C84.3 77.38 84.3 77.11 82.02 77.11C79.74 77.11 79.73 77.6 77.45 77.6C75.17 77.6 75.16 76.94 72.87 76.94C70.58 76.94 70.58 77 68.29 77C66 77 64.74 79.37 64.06 77.19C63.33 74.83 65.68 75.79 67.43 74.06C69.18 72.33 69.01 72.15 70.77 70.42C72.53 68.69 72.96 69.04 73.99 66.8C74.87 64.89 75.69 64.28 74.04 62.97C71.98 61.33 71.61 62.68 68.97 62.68C66.33 62.68 65.94 64.1 63.69 62.71C61.44 61.32 62.29 60.5 61.16 58.17C60.03 55.84 59.97 55.86 58.83 53.52C57.69 51.18 55.52 50.93 56.66 48.6C57.66 46.55 59.15 48.38 61.43 48.38C63.71 48.38 63.71 48.82 66 48.82C68.29 48.82 68.28 48.93 70.57 48.93C72.86 48.93 72.85 48.72 75.14 48.72C77.43 48.72 77.42 48.49 79.71 48.49C82 48.49 81.99 48.72 84.28 48.72C86.57 48.72 86.57 48.62 88.85 48.62C91.13 48.62 91.23 49.37 93.45 48.82C95.84 48.23 96.82 46.73 97.83 48.78V48.77Z" fill="#F6FF94"/>
<path d="M78.12 48.69C78.12 50.88 78.2 50.88 78.2 53.07C78.2 55.26 77.25 55.26 77.25 57.45C77.25 59.64 78.26 59.64 78.26 61.83C78.26 64.02 78.8 64.02 78.8 66.21C78.8 68.4 76.99 68.4 76.99 70.6C76.99 72.8 77.06 72.79 77.06 74.99C77.06 77.19 77.04 77.18 77.04 79.38" stroke="#00EAA4" stroke-width="2" stroke-linejoin="round"/>
<path d="M65.76 48.69C65.76 50.2 67.23 51.35 67.75 52.68C68.27 54.01 68.2 55.72 69.04 56.86C69.97 58.12 70.75 59.54 71.71 60.43C73.56 62.15 75.54 60.52 75.55 62.7C75.56 64.88 75.53 65.07 74.75 67.15C73.97 69.23 72.58 68.72 71.8 70.8C71.02 72.88 70.89 72.84 70.12 74.93C69.35 77.02 70.1 77.3 69.32 79.39" stroke="#00EAA4" stroke-width="2" stroke-linejoin="round"/>
<path d="M89.33 48.69C89.33 50.13 89.68 51.75 89.1 53.1C88.52 54.45 87.97 56 87.11 57.14C86.18 58.37 84.37 58.84 83.43 59.76C81.64 61.52 79.63 60.54 79.66 62.71C79.69 64.88 80.82 64.87 81.6 66.95C82.38 69.03 81.99 69.18 82.76 71.27C83.53 73.36 83.59 73.34 84.36 75.43C85.13 77.52 85.92 77.22 86.7 79.31" stroke="#00EAA4" stroke-width="2" stroke-linejoin="round"/>
<path d="M97.83 48.77C98.98 51.1 96.56 50.88 95.42 53.21C94.28 55.54 94.88 55.84 93.74 58.17C92.6 60.5 93.25 61.13 91.04 62.49C88.83 63.85 88.53 62.38 85.89 62.38C83.25 62.38 82.83 61.24 80.77 62.89C79.13 64.2 79.82 64.96 80.69 66.87C81.72 69.11 82.09 68.92 83.85 70.65C85.61 72.38 85.67 72.32 87.43 74.05C89.19 75.78 92.07 74.99 91.35 77.35C90.68 79.54 88.88 77.38 86.59 77.38C84.3 77.38 84.3 77.11 82.02 77.11C79.74 77.11 79.73 77.6 77.45 77.6C75.17 77.6 75.16 76.94 72.87 76.94C70.58 76.94 70.58 77 68.29 77C66 77 64.74 79.37 64.06 77.19C63.33 74.83 65.68 75.79 67.43 74.06C69.18 72.33 69.01 72.15 70.77 70.42C72.53 68.69 72.96 69.04 73.99 66.8C74.87 64.89 75.69 64.28 74.04 62.97C71.98 61.33 71.61 62.68 68.97 62.68C66.33 62.68 65.94 64.1 63.69 62.71C61.44 61.32 62.29 60.5 61.16 58.17C60.03 55.84 59.97 55.86 58.83 53.52C57.69 51.18 55.52 50.93 56.66 48.6C57.66 46.55 59.15 48.38 61.43 48.38C63.71 48.38 63.71 48.82 66 48.82C68.29 48.82 68.28 48.93 70.57 48.93C72.86 48.93 72.85 48.72 75.14 48.72C77.43 48.72 77.42 48.49 79.71 48.49C82 48.49 81.99 48.72 84.28 48.72C86.57 48.72 86.57 48.62 88.85 48.62C91.13 48.62 91.23 49.37 93.45 48.82C95.84 48.23 96.82 46.73 97.83 48.78V48.77Z" stroke="#090909" stroke-width="2" stroke-linejoin="round"/>
<path d="M109.02 48.82C107.47 50.35 106.72 48.09 104.54 48.09C102.36 48.09 102.36 48.47 100.19 48.47C98.02 48.47 98.01 48.08 95.84 48.08C93.67 48.08 93.67 48.27 91.49 48.27C89.31 48.27 89.31 48.11 87.14 48.11C84.97 48.11 84.97 48.65 82.79 48.65C80.61 48.65 80.61 48.12 78.44 48.12C76.27 48.12 76.26 48.12 74.09 48.12C71.92 48.12 71.91 49.06 69.74 49.06C67.57 49.06 67.56 48.23 65.39 48.23C63.22 48.23 63.21 49.32 61.04 49.32C58.87 49.32 58.86 48.99 56.69 48.99C54.52 48.99 54.51 48.74 52.33 48.74C50.15 48.74 50.15 48.25 47.97 48.25C45.79 48.25 45.45 49.92 43.9 48.4C42.35 46.88 43.31 46.55 43.31 44.4C43.31 42.25 43.4 42.25 43.4 40.1C43.4 37.95 42.47 37.7 44 36.19C45.53 34.68 45.79 35.98 47.97 35.98C50.15 35.98 50.15 35.44 52.32 35.44C54.49 35.44 54.5 35.18 56.67 35.18C58.84 35.18 58.84 35.9 61.02 35.9C63.2 35.9 63.2 36.22 65.37 36.22C67.54 36.22 67.54 35.96 69.72 35.96C71.9 35.96 71.9 36.25 74.07 36.25C76.24 36.25 76.25 36.21 78.42 36.21C80.59 36.21 80.6 35.61 82.77 35.61C84.94 35.61 84.95 36.27 87.12 36.27C89.29 36.27 89.3 35.41 91.47 35.41C93.64 35.41 93.65 35.41 95.82 35.41C97.99 35.41 98 36.1 100.18 36.1C102.36 36.1 102.36 35.25 104.54 35.25C106.72 35.25 107.26 34.35 108.81 35.88C110.36 37.41 108.48 37.94 108.48 40.08C108.48 42.22 108.43 42.28 108.91 44.37C109.44 46.68 110.55 47.29 109.02 48.8V48.82Z" fill="#F6FF94"/>
<path d="M43.59 44.22C45.77 44.22 45.77 44.71 47.94 44.71C50.11 44.71 50.12 45.09 52.29 45.09C54.46 45.09 54.47 44.2 56.64 44.2C58.81 44.2 58.81 44.12 60.99 44.12C63.17 44.12 63.17 44.26 65.34 44.26C67.51 44.26 67.51 44.37 69.69 44.37C71.87 44.37 71.87 43.84 74.04 43.84C76.21 43.84 76.22 44.94 78.39 44.94C80.56 44.94 80.57 43.85 82.74 43.85C84.91 43.85 84.92 44.37 87.09 44.37C89.26 44.37 89.27 44.78 91.44 44.78C93.61 44.78 93.62 44.1 95.79 44.1C97.96 44.1 97.97 44.68 100.15 44.68C102.33 44.68 102.33 44.36 104.51 44.36C106.69 44.36 106.69 44.96 108.87 44.96" stroke="#00EAA4" stroke-width="2" stroke-linejoin="round"/>
<path d="M43.59 39.99C45.77 39.99 45.77 40.48 47.94 40.48C50.11 40.48 50.12 40.86 52.29 40.86C54.46 40.86 54.47 39.97 56.64 39.97C58.81 39.97 58.81 39.89 60.99 39.89C63.17 39.89 63.17 40.03 65.34 40.03C67.51 40.03 67.51 40.14 69.69 40.14C71.87 40.14 71.87 39.61 74.04 39.61C76.21 39.61 76.22 40.71 78.39 40.71C80.56 40.71 80.57 39.62 82.74 39.62C84.91 39.62 84.92 40.14 87.09 40.14C89.26 40.14 89.27 40.55 91.44 40.55C93.61 40.55 93.62 39.87 95.79 39.87C97.96 39.87 97.97 40.45 100.15 40.45C102.33 40.45 102.33 40.13 104.51 40.13C106.69 40.13 106.69 40.73 108.87 40.73" stroke="#00EAA4" stroke-width="2" stroke-linejoin="round"/>
<path d="M109.02 48.82C107.47 50.35 106.72 48.09 104.54 48.09C102.36 48.09 102.36 48.47 100.19 48.47C98.02 48.47 98.01 48.08 95.84 48.08C93.67 48.08 93.67 48.27 91.49 48.27C89.31 48.27 89.31 48.11 87.14 48.11C84.97 48.11 84.97 48.65 82.79 48.65C80.61 48.65 80.61 48.12 78.44 48.12C76.27 48.12 76.26 48.12 74.09 48.12C71.92 48.12 71.91 49.06 69.74 49.06C67.57 49.06 67.56 48.23 65.39 48.23C63.22 48.23 63.21 49.32 61.04 49.32C58.87 49.32 58.86 48.99 56.69 48.99C54.52 48.99 54.51 48.74 52.33 48.74C50.15 48.74 50.15 48.25 47.97 48.25C45.79 48.25 45.45 49.92 43.9 48.4C42.35 46.88 43.31 46.55 43.31 44.4C43.31 42.25 43.4 42.25 43.4 40.1C43.4 37.95 42.47 37.7 44 36.19C45.53 34.68 45.79 35.98 47.97 35.98C50.15 35.98 50.15 35.44 52.32 35.44C54.49 35.44 54.5 35.18 56.67 35.18C58.84 35.18 58.84 35.9 61.02 35.9C63.2 35.9 63.2 36.22 65.37 36.22C67.54 36.22 67.54 35.96 69.72 35.96C71.9 35.96 71.9 36.25 74.07 36.25C76.24 36.25 76.25 36.21 78.42 36.21C80.59 36.21 80.6 35.61 82.77 35.61C84.94 35.61 84.95 36.27 87.12 36.27C89.29 36.27 89.3 35.41 91.47 35.41C93.64 35.41 93.65 35.41 95.82 35.41C97.99 35.41 98 36.1 100.18 36.1C102.36 36.1 102.36 35.25 104.54 35.25C106.72 35.25 107.26 34.35 108.81 35.88C110.36 37.41 108.48 37.94 108.48 40.08C108.48 42.22 108.43 42.28 108.91 44.37C109.44 46.68 110.55 47.29 109.02 48.8V48.82Z" stroke="#090909" stroke-width="2" stroke-linejoin="round"/>
<path d="M111.95 76.95C113.15 78.68 110.8 79.32 109.88 81.22C108.96 83.12 108.17 82.73 107.25 84.62C106.33 86.51 107.38 87.03 106.46 88.92C105.54 90.81 105.57 90.83 104.64 92.73C103.71 94.63 103 94.28 102.07 96.17C101.48 97.37 100.46 97.99 99.37 98.67C98.28 99.35 97.28 99.89 95.94 99.89C93.5 99.89 93.5 100.27 91.07 100.27C88.64 100.27 88.42 99.1 86.43 100.5C85.03 101.49 86.3 101.89 86.3 103.6C86.3 105.31 84.94 105.75 85.73 107.28C86.85 109.48 87.92 108.82 89.68 110.55C91.44 112.28 91.17 112.56 92.93 114.29C94.69 116.02 94.56 116.16 96.33 117.89C98.1 119.62 100.4 118.34 99.74 120.73C99.15 122.89 98.08 121.17 95.84 121.17C93.6 121.17 93.6 120.35 91.36 120.35C89.12 120.35 89.12 121.1 86.88 121.1C84.64 121.1 84.64 120.8 82.4 120.8C80.16 120.8 80.16 121.21 77.92 121.21C75.68 121.21 75.68 121.17 73.44 121.17C71.2 121.17 71.2 120.74 68.96 120.74C66.72 120.74 66.72 120.58 64.48 120.58C62.24 120.58 62.24 121.23 59.99 121.23C57.74 121.23 56.27 123.01 55.67 120.85C55.01 118.47 57.1 118.99 58.86 117.27C60.62 115.55 60.7 115.62 62.46 113.89C64.22 112.16 64.15 112.09 65.92 110.35C67.69 108.61 68.39 109.21 69.52 107C70.3 105.47 69.9 105.33 69.9 103.62C69.9 101.91 70.65 101.69 69.25 100.7C67.26 99.3 67.18 99.96 64.74 99.96C62.3 99.96 62.3 100.75 59.87 100.75C58.53 100.75 56.96 100.27 55.87 99.59C54.78 98.91 53.76 97.66 53.18 96.46C52.26 94.57 52.71 94.34 51.79 92.45C50.87 90.56 51.02 90.48 50.1 88.59C49.18 86.7 48.71 86.92 47.79 85.03C46.87 83.14 47.62 82.76 46.7 80.87C45.78 78.98 43.05 78.98 44.25 77.24C45.52 75.4 46.59 76.81 48.83 76.81C51.07 76.81 51.07 76.8 53.3 76.8C55.53 76.8 55.54 77.67 57.77 77.67C60 77.67 60 77.43 62.24 77.43C64.48 77.43 64.48 77.9 66.71 77.9C68.94 77.9 68.95 77.91 71.18 77.91C73.41 77.91 73.42 77.25 75.65 77.25C77.88 77.25 77.89 77.34 80.12 77.34C82.35 77.34 82.36 77.9 84.59 77.9C86.82 77.9 86.83 76.77 89.06 76.77C91.29 76.77 91.3 77.08 93.53 77.08C95.76 77.08 95.77 76.73 98 76.73C100.23 76.73 100.24 77.07 102.48 77.07C104.72 77.07 104.74 77.7 106.9 77.12C109.52 76.42 110.66 75.14 111.94 76.98L111.95 76.95Z" fill="#F6FF94"/>
<path d="M78.22 77.3C78.22 79.48 78.34 79.48 78.34 81.65C78.34 83.82 76.98 83.83 76.98 86.01C76.98 88.19 78.42 88.19 78.42 90.37C78.42 92.55 79.19 92.55 79.19 94.73C79.19 96.91 76.62 96.91 76.62 99.09C76.62 101.27 76.72 101.27 76.72 103.45C76.72 105.63 76.69 105.63 76.69 107.81C76.69 109.99 77.43 109.99 77.43 112.17C77.43 114.35 78.25 114.35 78.25 116.53C78.25 118.71 77.72 118.71 77.72 120.89" stroke="#00EAA4" stroke-width="2" stroke-linejoin="round"/>
<path d="M56.25 77.3C56.25 78.75 58.18 79.89 58.66 81.37C59.11 82.74 58.49 84.57 59.24 85.92C59.99 87.27 60.33 88.84 61.23 90.06C62.13 91.28 63.77 91.93 64.75 93.04C65.78 94.21 67.63 94.49 68.64 95.5C69.81 96.67 69.49 99.24 70.46 100.11C72.49 101.91 73.55 99.95 73.39 102.18C73.24 104.23 73.65 104.13 72.77 105.99C71.89 107.85 71.05 107.46 70.17 109.32C69.29 111.18 70.24 111.63 69.35 113.49C68.46 115.35 67.65 114.97 66.76 116.83C65.87 118.69 66.88 119.17 65.99 121.03" stroke="#00EAA4" stroke-width="2" stroke-linejoin="round"/>
<path d="M98.54 77.3C98.54 78.69 99.25 80.41 98.7 81.91C98.21 83.23 97.93 84.96 97.14 86.3C96.4 87.55 94.32 88.04 93.42 89.25C92.52 90.46 91.1 91.19 90.14 92.3C89.13 93.47 88.51 94.91 87.52 95.93C86.37 97.11 84.89 97.73 83.94 98.62C81.98 100.47 80.22 100.11 80.4 102.33C80.57 104.38 82.44 103.97 83.32 105.83C84.2 107.69 83.02 108.25 83.9 110.12C84.78 111.99 86.35 111.24 87.23 113.1C88.11 114.96 88.11 114.97 89 116.83C89.89 118.69 88.63 119.29 89.51 121.15" stroke="#00EAA4" stroke-width="2" stroke-linejoin="round"/>
<path d="M111.95 76.95C113.15 78.68 110.8 79.32 109.88 81.22C108.96 83.12 108.17 82.73 107.25 84.62C106.33 86.51 107.38 87.03 106.46 88.92C105.54 90.81 105.57 90.83 104.64 92.73C103.71 94.63 103 94.28 102.07 96.17C101.48 97.37 100.46 97.99 99.37 98.67C98.28 99.35 97.28 99.89 95.94 99.89C93.5 99.89 93.5 100.27 91.07 100.27C88.64 100.27 88.42 99.1 86.43 100.5C85.03 101.49 86.3 101.89 86.3 103.6C86.3 105.31 84.94 105.75 85.73 107.28C86.85 109.48 87.92 108.82 89.68 110.55C91.44 112.28 91.17 112.56 92.93 114.29C94.69 116.02 94.56 116.16 96.33 117.89C98.1 119.62 100.4 118.34 99.74 120.73C99.15 122.89 98.08 121.17 95.84 121.17C93.6 121.17 93.6 120.35 91.36 120.35C89.12 120.35 89.12 121.1 86.88 121.1C84.64 121.1 84.64 120.8 82.4 120.8C80.16 120.8 80.16 121.21 77.92 121.21C75.68 121.21 75.68 121.17 73.44 121.17C71.2 121.17 71.2 120.74 68.96 120.74C66.72 120.74 66.72 120.58 64.48 120.58C62.24 120.58 62.24 121.23 59.99 121.23C57.74 121.23 56.27 123.01 55.67 120.85C55.01 118.47 57.1 118.99 58.86 117.27C60.62 115.55 60.7 115.62 62.46 113.89C64.22 112.16 64.15 112.09 65.92 110.35C67.69 108.61 68.39 109.21 69.52 107C70.3 105.47 69.9 105.33 69.9 103.62C69.9 101.91 70.65 101.69 69.25 100.7C67.26 99.3 67.18 99.96 64.74 99.96C62.3 99.96 62.3 100.75 59.87 100.75C58.53 100.75 56.96 100.27 55.87 99.59C54.78 98.91 53.76 97.66 53.18 96.46C52.26 94.57 52.71 94.34 51.79 92.45C50.87 90.56 51.02 90.48 50.1 88.59C49.18 86.7 48.71 86.92 47.79 85.03C46.87 83.14 47.62 82.76 46.7 80.87C45.78 78.98 43.05 78.98 44.25 77.24C45.52 75.4 46.59 76.81 48.83 76.81C51.07 76.81 51.07 76.8 53.3 76.8C55.53 76.8 55.54 77.67 57.77 77.67C60 77.67 60 77.43 62.24 77.43C64.48 77.43 64.48 77.9 66.71 77.9C68.94 77.9 68.95 77.91 71.18 77.91C73.41 77.91 73.42 77.25 75.65 77.25C77.88 77.25 77.89 77.34 80.12 77.34C82.35 77.34 82.36 77.9 84.59 77.9C86.82 77.9 86.83 76.77 89.06 76.77C91.29 76.77 91.3 77.08 93.53 77.08C95.76 77.08 95.77 76.73 98 76.73C100.23 76.73 100.24 77.07 102.48 77.07C104.72 77.07 104.74 77.7 106.9 77.12C109.52 76.42 110.66 75.14 111.94 76.98L111.95 76.95Z" stroke="#090909" stroke-width="2" stroke-linejoin="round"/>
</g>
<defs>
<clipPath id="clip0_2297_41688">
<rect width="71.28" height="88.91" fill="white" transform="translate(42 34)"/>
</clipPath>
</defs>
</svg>
