<svg width="70" height="70" viewBox="0 0 70 70" fill="none" xmlns="http://www.w3.org/2000/svg">
<g clip-path="url(#clip0_2338_42251)">
<path d="M45.22 21.6804C46 22.6904 44.59 22.7004 44.03 23.8404C43.47 24.9804 43.77 25.1304 43.21 26.2704C42.65 27.4104 42.97 27.7204 41.88 28.3904C40.79 29.0604 40.65 28.3304 39.36 28.3304C38.07 28.3304 37.86 27.7704 36.85 28.5804C36.04 29.2204 36.31 29.6304 36.81 30.5304C37.7 32.1104 37.93 31.9604 39.22 33.2404C40.51 34.5204 42.33 33.8704 41.8 35.6004C41.31 37.2104 40.26 35.7404 38.58 35.7404C36.9 35.7404 36.9 35.6904 35.22 35.6904C33.54 35.6904 33.54 35.5604 31.85 35.5604C30.16 35.5604 28.83 37.3004 28.34 35.6904C27.81 33.9604 29.9 34.5004 31.19 33.2204C32.48 31.9404 32.89 32.2004 33.78 30.6204C34.28 29.7204 34.57 28.9904 33.77 28.3504C32.76 27.5404 32.36 28.3504 31.07 28.3504C29.78 28.3504 29.6 29.1604 28.5 28.4804C27.4 27.8004 27.8 27.4204 27.25 26.2804C26.7 25.1404 26.67 25.1404 26.11 24.0004C25.55 22.8604 24.37 22.6604 25.15 21.6504C26.03 20.5104 26.58 21.6404 28.02 21.6404C29.46 21.6404 29.46 21.5004 30.89 21.5004C32.32 21.5004 32.33 21.4704 33.77 21.4704C35.21 21.4704 35.21 21.5304 36.65 21.5304C38.09 21.5304 38.09 21.4904 39.53 21.4904C40.97 21.4904 41.02 22.0204 42.43 21.7104C43.92 21.3704 44.35 20.5704 45.23 21.7104L45.22 21.6804Z" stroke="#090909" stroke-width="2" stroke-linejoin="round"/>
<path d="M18.62 18.3504C20.07 18.3504 20.07 18.5904 21.53 18.5904C22.99 18.5904 22.98 18.7804 24.44 18.7804C25.9 18.7804 25.89 18.3504 27.35 18.3504C28.81 18.3504 28.8 18.3104 30.26 18.3104C31.72 18.3104 31.71 18.3804 33.17 18.3804C34.63 18.3804 34.62 18.4304 36.08 18.4304C37.54 18.4304 37.53 18.1704 38.99 18.1704C40.45 18.1704 40.45 18.7104 41.9 18.7104C43.35 18.7104 43.36 18.1804 44.81 18.1804C46.26 18.1804 46.27 18.4404 47.73 18.4404C49.19 18.4404 49.19 18.6404 50.65 18.6404" stroke="#090909" stroke-width="2" stroke-linejoin="round"/>
<path d="M50.73 21.7204C49.74 22.7904 49.17 21.3604 47.72 21.3604C46.27 21.3604 46.27 21.6804 44.81 21.6804C43.35 21.6804 43.36 21.8604 41.9 21.8604C40.44 21.8604 40.45 21.8604 38.99 21.8604C37.53 21.8604 37.54 21.4504 36.08 21.4504C34.62 21.4504 34.63 21.5704 33.17 21.5704C31.71 21.5704 31.72 21.3504 30.26 21.3504C28.8 21.3504 28.8 21.3504 27.35 21.3504C25.9 21.3504 25.89 21.6704 24.44 21.6704C22.99 21.6704 22.98 21.6304 21.52 21.6304C20.06 21.6304 19.79 22.5204 18.8 21.4504C17.73 20.2904 18.33 20.0504 18.33 18.4704C18.33 16.8904 17.44 16.3904 18.51 15.2304C19.5 14.1604 20.05 15.0204 21.51 15.0204C22.97 15.0204 22.96 15.1804 24.42 15.1804C25.88 15.1804 25.87 15.2004 27.33 15.2004C28.79 15.2004 28.78 15.6004 30.24 15.6004C31.7 15.6004 31.69 15.4504 33.15 15.4504C34.61 15.4504 34.6 15.2404 36.06 15.2404C37.52 15.2404 37.51 15.1604 38.97 15.1604C40.43 15.1604 40.43 15.3704 41.88 15.3704C43.33 15.3704 43.34 15.3104 44.79 15.3104C46.24 15.3104 46.25 15.1904 47.71 15.1904C49.17 15.1904 49.64 14.2404 50.63 15.3104C51.7 16.4704 50.14 16.9604 50.49 18.5004C50.87 20.1904 51.8 20.5604 50.73 21.7204Z" stroke="#090909" stroke-width="2" stroke-linejoin="round"/>
<path d="M52.15 35.5204C52.9 37.0704 51.26 37.2604 50.51 38.8104C49.76 40.3604 49.37 40.1704 48.61 41.7204C47.85 43.2704 48.37 43.5204 47.62 45.0704C47.05 46.2504 45.59 47.1804 44.28 47.1804C43.09 47.1804 43.09 46.7904 41.89 46.7904C40.69 46.7904 39.98 45.7504 39.29 46.7204C38.32 48.0904 38.73 48.7304 39.37 50.2904C40.01 51.8504 40.68 51.3304 41.84 52.4604C43 53.5904 43.1 53.4904 44.25 54.6204C45.4 55.7504 47.02 55.5204 46.46 57.0404C45.9 58.5604 44.85 56.7604 43.28 56.7604C41.71 56.7604 41.71 56.9904 40.15 56.9904C38.59 56.9904 38.58 56.8004 37.01 56.8004C35.44 56.8004 35.44 56.7004 33.87 56.7004C32.3 56.7004 32.3 56.7304 30.73 56.7304C29.16 56.7304 29.16 57.1604 27.59 57.1604C26.02 57.1604 25.24 58.4004 24.69 56.9304C24.14 55.4604 25.52 55.8204 26.67 54.6904C27.82 53.5604 27.93 53.6604 29.08 52.5304C30.23 51.4004 30.6 51.6704 31.21 50.1704C31.82 48.6704 32.22 48.3104 31.24 46.9404C30.55 45.9704 30.16 46.7904 28.96 46.7904C27.76 46.7904 27.77 46.7104 26.57 46.7104C25.26 46.7104 23.92 46.1904 23.34 45.0104C22.59 43.4604 22.81 43.3604 22.06 41.8104C21.31 40.2604 21.12 40.3504 20.37 38.8004C19.62 37.2504 18.17 37.1804 18.91 35.6204C19.55 34.2704 20.46 35.5304 21.96 35.5304C23.46 35.5304 23.45 35.5904 24.95 35.5904C26.45 35.5904 26.44 35.7804 27.94 35.7804C29.44 35.7804 29.44 35.3304 30.93 35.3304C32.42 35.3304 32.43 35.7504 33.92 35.7504C35.41 35.7504 35.41 35.3604 36.91 35.3604C38.41 35.3604 38.41 35.3604 39.9 35.3604C41.39 35.3604 41.4 35.4104 42.89 35.4104C44.38 35.4104 44.39 35.6604 45.88 35.6604C47.37 35.6604 47.46 36.1204 48.9 35.7404C50.65 35.2804 51.49 34.1504 52.14 35.5004L52.15 35.5204Z" stroke="#090909" stroke-width="2" stroke-linejoin="round"/>
</g>
<defs>
<clipPath id="clip0_2338_42251">
<rect width="36.34" height="44.96" fill="white" transform="translate(17 13.6904)"/>
</clipPath>
</defs>
</svg>
