<svg width="70" height="70" viewBox="0 0 70 70" fill="none" xmlns="http://www.w3.org/2000/svg">
<path d="M56.31 33.4201C54.74 32.0501 53.04 35.3002 52.22 33.3902C51.34 31.3402 54.93 32.0201 54.89 29.7901C54.85 27.5601 54.05 27.4001 52.04 26.4101C50.14 25.4701 49.99 26.3701 47.88 26.4001C45.77 26.4301 45.76 26.5701 43.65 26.6001C41.54 26.6301 41.53 26.2601 39.41 26.2901C37.29 26.3201 37.2 25.8902 35.22 26.6402C33.99 27.1002 34.79 28.0202 33.55 28.4502C31.69 29.1002 31.64 28.7001 29.67 28.6001C27.7 28.5001 27.7 28.5502 25.72 28.4502C23.74 28.3502 23.77 27.9601 21.8 27.8601C19.83 27.7601 19.81 28.0901 17.84 27.9901C15.87 27.8901 15.88 27.6101 13.9 27.5201C11.92 27.4301 11.58 26.3601 9.86003 27.3401C8.77003 27.9601 8.73003 29.3402 9.76003 30.0702C11.36 31.2102 11.78 29.9902 13.74 30.0802C15.7 30.1702 15.69 30.3001 17.65 30.4001C19.61 30.5001 19.6 30.6001 21.56 30.6901C23.52 30.7801 23.52 30.8401 25.48 30.9301C27.44 31.0201 27.44 31.0601 29.4 31.1601C31.36 31.2601 31.6 30.2101 33.39 31.0301C34.83 31.6901 36.29 32.4001 35.28 33.6201C34 35.1901 33.27 33.8602 31.25 33.8902C29.23 33.9202 29.2 33.4601 27.2 33.7301C25.53 33.9501 25.55 34.0801 23.93 34.5301C22.31 34.9801 22.31 34.9701 20.68 35.4201C19.05 35.8701 18.07 34.8501 17.27 36.3401C16.09 38.5401 16.04 39.4401 17.61 41.3801C18.83 42.9001 19.5 41.4901 21.44 41.4601C23.38 41.4301 23.38 41.1501 25.33 41.1201C27.28 41.0901 27.28 41.3201 29.23 41.2901C31.18 41.2601 31.18 41.4001 33.13 41.3701C35.08 41.3401 35.07 40.9501 37.02 40.9201C38.97 40.8901 38.97 40.9701 40.92 40.9401C42.87 40.9101 42.87 40.9801 44.82 40.9401C46.77 40.9001 46.77 40.9701 48.72 40.9401C50.67 40.9101 50.67 41.0001 52.63 40.9701C54.59 40.9401 55.06 42.1101 56.45 40.7301C57.84 39.3501 55.92 38.8601 56.28 37.0201C56.64 35.1801 57.75 34.6302 56.33 33.3902L56.31 33.4201Z" stroke="#090909" stroke-width="2" stroke-linejoin="round"/>
<path d="M18.97 41.4001C20.35 42.5901 20.26 42.6802 21.64 43.8702C23.02 45.0602 22.81 45.4102 24.51 46.0302C26.21 46.6502 26.25 46.2202 28.03 46.1902C29.81 46.1602 29.81 46.0501 31.59 46.0201C33.37 45.9901 33.37 46.1201 35.16 46.0901C36.95 46.0601 36.94 45.8202 38.72 45.7902C40.5 45.7602 40.51 46.0402 42.29 46.0102C44.07 45.9802 44.07 45.9102 45.85 45.8802C47.63 45.8502 47.64 45.8302 49.42 45.8002C51.2 45.7702 51.63 46.8602 52.98 45.6902C54.97 43.9602 54.19 43.3502 55.23 40.9202" stroke="#090909" stroke-width="2" stroke-linejoin="round"/>
<path d="M29.4299 43.6701C29.4499 45.0001 28.3999 46.0801 27.0599 46.1001C25.7299 46.1201 24.6199 45.0801 24.5999 43.7401C24.5799 42.4001 25.6599 41.3001 26.9899 41.2801C28.3199 41.2601 29.4099 42.3301 29.4299 43.6701Z" stroke="#090909" stroke-width="2" stroke-linejoin="round"/>
<path d="M34.27 43.6C34.29 44.93 33.22 46.03 31.89 46.05C30.56 46.07 29.46 45 29.44 43.67C29.42 42.34 30.49 41.25 31.82 41.23C33.15 41.21 34.25 42.27 34.27 43.6Z" stroke="#090909" stroke-width="2" stroke-linejoin="round"/>
<path d="M39.0901 43.5201C39.1101 44.8501 38.0401 45.9701 36.7101 45.9901C35.3801 46.0101 34.2901 44.9301 34.2701 43.6001C34.2501 42.2701 35.3001 41.1602 36.6301 41.1402C37.9601 41.1202 39.0601 42.1901 39.0801 43.5301L39.0901 43.5201Z" stroke="#090909" stroke-width="2" stroke-linejoin="round"/>
<path d="M43.9099 43.4501C43.9299 44.7801 42.8599 45.8701 41.5299 45.8901C40.1999 45.9101 39.0899 44.8601 39.0699 43.5301C39.0499 42.2001 40.1299 41.0901 41.4599 41.0701C42.7899 41.0501 43.8899 42.1201 43.9099 43.4501Z" stroke="#090909" stroke-width="2" stroke-linejoin="round"/>
<path d="M48.74 43.3801C48.76 44.7101 47.69 45.8201 46.36 45.8401C45.03 45.8601 43.95 44.7901 43.93 43.4601C43.91 42.1301 44.96 41.0601 46.29 41.0401C47.62 41.0201 48.73 42.0601 48.75 43.3901L48.74 43.3801Z" stroke="#090909" stroke-width="2" stroke-linejoin="round"/>
<path d="M53.56 43.3C53.58 44.63 52.52 45.72 51.18 45.74C49.84 45.76 48.75 44.7 48.73 43.37C48.71 42.04 49.77 40.9199 51.1 40.8999C52.43 40.8799 53.53 41.9599 53.55 43.2899L53.56 43.3Z" stroke="#090909" stroke-width="2" stroke-linejoin="round"/>
</svg>
