<svg width="156" height="156" viewBox="0 0 156 156" fill="none" xmlns="http://www.w3.org/2000/svg">
<path d="M128.07 71.1802C124.5 68.0602 120.27 75.9302 118.4 71.5702C116.39 66.9002 124.9 68.4802 124.83 63.4002C124.76 58.3202 122.33 58.2702 117.9 55.7702C114.55 53.8802 114.26 55.7402 110.41 55.8002C106.56 55.8602 106.55 55.3902 102.7 55.4402C98.8501 55.4902 98.8401 55.1802 94.9901 55.2402C91.1401 55.3002 91.1401 55.2902 87.2801 55.3502C83.4201 55.4102 82.9201 54.0002 79.3901 55.5502C76.6501 56.7502 78.9901 60.1502 76.2101 61.2502C72.6301 62.6602 72.2001 60.2902 68.3601 60.1002C64.5201 59.9102 64.4901 60.3402 60.6501 60.1502C56.8101 59.9602 56.8201 59.6402 52.9701 59.4502C49.1201 59.2602 49.1101 59.5702 45.2601 59.3802C41.4101 59.1902 41.4301 58.7902 37.5901 58.6002C33.7401 58.4102 33.7101 59.1202 29.8601 58.9302C26.0101 58.7402 25.6601 56.4102 22.4501 58.5502C20.0701 60.1402 19.7401 61.9802 21.9501 63.8002C24.8901 66.2402 25.7101 64.2502 29.5301 64.4402C33.3501 64.6302 33.3701 64.1202 37.1901 64.3102C41.0101 64.5002 41.0001 64.7602 44.8201 64.9502C48.6401 65.1402 48.6501 64.9702 52.4701 65.1602C56.2901 65.3502 56.3001 65.2102 60.1201 65.3902C63.9401 65.5702 63.9401 65.6502 67.7601 65.8302C71.5801 66.0102 72.0701 64.5602 75.4901 66.2702C78.7101 67.8802 81.0301 68.7402 80.0201 72.2002C79.1601 75.1402 76.7701 72.0602 73.7001 72.1102C70.6301 72.1602 70.6401 72.8002 67.5701 72.8502C64.5001 72.9002 64.4601 71.9802 61.4301 72.4502C57.6501 73.0402 57.7801 73.6102 54.1001 74.6302C50.4201 75.6502 50.3001 75.2602 46.6101 76.2802C42.9201 77.3002 42.1701 75.9902 39.5401 78.7702C37.5901 80.8302 39.0901 81.3702 39.1301 84.2102C39.1701 87.0502 36.8801 88.6002 39.1501 90.2902C42.1101 92.4902 43.1501 89.6302 46.8401 89.5702C50.5301 89.5102 50.5401 89.7902 54.2301 89.7302C57.9201 89.6702 57.9301 89.9702 61.6201 89.9202C65.3101 89.8702 65.3101 89.4702 69.0001 89.4102C72.6901 89.3502 72.7001 89.8502 76.3901 89.7902C80.0801 89.7302 80.0801 89.3402 83.7701 89.2802C87.4601 89.2202 87.4701 89.5202 91.1601 89.4702C94.8501 89.4202 94.8501 89.3202 98.5501 89.2702C102.25 89.2202 102.24 88.9802 105.94 88.9302C109.64 88.8802 109.63 88.7202 113.33 88.6702C117.03 88.6202 117.03 89.0802 120.73 89.0202C124.43 88.9602 125.34 91.0302 127.72 88.1902C130.47 84.9102 127.36 84.2102 128.27 80.0402C129.28 75.4102 131.31 73.9802 128.09 71.1602L128.07 71.1802Z" fill="#00EAA4"/>
<path d="M128.07 71.1802C124.5 68.0602 120.27 75.9302 118.4 71.5702C116.39 66.9002 124.9 68.4802 124.83 63.4002C124.76 58.3202 122.33 58.2702 117.9 55.7702C114.55 53.8802 114.26 55.7402 110.41 55.8002C106.56 55.8602 106.55 55.3902 102.7 55.4402C98.8501 55.4902 98.8401 55.1802 94.9901 55.2402C91.1401 55.3002 91.1401 55.2902 87.2801 55.3502C83.4201 55.4102 82.9201 54.0002 79.3901 55.5502C76.6501 56.7502 78.9901 60.1502 76.2101 61.2502C72.6301 62.6602 72.2001 60.2902 68.3601 60.1002C64.5201 59.9102 64.4901 60.3402 60.6501 60.1502C56.8101 59.9602 56.8201 59.6402 52.9701 59.4502C49.1201 59.2602 49.1101 59.5702 45.2601 59.3802C41.4101 59.1902 41.4301 58.7902 37.5901 58.6002C33.7401 58.4102 33.7101 59.1202 29.8601 58.9302C26.0101 58.7402 25.6601 56.4102 22.4501 58.5502C20.0701 60.1402 19.7401 61.9802 21.9501 63.8002C24.8901 66.2402 25.7101 64.2502 29.5301 64.4402C33.3501 64.6302 33.3701 64.1202 37.1901 64.3102C41.0101 64.5002 41.0001 64.7602 44.8201 64.9502C48.6401 65.1402 48.6501 64.9702 52.4701 65.1602C56.2901 65.3502 56.3001 65.2102 60.1201 65.3902C63.9401 65.5702 63.9401 65.6502 67.7601 65.8302C71.5801 66.0102 72.0701 64.5602 75.4901 66.2702C78.7101 67.8802 81.0301 68.7402 80.0201 72.2002C79.1601 75.1402 76.7701 72.0602 73.7001 72.1102C70.6301 72.1602 70.6401 72.8002 67.5701 72.8502C64.5001 72.9002 64.4601 71.9802 61.4301 72.4502C57.6501 73.0402 57.7801 73.6102 54.1001 74.6302C50.4201 75.6502 50.3001 75.2602 46.6101 76.2802C42.9201 77.3002 42.1701 75.9902 39.5401 78.7702C37.5901 80.8302 39.0901 81.3702 39.1301 84.2102C39.1701 87.0502 36.8801 88.6002 39.1501 90.2902C42.1101 92.4902 43.1501 89.6302 46.8401 89.5702C50.5301 89.5102 50.5401 89.7902 54.2301 89.7302C57.9201 89.6702 57.9301 89.9702 61.6201 89.9202C65.3101 89.8702 65.3101 89.4702 69.0001 89.4102C72.6901 89.3502 72.7001 89.8502 76.3901 89.7902C80.0801 89.7302 80.0801 89.3402 83.7701 89.2802C87.4601 89.2202 87.4701 89.5202 91.1601 89.4702C94.8501 89.4202 94.8501 89.3202 98.5501 89.2702C102.25 89.2202 102.24 88.9802 105.94 88.9302C109.64 88.8802 109.63 88.7202 113.33 88.6702C117.03 88.6202 117.03 89.0802 120.73 89.0202C124.43 88.9602 125.34 91.0302 127.72 88.1902C130.47 84.9102 127.36 84.2102 128.27 80.0402C129.28 75.4102 131.31 73.9802 128.09 71.1602L128.07 71.1802Z" stroke="#090909" stroke-width="2" stroke-linejoin="round"/>
<path d="M42.52 90.05C45.65 92.75 45.99 92.35 49.12 95.05C52.25 97.75 51.5 98.81 55.34 100.32C58.69 101.64 58.82 100.33 62.42 100.28C66.02 100.23 66.03 100.45 69.63 100.4C73.23 100.35 73.24 100.62 76.84 100.57C80.44 100.52 80.44 100.38 84.05 100.33C87.66 100.28 87.66 100.42 91.26 100.36C94.86 100.3 94.86 100.08 98.46 100.02C102.06 99.96 102.07 100.27 105.68 100.21C109.29 100.15 109.28 99.49 112.89 99.44C116.5 99.39 116.89 101.3 120 99.47C122.59 97.95 121.43 96.95 122.61 94.19C123.79 91.43 124.02 91.53 125.2 88.77" stroke="#090909" stroke-width="2" stroke-linejoin="round"/>
<path d="M66.6001 94.9599C66.6501 97.9899 64.1701 100.5 61.1501 100.54C58.1201 100.59 55.6401 98.1499 55.6001 95.1199C55.5601 92.0899 57.9601 89.6299 60.9901 89.5799C64.0201 89.5299 66.5601 91.9199 66.6101 94.9499L66.6001 94.9599Z" stroke="#090909" stroke-width="2" stroke-linejoin="round"/>
<path d="M77.5001 94.7899C77.5501 97.8199 75.1401 100.32 72.1101 100.37C69.0801 100.42 66.6101 97.9899 66.5601 94.9599C66.5101 91.9299 68.9101 89.4499 71.9401 89.4099C74.9701 89.3599 77.4501 91.7699 77.5001 94.7999V94.7899Z" stroke="#090909" stroke-width="2" stroke-linejoin="round"/>
<path d="M88.5001 94.63C88.5501 97.66 86.1001 100.21 83.0801 100.25C80.0501 100.3 77.5701 97.82 77.5201 94.8C77.4701 91.77 79.8801 89.25 82.9101 89.21C85.9401 89.17 88.4601 91.61 88.5001 94.64V94.63Z" stroke="#090909" stroke-width="2" stroke-linejoin="round"/>
<path d="M99.4 94.4602C99.45 97.4902 97.07 100.03 94.05 100.08C91.02 100.13 88.51 97.6601 88.47 94.6301C88.43 91.6001 90.86 89.1602 93.89 89.1102C96.92 89.0602 99.37 91.4302 99.41 94.4602H99.4Z" stroke="#090909" stroke-width="2" stroke-linejoin="round"/>
<path d="M110.42 94.2899C110.47 97.3199 108.04 99.7899 105.02 99.8399C101.99 99.8899 99.48 97.4899 99.43 94.4599C99.38 91.4299 101.82 88.9299 104.85 88.8899C107.88 88.8399 110.38 91.2699 110.42 94.2999V94.2899Z" stroke="#090909" stroke-width="2" stroke-linejoin="round"/>
<path d="M121.39 94.1298C121.44 97.1598 119.01 99.6298 115.98 99.6798C112.95 99.7298 110.5 97.3298 110.46 94.2998C110.41 91.2698 112.79 88.8198 115.82 88.7698C118.85 88.7198 121.35 91.0998 121.4 94.1298H121.39Z" stroke="#090909" stroke-width="2" stroke-linejoin="round"/>
</svg>
