<svg width="156" height="156" viewBox="0 0 156 156" fill="none" xmlns="http://www.w3.org/2000/svg">
<g clip-path="url(#clip0_2297_41699)">
<path d="M49.36 85.13C48.86 87.34 49.9 88.01 48.42 89.73C46.82 91.59 45.96 90.58 43.71 91.56C41.46 92.54 41.21 91.96 38.97 92.95C36.73 93.94 36.81 94.12 34.56 95.1C33.23 95.68 32.3 96.96 31.54 98.13C30.78 99.3 30.55 100.66 30.55 102.11C30.55 105.13 30 105.13 30 108.15C30 111.17 30.49 111.17 30.49 114.19" stroke="#00EAA4" stroke-width="2" stroke-linejoin="round"/>
<path d="M59.66 85.02C60.16 87.23 59.11 87.62 60.58 89.34C62.14 91.17 62.69 90.25 64.89 91.21C67.09 92.17 67.03 92.33 69.23 93.29C71.43 94.25 71.35 94.46 73.55 95.42C74.95 96.03 76.36 96.77 77.16 98C77.96 99.23 77.91 100.82 77.91 102.35C77.91 103.26 78.36 103.26 78.36 104.17" stroke="#00EAA4" stroke-width="2" stroke-linejoin="round"/>
<path d="M96.34 85.11C95.84 87.32 96.86 87.93 95.38 89.65C93.78 91.51 92.99 90.55 90.75 91.53C88.51 92.51 88.34 92.13 86.09 93.12C83.84 94.11 83.9 94.23 81.65 95.21C80.32 95.79 79.33 96.96 78.57 98.12C77.81 99.28 77.51 100.66 77.51 102.11C77.51 103.15 77.15 103.15 77.15 104.19" stroke="#00EAA4" stroke-width="2" stroke-linejoin="round"/>
<path d="M106.86 84.99C107.36 87.2 106.26 87.53 107.73 89.26C109.29 91.09 109.79 90.14 111.99 91.11C114.19 92.08 114.09 92.31 116.3 93.27C118.51 94.23 118.37 94.54 120.58 95.51C121.98 96.12 123.52 96.73 124.33 97.96C125.14 99.19 124.82 100.84 124.82 102.37C124.82 105.33 125.5 105.33 125.5 108.28C125.5 111.23 125.64 111.24 125.64 114.19" stroke="#00EAA4" stroke-width="2" stroke-linejoin="round"/>
<path d="M72.48 106.69C71.98 108.9 73 109.51 71.52 111.23C69.92 113.09 69.13 112.13 66.89 113.11C64.65 114.09 64.48 113.72 62.24 114.7C60 115.68 60.05 115.8 57.8 116.79C56.47 117.37 55.48 118.53 54.72 119.7C53.96 120.87 53.66 122.24 53.66 123.69" stroke="#00EAA4" stroke-width="2" stroke-linejoin="round"/>
<path d="M82.85 106.6C83.35 108.81 82.3 109.2 83.77 110.93C85.33 112.76 85.88 111.84 88.08 112.81C90.28 113.78 90.22 113.93 92.42 114.89C94.62 115.85 94.54 116.05 96.74 117.02C98.14 117.63 99.55 118.38 100.35 119.61C101.15 120.84 101.11 122.42 101.11 123.96" stroke="#00EAA4" stroke-width="2" stroke-linejoin="round"/>
<path d="M72.49 59.34C71.99 61.55 73.01 62.16 71.53 63.88C69.93 65.74 69.14 64.78 66.9 65.76C64.66 66.74 64.49 66.36 62.24 67.35C59.99 68.34 60.05 68.46 57.8 69.44C56.47 70.02 55.48 71.19 54.72 72.35C53.96 73.51 53.66 74.89 53.66 76.34C53.66 77.38 53.3 77.38 53.3 78.42" stroke="#00EAA4" stroke-width="2" stroke-linejoin="round"/>
<path d="M82.86 59.25C83.36 61.46 82.31 61.85 83.78 63.57C85.34 65.4 85.89 64.48 88.09 65.44C90.29 66.4 90.23 66.56 92.43 67.52C94.63 68.48 94.55 68.69 96.75 69.65C98.15 70.26 99.56 71 100.36 72.23C101.16 73.46 101.11 75.05 101.11 76.58C101.11 77.49 101.56 77.49 101.56 78.4" stroke="#00EAA4" stroke-width="2" stroke-linejoin="round"/>
<path d="M91.71 93.63C91.55 93.07 90.96 93.91 90.51 93.53C90.38 92.42 90.11 91.46 89.76 90.45C89.41 89.44 88.92 88.38 88.36 87.46C87.8 86.54 87.13 85.58 86.38 84.81C85.63 84.04 84.55 83.58 83.62 83.01C82.69 82.44 81.73 81.96 80.68 81.65C79.63 81.34 78.58 80.9 77.46 80.9C76.34 80.9 75.26 81.28 74.22 81.57C73.18 81.86 72.21 82.39 71.27 82.96C70.33 83.53 69.62 84.31 68.85 85.1C68.08 85.89 67.24 86.56 66.67 87.51C66.1 88.46 65.41 89.34 65.05 90.4C64.69 91.46 64.76 92.66 64.62 93.77C64.18 94.15 63.68 93.15 63.52 93.71C62.96 95.59 62.87 95.7 63.42 97.58C63.58 98.14 64.28 97 64.72 97.37C64.85 98.48 65.05 99.73 65.39 100.74C65.73 101.75 65.85 102.98 66.41 103.9C66.97 104.82 67.74 105.72 68.5 106.5C69.26 107.28 70.16 108.04 71.08 108.6C72 109.16 73.15 109.39 74.21 109.69C75.27 109.99 76.32 110.37 77.45 110.37C78.58 110.37 79.65 110 80.69 109.71C81.73 109.42 82.77 109 83.7 108.42C84.63 107.84 85.35 107.03 86.13 106.23C86.91 105.43 87.72 104.73 88.3 103.78C88.88 102.83 89.55 101.93 89.91 100.87C90.27 99.81 90.36 98.83 90.49 97.72C90.93 97.34 91.05 97.93 91.44 97.5C92.79 96 92.25 95.49 91.7 93.61L91.71 93.63Z" fill="#F6FF94"/>
<path d="M91.71 93.63C91.55 93.07 90.96 93.91 90.51 93.53C90.38 92.42 90.11 91.46 89.76 90.45C89.41 89.44 88.92 88.38 88.36 87.46C87.8 86.54 87.13 85.58 86.38 84.81C85.63 84.04 84.55 83.58 83.62 83.01C82.69 82.44 81.73 81.96 80.68 81.65C79.63 81.34 78.58 80.9 77.46 80.9C76.34 80.9 75.26 81.28 74.22 81.57C73.18 81.86 72.21 82.39 71.27 82.96C70.33 83.53 69.62 84.31 68.85 85.1C68.08 85.89 67.24 86.56 66.67 87.51C66.1 88.46 65.41 89.34 65.05 90.4C64.69 91.46 64.76 92.66 64.62 93.77C64.18 94.15 63.68 93.15 63.52 93.71C62.96 95.59 62.87 95.7 63.42 97.58C63.58 98.14 64.28 97 64.72 97.37C64.85 98.48 65.05 99.73 65.39 100.74C65.73 101.75 65.85 102.98 66.41 103.9C66.97 104.82 67.74 105.72 68.5 106.5C69.26 107.28 70.16 108.04 71.08 108.6C72 109.16 73.15 109.39 74.21 109.69C75.27 109.99 76.32 110.37 77.45 110.37C78.58 110.37 79.65 110 80.69 109.71C81.73 109.42 82.77 109 83.7 108.42C84.63 107.84 85.35 107.03 86.13 106.23C86.91 105.43 87.72 104.73 88.3 103.78C88.88 102.83 89.55 101.93 89.91 100.87C90.27 99.81 90.36 98.83 90.49 97.72C90.93 97.34 91.05 97.93 91.44 97.5C92.79 96 92.25 95.49 91.7 93.61L91.71 93.63Z" stroke="#090909" stroke-width="2" stroke-linejoin="round"/>
<path d="M75.17 93.33C75.17 94.1 74.53 94.74 73.76 94.74C72.99 94.74 72.34 94.1 72.34 93.33C72.34 92.56 72.99 91.91 73.76 91.91C74.53 91.91 75.17 92.56 75.17 93.33Z" fill="#090909"/>
<path d="M75.17 93.33C75.17 94.1 74.53 94.74 73.76 94.74C72.99 94.74 72.34 94.1 72.34 93.33C72.34 92.56 72.99 91.91 73.76 91.91C74.53 91.91 75.17 92.56 75.17 93.33Z" stroke="#090909" stroke-width="0.5" stroke-miterlimit="10"/>
<path d="M82.58 93.33C82.58 94.1 81.95 94.74 81.18 94.74C80.41 94.74 79.78 94.1 79.78 93.33C79.78 92.56 80.4 91.92 81.18 91.92C81.96 91.92 82.58 92.56 82.58 93.33Z" fill="#090909"/>
<path d="M82.58 93.33C82.58 94.1 81.95 94.74 81.18 94.74C80.41 94.74 79.78 94.1 79.78 93.33C79.78 92.56 80.4 91.92 81.18 91.92C81.96 91.92 82.58 92.56 82.58 93.33Z" stroke="#090909" stroke-width="0.5" stroke-miterlimit="10"/>
<path d="M91.52 45.66C91.36 45.1 90.75 46.12 90.31 45.75C90.18 44.64 90.2 43.41 89.86 42.39C89.52 41.37 88.72 40.47 88.16 39.55C87.6 38.63 86.99 37.69 86.23 36.92C85.47 36.15 84.76 35.21 83.83 34.64C82.9 34.07 81.71 34.01 80.65 33.71C79.59 33.41 78.58 33.01 77.46 33.01C76.34 33.01 75.25 33.23 74.22 33.52C73.19 33.81 72.08 34.14 71.14 34.71C70.2 35.28 69.4 36.06 68.62 36.85C67.84 37.64 67.23 38.53 66.66 39.48C66.09 40.43 65.44 41.33 65.08 42.39C64.72 43.45 64.62 44.48 64.48 45.59C64.04 45.97 63.74 45.16 63.57 45.72C63.01 47.6 62.75 47.73 63.31 49.61C63.47 50.17 64.12 49.18 64.57 49.56C64.7 50.67 65.03 51.74 65.37 52.76C65.71 53.78 66.09 54.85 66.65 55.77C67.21 56.69 68.02 57.47 68.78 58.25C69.54 59.03 70.29 59.86 71.22 60.42C72.15 60.98 73.2 61.33 74.25 61.63C75.3 61.93 76.35 62 77.47 62C78.59 62 79.65 61.92 80.69 61.62C81.73 61.32 82.67 60.79 83.61 60.22C84.55 59.65 85.3 58.94 86.07 58.15C86.84 57.36 87.85 56.8 88.43 55.84C89.01 54.88 89.5 53.9 89.85 52.84C90.2 51.78 90.33 50.77 90.46 49.66C90.9 49.28 91.26 50.09 91.63 49.64C92.89 48.12 92.07 47.54 91.52 45.65V45.66Z" fill="#F6FF94"/>
<path d="M91.52 45.66C91.36 45.1 90.75 46.12 90.31 45.75C90.18 44.64 90.2 43.41 89.86 42.39C89.52 41.37 88.72 40.47 88.16 39.55C87.6 38.63 86.99 37.69 86.23 36.92C85.47 36.15 84.76 35.21 83.83 34.64C82.9 34.07 81.71 34.01 80.65 33.71C79.59 33.41 78.58 33.01 77.46 33.01C76.34 33.01 75.25 33.23 74.22 33.52C73.19 33.81 72.08 34.14 71.14 34.71C70.2 35.28 69.4 36.06 68.62 36.85C67.84 37.64 67.23 38.53 66.66 39.48C66.09 40.43 65.44 41.33 65.08 42.39C64.72 43.45 64.62 44.48 64.48 45.59C64.04 45.97 63.74 45.16 63.57 45.72C63.01 47.6 62.75 47.73 63.31 49.61C63.47 50.17 64.12 49.18 64.57 49.56C64.7 50.67 65.03 51.74 65.37 52.76C65.71 53.78 66.09 54.85 66.65 55.77C67.21 56.69 68.02 57.47 68.78 58.25C69.54 59.03 70.29 59.86 71.22 60.42C72.15 60.98 73.2 61.33 74.25 61.63C75.3 61.93 76.35 62 77.47 62C78.59 62 79.65 61.92 80.69 61.62C81.73 61.32 82.67 60.79 83.61 60.22C84.55 59.65 85.3 58.94 86.07 58.15C86.84 57.36 87.85 56.8 88.43 55.84C89.01 54.88 89.5 53.9 89.85 52.84C90.2 51.78 90.33 50.77 90.46 49.66C90.9 49.28 91.26 50.09 91.63 49.64C92.89 48.12 92.07 47.54 91.52 45.65V45.66Z" stroke="#090909" stroke-width="2" stroke-linejoin="round"/>
<path d="M75.16 45.3C75.16 46.07 74.52 46.7 73.75 46.7C72.98 46.7 72.36 46.08 72.36 45.3C72.36 44.52 72.98 43.89 73.75 43.89C74.52 43.89 75.16 44.53 75.16 45.3Z" fill="#090909"/>
<path d="M75.16 45.3C75.16 46.07 74.52 46.7 73.75 46.7C72.98 46.7 72.36 46.08 72.36 45.3C72.36 44.52 72.98 43.89 73.75 43.89C74.52 43.89 75.16 44.53 75.16 45.3Z" stroke="#090909" stroke-width="0.5" stroke-miterlimit="10"/>
<path d="M82.56 45.3C82.56 46.07 81.95 46.72 81.18 46.72C80.41 46.72 79.79 46.07 79.79 45.3C79.79 44.53 80.41 43.89 81.18 43.89C81.95 43.89 82.56 44.53 82.56 45.3Z" fill="#090909"/>
<path d="M82.56 45.3C82.56 46.07 81.95 46.72 81.18 46.72C80.41 46.72 79.79 46.07 79.79 45.3C79.79 44.53 80.41 43.89 81.18 43.89C81.95 43.89 82.56 44.53 82.56 45.3Z" stroke="#090909" stroke-width="0.5" stroke-miterlimit="10"/>
<path d="M68.46 69.63C68.3 69.07 67.53 70.16 67.09 69.78C66.96 68.67 66.68 67.53 66.33 66.51C65.98 65.49 65.49 64.5 64.93 63.58C64.37 62.66 64.02 61.48 63.26 60.71C62.5 59.94 61.4 59.49 60.47 58.92C59.54 58.35 58.58 57.81 57.52 57.51C56.46 57.21 55.39 56.79 54.27 56.79C53.15 56.79 52.03 57.12 50.99 57.42C49.95 57.72 48.84 58.08 47.9 58.65C46.96 59.22 46.1 59.97 45.33 60.76C44.56 61.55 43.9 62.45 43.33 63.41C42.76 64.37 42.32 65.37 41.96 66.43C41.6 67.49 41.62 68.72 41.48 69.83C41.04 70.21 40.46 69.15 40.3 69.71C39.74 71.59 39.68 71.71 40.24 73.59C40.4 74.15 41.08 73.03 41.52 73.41C41.65 74.52 41.68 75.81 42.03 76.82C42.38 77.83 42.72 78.97 43.28 79.89C43.84 80.81 44.88 81.44 45.63 82.21C46.38 82.98 47.06 83.91 47.99 84.48C48.92 85.05 50 85.34 51.05 85.64C52.1 85.94 53.14 86.08 54.27 86.08C55.4 86.08 56.48 86.05 57.52 85.75C58.56 85.45 59.63 85.08 60.57 84.51C61.51 83.94 62.23 83.09 63 82.3C63.77 81.51 64.48 80.71 65.05 79.76C65.62 78.81 65.98 77.82 66.34 76.76C66.7 75.7 67.19 74.87 67.32 73.76C67.76 73.38 67.86 73.95 68.25 73.51C69.57 72 69.02 71.53 68.46 69.64V69.63Z" fill="#F6FF94"/>
<path d="M68.46 69.63C68.3 69.07 67.53 70.16 67.09 69.78C66.96 68.67 66.68 67.53 66.33 66.51C65.98 65.49 65.49 64.5 64.93 63.58C64.37 62.66 64.02 61.48 63.26 60.71C62.5 59.94 61.4 59.49 60.47 58.92C59.54 58.35 58.58 57.81 57.52 57.51C56.46 57.21 55.39 56.79 54.27 56.79C53.15 56.79 52.03 57.12 50.99 57.42C49.95 57.72 48.84 58.08 47.9 58.65C46.96 59.22 46.1 59.97 45.33 60.76C44.56 61.55 43.9 62.45 43.33 63.41C42.76 64.37 42.32 65.37 41.96 66.43C41.6 67.49 41.62 68.72 41.48 69.83C41.04 70.21 40.46 69.15 40.3 69.71C39.74 71.59 39.68 71.71 40.24 73.59C40.4 74.15 41.08 73.03 41.52 73.41C41.65 74.52 41.68 75.81 42.03 76.82C42.38 77.83 42.72 78.97 43.28 79.89C43.84 80.81 44.88 81.44 45.63 82.21C46.38 82.98 47.06 83.91 47.99 84.48C48.92 85.05 50 85.34 51.05 85.64C52.1 85.94 53.14 86.08 54.27 86.08C55.4 86.08 56.48 86.05 57.52 85.75C58.56 85.45 59.63 85.08 60.57 84.51C61.51 83.94 62.23 83.09 63 82.3C63.77 81.51 64.48 80.71 65.05 79.76C65.62 78.81 65.98 77.82 66.34 76.76C66.7 75.7 67.19 74.87 67.32 73.76C67.76 73.38 67.86 73.95 68.25 73.51C69.57 72 69.02 71.53 68.46 69.64V69.63Z" stroke="#090909" stroke-width="2" stroke-linejoin="round"/>
<path d="M51.93 69.31C51.93 70.08 51.33 70.68 50.56 70.68C49.79 70.68 49.17 70.08 49.17 69.31C49.17 68.54 49.79 67.89 50.56 67.89C51.33 67.89 51.93 68.54 51.93 69.31Z" fill="#090909"/>
<path d="M51.93 69.31C51.93 70.08 51.33 70.68 50.56 70.68C49.79 70.68 49.17 70.08 49.17 69.31C49.17 68.54 49.79 67.89 50.56 67.89C51.33 67.89 51.93 68.54 51.93 69.31Z" stroke="#090909" stroke-width="0.5" stroke-miterlimit="10"/>
<path d="M59.37 69.31C59.37 70.08 58.76 70.68 57.99 70.68C57.22 70.68 56.61 70.08 56.61 69.31C56.61 68.54 57.22 67.92 57.99 67.92C58.76 67.92 59.37 68.54 59.37 69.31Z" fill="#090909"/>
<path d="M59.37 69.31C59.37 70.08 58.76 70.68 57.99 70.68C57.22 70.68 56.61 70.08 56.61 69.31C56.61 68.54 57.22 67.92 57.99 67.92C58.76 67.92 59.37 68.54 59.37 69.31Z" stroke="#090909" stroke-width="0.5" stroke-miterlimit="10"/>
<path d="M115.56 71.57C115.4 71.01 114.55 72.16 114.1 71.78C113.97 70.67 113.94 69.4 113.6 68.39C113.26 67.38 112.46 66.51 111.9 65.59C111.34 64.67 111.09 63.43 110.33 62.65C109.57 61.87 108.48 61.39 107.55 60.82C106.62 60.25 105.63 59.73 104.58 59.43C103.53 59.13 102.44 59 101.32 59C100.2 59 99.11 59.19 98.08 59.49C97.05 59.79 96.06 60.31 95.13 60.88C94.2 61.45 93.11 61.87 92.34 62.67C91.57 63.47 91.34 64.64 90.77 65.59C90.2 66.54 89.34 67.31 88.98 68.36C88.62 69.41 88.71 70.7 88.58 71.81C88.14 72.19 87.63 71.12 87.46 71.68C86.9 73.56 86.61 73.69 87.17 75.57C87.33 76.13 88.09 75.04 88.53 75.41C88.66 76.52 88.6 77.79 88.95 78.81C89.3 79.83 89.81 80.89 90.37 81.82C90.93 82.75 91.62 83.71 92.37 84.48C93.12 85.25 94.08 85.94 95.01 86.51C95.94 87.08 97.03 87.43 98.08 87.73C99.13 88.03 100.22 88.38 101.34 88.38C102.46 88.38 103.63 88.25 104.66 87.96C105.69 87.67 106.69 87.02 107.63 86.44C108.57 85.86 109.2 84.94 109.98 84.15C110.76 83.36 111.67 82.73 112.24 81.77C112.81 80.81 113.02 79.74 113.38 78.69C113.74 77.64 114.03 76.54 114.16 75.43C114.6 75.05 114.9 75.85 115.28 75.42C116.63 73.92 116.12 73.45 115.56 71.57Z" fill="#F6FF94"/>
<path d="M115.56 71.57C115.4 71.01 114.55 72.16 114.1 71.78C113.97 70.67 113.94 69.4 113.6 68.39C113.26 67.38 112.46 66.51 111.9 65.59C111.34 64.67 111.09 63.43 110.33 62.65C109.57 61.87 108.48 61.39 107.55 60.82C106.62 60.25 105.63 59.73 104.58 59.43C103.53 59.13 102.44 59 101.32 59C100.2 59 99.11 59.19 98.08 59.49C97.05 59.79 96.06 60.31 95.13 60.88C94.2 61.45 93.11 61.87 92.34 62.67C91.57 63.47 91.34 64.64 90.77 65.59C90.2 66.54 89.34 67.31 88.98 68.36C88.62 69.41 88.71 70.7 88.58 71.81C88.14 72.19 87.63 71.12 87.46 71.68C86.9 73.56 86.61 73.69 87.17 75.57C87.33 76.13 88.09 75.04 88.53 75.41C88.66 76.52 88.6 77.79 88.95 78.81C89.3 79.83 89.81 80.89 90.37 81.82C90.93 82.75 91.62 83.71 92.37 84.48C93.12 85.25 94.08 85.94 95.01 86.51C95.94 87.08 97.03 87.43 98.08 87.73C99.13 88.03 100.22 88.38 101.34 88.38C102.46 88.38 103.63 88.25 104.66 87.96C105.69 87.67 106.69 87.02 107.63 86.44C108.57 85.86 109.2 84.94 109.98 84.15C110.76 83.36 111.67 82.73 112.24 81.77C112.81 80.81 113.02 79.74 113.38 78.69C113.74 77.64 114.03 76.54 114.16 75.43C114.6 75.05 114.9 75.85 115.28 75.42C116.63 73.92 116.12 73.45 115.56 71.57Z" stroke="#090909" stroke-width="2" stroke-linejoin="round"/>
<path d="M99.02 71.26C99.02 72.03 98.38 72.65 97.61 72.65C96.84 72.65 96.23 72.04 96.23 71.26C96.23 70.48 96.84 69.86 97.61 69.86C98.38 69.86 99.02 70.49 99.02 71.26Z" fill="#090909"/>
<path d="M99.02 71.26C99.02 72.03 98.38 72.65 97.61 72.65C96.84 72.65 96.23 72.04 96.23 71.26C96.23 70.48 96.84 69.86 97.61 69.86C98.38 69.86 99.02 70.49 99.02 71.26Z" stroke="#090909" stroke-width="0.5" stroke-miterlimit="10"/>
<path d="M106.42 71.26C106.42 72.03 105.82 72.64 105.04 72.64C104.26 72.64 103.64 72.03 103.64 71.26C103.64 70.49 104.27 69.84 105.04 69.84C105.81 69.84 106.42 70.49 106.42 71.26Z" fill="#090909"/>
<path d="M106.42 71.26C106.42 72.03 105.82 72.64 105.04 72.64C104.26 72.64 103.64 72.03 103.64 71.26C103.64 70.49 104.27 69.84 105.04 69.84C105.81 69.84 106.42 70.49 106.42 71.26Z" stroke="#090909" stroke-width="0.5" stroke-miterlimit="10"/>
</g>
<defs>
<clipPath id="clip0_2297_41699">
<rect width="97.63" height="91.94" fill="white" transform="translate(29 32)"/>
</clipPath>
</defs>
</svg>
