<svg width="58" height="68" viewBox="0 0 58 68" fill="none" xmlns="http://www.w3.org/2000/svg">
<path d="M31.7991 40.9791L17.168 34.2139L5.55741 60.0474L15.3433 57.9335L20.1886 66.8126L31.7991 40.9791Z" fill="#89E67B" stroke="black"/>
<path d="M26.6609 40.9791L41.292 34.2139L52.9025 60.0474L43.1166 57.9335L38.2714 66.8126L26.6609 40.9791Z" fill="#89E67B" stroke="black"/>
<g filter="url(#filter0_d_424_57093)">
<ellipse cx="29.2305" cy="25.6628" rx="24.5" ry="24.8503" fill="#89E67B"/>
<path d="M53.2305 25.6628C53.2305 39.1179 42.4786 50.0132 29.2305 50.0132C15.9823 50.0132 5.23047 39.1179 5.23047 25.6628C5.23047 12.2078 15.9823 1.3125 29.2305 1.3125C42.4786 1.3125 53.2305 12.2078 53.2305 25.6628Z" stroke="black"/>
</g>
<path d="M47.1909 25.6627C47.1909 35.7346 39.143 43.8873 29.2302 43.8873C19.3175 43.8873 11.2695 35.7346 11.2695 25.6627C11.2695 15.5907 19.3175 7.43799 29.2302 7.43799C39.143 7.43799 47.1909 15.5907 47.1909 25.6627Z" fill="white" stroke="black"/>
<path d="M34.9506 33.6523H23.0946V30.3643L28.2546 25.9483C28.7186 25.5483 29.1106 25.1883 29.4306 24.8683C29.7506 24.5323 30.0066 24.2123 30.1986 23.9083C30.4066 23.5883 30.5506 23.2763 30.6306 22.9723C30.7266 22.6683 30.7746 22.3403 30.7746 21.9883V21.6523C30.7746 21.3323 30.7106 21.0523 30.5826 20.8123C30.4546 20.5723 30.2866 20.3723 30.0786 20.2123C29.8706 20.0523 29.6306 19.9323 29.3586 19.8523C29.1026 19.7723 28.8386 19.7323 28.5666 19.7323C28.1666 19.7323 27.8146 19.7963 27.5106 19.9243C27.2226 20.0523 26.9666 20.2283 26.7426 20.4523C26.5346 20.6603 26.3586 20.9083 26.2146 21.1963C26.0706 21.4683 25.9586 21.7643 25.8786 22.0843L22.7346 20.8843C22.9266 20.3083 23.1906 19.7643 23.5266 19.2523C23.8626 18.7243 24.2786 18.2683 24.7746 17.8843C25.2866 17.4843 25.8866 17.1723 26.5746 16.9483C27.2626 16.7243 28.0386 16.6123 28.9026 16.6123C29.8146 16.6123 30.6226 16.7403 31.3266 16.9963C32.0306 17.2523 32.6226 17.6043 33.1026 18.0523C33.5986 18.5003 33.9746 19.0363 34.2306 19.6603C34.4866 20.2683 34.6146 20.9323 34.6146 21.6523C34.6146 22.3723 34.4946 23.0283 34.2546 23.6203C34.0146 24.2123 33.6866 24.7723 33.2706 25.3003C32.8706 25.8123 32.3986 26.3003 31.8546 26.7643C31.3106 27.2283 30.7426 27.7003 30.1506 28.1803L27.0306 30.6283H34.9506V33.6523Z" fill="black"/>
<defs>
<filter id="filter0_d_424_57093" x="0.730469" y="0.8125" width="57" height="57.7007" filterUnits="userSpaceOnUse" color-interpolation-filters="sRGB">
<feFlood flood-opacity="0" result="BackgroundImageFix"/>
<feColorMatrix in="SourceAlpha" type="matrix" values="0 0 0 0 0 0 0 0 0 0 0 0 0 0 0 0 0 0 127 0" result="hardAlpha"/>
<feOffset dy="4"/>
<feGaussianBlur stdDeviation="2"/>
<feComposite in2="hardAlpha" operator="out"/>
<feColorMatrix type="matrix" values="0 0 0 0 0 0 0 0 0 0 0 0 0 0 0 0 0 0 0.25 0"/>
<feBlend mode="normal" in2="BackgroundImageFix" result="effect1_dropShadow_424_57093"/>
<feBlend mode="normal" in="SourceGraphic" in2="effect1_dropShadow_424_57093" result="shape"/>
</filter>
</defs>
</svg>
