<svg width="51" height="51" viewBox="0 0 51 51" fill="none" xmlns="http://www.w3.org/2000/svg">
<path d="M25.7305 50.4072C39.5376 50.4072 50.7305 39.2143 50.7305 25.4072C50.7305 11.6001 39.5376 0.407227 25.7305 0.407227C11.9234 0.407227 0.730469 11.6001 0.730469 25.4072C0.730469 39.2143 11.9234 50.4072 25.7305 50.4072Z" fill="black"/>
<path d="M23.2313 33.3717C26.2477 33.3717 28.693 30.9264 28.693 27.91C28.693 24.8935 26.2477 22.4482 23.2313 22.4482C20.2148 22.4482 17.7695 24.8935 17.7695 27.91C17.7695 30.9264 20.2148 33.3717 23.2313 33.3717Z" fill="white"/>
<path d="M36.2756 25.4872C38.2103 25.4872 39.7787 23.9188 39.7787 21.9841C39.7787 20.0494 38.2103 18.481 36.2756 18.481C34.3409 18.481 32.7725 20.0494 32.7725 21.9841C32.7725 23.9188 34.3409 25.4872 36.2756 25.4872Z" fill="white"/>
<path d="M31.7281 6.1056C31.6092 5.73234 31.2102 5.52614 30.837 5.64505C30.4637 5.76396 30.2575 6.16294 30.3764 6.5362L34.8901 20.7051C35.009 21.0784 35.408 21.2846 35.7813 21.1657C36.1546 21.0468 36.3608 20.6478 36.2418 20.2745L31.7281 6.1056Z" fill="white"/>
<path d="M30.5945 5.77024L18.9869 15.5703C18.5315 15.9547 18.8107 16.696 19.4079 16.6869L34.0427 16.4123C34.466 16.4054 34.7612 15.9913 34.633 15.5886L31.6058 6.06312C31.4685 5.63296 30.94 5.47965 30.5945 5.77024Z" fill="white"/>
<path d="M46.1881 32.8525C46.5244 31.6878 46.2979 30.4339 45.5749 29.4615L39.6761 21.1968L36.086 23.3202L40.2413 30.4682L29.3315 34.7264L20.1058 34.4908C15.168 34.7997 13.0698 37.4539 13.0698 37.4539L8.31055 43.3366C12.8136 47.7115 18.9572 50.4069 25.73 50.4069C27.3363 50.4069 28.9082 50.2536 30.4298 49.963L31.869 42.1949L44.2821 35.2024C45.2088 34.7081 45.8952 33.8615 46.1858 32.8525H46.1881Z" fill="white"/>
</svg>
