<svg width="601" height="601" viewBox="0 0 601 601" fill="none" xmlns="http://www.w3.org/2000/svg">
<path d="M300.122 49.6895C264.795 49.6895 233.988 69.0389 217.72 97.7177C185.937 88.9415 150.471 97.0435 125.49 122.024C100.51 147.004 92.4084 182.471 101.185 214.253C72.5053 230.521 53.1553 261.329 53.1553 296.656C53.1553 331.983 72.5047 362.791 101.184 379.059C92.4073 410.841 100.509 446.308 125.489 471.288C150.47 496.269 185.937 504.37 217.719 495.594C233.987 524.273 264.795 543.623 300.122 543.623C335.449 543.623 366.256 524.274 382.525 495.595C414.307 504.371 449.774 496.269 474.754 471.289C499.734 446.309 507.836 410.842 499.06 379.059C527.739 362.791 547.089 331.984 547.089 296.656C547.089 261.33 527.74 230.522 499.061 214.254C507.837 182.472 499.735 147.005 474.755 122.025C449.775 97.0445 414.308 88.9426 382.525 97.7189C366.257 69.0394 335.45 49.6895 300.122 49.6895Z" fill="#89E67B"/>
<circle cx="201.507" cy="522.538" r="14.6298" transform="rotate(-5.63894 201.507 522.538)" fill="#89E67B"/>
<circle cx="171.349" cy="540.216" r="9.49439" transform="rotate(-5.63894 171.349 540.216)" fill="#89E67B"/>
</svg>
