<svg width="51" height="51" viewBox="0 0 51 51" fill="none" xmlns="http://www.w3.org/2000/svg">
<path d="M25.4658 50.4072C39.2729 50.4072 50.4658 39.2144 50.4658 25.4072C50.4658 11.6001 39.2729 0.407227 25.4658 0.407227C11.6587 0.407227 0.46582 11.6001 0.46582 25.4072C0.46582 39.2144 11.6587 50.4072 25.4658 50.4072Z" fill="black"/>
<path d="M20.3362 11.8682H31.0423C37.6458 11.8682 43.0481 17.2704 43.0481 23.8739C43.0481 30.4774 37.6458 35.8797 31.0423 35.8797H21.3361C19.9243 37.3876 17.7529 39.3759 15.1696 40.6253C14.5953 40.9044 14.0072 40.2637 14.3367 39.7146C15.0186 38.5797 15.8492 36.9666 16.3365 35.1887C11.6848 33.5321 8.32812 29.0771 8.32812 23.8739C8.32812 17.2704 13.7304 11.8682 20.3339 11.8682H20.3362Z" fill="white"/>
<path d="M26.1807 24.5375C26.7413 24.5375 27.2538 24.5261 27.7664 24.5421C28.0089 24.549 28.0913 24.4666 28.0821 24.2309C28.073 23.9907 28.1004 23.7504 28.1027 23.5102C28.1027 23.3386 28.1737 23.2768 28.3453 23.2951C28.732 23.3363 29.1187 23.3683 29.5557 23.4095C29.5442 23.6612 29.5397 23.9129 29.5214 24.1646C29.4962 24.4895 29.5122 24.5101 29.8371 24.4712C30.7409 24.3614 31.6425 24.2469 32.5463 24.1348C32.6103 24.128 32.6744 24.1257 32.7636 24.1188C32.8025 24.5604 32.8414 24.986 32.8826 25.4482C32.5302 25.4985 32.1916 25.5626 31.8484 25.5924C31.1231 25.6564 30.3954 25.7091 29.6678 25.7502C29.4871 25.7594 29.4138 25.8166 29.4161 25.9951C29.4207 26.3246 29.4161 26.6541 29.4161 27.0179C29.6518 26.9973 29.8692 26.9767 30.0888 26.9584C30.1964 26.9492 30.3039 26.9263 30.4115 26.9378C30.6242 26.9584 30.789 26.924 30.8096 26.6403C31.2649 26.7204 31.7019 26.7959 32.1596 26.876C32.0703 27.1368 32.2145 27.2032 32.409 27.2901C33.3906 27.718 33.9603 28.4456 33.9901 29.5485C34.0198 30.6903 33.5691 31.5621 32.5051 32.0151C31.9628 32.2462 31.3679 32.3538 30.7936 32.5071C30.7364 32.5231 30.6334 32.4956 30.5991 32.4521C30.3725 32.1593 30.1598 31.8549 29.9172 31.5209C30.2009 31.4614 30.4481 31.4133 30.6929 31.3538C31.1551 31.2417 31.5944 31.0747 31.9674 30.7635C32.8002 30.0679 32.6492 28.8392 31.6653 28.4388C31.631 28.4868 31.5898 28.5349 31.5578 28.5898C31.1482 29.3266 30.6403 29.9924 30.0499 30.5896C29.2994 31.347 28.3727 31.7703 27.3133 31.8664C26.302 31.9556 25.6247 31.2303 25.7139 30.2167C25.8123 29.0978 26.4553 28.3518 27.3591 27.7821C27.5055 27.6906 27.6566 27.5945 27.819 27.5373C28.0204 27.4663 28.0753 27.3473 28.0638 27.1437C28.041 26.7707 28.041 26.3978 28.0432 26.0248C28.0432 25.8601 27.9815 25.8052 27.8236 25.812C27.3774 25.8303 26.9289 25.8326 26.4827 25.8555C26.2997 25.8646 26.2356 25.8052 26.2333 25.6198C26.2311 25.2743 26.2013 24.9288 26.183 24.5398L26.1807 24.5375ZM28.121 28.7568C27.5765 28.9673 27.1463 29.4799 27.0731 29.9855C27.0273 30.3082 27.1715 30.5439 27.4758 30.5347C27.7321 30.5278 27.986 30.4272 28.2354 30.3539C28.2743 30.3425 28.3155 30.2487 28.3109 30.1983C28.2537 29.7247 28.1874 29.2511 28.121 28.7591V28.7568ZM30.2764 28.242C30.2604 28.2145 30.2444 28.1848 30.2261 28.1573C29.9882 28.1894 29.7479 28.2191 29.5099 28.2557C29.4825 28.2603 29.4436 28.3152 29.4459 28.345C29.4573 28.6493 29.4779 28.9536 29.4939 29.2579C29.5282 29.2648 29.5626 29.2717 29.5969 29.2785L30.2764 28.2397V28.242Z" fill="black"/>
<path d="M15.7832 28.4337C16.0235 27.8022 16.2797 27.1226 16.5154 26.5048C17.3506 24.2991 18.188 22.0956 19.0186 19.8876L19.1307 19.6016H21.1008L21.19 19.8533C21.952 21.908 22.7208 23.9581 23.4873 26.0106C23.7367 26.681 23.9884 27.3514 24.2378 28.0218C24.2836 28.1431 24.3248 28.2667 24.3865 28.4383H22.4302C22.4302 28.4383 22.4302 28.4383 22.1945 27.7061C22.0801 27.3537 21.9497 27.0059 21.8399 26.6513C21.7918 26.498 21.7072 26.4385 21.5516 26.4385C20.57 26.4407 19.5884 26.443 18.6068 26.4385C18.4329 26.4385 18.3573 26.5208 18.3047 26.6719C18.1285 27.189 17.9478 27.7061 17.7533 28.2186L17.6801 28.436C17.6801 28.436 16.4559 28.4406 15.9159 28.436C15.893 28.436 15.7855 28.436 15.7855 28.436L15.7832 28.4337ZM20.1398 21.7501C20.1078 21.7501 20.0757 21.7524 20.046 21.7547C19.6616 22.837 19.2772 23.9192 18.8905 25.0107C18.9637 25.0381 18.9957 25.061 19.0278 25.061C19.7073 25.0633 20.3892 25.0679 21.0688 25.0633C21.2976 25.0633 21.2335 24.9169 21.19 24.7864C20.9177 23.9948 20.6455 23.2008 20.3732 22.4091C20.2977 22.1894 20.2199 21.9675 20.1421 21.7478L20.1398 21.7501Z" fill="black"/>
<path d="M23.966 19.4074C23.966 18.9589 24.0141 18.5814 24.1079 18.2771C24.2017 17.9705 24.4122 17.705 24.7371 17.4762L23.6846 16.3505C23.8562 15.9912 24.0735 15.6938 24.339 15.4581C24.6044 15.2224 24.8858 15.0325 25.1833 14.8884C25.4807 14.7465 25.7896 14.6435 26.1077 14.5818C26.4257 14.52 26.7232 14.4902 27.0001 14.4902C27.9862 14.4902 28.7093 14.7511 29.1646 15.2728C29.6222 15.7945 29.8488 16.5358 29.8488 17.4991V21.4507H28.2334L28.2448 17.5975C28.2448 17.3115 28.2242 17.0712 28.183 16.8767C28.1418 16.6823 28.0709 16.5198 27.9679 16.3939C27.865 16.2681 27.73 16.1766 27.5584 16.1194C27.3867 16.0622 27.1717 16.0347 26.9108 16.0347C26.6751 16.0347 26.4463 16.069 26.2267 16.1377C26.007 16.2063 25.8263 16.2978 25.689 16.4123L26.7049 17.5861C26.428 17.6753 26.2129 17.7851 26.0619 17.9155C25.9109 18.046 25.7988 18.1901 25.7256 18.3503C25.6523 18.5105 25.6089 18.6798 25.5974 18.8583C25.586 19.0367 25.5791 19.2244 25.5791 19.4211V21.4507H23.9637V19.4074H23.966Z" fill="black"/>
</svg>
