<svg width="59" height="59" viewBox="0 0 59 59" fill="none" xmlns="http://www.w3.org/2000/svg">
<g filter="url(#filter0_d_424_57156)">
<path d="M53.9658 25.4067C53.9658 38.8646 43.056 49.7744 29.5981 49.7744C16.1402 49.7744 5.23047 38.8646 5.23047 25.4067C5.23047 11.9488 16.1402 1.03906 29.5981 1.03906C43.056 1.03906 53.9658 11.9488 53.9658 25.4067Z" fill="#D0DDD4" stroke="black"/>
<circle cx="29.5991" cy="25.4076" r="18.2377" fill="white" stroke="black"/>
<path d="M29.1033 34.1943C28.1113 34.1943 27.2233 34.0743 26.4393 33.8342C25.6713 33.5782 25.0233 33.2342 24.4953 32.8022C23.9673 32.3702 23.5593 31.8582 23.2713 31.2662C22.9993 30.6742 22.8633 30.0262 22.8633 29.3222C22.8633 28.2502 23.1593 27.3782 23.7513 26.7062C24.3433 26.0182 25.1433 25.5382 26.1513 25.2662V25.0742C25.3353 24.7702 24.6633 24.3062 24.1353 23.6822C23.6233 23.0582 23.3673 22.2582 23.3673 21.2822C23.3673 20.6422 23.4873 20.0502 23.7273 19.5062C23.9833 18.9622 24.3513 18.4982 24.8313 18.1142C25.3273 17.7142 25.9273 17.4102 26.6313 17.2022C27.3513 16.9782 28.1753 16.8662 29.1033 16.8662C30.0313 16.8662 30.8473 16.9782 31.5513 17.2022C32.2713 17.4102 32.8713 17.7142 33.3513 18.1142C33.8473 18.4982 34.2153 18.9622 34.4553 19.5062C34.7113 20.0502 34.8393 20.6422 34.8393 21.2822C34.8393 22.2582 34.5753 23.0582 34.0473 23.6822C33.5353 24.3062 32.8713 24.7702 32.0553 25.0742V25.2662C33.0633 25.5382 33.8633 26.0182 34.4553 26.7062C35.0473 27.3782 35.3433 28.2502 35.3433 29.3222C35.3433 30.0262 35.1993 30.6742 34.9113 31.2662C34.6393 31.8582 34.2393 32.3702 33.7113 32.8022C33.1833 33.2342 32.5273 33.5782 31.7433 33.8342C30.9753 34.0743 30.0953 34.1943 29.1033 34.1943ZM29.1033 31.4342C29.9033 31.4342 30.5113 31.2502 30.9273 30.8822C31.3593 30.4982 31.5753 29.9702 31.5753 29.2982V28.8182C31.5753 28.1462 31.3593 27.6262 30.9273 27.2582C30.5113 26.8742 29.9033 26.6822 29.1033 26.6822C28.3033 26.6822 27.6873 26.8742 27.2553 27.2582C26.8393 27.6262 26.6313 28.1462 26.6313 28.8182V29.2982C26.6313 29.9702 26.8393 30.4982 27.2553 30.8822C27.6873 31.2502 28.3033 31.4342 29.1033 31.4342ZM29.1033 24.0422C29.8713 24.0422 30.4553 23.8662 30.8553 23.5142C31.2553 23.1462 31.4553 22.6502 31.4553 22.0262V21.6422C31.4553 21.0182 31.2553 20.5302 30.8553 20.1782C30.4553 19.8102 29.8713 19.6262 29.1033 19.6262C28.3353 19.6262 27.7513 19.8102 27.3513 20.1782C26.9513 20.5302 26.7513 21.0182 26.7513 21.6422V22.0262C26.7513 22.6502 26.9513 23.1462 27.3513 23.5142C27.7513 23.8662 28.3353 24.0422 29.1033 24.0422Z" fill="black"/>
</g>
<defs>
<filter id="filter0_d_424_57156" x="0.730469" y="0.539062" width="57.7354" height="57.7354" filterUnits="userSpaceOnUse" color-interpolation-filters="sRGB">
<feFlood flood-opacity="0" result="BackgroundImageFix"/>
<feColorMatrix in="SourceAlpha" type="matrix" values="0 0 0 0 0 0 0 0 0 0 0 0 0 0 0 0 0 0 127 0" result="hardAlpha"/>
<feOffset dy="4"/>
<feGaussianBlur stdDeviation="2"/>
<feComposite in2="hardAlpha" operator="out"/>
<feColorMatrix type="matrix" values="0 0 0 0 0 0 0 0 0 0 0 0 0 0 0 0 0 0 0.25 0"/>
<feBlend mode="normal" in2="BackgroundImageFix" result="effect1_dropShadow_424_57156"/>
<feBlend mode="normal" in="SourceGraphic" in2="effect1_dropShadow_424_57156" result="shape"/>
</filter>
</defs>
</svg>
