<svg width="59" height="59" viewBox="0 0 59 59" fill="none" xmlns="http://www.w3.org/2000/svg">
<g filter="url(#filter0_d_424_57178)">
<path d="M53.9658 25.4077C53.9658 38.8656 43.056 49.7754 29.5981 49.7754C16.1402 49.7754 5.23047 38.8656 5.23047 25.4077C5.23047 11.9498 16.1402 1.04004 29.5981 1.04004C43.056 1.04004 53.9658 11.9498 53.9658 25.4077Z" fill="#D0DDD4" stroke="black"/>
<circle cx="29.5991" cy="25.4086" r="18.2377" fill="white" stroke="black"/>
<path d="M16.964 32.9072V30.0032H21.476V18.7712H21.26L17.852 23.2352L15.548 21.4352L19.556 16.1552H25.076V30.0032H28.628V32.9072H16.964ZM36.2986 33.1952C34.1066 33.1952 32.4826 32.4352 31.4266 30.9152C30.3706 29.3952 29.8426 27.2672 29.8426 24.5312C29.8426 21.7952 30.3706 19.6672 31.4266 18.1472C32.4826 16.6272 34.1066 15.8672 36.2986 15.8672C38.4906 15.8672 40.1146 16.6272 41.1706 18.1472C42.2266 19.6672 42.7546 21.7952 42.7546 24.5312C42.7546 27.2672 42.2266 29.3952 41.1706 30.9152C40.1146 32.4352 38.4906 33.1952 36.2986 33.1952ZM36.2986 30.1472C37.2586 30.1472 37.9226 29.7952 38.2906 29.0912C38.6586 28.3872 38.8426 27.3952 38.8426 26.1152V22.9472C38.8426 21.6672 38.6586 20.6752 38.2906 19.9712C37.9226 19.2672 37.2586 18.9152 36.2986 18.9152C35.3386 18.9152 34.6746 19.2672 34.3066 19.9712C33.9386 20.6752 33.7546 21.6672 33.7546 22.9472V26.1152C33.7546 27.3952 33.9386 28.3872 34.3066 29.0912C34.6746 29.7952 35.3386 30.1472 36.2986 30.1472Z" fill="black"/>
</g>
<defs>
<filter id="filter0_d_424_57178" x="0.730469" y="0.540039" width="57.7354" height="57.7354" filterUnits="userSpaceOnUse" color-interpolation-filters="sRGB">
<feFlood flood-opacity="0" result="BackgroundImageFix"/>
<feColorMatrix in="SourceAlpha" type="matrix" values="0 0 0 0 0 0 0 0 0 0 0 0 0 0 0 0 0 0 127 0" result="hardAlpha"/>
<feOffset dy="4"/>
<feGaussianBlur stdDeviation="2"/>
<feComposite in2="hardAlpha" operator="out"/>
<feColorMatrix type="matrix" values="0 0 0 0 0 0 0 0 0 0 0 0 0 0 0 0 0 0 0.25 0"/>
<feBlend mode="normal" in2="BackgroundImageFix" result="effect1_dropShadow_424_57178"/>
<feBlend mode="normal" in="SourceGraphic" in2="effect1_dropShadow_424_57178" result="shape"/>
</filter>
</defs>
</svg>
