<svg width="59" height="59" viewBox="0 0 59 59" fill="none" xmlns="http://www.w3.org/2000/svg">
<g filter="url(#filter0_d_424_57167)">
<path d="M53.9658 25.4077C53.9658 38.8656 43.056 49.7754 29.5981 49.7754C16.1402 49.7754 5.23047 38.8656 5.23047 25.4077C5.23047 11.9498 16.1402 1.04004 29.5981 1.04004C43.056 1.04004 53.9658 11.9498 53.9658 25.4077Z" fill="#D0DDD4" stroke="black"/>
<circle cx="29.5991" cy="25.4086" r="18.2377" fill="white" stroke="black"/>
<path d="M35.2953 23.5152C35.2953 24.6992 35.1113 25.8112 34.7433 26.8512C34.3913 27.8912 33.9273 28.8592 33.3513 29.7552C32.7913 30.6352 32.1513 31.4272 31.4313 32.1312C30.7273 32.8352 30.0153 33.4272 29.2953 33.9072H24.3273C25.3513 33.1712 26.2713 32.4752 27.0873 31.8192C27.9033 31.1472 28.6073 30.4752 29.1993 29.8032C29.8073 29.1312 30.3033 28.4512 30.6873 27.7632C31.0713 27.0592 31.3513 26.3072 31.5273 25.5072L31.3113 25.4352C31.1673 25.7552 30.9913 26.0672 30.7833 26.3712C30.5913 26.6752 30.3433 26.9472 30.0393 27.1872C29.7513 27.4112 29.4073 27.5952 29.0073 27.7392C28.6073 27.8832 28.1433 27.9552 27.6153 27.9552C26.9273 27.9552 26.2793 27.8352 25.6713 27.5952C25.0793 27.3392 24.5593 26.9872 24.1113 26.5392C23.6793 26.0912 23.3353 25.5472 23.0793 24.9072C22.8393 24.2672 22.7193 23.5472 22.7193 22.7472C22.7193 21.8832 22.8633 21.0912 23.1513 20.3712C23.4553 19.6512 23.8793 19.0352 24.4233 18.5232C24.9833 17.9952 25.6473 17.5872 26.4153 17.2992C27.1833 17.0112 28.0473 16.8672 29.0073 16.8672C29.9993 16.8672 30.8873 17.0272 31.6713 17.3472C32.4553 17.6512 33.1113 18.0992 33.6393 18.6912C34.1833 19.2672 34.5913 19.9632 34.8633 20.7792C35.1513 21.5952 35.2953 22.5072 35.2953 23.5152ZM29.0073 25.1952C29.8073 25.1952 30.4313 24.9792 30.8793 24.5472C31.3273 24.0992 31.5513 23.4672 31.5513 22.6512V22.2192C31.5513 21.4032 31.3273 20.7792 30.8793 20.3472C30.4313 19.8992 29.8073 19.6752 29.0073 19.6752C28.2073 19.6752 27.5833 19.8992 27.1353 20.3472C26.6873 20.7792 26.4633 21.4032 26.4633 22.2192V22.6512C26.4633 23.4672 26.6873 24.0992 27.1353 24.5472C27.5833 24.9792 28.2073 25.1952 29.0073 25.1952Z" fill="black"/>
</g>
<defs>
<filter id="filter0_d_424_57167" x="0.730469" y="0.540039" width="57.7354" height="57.7354" filterUnits="userSpaceOnUse" color-interpolation-filters="sRGB">
<feFlood flood-opacity="0" result="BackgroundImageFix"/>
<feColorMatrix in="SourceAlpha" type="matrix" values="0 0 0 0 0 0 0 0 0 0 0 0 0 0 0 0 0 0 127 0" result="hardAlpha"/>
<feOffset dy="4"/>
<feGaussianBlur stdDeviation="2"/>
<feComposite in2="hardAlpha" operator="out"/>
<feColorMatrix type="matrix" values="0 0 0 0 0 0 0 0 0 0 0 0 0 0 0 0 0 0 0.25 0"/>
<feBlend mode="normal" in2="BackgroundImageFix" result="effect1_dropShadow_424_57167"/>
<feBlend mode="normal" in="SourceGraphic" in2="effect1_dropShadow_424_57167" result="shape"/>
</filter>
</defs>
</svg>
