<svg width="51" height="51" viewBox="0 0 51 51" fill="none" xmlns="http://www.w3.org/2000/svg">
<path d="M25.7305 50.8125C39.5376 50.8125 50.7305 39.6196 50.7305 25.8125C50.7305 12.0054 39.5376 0.8125 25.7305 0.8125C11.9233 0.8125 0.730469 12.0054 0.730469 25.8125C0.730469 39.6196 11.9233 50.8125 25.7305 50.8125Z" fill="black"/>
<path d="M26.7304 34.7498C29.7986 34.7498 32.2859 32.2625 32.2859 29.1942C32.2859 26.126 29.7986 23.6387 26.7304 23.6387C23.6621 23.6387 21.1748 26.126 21.1748 29.1942C21.1748 32.2625 23.6621 34.7498 26.7304 34.7498Z" fill="white"/>
<path d="M28.0366 6.0249H23.426C20.5701 6.0249 18.2549 8.34011 18.2549 11.1961C18.2549 14.052 20.5701 16.3672 23.426 16.3672H28.0366C30.8925 16.3672 33.2077 14.052 33.2077 11.1961C33.2077 8.34011 30.8925 6.0249 28.0366 6.0249Z" fill="white"/>
<path d="M24.2656 14.7725C24.2656 14.7725 25.0939 17.1178 26.7711 18.5982C26.9633 18.7675 27.2562 18.589 27.1898 18.3442C26.9702 17.5342 26.7231 16.2071 27.0388 15.0242L24.2679 14.7747L24.2656 14.7725Z" fill="white"/>
<path d="M13.8045 19.8908L9.20084 20.1516C6.36128 20.3118 4.16926 22.767 4.33172 25.6065C4.49189 28.4461 6.94704 30.6381 9.7866 30.4756L13.9601 30.24C14.6031 30.8532 15.5847 31.6563 16.7265 32.13C16.9805 32.2352 17.2161 31.9469 17.0628 31.7181C16.7425 31.2467 16.3444 30.574 16.0927 29.8212C18.0536 28.9952 19.3876 26.9977 19.2594 24.7599C19.0992 21.9204 16.6441 19.7283 13.8045 19.8908Z" fill="white"/>
<path d="M39.3169 17.7424L43.9206 18.0032C46.7601 18.1634 48.9522 20.6185 48.7897 23.4581C48.6295 26.2976 46.1744 28.4897 43.3348 28.3272L39.1613 28.0915C38.5183 28.7048 37.5367 29.5079 36.395 29.9815C36.141 30.0868 35.9053 29.7985 36.0586 29.5697C36.3789 29.0983 36.7771 28.4256 37.0288 27.6728C35.0678 26.8468 33.7339 24.8493 33.862 22.6115C34.0222 19.7719 36.4773 17.5799 39.3169 17.7424Z" fill="white"/>
<path d="M13.2627 47.5842C16.8939 49.6389 21.0881 50.8128 25.5568 50.8128C30.8766 50.8128 35.8098 49.1493 39.8621 46.3166C38.4892 41.6122 35.1005 35.7363 26.7283 35.7363C17.5827 35.7363 14.3816 42.7448 13.2627 47.5842Z" fill="white"/>
</svg>
