<svg width="201" height="201" viewBox="0 0 201 201" fill="none" xmlns="http://www.w3.org/2000/svg">
<path d="M100.857 17.063C89.0819 17.063 78.8127 23.5128 73.39 33.0724C62.7958 30.147 50.9736 32.8477 42.6469 41.1744C34.3202 49.5011 31.6195 61.3234 34.545 71.9176C24.9851 77.3403 18.5352 87.6095 18.5352 99.3853C18.5352 111.161 24.985 121.43 34.5446 126.853C31.6192 137.447 34.3198 149.269 42.6465 157.596C50.9732 165.923 62.7956 168.623 73.3898 165.698C78.8125 175.258 89.0817 181.708 100.857 181.708C112.633 181.708 122.902 175.258 128.325 165.698C138.919 168.624 150.741 165.923 159.068 157.596C167.395 149.27 170.095 137.447 167.17 126.853C176.73 121.43 183.18 111.161 183.18 99.3853C183.18 87.6097 176.73 77.3406 167.17 71.9179C170.096 61.3237 167.395 49.5014 159.068 41.1747C150.742 32.848 138.919 30.1474 128.325 33.0728C122.903 23.513 112.633 17.063 100.857 17.063Z" fill="#89E67B"/>
<circle cx="67.9855" cy="174.679" r="4.8766" transform="rotate(-5.63894 67.9855 174.679)" fill="#89E67B"/>
<circle cx="57.9331" cy="180.572" r="3.1648" transform="rotate(-5.63894 57.9331 180.572)" fill="#89E67B"/>
</svg>
