<svg width="24" height="90" viewBox="0 0 24 90" fill="none" xmlns="http://www.w3.org/2000/svg">
<path d="M17.7467 85.7773C17.7467 86.3426 17.6827 86.86 17.5547 87.3293C17.4267 87.7986 17.2294 88.1986 16.9627 88.5293C16.696 88.86 16.3654 89.116 15.9707 89.2973C15.576 89.4786 15.1067 89.5693 14.5627 89.5693C14.264 89.5693 14.0027 89.548 13.7787 89.5053C13.5547 89.4626 13.352 89.4093 13.1707 89.3453C12.9894 89.2706 12.8294 89.1906 12.6907 89.1053C12.552 89.02 12.424 88.94 12.3067 88.8653C12.072 88.716 11.8214 88.588 11.5547 88.4813C11.2774 88.364 11.0054 88.3053 10.7387 88.3053L10.6267 88.3053L10.6267 89.6653L8.69069 89.6653L8.69069 87.8893C8.69069 87.2813 8.82935 86.8173 9.10669 86.4973C9.37335 86.1773 9.73602 86.0173 10.1947 86.0173L10.2587 86.0173C10.568 86.0173 10.8827 86.06 11.2027 86.1453C11.5227 86.2306 11.8854 86.3746 12.2907 86.5773C12.5894 86.7266 12.8667 86.8546 13.1227 86.9613C13.368 87.0573 13.688 87.1053 14.0827 87.1053L14.5147 87.1053C14.92 87.1053 15.24 86.9933 15.4747 86.7693C15.6987 86.5453 15.8107 86.2306 15.8107 85.8253C15.8107 85.42 15.704 85.1053 15.4907 84.8813C15.2667 84.6466 14.952 84.5293 14.5467 84.5293L8.69069 84.5293L8.69069 82.2093L14.1947 82.2093C15.304 82.2093 16.1734 82.524 16.8027 83.1533C17.432 83.772 17.7467 84.6466 17.7467 85.7773ZM5.60269 85.5879L5.60269 84.5799L5.05869 84.5799C4.87735 84.5799 4.74935 84.6172 4.67469 84.6919C4.58935 84.7772 4.54669 84.9426 4.54669 85.1879L4.54669 85.5879L2.91469 85.5879L2.91469 84.2599C2.91469 83.7372 3.03202 83.3319 3.26669 83.0439C3.49069 82.7559 3.80002 82.6119 4.19469 82.6119C4.46135 82.6119 4.71202 82.6919 4.94669 82.8519C5.17069 83.0226 5.34669 83.2519 5.47469 83.5399L5.60269 83.5399L5.60269 80.5639L7.23469 80.5639L7.23469 85.5879L5.60269 85.5879ZM17.7467 76.6965C17.7467 77.2619 17.672 77.7845 17.5227 78.2645C17.3627 78.7445 17.1494 79.1605 16.8827 79.5125C16.6054 79.8539 16.28 80.1259 15.9067 80.3285C15.5334 80.5205 15.1227 80.6165 14.6747 80.6165L13.8907 80.6165C13.4534 80.6165 13.1067 80.4992 12.8507 80.2645C12.5947 80.0192 12.4667 79.6565 12.4667 79.1765L12.4667 77.2565L14.2107 77.2565L14.2107 78.4885L14.4667 78.4885C14.9467 78.4885 15.3147 78.3285 15.5707 78.0085C15.816 77.6885 15.9387 77.2245 15.9387 76.6165C15.9387 76.0725 15.7574 75.6565 15.3947 75.3685C15.0214 75.0699 14.5147 74.9205 13.8747 74.9205L12.4027 74.9205C11.7627 74.9205 11.2667 75.0912 10.9147 75.4325C10.552 75.7739 10.3707 76.2539 10.3707 76.8725C10.3707 77.1712 10.408 77.4539 10.4827 77.7205C10.5574 77.9765 10.6534 78.2112 10.7707 78.4245C10.888 78.6272 11.0214 78.8085 11.1707 78.9685C11.3094 79.1179 11.4427 79.2352 11.5707 79.3205L10.2907 80.7605C9.78935 80.4299 9.36802 79.9339 9.02669 79.2725C8.67469 78.6005 8.49869 77.7685 8.49869 76.7765C8.49869 76.1045 8.60535 75.5019 8.81869 74.9685C9.02135 74.4245 9.32535 73.9659 9.73069 73.5925C10.1254 73.2192 10.6107 72.9365 11.1867 72.7445C11.752 72.5419 12.3974 72.4405 13.1227 72.4405C13.848 72.4405 14.4987 72.5365 15.0747 72.7285C15.64 72.9205 16.1254 73.2032 16.5307 73.5765C16.9254 73.9392 17.2294 74.3872 17.4427 74.9205C17.6454 75.4432 17.7467 76.0352 17.7467 76.6965ZM17.7467 65.6937C17.7467 66.0777 17.6987 66.4137 17.6027 66.7017C17.5067 66.979 17.384 67.2243 17.2347 67.4377C17.0747 67.6403 16.8934 67.811 16.6907 67.9497C16.488 68.0777 16.28 68.179 16.0667 68.2537L16.0667 68.3337L17.5547 68.3337L17.5547 70.7017L8.69069 70.7017L8.69069 68.3337L14.4507 68.3337C14.6747 68.3337 14.872 68.2857 15.0427 68.1897C15.2134 68.0937 15.3574 67.971 15.4747 67.8217C15.592 67.6617 15.6827 67.4857 15.7467 67.2937C15.8 67.091 15.8267 66.8937 15.8267 66.7017C15.8267 66.403 15.7787 66.1577 15.6827 65.9657C15.5867 65.763 15.4587 65.6083 15.2987 65.5017C15.128 65.395 14.936 65.3203 14.7227 65.2777C14.5094 65.235 14.2854 65.2137 14.0507 65.2137L8.69069 65.2137L8.69069 62.8457L14.2587 62.8457C15.3787 62.8457 16.2427 63.0857 16.8507 63.5657C17.448 64.0457 17.7467 64.755 17.7467 65.6937ZM23.2827 65.5725C23.2827 66.0312 23.2294 66.4152 23.1227 66.7245C23.0267 67.0445 22.8827 67.3005 22.6907 67.4925C22.5094 67.6845 22.2907 67.8232 22.0347 67.9085C21.7894 67.9939 21.512 68.0365 21.2027 68.0365L20.7387 68.0365L20.7387 69.0605L19.2187 69.0605L19.2187 67.7965C19.2187 67.2632 19.32 66.8792 19.5227 66.6445C19.7254 66.4205 19.9974 66.3085 20.3387 66.3085L20.8667 66.3085C21.464 66.3085 21.7627 66.0579 21.7627 65.5565C21.7627 65.2792 21.688 65.0819 21.5387 64.9645C21.4 64.8472 21.176 64.7885 20.8667 64.7885L19.2187 64.7885L19.2187 62.8525L20.6747 62.8525C21.4427 62.8525 22.0667 63.0712 22.5467 63.5085C23.0374 63.9565 23.2827 64.6445 23.2827 65.5725ZM17.7147 58.2529C17.7147 59.1062 17.5067 59.7889 17.0907 60.3009C16.664 60.8022 16.0027 61.0529 15.1067 61.0529C14.2747 61.0529 13.6294 60.8129 13.1707 60.3329C12.712 59.8529 12.4827 59.1596 12.4827 58.2529L12.4827 55.6129L12.0187 55.6129C11.4854 55.6129 11.08 55.7569 10.8027 56.0449C10.5147 56.3222 10.3707 56.7809 10.3707 57.4209C10.3707 57.7302 10.408 58.0022 10.4827 58.2369C10.5574 58.4716 10.6587 58.6849 10.7867 58.8769C10.904 59.0689 11.0427 59.2396 11.2027 59.3889C11.352 59.5382 11.512 59.6716 11.6827 59.7889L10.3707 61.2929C9.79469 60.8876 9.34135 60.3756 9.01069 59.7569C8.66935 59.1382 8.49869 58.3062 8.49869 57.2609C8.49869 55.9276 8.79202 54.9249 9.37869 54.2529C9.95469 53.5809 10.808 53.2449 11.9387 53.2449L17.5547 53.2449L17.5547 55.6129L13.9867 55.6129L13.9867 57.4049C13.9867 58.2369 14.328 58.6529 15.0107 58.6529L15.2827 58.6529C15.6134 58.6529 15.88 58.5676 16.0827 58.3969C16.2747 58.2262 16.3707 57.9756 16.3707 57.6449C16.3707 57.5809 16.3707 57.5169 16.3707 57.4529C16.3707 57.3889 16.36 57.3249 16.3387 57.2609L17.6027 57.1009C17.624 57.1542 17.64 57.2289 17.6507 57.3249C17.672 57.4102 17.6827 57.5116 17.6827 57.6289C17.6934 57.7356 17.6987 57.8476 17.6987 57.9649C17.7094 58.0716 17.7147 58.1676 17.7147 58.2529ZM17.5547 48.5632C17.5547 49.3738 17.3574 49.9712 16.9627 50.3552C16.568 50.7285 15.9974 50.9152 15.2507 50.9152L8.69069 50.9152L8.69069 48.5472L15.7147 48.5472L15.7147 47.4432L17.5547 47.4432L17.5547 48.5632ZM8.69069 46.1604L8.69069 44.0004L13.3147 43.5844L14.7707 43.4884L14.7707 43.3604L13.3147 43.0404L8.69069 41.8404L8.69068 40.2724L13.3147 39.0724L14.7707 38.7524L14.7707 38.6404L13.3147 38.5924L8.69068 38.1124L8.69068 35.9524L17.5547 37.1524L17.5547 39.6644L12.3547 40.8164L11.1067 41.0404L11.1067 41.0884L12.3547 41.3444L17.5547 42.5124L17.5547 44.9764L8.69069 46.1604ZM5.60268 43.3227L5.60268 35.9307L7.33068 35.9307L7.33068 43.3227L5.60268 43.3227ZM0.946683 37.9147L0.946683 35.9307L3.50668 35.9307L3.50668 37.9147L0.946683 37.9147ZM17.7467 28.9749C17.7467 29.3589 17.6987 29.6949 17.6027 29.9829C17.5067 30.2602 17.384 30.5056 17.2347 30.7189C17.0747 30.9216 16.8934 31.0922 16.6907 31.2309C16.488 31.3589 16.28 31.4602 16.0667 31.5349L16.0667 31.6149L17.5547 31.6149L17.5547 33.9829L8.69068 33.9829L8.69068 31.6149L14.4507 31.6149C14.6747 31.6149 14.872 31.5669 15.0427 31.4709C15.2134 31.3749 15.3574 31.2522 15.4747 31.1029C15.592 30.9429 15.6827 30.7669 15.7467 30.5749C15.8 30.3722 15.8267 30.1749 15.8267 29.9829C15.8267 29.6842 15.7787 29.4389 15.6827 29.2469C15.5867 29.0442 15.4587 28.8896 15.2987 28.7829C15.128 28.6762 14.936 28.6016 14.7227 28.5589C14.5094 28.5162 14.2854 28.4949 14.0507 28.4949L8.69068 28.4949L8.69068 26.1269L14.2587 26.1269C15.3787 26.1269 16.2427 26.3669 16.8507 26.8469C17.448 27.3269 17.7467 28.0362 17.7467 28.9749ZM17.5547 21.4382C17.5547 22.2488 17.3574 22.8462 16.9627 23.2302C16.568 23.6035 15.9974 23.7902 15.2507 23.7902L8.69068 23.7902L8.69068 21.4222L15.7147 21.4222L15.7147 20.3182L17.5547 20.3182L17.5547 21.4382ZM17.7467 15.1154C17.7467 16.4487 17.3627 17.4727 16.5947 18.1874C15.816 18.9021 14.648 19.2594 13.0907 19.2594C11.5867 19.2594 10.4454 19.0247 9.66668 18.5554C8.88802 18.0754 8.49868 17.3661 8.49868 16.4274C8.49868 15.9047 8.63735 15.4834 8.91468 15.1634C9.19202 14.8327 9.58668 14.6247 10.0987 14.5394L10.0987 14.4274C9.58668 14.3421 9.19202 14.1127 8.91468 13.7394C8.63735 13.3661 8.49868 12.8914 8.49868 12.3154C8.49868 11.6434 8.72802 11.1047 9.18668 10.6994C9.63468 10.2834 10.264 10.0754 11.0747 10.0754L17.5547 10.0754L17.5547 12.4434L11.4107 12.4434C11.0907 12.4434 10.8507 12.5021 10.6907 12.6194C10.5307 12.7367 10.4507 12.8967 10.4507 13.0994C10.4507 13.3447 10.5574 13.5207 10.7707 13.6274C10.984 13.7341 11.2614 13.8087 11.6027 13.8514L11.6027 15.2594C11.2614 15.3021 10.984 15.3714 10.7707 15.4674C10.5574 15.5634 10.4507 15.7341 10.4507 15.9794C10.4507 16.2674 10.5947 16.4754 10.8827 16.6034C11.1707 16.7207 11.592 16.7794 12.1467 16.7794L13.8907 16.7794C14.1787 16.7794 14.44 16.7474 14.6747 16.6834C14.9094 16.6194 15.112 16.5127 15.2827 16.3634C15.4427 16.2034 15.5707 15.9954 15.6667 15.7394C15.752 15.4834 15.7947 15.1581 15.7947 14.7634C15.7947 14.5821 15.7734 14.4007 15.7307 14.2194L17.6187 13.9474C17.6614 14.0647 17.6934 14.2407 17.7147 14.4754C17.736 14.7101 17.7467 14.9234 17.7467 15.1154ZM5.60268 17.4633L5.60268 10.0713L7.33068 10.0713L7.33068 17.4633L5.60268 17.4633ZM17.7467 2.95929C17.7467 3.34329 17.6987 3.67929 17.6027 3.96729C17.5067 4.24462 17.384 4.48995 17.2347 4.70329C17.0747 4.90595 16.8934 5.07662 16.6907 5.21529C16.488 5.34329 16.28 5.44462 16.0667 5.51929L16.0667 5.59929L17.5547 5.59929L17.5547 7.96729L8.69068 7.96729L8.69068 5.59929L14.4507 5.59929C14.6747 5.59929 14.872 5.55129 15.0427 5.45529C15.2134 5.35929 15.3574 5.23662 15.4747 5.08729C15.592 4.92729 15.6827 4.75129 15.7467 4.55929C15.8 4.35662 15.8267 4.15929 15.8267 3.96729C15.8267 3.66862 15.7787 3.42329 15.6827 3.23129C15.5867 3.02862 15.4587 2.87395 15.2987 2.76729C15.128 2.66062 14.936 2.58595 14.7227 2.54329C14.5094 2.50062 14.2854 2.47929 14.0507 2.47929L8.69068 2.47929L8.69068 0.111289L14.2587 0.111288C15.3787 0.111288 16.2427 0.351288 16.8507 0.831288C17.448 1.31129 17.7467 2.02062 17.7467 2.95929Z" fill="black"/>
</svg>
