<svg width="27" height="26" viewBox="0 0 27 26" fill="none" xmlns="http://www.w3.org/2000/svg">
<path opacity="0.3" d="M13.4658 25.5442C12.1282 24.2384 10.7906 22.9327 9.45291 21.6269C9.23903 21.418 9.01156 21.2188 8.68564 20.9185H13.0686V13.5605H5.46377V17.6443C5.41963 17.6639 5.37549 17.6802 5.33136 17.6998C4.32983 16.727 3.33509 15.7509 2.33016 14.7846C1.76659 14.2427 1.18265 13.7171 0.608887 13.185C0.608887 13.1491 0.608887 13.11 0.608887 13.0741C1.96689 11.7879 3.3249 10.5017 4.68291 9.21548C4.90019 9.00982 5.11068 8.79763 5.41963 8.4973V12.6921H13.072V5.37323H8.82823C8.80786 5.33079 8.79088 5.28836 8.77051 5.24592C9.78223 4.28291 10.7973 3.32643 11.8023 2.36015C12.3658 1.81825 12.9124 1.25677 13.4658 0.705078C13.5032 0.705078 13.5439 0.705078 13.5813 0.705078C14.9189 2.01086 16.2565 3.31663 17.5942 4.62241C17.8081 4.83133 18.0355 5.03046 18.3614 5.33079H13.9785V12.6888H21.5867V8.60829L21.7191 8.5528C22.7207 9.5256 23.7154 10.5017 24.7203 11.4679C25.2839 12.0098 25.8678 12.5354 26.4416 13.0675V13.1785C25.0836 14.4647 23.7256 15.7509 22.3676 17.0371C22.1503 17.2427 21.9432 17.4615 21.6308 17.7748V13.5605H13.9785V20.8761H18.2222C18.2426 20.9185 18.2596 20.9609 18.28 21.0034C17.2682 21.9664 16.2531 22.9229 15.2482 23.8891C14.6846 24.431 14.138 24.9925 13.5847 25.5442H13.4692H13.4658Z" fill="black"/>
</svg>
