<svg width="51" height="51" viewBox="0 0 51 51" fill="none" xmlns="http://www.w3.org/2000/svg">
<path d="M25.7305 50.4072C39.5376 50.4072 50.7305 39.2143 50.7305 25.4072C50.7305 11.6001 39.5376 0.407227 25.7305 0.407227C11.9233 0.407227 0.730469 11.6001 0.730469 25.4072C0.730469 39.2143 11.9233 50.4072 25.7305 50.4072Z" fill="black"/>
<path d="M13.1436 25.2496C16.0615 25.2496 18.4269 22.8842 18.4269 19.9664C18.4269 17.0485 16.0615 14.6831 13.1436 14.6831C10.2258 14.6831 7.86035 17.0485 7.86035 19.9664C7.86035 22.8842 10.2258 25.2496 13.1436 25.2496Z" fill="white"/>
<path d="M39.0655 24.5333C41.9834 24.5333 44.3488 22.1679 44.3488 19.2501C44.3488 16.3322 41.9834 13.9668 39.0655 13.9668C36.1476 13.9668 33.7822 16.3322 33.7822 19.2501C33.7822 22.1679 36.1476 24.5333 39.0655 24.5333Z" fill="white"/>
<path d="M24.612 7.5029L28.6231 8.29231C31.0965 8.77968 32.7211 11.2028 32.2337 13.6763C31.7464 16.1497 29.3232 17.7743 26.8498 17.2869L23.2139 16.5707C22.5733 17.0306 21.6145 17.6164 20.5551 17.8933C20.3195 17.955 20.1479 17.6713 20.3103 17.4905C20.649 17.1153 21.0791 16.573 21.3926 15.9438C19.7726 14.9805 18.8436 13.063 19.228 11.1136C19.7154 8.6401 22.1385 7.01553 24.612 7.5029Z" fill="white"/>
<path d="M27.0099 31.3727L22.9783 30.7069C20.4911 30.295 18.7933 27.9245 19.2051 25.4373C19.617 22.9502 21.9875 21.2524 24.4747 21.6642L28.1311 22.2683C28.7558 21.7878 29.6985 21.1746 30.7487 20.8657C30.9821 20.797 31.1629 21.0739 31.005 21.2592C30.6778 21.6436 30.2636 22.1997 29.9708 22.8403C31.6205 23.7533 32.6067 25.641 32.2817 27.5996C31.8699 30.0868 29.4994 31.7846 27.0122 31.3727H27.0099Z" fill="white"/>
<path d="M50.6846 26.8968C48.8678 25.2997 46.2685 23.968 42.802 24.3776C42.1339 24.4577 41.3147 24.7894 40.4635 25.2539C37.5393 26.851 35.2489 29.4023 33.8623 32.4318L30.9335 39.0948L26.2177 39.1474L21.4195 38.5411L15.6832 28.9927C14.8 27.51 13.3562 26.3088 11.0612 25.7779C6.35453 24.6865 2.92922 27.0936 0.998047 29.0911C2.10092 36.5664 6.51242 42.9663 12.6995 46.7508C13.7635 44.8677 15.3835 41.8886 16.1065 40.0123L18.7722 42.6437C19.3694 43.234 20.1633 43.5772 21.0031 43.6115L27.673 43.8083L31.7366 43.9525C33.0249 43.9982 34.2307 43.3232 34.8645 42.202L36.647 39.0536C37.2785 41.4447 38.8138 44.9661 39.4247 46.3275C45.8452 42.1174 50.2086 35.0311 50.6869 26.8991L50.6846 26.8968Z" fill="white"/>
</svg>
