<svg width="51" height="51" viewBox="0 0 51 51" fill="none" xmlns="http://www.w3.org/2000/svg">
<path d="M25.4658 50.4072C39.2729 50.4072 50.4658 39.2143 50.4658 25.4072C50.4658 11.6001 39.2729 0.407227 25.4658 0.407227C11.6587 0.407227 0.46582 11.6001 0.46582 25.4072C0.46582 39.2143 11.6587 50.4072 25.4658 50.4072Z" fill="black"/>
<path d="M25.0556 29.8144C28.7835 29.8144 31.8056 26.7923 31.8056 23.0644C31.8056 19.3365 28.7835 16.3145 25.0556 16.3145C21.3277 16.3145 18.3057 19.3365 18.3057 23.0644C18.3057 26.7923 21.3277 29.8144 25.0556 29.8144Z" fill="white"/>
<path d="M25.0556 14.7447C22.0833 14.7447 17.0518 14.175 17.0518 12.0447C17.0518 9.91448 22.0833 9.34473 25.0556 9.34473C28.0279 9.34473 33.0594 9.91448 33.0594 12.0447C33.0594 14.175 28.0279 14.7447 25.0556 14.7447ZM18.4361 12.0447C18.7221 12.5252 21.1498 13.3718 25.0556 13.3718C28.9614 13.3718 31.3891 12.5252 31.6751 12.0447C31.3891 11.5642 28.9614 10.7176 25.0556 10.7176C21.1498 10.7176 18.7221 11.5642 18.4361 12.0447Z" fill="white"/>
<path d="M25.4656 50.4074C31.4582 50.4074 36.9589 48.2978 41.2651 44.7832C39.7755 38.9462 35.7805 31.0156 25.0561 31.0156C14.3317 31.0156 10.5997 38.4452 8.99805 44.2158C13.3958 48.0713 19.1573 50.4074 25.4656 50.4074Z" fill="white"/>
</svg>
