<svg width="59" height="59" viewBox="0 0 59 59" fill="none" xmlns="http://www.w3.org/2000/svg">
<g filter="url(#filter0_d_424_57134)">
<path d="M53.9658 25.4077C53.9658 38.8656 43.056 49.7754 29.5981 49.7754C16.1402 49.7754 5.23047 38.8656 5.23047 25.4077C5.23047 11.9498 16.1402 1.04004 29.5981 1.04004C43.056 1.04004 53.9658 11.9498 53.9658 25.4077Z" fill="#D0DDD4" stroke="black"/>
<circle cx="29.5991" cy="25.4086" r="18.2377" fill="white" stroke="black"/>
<path d="M29.1993 34.1952C28.2073 34.1952 27.3193 34.0432 26.5353 33.7392C25.7513 33.4192 25.0873 32.9712 24.5433 32.3952C24.0153 31.8032 23.6073 31.0992 23.3193 30.2832C23.0473 29.4672 22.9113 28.5552 22.9113 27.5472C22.9113 26.3792 23.0873 25.2752 23.4393 24.2352C23.8073 23.1792 24.2713 22.2112 24.8313 21.3312C25.4073 20.4352 26.0473 19.6352 26.7513 18.9312C27.4713 18.2272 28.1913 17.6352 28.9113 17.1552H33.8793C32.8553 17.8912 31.9353 18.5952 31.1193 19.2672C30.3033 19.9232 29.5913 20.5872 28.9833 21.2592C28.3913 21.9312 27.8953 22.6192 27.4953 23.3232C27.1113 24.0112 26.8393 24.7552 26.6793 25.5552L26.8953 25.6272C27.0393 25.3072 27.2073 24.9952 27.3993 24.6912C27.6073 24.3872 27.8553 24.1232 28.1433 23.8992C28.4473 23.6592 28.7993 23.4672 29.1993 23.3232C29.5993 23.1792 30.0633 23.1072 30.5913 23.1072C31.2793 23.1072 31.9193 23.2352 32.5113 23.4912C33.1193 23.7312 33.6393 24.0752 34.0713 24.5232C34.5193 24.9712 34.8633 25.5232 35.1033 26.1792C35.3593 26.8192 35.4873 27.5312 35.4873 28.3152C35.4873 29.1792 35.3353 29.9712 35.0313 30.6912C34.7433 31.4112 34.3193 32.0352 33.7593 32.5632C33.2153 33.0752 32.5593 33.4752 31.7913 33.7632C31.0233 34.0512 30.1593 34.1952 29.1993 34.1952ZM29.1993 31.3872C29.9993 31.3872 30.6233 31.1712 31.0713 30.7392C31.5193 30.2912 31.7433 29.6592 31.7433 28.8432V28.4112C31.7433 27.5952 31.5193 26.9712 31.0713 26.5392C30.6233 26.0912 29.9993 25.8672 29.1993 25.8672C28.3993 25.8672 27.7753 26.0912 27.3273 26.5392C26.8793 26.9712 26.6553 27.5952 26.6553 28.4112V28.8432C26.6553 29.6592 26.8793 30.2912 27.3273 30.7392C27.7753 31.1712 28.3993 31.3872 29.1993 31.3872Z" fill="black"/>
</g>
<defs>
<filter id="filter0_d_424_57134" x="0.730469" y="0.540039" width="57.7354" height="57.7354" filterUnits="userSpaceOnUse" color-interpolation-filters="sRGB">
<feFlood flood-opacity="0" result="BackgroundImageFix"/>
<feColorMatrix in="SourceAlpha" type="matrix" values="0 0 0 0 0 0 0 0 0 0 0 0 0 0 0 0 0 0 127 0" result="hardAlpha"/>
<feOffset dy="4"/>
<feGaussianBlur stdDeviation="2"/>
<feComposite in2="hardAlpha" operator="out"/>
<feColorMatrix type="matrix" values="0 0 0 0 0 0 0 0 0 0 0 0 0 0 0 0 0 0 0.25 0"/>
<feBlend mode="normal" in2="BackgroundImageFix" result="effect1_dropShadow_424_57134"/>
<feBlend mode="normal" in="SourceGraphic" in2="effect1_dropShadow_424_57134" result="shape"/>
</filter>
</defs>
</svg>
