<svg width="51" height="51" viewBox="0 0 51 51" fill="none" xmlns="http://www.w3.org/2000/svg">
<path d="M25.4658 50.4072C39.2729 50.4072 50.4658 39.2144 50.4658 25.4072C50.4658 11.6001 39.2729 0.407227 25.4658 0.407227C11.6587 0.407227 0.46582 11.6001 0.46582 25.4072C0.46582 39.2144 11.6587 50.4072 25.4658 50.4072Z" fill="black"/>
<path d="M19.0912 41.3737H19.0934C19.0934 41.3737 19.0751 40.7971 18.8806 39.9986C18.8097 39.7034 18.6335 39.4494 18.4047 39.2503C16.9357 37.9759 16.0617 36.3307 15.9473 34.4682C15.4805 26.8853 15.0915 19.2979 14.6453 11.7151C14.5675 10.3994 15.4668 9.71071 16.3317 9.74961C17.041 9.78164 17.684 10.2919 17.8304 10.9875C17.8716 11.1797 17.8853 11.3787 17.8968 11.5755C18.1393 15.8863 18.3818 20.1994 18.6198 24.5103C18.6518 25.0892 18.6633 25.6681 18.6953 26.2469C18.7708 27.51 19.5167 28.455 20.6448 28.7273C21.7705 28.9996 22.8185 28.5259 23.4889 27.4459C23.5164 27.4025 23.5461 27.3613 23.5896 27.2995C24.4728 28.0363 25.4361 28.2674 26.4795 27.7297C27.4954 27.2057 27.8958 26.3019 27.8501 25.2127C28.7333 25.5788 29.5799 25.9381 30.4311 26.2767C30.6416 26.3591 30.74 26.4575 30.7468 26.6977C30.7629 27.3269 30.8109 27.9562 30.8498 28.6495C30.1519 28.7479 29.4792 28.8394 28.8088 28.9378C28.1841 29.0293 27.5458 29.0728 26.944 29.2421C25.777 29.5716 24.9693 30.3656 24.4293 31.4318C23.9488 32.3837 23.7063 33.3882 23.656 34.4659C23.6445 34.6924 23.839 34.8755 24.0632 34.8617C24.2486 34.8503 24.4019 34.7107 24.4248 34.5277C24.4774 34.1158 24.5209 33.7016 24.6193 33.2966C24.7428 32.7887 24.9053 32.2807 25.1318 31.8117C25.6924 30.6493 26.6236 29.9857 27.9279 29.8324C28.9667 29.7112 30.0055 29.5556 31.0374 29.3748C31.3967 29.313 31.6529 28.9904 31.6346 28.6266C31.5889 27.7457 31.5362 26.867 31.5019 25.9861C31.4951 25.7916 31.3761 25.6223 31.1953 25.5491C30.3899 25.2264 29.5868 24.897 28.7951 24.5377C28.0583 24.2059 27.7059 23.4349 27.9004 22.6729C28.088 21.9316 28.7562 21.4259 29.5387 21.4602C29.7446 21.4694 29.9574 21.522 30.1473 21.6021C31.6278 22.2176 33.1036 22.8468 34.584 23.4669C35.2453 23.7437 35.5793 24.2174 35.6343 24.945C35.7395 26.3751 35.9065 27.8006 36.0164 29.233C36.0576 29.7546 36.0438 30.2878 35.9935 30.8095C35.8745 32.0519 35.1881 32.958 34.1859 33.6399C32.7329 34.6283 31.7834 36.0104 31.0329 37.5617C30.7857 38.0742 30.7011 38.6097 30.724 39.1703L30.8109 40.7216C26.9188 40.939 22.9787 41.1609 19.0889 41.3783L19.0912 41.3737Z" fill="white"/>
<path d="M22.6354 22.0163C22.7086 23.3319 22.7933 24.6453 22.8528 25.961C22.8917 26.8259 22.3036 27.5261 21.4662 27.6634C20.7065 27.7892 19.9309 27.2996 19.6929 26.5307C19.6426 26.3706 19.6265 26.1967 19.6174 26.0274C19.4709 23.4784 19.3291 20.9271 19.1872 18.3759C19.13 17.3394 19.7547 16.5843 20.702 16.5317C21.6515 16.479 22.3608 17.1609 22.4226 18.1928C22.4981 19.4673 22.5668 20.7441 22.6377 22.0186L22.6354 22.0163Z" fill="white"/>
<path d="M26.7177 21.0944C26.791 22.4215 26.8802 23.7486 26.9351 25.078C26.9671 25.8514 26.466 26.4783 25.7201 26.6682C25.0085 26.8513 24.2443 26.5309 23.9125 25.8788C23.8027 25.6614 23.7249 25.4075 23.7089 25.1649C23.551 22.5496 23.4023 19.9343 23.2673 17.319C23.2215 16.4289 23.7821 15.7493 24.6241 15.5983C25.3815 15.4633 26.148 15.9072 26.402 16.6531C26.4729 16.8613 26.4912 17.0901 26.5049 17.3121C26.5805 18.5728 26.6491 19.8359 26.72 21.0966C26.72 21.0966 26.7177 21.0966 26.7155 21.0966L26.7177 21.0944Z" fill="white"/>
<path d="M31.1134 21.0391C29.8847 20.3961 28.7703 20.5906 27.6881 21.4052C27.6583 21.1306 27.624 21.0093 27.6835 20.7119L27.5279 17.7144C27.1641 16.4628 27.8711 15.4149 28.9831 15.3394C30.1203 15.2616 31.0699 16.2226 30.8891 17.4055L31.0585 20.2932C31.1294 20.5975 31.1134 20.7096 31.1134 21.0391Z" fill="white"/>
</svg>
