<svg width="51" height="51" viewBox="0 0 51 51" fill="none" xmlns="http://www.w3.org/2000/svg">
<path d="M25.4658 50.4072C39.2729 50.4072 50.4658 39.2143 50.4658 25.4072C50.4658 11.6001 39.2729 0.407227 25.4658 0.407227C11.6587 0.407227 0.46582 11.6001 0.46582 25.4072C0.46582 39.2143 11.6587 50.4072 25.4658 50.4072Z" fill="black"/>
<path d="M30.6001 35.5942H21.3035C21.2829 35.1618 21.2691 34.743 21.2417 34.3243C21.1181 32.4046 20.379 30.7571 18.9924 29.4254C18.0703 28.5399 17.1482 27.6659 16.4618 26.5721C15.4047 24.8904 14.8143 23.069 14.7159 21.0807C14.5901 18.5752 15.2171 16.2733 16.6426 14.2186C18.528 11.498 21.1113 9.82082 24.4084 9.39065C28.5065 8.85523 31.9386 10.2235 34.5906 13.3651C36.7551 15.9301 37.5537 18.9458 37.0388 22.2773C36.6407 24.8515 35.4646 27.0252 33.5495 28.7848C32.5015 29.7481 31.6114 30.8097 31.1035 32.1597C30.7602 33.0773 30.6138 34.0223 30.6001 34.997C30.5978 35.1869 30.6001 35.3768 30.6001 35.5942Z" fill="white"/>
<path d="M30.5797 36.8936V38.7835H21.3105V36.8936H30.5797Z" fill="white"/>
<path d="M30.5953 40.0762C30.5953 40.6139 30.6136 41.1264 30.5816 41.6367C30.5747 41.7557 30.4054 41.8884 30.2795 41.9662C30.1926 42.0188 30.053 41.9868 29.9386 41.9868C27.2729 41.9868 24.6073 41.9868 21.9393 41.9868C21.3284 41.9868 21.2781 41.9364 21.2803 41.3255C21.2803 40.9388 21.2872 40.5521 21.2918 40.1677C21.2918 40.1448 21.3101 40.1219 21.3307 40.0762H30.5953Z" fill="white"/>
</svg>
