<svg width="58" height="68" viewBox="0 0 58 68" fill="none" xmlns="http://www.w3.org/2000/svg">
<path d="M31.7991 40.5738L17.168 33.8086L5.55741 59.6422L15.3433 57.5283L20.1886 66.4073L31.7991 40.5738Z" fill="#89E67B" stroke="black"/>
<path d="M26.6609 40.5738L41.292 33.8086L52.9025 59.6422L43.1166 57.5283L38.2714 66.4073L26.6609 40.5738Z" fill="#89E67B" stroke="black"/>
<g filter="url(#filter0_d_424_57103)">
<ellipse cx="29.2305" cy="25.2576" rx="24.5" ry="24.8503" fill="#89E67B"/>
<path d="M53.2305 25.2576C53.2305 38.7126 42.4786 49.6079 29.2305 49.6079C15.9823 49.6079 5.23047 38.7126 5.23047 25.2576C5.23047 11.8025 15.9823 0.907227 29.2305 0.907227C42.4786 0.907227 53.2305 11.8025 53.2305 25.2576Z" stroke="black"/>
</g>
<path d="M47.1909 25.2574C47.1909 35.3293 39.143 43.482 29.2302 43.482C19.3175 43.482 11.2695 35.3293 11.2695 25.2574C11.2695 15.1855 19.3175 7.03271 29.2302 7.03271C39.143 7.03271 47.1909 15.1855 47.1909 25.2574Z" fill="white" stroke="black"/>
<path d="M28.0146 23.163C28.9106 23.163 29.5586 22.995 29.9586 22.659C30.3746 22.307 30.5826 21.875 30.5826 21.363V21.195C30.5826 20.587 30.3826 20.099 29.9826 19.731C29.5986 19.363 29.0466 19.179 28.3266 19.179C27.6546 19.179 27.0226 19.355 26.4306 19.707C25.8386 20.043 25.3346 20.531 24.9186 21.171L22.6626 19.059C22.9826 18.643 23.3266 18.267 23.6946 17.931C24.0626 17.579 24.4786 17.283 24.9426 17.043C25.4066 16.787 25.9266 16.595 26.5026 16.467C27.0786 16.323 27.7266 16.251 28.4466 16.251C29.3426 16.251 30.1506 16.355 30.8706 16.563C31.6066 16.771 32.2306 17.075 32.7426 17.475C33.2706 17.859 33.6706 18.323 33.9426 18.867C34.2306 19.411 34.3746 20.019 34.3746 20.691C34.3746 21.219 34.2866 21.699 34.1106 22.131C33.9506 22.563 33.7186 22.939 33.4146 23.259C33.1266 23.579 32.7906 23.843 32.4066 24.051C32.0226 24.243 31.6146 24.379 31.1826 24.459V24.603C31.6786 24.699 32.1346 24.859 32.5506 25.083C32.9826 25.291 33.3506 25.563 33.6546 25.899C33.9746 26.235 34.2226 26.635 34.3986 27.099C34.5746 27.547 34.6626 28.059 34.6626 28.635C34.6626 29.387 34.5106 30.067 34.2066 30.675C33.9026 31.283 33.4706 31.803 32.9106 32.235C32.3506 32.667 31.6786 33.003 30.8946 33.243C30.1106 33.467 29.2466 33.579 28.3026 33.579C27.4546 33.579 26.7026 33.491 26.0466 33.315C25.3906 33.139 24.8146 32.907 24.3186 32.619C23.8386 32.315 23.4146 31.971 23.0466 31.587C22.6946 31.203 22.3826 30.795 22.1106 30.363L24.7746 28.299C25.1426 28.987 25.5906 29.555 26.1186 30.003C26.6626 30.435 27.3906 30.651 28.3026 30.651C29.1186 30.651 29.7506 30.451 30.1986 30.051C30.6626 29.635 30.8946 29.075 30.8946 28.371V28.227C30.8946 27.539 30.6306 27.027 30.1026 26.691C29.5906 26.339 28.8786 26.163 27.9666 26.163H26.4546V23.163H28.0146Z" fill="black"/>
<defs>
<filter id="filter0_d_424_57103" x="0.730469" y="0.407227" width="57" height="57.7007" filterUnits="userSpaceOnUse" color-interpolation-filters="sRGB">
<feFlood flood-opacity="0" result="BackgroundImageFix"/>
<feColorMatrix in="SourceAlpha" type="matrix" values="0 0 0 0 0 0 0 0 0 0 0 0 0 0 0 0 0 0 127 0" result="hardAlpha"/>
<feOffset dy="4"/>
<feGaussianBlur stdDeviation="2"/>
<feComposite in2="hardAlpha" operator="out"/>
<feColorMatrix type="matrix" values="0 0 0 0 0 0 0 0 0 0 0 0 0 0 0 0 0 0 0.25 0"/>
<feBlend mode="normal" in2="BackgroundImageFix" result="effect1_dropShadow_424_57103"/>
<feBlend mode="normal" in="SourceGraphic" in2="effect1_dropShadow_424_57103" result="shape"/>
</filter>
</defs>
</svg>
