<svg width="59" height="59" viewBox="0 0 59 59" fill="none" xmlns="http://www.w3.org/2000/svg">
<g filter="url(#filter0_d_424_57123)">
<path d="M53.9658 25.4077C53.9658 38.8656 43.056 49.7754 29.5981 49.7754C16.1402 49.7754 5.23047 38.8656 5.23047 25.4077C5.23047 11.9498 16.1402 1.04004 29.5981 1.04004C43.056 1.04004 53.9658 11.9498 53.9658 25.4077Z" fill="#D0DDD4" stroke="black"/>
<circle cx="29.5991" cy="25.4086" r="18.2377" fill="white" stroke="black"/>
<path d="M34.4313 20.2992H26.8233L26.4633 25.6032H26.6553C26.8153 25.2032 26.9913 24.8432 27.1833 24.5232C27.3913 24.1872 27.6313 23.9072 27.9033 23.6832C28.1753 23.4432 28.5033 23.2592 28.8873 23.1312C29.2713 23.0032 29.7273 22.9392 30.2553 22.9392C30.9753 22.9392 31.6473 23.0592 32.2713 23.2992C32.8953 23.5392 33.4393 23.8912 33.9033 24.3552C34.3673 24.8032 34.7353 25.3632 35.0073 26.0352C35.2793 26.6912 35.4153 27.4352 35.4153 28.2672C35.4153 29.1152 35.2713 29.9072 34.9833 30.6432C34.7113 31.3632 34.2953 31.9872 33.7353 32.5152C33.1913 33.0432 32.5193 33.4592 31.7193 33.7632C30.9193 34.0512 30.0073 34.1952 28.9833 34.1952C28.1673 34.1952 27.4473 34.1072 26.8233 33.9312C26.1993 33.7552 25.6473 33.5232 25.1673 33.2352C24.6873 32.9312 24.2713 32.5872 23.9193 32.2032C23.5673 31.8192 23.2633 31.4112 23.0073 30.9792L25.6233 28.9152C25.9913 29.5712 26.4313 30.1312 26.9433 30.5952C27.4553 31.0432 28.1433 31.2672 29.0073 31.2672C29.8713 31.2672 30.5193 31.0192 30.9513 30.5232C31.3993 30.0272 31.6233 29.3712 31.6233 28.5552V28.3632C31.6233 27.5952 31.3993 26.9872 30.9513 26.5392C30.5033 26.0912 29.8873 25.8672 29.1033 25.8672C28.4473 25.8672 27.9033 26.0032 27.4713 26.2752C27.0553 26.5312 26.7353 26.7872 26.5113 27.0432L23.5593 26.6352L24.1833 17.1552H34.4313V20.2992Z" fill="black"/>
</g>
<defs>
<filter id="filter0_d_424_57123" x="0.730469" y="0.540039" width="57.7354" height="57.7354" filterUnits="userSpaceOnUse" color-interpolation-filters="sRGB">
<feFlood flood-opacity="0" result="BackgroundImageFix"/>
<feColorMatrix in="SourceAlpha" type="matrix" values="0 0 0 0 0 0 0 0 0 0 0 0 0 0 0 0 0 0 127 0" result="hardAlpha"/>
<feOffset dy="4"/>
<feGaussianBlur stdDeviation="2"/>
<feComposite in2="hardAlpha" operator="out"/>
<feColorMatrix type="matrix" values="0 0 0 0 0 0 0 0 0 0 0 0 0 0 0 0 0 0 0.25 0"/>
<feBlend mode="normal" in2="BackgroundImageFix" result="effect1_dropShadow_424_57123"/>
<feBlend mode="normal" in="SourceGraphic" in2="effect1_dropShadow_424_57123" result="shape"/>
</filter>
</defs>
</svg>
