<svg width="51" height="51" viewBox="0 0 51 51" fill="none" xmlns="http://www.w3.org/2000/svg">
<path d="M25.4658 50.4072C39.2729 50.4072 50.4658 39.2143 50.4658 25.4072C50.4658 11.6001 39.2729 0.407227 25.4658 0.407227C11.6587 0.407227 0.46582 11.6001 0.46582 25.4072C0.46582 39.2143 11.6587 50.4072 25.4658 50.4072Z" fill="black"/>
<path d="M41.7408 22.6962C41.7408 21.0671 40.9789 19.6164 39.7913 18.6806C40.3176 17.2642 40.2146 15.6282 39.368 14.2371C38.6747 13.0976 37.6039 12.3265 36.4164 11.9833C36.0983 10.7889 35.3501 9.70429 34.2243 8.98582C32.792 8.07286 31.0805 7.96303 29.6092 8.53506C28.6779 7.26058 27.1746 6.43457 25.4769 6.43457C23.7791 6.43457 22.2941 7.25143 21.3628 8.5099C19.903 7.94473 18.2029 8.05456 16.7774 8.95608C15.6059 9.69743 14.8394 10.8369 14.5396 12.0862C13.2995 12.4226 12.1852 13.2234 11.4781 14.4155C10.6704 15.7815 10.5697 17.3695 11.0686 18.7538C9.93365 19.6919 9.21289 21.1106 9.21289 22.6962C9.21289 24.2819 9.97484 25.776 11.1624 26.7119C10.6361 28.1282 10.7391 29.7642 11.5857 31.1554C12.279 32.2949 13.3498 33.066 14.5374 33.4092C14.8554 34.6036 15.6036 35.6882 16.7294 36.4067C18.1617 37.3196 19.8732 37.4295 21.3422 36.8574C22.2735 38.1319 23.7768 38.9579 25.4746 38.9579C27.1723 38.9579 28.655 38.1411 29.5886 36.8826C31.0484 37.4478 32.7485 37.3379 34.174 36.4364C35.3455 35.695 36.112 34.5556 36.4118 33.3063C37.6519 32.9699 38.7663 32.1691 39.4733 30.9769C40.281 29.6109 40.3817 28.023 39.8828 26.6387C41.0178 25.7005 41.7385 24.2819 41.7385 22.6962H41.7408Z" fill="white"/>
<path d="M24.4102 42.3125C25.1507 42.3125 25.751 41.7122 25.751 40.9717C25.751 40.2312 25.1507 39.6309 24.4102 39.6309C23.6696 39.6309 23.0693 40.2312 23.0693 40.9717C23.0693 41.7122 23.6696 42.3125 24.4102 42.3125Z" fill="white"/>
<path d="M22.8067 44.3829C23.2894 44.3829 23.6807 43.9915 23.6807 43.5088C23.6807 43.0261 23.2894 42.6348 22.8067 42.6348C22.3239 42.6348 21.9326 43.0261 21.9326 43.5088C21.9326 43.9915 22.3239 44.3829 22.8067 44.3829Z" fill="white"/>
<path d="M22.3354 30.7806C21.8663 30.7806 21.3996 30.6021 21.0403 30.2452L17.4983 26.7032C16.7844 25.9893 16.7844 24.8292 17.4983 24.1153C18.2122 23.4014 19.3723 23.4014 20.0862 24.1153L22.3331 26.3622L31.5291 17.1663C32.243 16.4524 33.403 16.4524 34.1169 17.1663C34.8308 17.8802 34.8308 19.0403 34.1169 19.7542L23.6282 30.2429C23.2712 30.5998 22.8022 30.7783 22.3331 30.7783L22.3354 30.7806Z" fill="black"/>
</svg>
