<svg width="51" height="51" viewBox="0 0 51 51" fill="none" xmlns="http://www.w3.org/2000/svg">
<path d="M25.4658 50.4072C39.2729 50.4072 50.4658 39.2144 50.4658 25.4072C50.4658 11.6001 39.2729 0.407227 25.4658 0.407227C11.6587 0.407227 0.46582 11.6001 0.46582 25.4072C0.46582 39.2144 11.6587 50.4072 25.4658 50.4072Z" fill="black"/>
<path d="M41.7301 22.7529C41.7301 21.1237 40.9681 19.6731 39.7806 18.7372C40.3068 17.3209 40.2039 15.6849 39.3573 14.2937C38.664 13.1542 37.5931 12.3831 36.4056 12.0399C36.0876 10.8455 35.3393 9.76093 34.2136 9.04246C32.7812 8.1295 31.0697 8.01967 29.5984 8.5917C28.6672 7.31722 27.1639 6.49121 25.4661 6.49121C23.7683 6.49121 22.2833 7.30807 21.3521 8.56654C19.8922 8.00137 18.1922 8.1112 16.7667 9.01272C15.5952 9.75408 14.8286 10.8936 14.5289 12.1429C13.2887 12.4792 12.1744 13.2801 11.4674 14.4722C10.6597 15.8382 10.559 17.4261 11.0578 18.8105C9.9229 19.7486 9.20215 21.1672 9.20215 22.7529C9.20215 24.3386 9.96409 25.8327 11.1516 26.7685C10.6254 28.1849 10.7283 29.8209 11.5749 31.2121C12.2682 32.3515 13.3391 33.1226 14.5266 33.4659C14.8447 34.6603 15.5929 35.7448 16.7186 36.4633C18.151 37.3763 19.8625 37.4861 21.3315 36.9141C22.2627 38.1885 23.766 39.0146 25.4638 39.0146C27.1616 39.0146 28.6443 38.1977 29.5779 36.9392C31.0377 37.5044 32.7378 37.3946 34.1632 36.493C35.3348 35.7517 36.1013 34.6122 36.401 33.3629C37.6412 33.0265 38.7555 32.2257 39.4625 31.0336C40.2702 29.6676 40.3709 28.0796 39.8721 26.6953C41.007 25.7572 41.7278 24.3386 41.7278 22.7529H41.7301Z" fill="white"/>
<path d="M24.3994 42.3692C25.14 42.3692 25.7403 41.7689 25.7403 41.0283C25.7403 40.2878 25.14 39.6875 24.3994 39.6875C23.6589 39.6875 23.0586 40.2878 23.0586 41.0283C23.0586 41.7689 23.6589 42.3692 24.3994 42.3692Z" fill="white"/>
<path d="M22.7959 44.4376C23.2787 44.4376 23.67 44.0463 23.67 43.5635C23.67 43.0808 23.2787 42.6895 22.7959 42.6895C22.3132 42.6895 21.9219 43.0808 21.9219 43.5635C21.9219 44.0463 22.3132 44.4376 22.7959 44.4376Z" fill="white"/>
<path d="M24.9255 31.9697C24.5823 31.9239 24.2368 31.8873 23.8958 31.8278C22.0928 31.5189 20.5277 30.7249 19.1869 29.4848C19.1434 29.4436 19.0999 29.4024 19.0542 29.3635C19.045 29.3566 19.0336 29.3521 19.0016 29.3337C18.8849 29.5076 18.7682 29.6838 18.6492 29.86C18.5439 30.0133 18.4455 30.1712 18.3288 30.3153C18.155 30.5281 17.9193 30.5876 17.663 30.5098C17.409 30.432 17.2534 30.249 17.2237 29.9744C17.2168 29.9218 17.21 29.8669 17.21 29.8142C17.2168 28.2011 17.2237 26.588 17.2328 24.9772C17.2328 24.6042 17.4319 24.3411 17.766 24.2953C17.901 24.277 18.0566 24.3022 18.1824 24.3571C19.6582 25.0138 21.1318 25.6773 22.6053 26.3432C22.9234 26.4873 23.0698 26.7344 23.0309 27.0388C22.9943 27.3294 22.793 27.5284 22.4543 27.5925C22.2164 27.6382 21.9738 27.6726 21.7336 27.7115L21.713 27.7595C21.9876 27.9311 22.253 28.121 22.539 28.2721C24.9026 29.5214 27.6667 29.1804 29.6596 27.3888C30.282 26.8305 30.7739 26.167 31.1172 25.4027C31.2796 25.0435 31.4604 24.7026 31.815 24.4921C32.3779 24.1557 33.0689 24.2152 33.554 24.6408C34.0459 25.071 34.2061 25.7551 33.9361 26.3592C32.7852 28.9356 30.87 30.6746 28.1884 31.5555C27.5042 31.7797 26.7949 31.901 26.0741 31.9445C26.0261 31.9468 25.9803 31.9605 25.9346 31.9697H24.9278H24.9255Z" fill="black"/>
<path d="M31.9252 16.1956C32.122 15.9004 32.3142 15.6121 32.5064 15.3261C32.6574 15.1018 32.8542 14.9668 33.1379 14.9897C33.4331 15.0149 33.6642 15.23 33.7054 15.5229C33.7145 15.5823 33.7237 15.6418 33.7214 15.7013C33.7145 17.319 33.71 18.939 33.6985 20.5567C33.6985 20.9251 33.4926 21.1905 33.1562 21.234C33.0212 21.2523 32.8656 21.2226 32.7398 21.1676C31.2685 20.5132 29.8018 19.852 28.3329 19.1907C28.0057 19.0443 27.8569 18.7903 27.8981 18.4814C27.9393 18.1885 28.1361 17.9986 28.4793 17.9322C28.7173 17.8865 28.9575 17.8545 29.1978 17.8156C29.2024 17.7995 29.2069 17.7835 29.2115 17.7675C28.9392 17.5982 28.6784 17.4106 28.3969 17.2595C25.2142 15.5572 21.2992 16.8751 19.7913 20.1609C19.6014 20.5773 19.368 20.9388 18.931 21.1265C18.359 21.3713 17.7297 21.2477 17.2904 20.8061C16.8602 20.3737 16.739 19.7307 16.9929 19.161C18.0981 16.6875 19.9012 14.9279 22.4753 14.0722C25.7473 12.983 28.7447 13.5848 31.4241 15.7585C31.5912 15.8935 31.7468 16.0423 31.9206 16.1979L31.9252 16.1956Z" fill="black"/>
</svg>
