<svg width="51" height="51" viewBox="0 0 51 51" fill="none" xmlns="http://www.w3.org/2000/svg">
<path d="M25.4658 50.4072C39.2729 50.4072 50.4658 39.2143 50.4658 25.4072C50.4658 11.6001 39.2729 0.407227 25.4658 0.407227C11.6587 0.407227 0.46582 11.6001 0.46582 25.4072C0.46582 39.2143 11.6587 50.4072 25.4658 50.4072Z" fill="black"/>
<path d="M8.82846 37.3786C11.2768 36.5846 13.0066 34.9875 14.8096 33.4614C16.2877 32.2098 18.0198 31.2854 19.9899 31.1938C21.2026 31.1366 22.4359 31.4364 23.6555 31.608C24.6828 31.7521 25.6988 32.0633 26.7261 32.0931C29.2637 32.1663 31.8035 32.0908 34.341 32.1411C34.9908 32.1548 35.6796 32.3127 36.2607 32.5919C36.5765 32.7452 36.9014 33.3126 36.8648 33.6513C36.8259 33.9968 36.3957 34.4796 36.0479 34.5711C35.2174 34.7908 34.3341 34.8228 33.4715 34.9166C30.6274 35.2278 27.7833 35.5275 24.9414 35.8502C24.525 35.8982 24.1108 36.0058 23.715 36.1453C23.5662 36.198 23.3535 36.4542 23.3832 36.5503C23.4404 36.7288 23.6303 36.9004 23.8088 36.9896C23.9461 37.0583 24.1497 37.0079 24.319 36.9874C27.2501 36.6098 30.1812 36.2231 33.1123 35.8525C34.0001 35.7403 34.9039 35.7266 35.7779 35.5527C37.0456 35.2987 37.6885 34.6237 37.7068 33.7016C37.7274 32.6697 37.0913 31.8963 35.9084 31.5142C35.6956 31.4455 35.4805 31.3883 35.1304 31.2877C36.0159 30.5577 36.8991 29.8278 37.7846 29.0979C38.5717 28.4481 39.3428 27.6312 40.2924 27.2285C40.5395 27.1233 40.8072 27.0409 41.0749 27.0706C41.3426 27.1004 41.6081 27.2629 41.6927 27.5168C41.6447 27.375 42.4798 27.0455 42.5851 27.0157C42.9306 26.9151 43.3173 26.8853 43.6674 26.9814C44.3813 27.1805 44.5392 27.7296 44.2531 28.3817C43.9282 29.1254 43.5026 29.8484 43.0015 30.4868C39.7844 34.6123 35.8031 37.9118 31.5243 40.8589C30.1423 41.8107 28.5383 41.9434 26.8634 41.6711C24.6371 41.3119 22.3924 41.0648 20.1524 40.7948C19.5369 40.7216 18.9099 40.733 18.2876 40.7216C16.6195 40.6941 15.0796 41.8565 13.9104 42.9388C12.97 42.0693 12.2195 41.0831 11.3545 40.1381C10.5102 39.2183 9.6682 38.2962 8.82617 37.3763L8.82846 37.3786Z" fill="white"/>
<path d="M29.5472 8.48633H21.5777C16.6628 8.48633 12.6426 12.5066 12.6426 17.4214C12.6426 22.3363 16.6628 26.3566 21.5777 26.3566H24.3326C25.0465 27.6082 26.0532 29.0611 27.3552 30.212C27.687 30.5049 28.1926 30.1983 28.0759 29.7727C27.8357 28.8918 27.5794 27.6585 27.5588 26.3566H29.5449C34.4598 26.3566 38.4823 22.3363 38.4823 17.4214C38.4823 12.5066 34.4598 8.48633 29.5449 8.48633H29.5472Z" fill="white"/>
</svg>
