<svg width="64" height="80" viewBox="0 0 64 80" fill="none" xmlns="http://www.w3.org/2000/svg">
<path d="M31.2089 53.8318C31.5994 54.2223 32.2326 54.2223 32.6231 53.8318L38.9871 47.4678C39.3776 47.0773 39.3776 46.4442 38.9871 46.0536C38.5966 45.6631 37.9634 45.6631 37.5729 46.0536L31.916 51.7105L26.2592 46.0536C25.8686 45.6631 25.2355 45.6631 24.8449 46.0536C24.4544 46.4442 24.4544 47.0773 24.8449 47.4678L31.2089 53.8318ZM32.916 53.1247V0.402344H30.916V53.1247H32.916Z" fill="white"/>
<path d="M4.63996 73.265C3.86529 73.265 3.24929 73.0737 2.79196 72.691C2.33463 72.3083 2.10596 71.753 2.10596 71.025C2.10596 70.3157 2.32996 69.7697 2.77796 69.387C3.23529 69.0043 3.85596 68.813 4.63996 68.813H7.07596V68.085C7.07596 66.881 6.41796 66.279 5.10196 66.279C4.54196 66.279 4.07063 66.3957 3.68796 66.629C3.31463 66.853 3.01129 67.1657 2.77796 67.567L2.06396 66.937C2.30663 66.4797 2.67996 66.097 3.18396 65.789C3.68796 65.4717 4.34596 65.313 5.15796 65.313C5.96063 65.313 6.60929 65.481 7.10396 65.817C7.14129 65.3317 7.40263 65.089 7.88796 65.089H9.74996V66.125H7.49596C7.96263 66.5917 8.19596 67.2263 8.19596 68.029V73.125H7.07596V69.611H4.89196C4.38796 69.611 3.99596 69.7183 3.71596 69.933C3.43596 70.1477 3.29596 70.451 3.29596 70.843V71.165C3.29596 71.585 3.42196 71.907 3.67396 72.131C3.93529 72.3457 4.28529 72.453 4.72396 72.453C4.85463 72.453 4.96196 72.4483 5.04596 72.439C5.13929 72.4297 5.21396 72.4203 5.26996 72.411L5.36796 73.181C5.31196 73.209 5.20463 73.2277 5.04596 73.237C4.89663 73.2557 4.76129 73.265 4.63996 73.265ZM7.63629 63.745C7.85096 63.745 8.01896 63.689 8.14029 63.577C8.26162 63.465 8.32229 63.3157 8.32229 63.129V62.849C8.32229 62.6623 8.26162 62.513 8.14029 62.401C8.01896 62.289 7.85096 62.233 7.63629 62.233C7.42162 62.233 7.25362 62.289 7.13229 62.401C7.01096 62.513 6.95029 62.6623 6.95029 62.849V63.129C6.95029 63.3157 7.01096 63.465 7.13229 63.577C7.25362 63.689 7.42162 63.745 7.63629 63.745ZM7.63629 64.487C7.16029 64.487 6.78229 64.3517 6.50229 64.081C6.22229 63.8103 6.08229 63.4463 6.08229 62.989C6.08229 62.5317 6.22229 62.1677 6.50229 61.897C6.78229 61.6263 7.16029 61.491 7.63629 61.491C8.11229 61.491 8.49029 61.6263 8.77029 61.897C9.05029 62.1677 9.19029 62.5317 9.19029 62.989C9.19029 63.4463 9.05029 63.8103 8.77029 64.081C8.49029 64.3517 8.11229 64.487 7.63629 64.487ZM14.3179 67.875C14.3179 66.8017 13.7626 66.265 12.6519 66.265C12.2039 66.265 11.8352 66.363 11.5459 66.559C11.2659 66.755 11.0279 67.0163 10.8319 67.343L10.1459 66.741C10.3606 66.3303 10.6732 65.9897 11.0839 65.719C11.5039 65.4483 12.0499 65.313 12.7219 65.313C13.5992 65.313 14.2712 65.5277 14.7379 65.957C15.2046 66.3863 15.4379 66.993 15.4379 67.777V73.125H14.3179V67.875ZM17.6835 68.337C17.6835 67.8797 17.7581 67.4643 17.9075 67.091C18.0661 66.7177 18.2901 66.4003 18.5795 66.139C18.8688 65.8683 19.2188 65.663 19.6295 65.523C20.0401 65.383 20.5021 65.313 21.0155 65.313C21.5195 65.313 21.9768 65.383 22.3875 65.523C22.7981 65.663 23.1481 65.8683 23.4375 66.139C23.7268 66.4003 23.9508 66.7177 24.1095 67.091C24.2681 67.4643 24.3475 67.8797 24.3475 68.337V73.125H23.2275V68.449C23.2275 67.749 23.0315 67.2123 22.6395 66.839C22.2568 66.4657 21.7155 66.279 21.0155 66.279C20.3155 66.279 19.7695 66.4657 19.3775 66.839C18.9948 67.2123 18.8035 67.749 18.8035 68.449V70.269H18.8735C18.9388 70.0917 19.0275 69.9237 19.1395 69.765C19.2515 69.597 19.3915 69.4523 19.5595 69.331C19.7275 69.2003 19.9235 69.0977 20.1475 69.023C20.3808 68.9483 20.6468 68.911 20.9455 68.911H21.4075V70.031H20.7635C20.1661 70.031 19.6901 70.1477 19.3355 70.381C18.9808 70.6143 18.8035 70.9363 18.8035 71.347V73.125H17.6835V68.337ZM23.1668 63.983C22.7468 63.983 22.4388 63.8803 22.2428 63.675C22.0468 63.4697 21.9488 63.199 21.9488 62.863V61.995H23.0688V63.017H26.6388V63.983H23.1668ZM34.3399 73.293C33.9105 73.293 33.5232 73.2323 33.1779 73.111C32.8325 72.9803 32.5339 72.7983 32.2819 72.565C32.0392 72.3223 31.8525 72.0377 31.7219 71.711C31.5912 71.3843 31.5259 71.0157 31.5259 70.605V68.505C31.5259 67.777 31.3392 67.2263 30.9659 66.853C30.5925 66.4703 30.0932 66.279 29.4679 66.279C28.9172 66.279 28.4319 66.4097 28.0119 66.671C27.6012 66.9323 27.3305 67.2917 27.1999 67.749L27.8859 68.029C28.0912 68.113 28.2359 68.211 28.3199 68.323C28.4132 68.435 28.4599 68.5937 28.4599 68.799V72.145H29.3559V73.125H28.5439C28.1425 73.125 27.8392 73.0177 27.6339 72.803C27.4379 72.5883 27.3399 72.3037 27.3399 71.949V68.757L26.1499 68.253C26.1779 67.8237 26.2805 67.4317 26.4579 67.077C26.6352 66.713 26.8685 66.4003 27.1579 66.139C27.4565 65.8777 27.7972 65.677 28.1799 65.537C28.5719 65.3877 28.9965 65.313 29.4539 65.313C30.4899 65.313 31.2785 65.5883 31.8199 66.139C32.3705 66.6803 32.6459 67.4223 32.6459 68.365V70.619C32.6459 71.1697 32.7999 71.5897 33.1079 71.879C33.4252 72.1683 33.8359 72.313 34.3399 72.313C34.8532 72.313 35.2639 72.1683 35.5719 71.879C35.8799 71.5897 36.0339 71.1697 36.0339 70.619V65.481H37.1539V70.605C37.1539 71.0157 37.0885 71.3843 36.9579 71.711C36.8272 72.0377 36.6359 72.3223 36.3839 72.565C36.1412 72.7983 35.8472 72.9803 35.5019 73.111C35.1565 73.2323 34.7692 73.293 34.3399 73.293ZM32.7579 76.373C32.3379 76.373 32.0299 76.2703 31.8339 76.065C31.6379 75.869 31.5399 75.603 31.5399 75.267V74.385H32.6599V75.421H37.1539V76.373H32.7579ZM41.9981 73.293C41.1861 73.293 40.5514 73.0363 40.0941 72.523C39.6368 72.0097 39.4081 71.2863 39.4081 70.353V65.481H40.5281V70.213C40.5281 71.6317 41.1348 72.341 42.3481 72.341C42.5814 72.341 42.8148 72.3083 43.0481 72.243C43.2814 72.1777 43.4868 72.0797 43.6641 71.949C43.8414 71.8183 43.9861 71.655 44.0981 71.459C44.2101 71.263 44.2661 71.0343 44.2661 70.773V65.481H45.3861V72.145H46.2821V73.125H45.4561C45.0828 73.125 44.8074 73.013 44.6301 72.789C44.4621 72.565 44.3641 72.2803 44.3361 71.935H44.2801C44.1308 72.3643 43.8508 72.7003 43.4401 72.943C43.0388 73.1763 42.5581 73.293 41.9981 73.293ZM43.1858 63.017H44.2498V62.499C44.2498 62.2563 44.1985 62.0883 44.0958 61.995C43.9838 61.8923 43.8018 61.841 43.5498 61.841H43.1858V61.001H43.9698C44.3898 61.001 44.7118 61.0943 44.9358 61.281C45.1505 61.4677 45.2578 61.715 45.2578 62.023C45.2578 62.191 45.2158 62.3683 45.1318 62.555C45.0478 62.7417 44.9171 62.877 44.7398 62.961V63.017H47.1898V63.857H43.1858V63.017ZM50.9083 73.293C50.4603 73.293 50.0403 73.2277 49.6483 73.097C49.2563 72.9663 48.9157 72.7797 48.6263 72.537C48.337 72.285 48.1083 71.991 47.9403 71.655C47.7723 71.3097 47.6883 70.927 47.6883 70.507V69.793C47.6883 69.513 47.7443 69.2983 47.8563 69.149C47.9683 68.9903 48.2063 68.911 48.5703 68.911H50.0543V69.877H48.8223V70.451C48.8223 70.7777 48.8737 71.0623 48.9763 71.305C49.0883 71.5477 49.2377 71.7483 49.4243 71.907C49.611 72.0563 49.835 72.1683 50.0963 72.243C50.367 72.3177 50.6563 72.355 50.9643 72.355C51.6643 72.355 52.2103 72.1403 52.6023 71.711C52.9943 71.2817 53.1903 70.6797 53.1903 69.905V68.757C53.1903 67.973 52.9757 67.3663 52.5463 66.937C52.1263 66.4983 51.5383 66.279 50.7823 66.279C50.2037 66.279 49.7043 66.3957 49.2843 66.629C48.8643 66.8623 48.533 67.175 48.2903 67.567L47.5623 66.923C47.8237 66.4657 48.2203 66.083 48.7523 65.775C49.2937 65.467 49.989 65.313 50.8383 65.313C51.9677 65.313 52.8403 65.6677 53.4563 66.377C54.0817 67.077 54.3943 68.0523 54.3943 69.303C54.3943 69.9097 54.3197 70.4603 54.1703 70.955C54.021 71.4497 53.797 71.8697 53.4983 72.215C53.209 72.5603 52.845 72.8263 52.4063 73.013C51.977 73.1997 51.4777 73.293 50.9083 73.293ZM59.2035 73.293C58.2702 73.293 57.5422 73.0923 57.0195 72.691C56.5062 72.2897 56.2495 71.725 56.2495 70.997C56.2495 70.5303 56.3849 70.1477 56.6555 69.849C56.9262 69.541 57.2669 69.331 57.6775 69.219V69.149C57.2202 69.0463 56.8562 68.8363 56.5855 68.519C56.3242 68.1923 56.1935 67.7863 56.1935 67.301C56.1935 66.7037 56.3755 66.223 56.7395 65.859C57.1129 65.495 57.6262 65.313 58.2795 65.313C58.4755 65.313 58.6762 65.3317 58.8815 65.369C59.0962 65.397 59.2922 65.4577 59.4695 65.551L59.2315 66.405C58.9702 66.3023 58.7229 66.251 58.4895 66.251C58.0789 66.251 57.7662 66.363 57.5515 66.587C57.3462 66.8017 57.2435 67.0817 57.2435 67.427C57.2435 67.5763 57.2622 67.7257 57.2995 67.875C57.3369 68.0243 57.4069 68.1597 57.5095 68.281C57.6122 68.393 57.7522 68.4863 57.9295 68.561C58.1162 68.6357 58.3589 68.673 58.6575 68.673H59.4695V69.471H58.6575C58.3029 69.471 58.0042 69.5737 57.7615 69.779C57.5282 69.9843 57.4115 70.283 57.4115 70.675V71.025C57.4115 71.445 57.5655 71.7717 57.8735 72.005C58.1815 72.229 58.6249 72.341 59.2035 72.341C59.8849 72.341 60.4169 72.1683 60.7995 71.823C61.1915 71.4683 61.3875 70.9597 61.3875 70.297V65.481H62.5075V70.465C62.5075 70.8943 62.4282 71.2863 62.2695 71.641C62.1202 71.9863 61.9009 72.2803 61.6115 72.523C61.3222 72.7657 60.9722 72.957 60.5615 73.097C60.1602 73.2277 59.7075 73.293 59.2035 73.293Z" fill="white"/>
</svg>
