<svg width="19" height="115" viewBox="0 0 19 115" fill="none" xmlns="http://www.w3.org/2000/svg">
<path d="M8.40276 54.3875C8.79328 54.778 9.42645 54.778 9.81697 54.3875L16.1809 48.0235C16.5715 47.633 16.5715 46.9998 16.1809 46.6093C15.7904 46.2188 15.1572 46.2188 14.7667 46.6093L9.10986 52.2661L3.45301 46.6093C3.06248 46.2188 2.42932 46.2188 2.0388 46.6093C1.64827 46.9998 1.64827 47.633 2.0388 48.0235L8.40276 54.3875ZM10.1099 53.6804V0.958008H8.10986V53.6804H10.1099Z" fill="white"/>
<path d="M12.2299 111.489C12.2299 112.153 12.0659 112.681 11.7379 113.073C11.4099 113.465 10.9339 113.661 10.3099 113.661C9.70186 113.661 9.23386 113.469 8.90586 113.085C8.57786 112.693 8.41386 112.161 8.41386 111.489L8.41386 109.401L7.78986 109.401C6.75786 109.401 6.24186 109.965 6.24186 111.093C6.24186 111.573 6.34186 111.977 6.54186 112.305C6.73386 112.625 7.00186 112.885 7.34586 113.085L6.80586 113.697C6.41386 113.489 6.08586 113.169 5.82186 112.737C5.54986 112.305 5.41386 111.741 5.41386 111.045C5.41386 110.357 5.55786 109.801 5.84586 109.377C5.42986 109.345 5.22186 109.121 5.22186 108.705L5.22186 107.109L6.10986 107.109L6.10986 109.041C6.50986 108.641 7.05386 108.441 7.74186 108.441L12.1099 108.441L12.1099 109.401L9.09786 109.401L9.09786 111.273C9.09786 111.705 9.18986 112.041 9.37386 112.281C9.55786 112.521 9.81786 112.641 10.1539 112.641L10.4299 112.641C10.7899 112.641 11.0659 112.533 11.2579 112.317C11.4419 112.093 11.5339 111.793 11.5339 111.417C11.5339 111.305 11.5299 111.213 11.5219 111.141C11.5139 111.061 11.5059 110.997 11.4979 110.949L12.1579 110.865C12.1819 110.913 12.1979 111.005 12.2059 111.141C12.2219 111.269 12.2299 111.385 12.2299 111.489ZM4.06986 108.92C4.06986 108.736 4.02186 108.592 3.92586 108.488C3.82986 108.384 3.70186 108.332 3.54186 108.332L3.30186 108.332C3.14186 108.332 3.01386 108.384 2.91786 108.488C2.82186 108.592 2.77386 108.736 2.77386 108.92C2.77386 109.104 2.82186 109.248 2.91786 109.352C3.01386 109.456 3.14186 109.508 3.30186 109.508L3.54186 109.508C3.70186 109.508 3.82986 109.456 3.92586 109.352C4.02186 109.248 4.06986 109.104 4.06986 108.92ZM4.70586 108.92C4.70586 109.328 4.58986 109.652 4.35786 109.892C4.12586 110.132 3.81386 110.252 3.42186 110.252C3.02986 110.252 2.71786 110.132 2.48586 109.892C2.25386 109.652 2.13786 109.328 2.13786 108.92C2.13786 108.512 2.25386 108.188 2.48586 107.948C2.71786 107.708 3.02986 107.588 3.42186 107.588C3.81386 107.588 4.12586 107.708 4.35786 107.948C4.58986 108.188 4.70586 108.512 4.70586 108.92ZM7.60986 103.193C6.68986 103.193 6.22986 103.669 6.22986 104.621C6.22986 105.005 6.31386 105.321 6.48186 105.569C6.64986 105.809 6.87386 106.013 7.15386 106.181L6.63786 106.769C6.28586 106.585 5.99386 106.317 5.76186 105.965C5.52986 105.605 5.41386 105.137 5.41386 104.561C5.41386 103.809 5.59786 103.233 5.96586 102.833C6.33386 102.433 6.85386 102.233 7.52586 102.233L12.1099 102.233L12.1099 103.193L7.60986 103.193ZM8.00586 100.309C7.61386 100.309 7.25786 100.245 6.93786 100.117C6.61786 99.9806 6.34586 99.7886 6.12186 99.5406C5.88986 99.2926 5.71386 98.9926 5.59386 98.6406C5.47386 98.2886 5.41386 97.8926 5.41386 97.4526C5.41386 97.0206 5.47386 96.6286 5.59386 96.2766C5.71386 95.9246 5.88986 95.6246 6.12186 95.3766C6.34586 95.1286 6.61786 94.9366 6.93786 94.8006C7.25786 94.6646 7.61386 94.5966 8.00586 94.5966L12.1099 94.5966L12.1099 95.5566L8.10186 95.5566C7.50186 95.5566 7.04186 95.7246 6.72186 96.0606C6.40186 96.3886 6.24186 96.8526 6.24186 97.4526C6.24186 98.0526 6.40186 98.5206 6.72186 98.8566C7.04186 99.1846 7.50186 99.3486 8.10186 99.3486L9.66186 99.3486L9.66186 99.2886C9.50986 99.2326 9.36586 99.1566 9.22986 99.0606C9.08586 98.9646 8.96186 98.8446 8.85786 98.7006C8.74586 98.5566 8.65786 98.3886 8.59386 98.1966C8.52986 97.9966 8.49786 97.7686 8.49786 97.5126L8.49786 97.1166L9.45786 97.1166L9.45786 97.6686C9.45786 98.1806 9.55786 98.5886 9.75786 98.8926C9.95786 99.1966 10.2339 99.3486 10.5859 99.3486L12.1099 99.3486L12.1099 100.309L8.00586 100.309ZM4.27386 95.6086C4.27386 95.9686 4.18586 96.2326 4.00986 96.4006C3.83386 96.5686 3.60186 96.6526 3.31386 96.6526L2.56986 96.6526L2.56986 95.6926L3.44586 95.6926L3.44586 92.6326L4.27386 92.6326L4.27386 95.6086ZM12.2539 86.0316C12.2539 86.3996 12.2019 86.7316 12.0979 87.0276C11.9859 87.3236 11.8299 87.5796 11.6299 87.7956C11.4219 88.0036 11.1779 88.1636 10.8979 88.2756C10.6179 88.3876 10.3019 88.4436 9.94986 88.4436L8.14986 88.4436C7.52586 88.4436 7.05386 88.6036 6.73386 88.9236C6.40586 89.2436 6.24186 89.6716 6.24186 90.2076C6.24186 90.6796 6.35386 91.0956 6.57786 91.4556C6.80186 91.8076 7.10986 92.0396 7.50186 92.1516L7.74186 91.5636C7.81386 91.3876 7.89786 91.2636 7.99386 91.1916C8.08986 91.1116 8.22586 91.0716 8.40186 91.0716L11.2699 91.0716L11.2699 90.3036L12.1099 90.3036L12.1099 90.9996C12.1099 91.3436 12.0179 91.6036 11.8339 91.7796C11.6499 91.9476 11.4059 92.0316 11.1019 92.0316L8.36586 92.0316L7.93386 93.0516C7.56586 93.0276 7.22986 92.9396 6.92586 92.7876C6.61386 92.6356 6.34586 92.4356 6.12186 92.1876C5.89786 91.9316 5.72586 91.6396 5.60586 91.3116C5.47786 90.9756 5.41386 90.6116 5.41386 90.2196C5.41386 89.3316 5.64986 88.6556 6.12186 88.1916C6.58586 87.7196 7.22186 87.4836 8.02986 87.4836L9.96186 87.4836C10.4339 87.4836 10.7939 87.3516 11.0419 87.0876C11.2899 86.8156 11.4139 86.4636 11.4139 86.0316C11.4139 85.5916 11.2899 85.2396 11.0419 84.9756C10.7939 84.7116 10.4339 84.5796 9.96186 84.5796L5.55786 84.5796L5.55786 83.6196L9.94986 83.6196C10.3019 83.6196 10.6179 83.6756 10.8979 83.7876C11.1779 83.8996 11.4219 84.0636 11.6299 84.2796C11.8299 84.4876 11.9859 84.7396 12.0979 85.0356C12.2019 85.3316 12.2539 85.6636 12.2539 86.0316ZM14.8939 87.3876C14.8939 87.7476 14.8059 88.0116 14.6299 88.1796C14.4619 88.3476 14.2339 88.4316 13.9459 88.4316L13.1899 88.4316L13.1899 87.4716L14.0779 87.4716L14.0779 83.6196L14.8939 83.6196L14.8939 87.3876ZM12.2539 79.4675C12.2539 80.1635 12.0339 80.7075 11.5939 81.0995C11.1539 81.4915 10.5339 81.6875 9.73386 81.6875L5.55786 81.6875L5.55786 80.7275L9.61386 80.7275C10.8299 80.7275 11.4379 80.2075 11.4379 79.1675C11.4379 78.9675 11.4099 78.7675 11.3539 78.5675C11.2979 78.3675 11.2139 78.1915 11.1019 78.0395C10.9899 77.8875 10.8499 77.7635 10.6819 77.6675C10.5139 77.5715 10.3179 77.5235 10.0939 77.5235L5.55786 77.5235L5.55786 76.5635L11.2699 76.5635L11.2699 75.7955L12.1099 75.7955L12.1099 76.5035C12.1099 76.8235 12.0139 77.0595 11.8219 77.2115C11.6299 77.3555 11.3859 77.4395 11.0899 77.4635L11.0899 77.5115C11.4579 77.6395 11.7459 77.8795 11.9539 78.2315C12.1539 78.5755 12.2539 78.9875 12.2539 79.4675ZM3.44586 78.4494L3.44586 77.5374L3.00186 77.5374C2.79386 77.5374 2.64986 77.5814 2.56986 77.6694C2.48186 77.7654 2.43786 77.9214 2.43786 78.1374L2.43786 78.4494L1.71786 78.4494L1.71786 77.7774C1.71786 77.4174 1.79786 77.1414 1.95786 76.9494C2.11786 76.7654 2.32986 76.6734 2.59386 76.6734C2.73786 76.6734 2.88986 76.7094 3.04986 76.7814C3.20986 76.8534 3.32586 76.9654 3.39786 77.1174L3.44586 77.1174L3.44586 75.0174L4.16586 75.0174L4.16586 78.4494L3.44586 78.4494ZM12.2539 71.8301C12.2539 72.2141 12.1979 72.5741 12.0859 72.9101C11.9739 73.2461 11.8139 73.5381 11.6059 73.7861C11.3899 74.0341 11.1379 74.2301 10.8499 74.3741C10.5539 74.5181 10.2259 74.5901 9.86586 74.5901L9.25386 74.5901C9.01386 74.5901 8.82986 74.5421 8.70186 74.4461C8.56586 74.3501 8.49786 74.1461 8.49786 73.8341L8.49786 72.5621L9.32586 72.5621L9.32586 73.6181L9.81786 73.6181C10.0979 73.6181 10.3419 73.5741 10.5499 73.4861C10.7579 73.3901 10.9299 73.2621 11.0659 73.1021C11.1939 72.9421 11.2899 72.7501 11.3539 72.5261C11.4179 72.2941 11.4499 72.0461 11.4499 71.7821C11.4499 71.1821 11.2659 70.7141 10.8979 70.3781C10.5299 70.0421 10.0139 69.8741 9.34986 69.8741L8.36586 69.8741C7.69386 69.8741 7.17386 70.0581 6.80586 70.4261C6.42986 70.7861 6.24186 71.2901 6.24186 71.9381C6.24186 72.4341 6.34186 72.8621 6.54186 73.2221C6.74186 73.5821 7.00986 73.8661 7.34586 74.0741L6.79386 74.6981C6.40186 74.4741 6.07386 74.1341 5.80986 73.6781C5.54586 73.2141 5.41386 72.6181 5.41386 71.8901C5.41386 70.9221 5.71786 70.1741 6.32586 69.6461C6.92586 69.1101 7.76186 68.8421 8.83386 68.8421C9.35386 68.8421 9.82586 68.9061 10.2499 69.0341C10.6739 69.1621 11.0339 69.3541 11.3299 69.6101C11.6259 69.8581 11.8539 70.1701 12.0139 70.5461C12.1739 70.9141 12.2539 71.3421 12.2539 71.8301ZM12.2539 64.7199C12.2539 65.5199 12.0819 66.1439 11.7379 66.5919C11.3939 67.0319 10.9099 67.2519 10.2859 67.2519C9.88586 67.2519 9.55786 67.1359 9.30186 66.9039C9.03786 66.6719 8.85786 66.3799 8.76186 66.0279L8.70186 66.0279C8.61386 66.4199 8.43386 66.7319 8.16186 66.9639C7.88186 67.1879 7.53386 67.2999 7.11786 67.2999C6.60586 67.2999 6.19386 67.1439 5.88186 66.8319C5.56986 66.5119 5.41386 66.0719 5.41386 65.5119C5.41386 65.3439 5.42986 65.1719 5.46186 64.9959C5.48586 64.8119 5.53786 64.6439 5.61786 64.4919L6.34986 64.6959C6.26186 64.9199 6.21786 65.1319 6.21786 65.3319C6.21786 65.6839 6.31386 65.9519 6.50586 66.1359C6.68986 66.3119 6.92986 66.3999 7.22586 66.3999C7.35386 66.3999 7.48186 66.3839 7.60986 66.3519C7.73786 66.3199 7.85386 66.2599 7.95786 66.1719C8.05386 66.0839 8.13386 65.9639 8.19786 65.8119C8.26186 65.6519 8.29386 65.4439 8.29386 65.1879L8.29386 64.4919L8.97786 64.4919L8.97786 65.1879C8.97786 65.4919 9.06586 65.7479 9.24186 65.9559C9.41786 66.1559 9.67386 66.2559 10.0099 66.2559L10.3099 66.2559C10.6699 66.2559 10.9499 66.1239 11.1499 65.8599C11.3419 65.5959 11.4379 65.2159 11.4379 64.7199C11.4379 64.1359 11.2899 63.6799 10.9939 63.3519C10.6899 63.0159 10.2539 62.8479 9.68586 62.8479L5.55786 62.8479L5.55786 61.8879L9.82986 61.8879C10.1979 61.8879 10.5339 61.9559 10.8379 62.0919C11.1339 62.2199 11.3859 62.4079 11.5939 62.6559C11.8019 62.9039 11.9659 63.2039 12.0859 63.5559C12.1979 63.8999 12.2539 64.2879 12.2539 64.7199Z" fill="white"/>
</svg>
