<svg width="31" height="31" viewBox="0 0 31 31" fill="none" xmlns="http://www.w3.org/2000/svg">
<path d="M15.3252 0.385254C7.0752 0.385254 0.325195 7.13525 0.325195 15.3853C0.325195 23.6353 7.0752 30.3853 15.3252 30.3853C23.5752 30.3853 30.3252 23.6353 30.3252 15.3853C30.3252 7.13525 23.5752 0.385254 15.3252 0.385254ZM22.5252 11.7103C22.5252 11.8603 22.5252 12.0103 22.5252 12.1603C22.5252 17.0353 18.7752 22.7353 11.9502 22.7353C9.8502 22.7353 7.9002 22.1353 6.2502 21.0853C6.5502 21.0853 6.8502 21.1603 7.1502 21.1603C8.8752 21.1603 10.4502 20.5603 11.7252 19.5853C10.0752 19.5853 8.7252 18.4603 8.2752 17.0353C8.5002 17.1103 8.7252 17.1103 8.9502 17.1103C9.3252 17.1103 9.6252 17.0353 9.9252 16.9603C8.2002 16.5853 6.9252 15.0853 6.9252 13.3603C6.9252 13.3603 6.9252 13.3603 6.9252 13.2853C7.4502 13.5853 7.9752 13.7353 8.5752 13.7353C7.6752 12.9853 7.0752 11.8603 7.0752 10.5853C7.0752 9.91025 7.2252 9.23525 7.6002 8.71025C9.4002 10.9603 12.1752 12.4603 15.2502 12.6103C15.1752 12.3103 15.1752 12.0853 15.1752 11.7853C15.1752 9.76025 16.8252 8.11025 18.8502 8.11025C19.9002 8.11025 20.8752 8.56025 21.5502 9.31025C22.3752 9.16025 23.2002 8.86025 23.8752 8.41025C23.5752 9.31025 22.9752 9.98525 22.2252 10.4353C22.9752 10.3603 23.7252 10.1353 24.3252 9.83525C23.8752 10.5103 23.2002 11.1853 22.5252 11.7103Z" fill="black"/>
</svg>
