<svg width="21" height="20" viewBox="0 0 21 20" fill="none" xmlns="http://www.w3.org/2000/svg">
<path d="M8.15906 4.82928C8.23546 5.51688 8.15906 6.15497 8.15906 6.88268C8.15906 7.88476 8.15906 8.88683 8.15906 9.88891C8.15906 11.5483 8.15906 13.1666 8.15906 14.8008" stroke="#090909" stroke-linecap="round"/>
<path d="M5.5 5C7.5 5 9.41979 5 9.83577 5C11 5 12.1739 5.57553 12.517 6.15882C12.7617 6.57482 13.0601 7.00763 13.0784 7.5179C13.1044 8.24848 12.688 8.48257 12.288 9.00255C11.7233 9.73672 10.5956 9.71793 9.83577 10.0219C9.8186 10.0287 10.9124 10.4693 11 10.5C11.5397 10.6889 12.0052 10.7441 12.517 11C13.1973 11.3401 13.8022 11.5 13.8022 12.9912C13.5 15 11.6002 15.2328 10.5 15.5C9.49665 15.7437 7.98505 15.7315 6.96249 15.7315" stroke="#090909" stroke-linecap="round"/>
<path d="M10.7067 2.98828C10.6439 5.11542 10.6268 7.22701 10.6539 9.35252C10.6727 10.829 11.0048 12.261 10.9611 13.7418C10.9415 14.4062 10.9798 15.1031 10.9611 15.7366C10.9482 16.1728 10.9728 16.6135 10.9611 17.0117" stroke="#090909" stroke-linecap="round"/>
<rect x="1" y="0.5" width="19" height="19" rx="9.5" stroke="#090909"/>
</svg>
